<?xml version="1.0" standalone="no"?>
<!DOCTYPE svg PUBLIC "-//W3C//DTD SVG 20010904//EN"
 "http://www.w3.org/TR/2001/REC-SVG-20010904/DTD/svg10.dtd">
<svg version="1.0" xmlns="http://www.w3.org/2000/svg"
 width="900.000000pt" height="424.000000pt" viewBox="0 -65 900.000000 424.000000"
 preserveAspectRatio="xMidYMid meet">
<metadata>
Created by potrace 1.10, written by Peter Selinger 2001-2011
</metadata>
<g transform="translate(0.000000,294.000000) scale(0.100000,-0.100000)"
fill="#000000" stroke="none">
<path d="M5277 2896 c-4 -25 -7 -321 -7 -660 0 -338 -2 -621 -4 -628 -3 -7 -7
-252 -11 -544 -6 -476 -5 -532 9 -537 16 -6 385 -11 391 -5 6 5 35 1789 35
2111 l0 307 -204 0 -203 0 -6 -44z"/>
<path d="M1078 2664 c-54 -7 -107 -18 -117 -24 -11 -5 -29 -10 -40 -10 -43 0
-244 -100 -325 -161 -55 -42 -158 -144 -211 -209 -64 -78 -154 -241 -198 -355
-47 -124 -63 -175 -90 -280 -64 -250 -85 -421 -92 -765 -4 -182 -3 -238 7
-250 12 -14 35 -26 118 -62 19 -8 53 -23 75 -32 51 -23 102 -45 140 -60 17 -7
47 -20 68 -29 20 -9 53 -23 72 -31 20 -9 51 -22 70 -31 19 -8 50 -21 68 -29
43 -19 99 -43 139 -61 69 -30 132 -35 237 -20 56 9 112 20 127 25 14 6 42 10
63 10 51 0 74 26 76 88 2 26 6 139 9 252 7 211 26 412 52 535 8 39 14 79 14
89 0 11 7 44 16 75 9 31 23 81 31 111 41 146 122 317 196 415 129 170 295 270
512 309 188 34 341 8 485 -82 55 -35 180 -156 203 -198 40 -73 111 -222 118
-248 4 -17 12 -44 17 -61 29 -89 42 -135 42 -151 0 -11 6 -50 14 -89 27 -130
46 -319 47 -475 2 -161 8 -196 35 -207 9 -3 52 3 95 13 68 16 81 22 86 43 10
38 -6 446 -23 586 -27 230 -60 375 -126 555 -40 106 -126 243 -210 331 -130
137 -261 204 -548 282 -30 9 -80 22 -110 30 -30 9 -84 23 -120 32 -36 9 -87
23 -115 30 -27 8 -77 21 -110 29 -33 8 -87 21 -120 29 -250 63 -469 79 -677
51z"/>
<path d="M7228 2295 c-3 -3 6 -36 19 -73 14 -37 28 -80 33 -97 4 -16 14 -46
21 -65 21 -60 36 -104 51 -145 26 -71 40 -109 48 -140 5 -16 18 -55 30 -85 12
-30 25 -69 30 -86 4 -18 11 -37 15 -44 4 -7 11 -26 16 -44 4 -17 31 -96 59
-176 28 -80 55 -158 60 -175 5 -16 25 -75 45 -130 20 -55 40 -114 44 -131 5
-18 12 -37 16 -44 4 -7 11 -26 15 -44 5 -17 18 -56 29 -86 12 -30 21 -62 21
-72 0 -10 -65 -146 -145 -304 -80 -157 -145 -294 -145 -304 0 -15 10 -20 43
-24 73 -9 229 -20 296 -20 l64 -1 138 270 c75 149 190 374 254 500 64 127 173
338 240 470 68 132 162 317 210 410 47 94 91 179 97 190 6 11 15 27 19 35 4 8
33 66 64 128 32 65 62 112 71 112 8 0 14 6 14 13 0 11 -41 17 -167 28 -93 7
-195 13 -227 14 l-59 0 -88 -170 c-48 -93 -126 -246 -174 -340 -92 -182 -100
-195 -115 -222 -6 -10 -13 -25 -16 -33 -3 -8 -10 -23 -15 -33 -6 -10 -29 -55
-52 -100 -23 -45 -47 -88 -54 -95 -17 -18 -33 -6 -33 23 0 13 -6 39 -14 57 -7
18 -21 58 -30 88 -8 30 -29 96 -44 145 -16 50 -44 137 -61 195 -18 58 -39 120
-47 138 -8 18 -14 41 -14 52 0 11 -6 34 -14 52 -8 18 -29 80 -46 138 -37 123
-60 182 -75 192 -5 4 -44 8 -85 8 -41 0 -122 7 -180 15 -114 16 -154 18 -162
10z"/>
<path d="M4295 2271 c-188 -24 -385 -120 -506 -248 -125 -131 -173 -226 -210
-413 -36 -179 -8 -377 81 -564 59 -124 196 -270 305 -326 22 -12 47 -25 55
-29 22 -13 87 -36 151 -55 78 -23 354 -22 447 0 233 57 418 184 526 363 38 62
39 86 3 96 -30 8 -164 62 -271 109 l-39 17 -71 -73 c-108 -110 -220 -161 -356
-160 -158 0 -285 65 -362 184 -55 87 -71 146 -71 272 -1 155 34 250 128 349
98 103 287 144 445 98 93 -27 128 -48 186 -108 28 -29 57 -53 64 -53 6 0 81
42 166 92 104 63 154 99 154 110 0 23 -142 168 -205 210 -67 44 -151 84 -227
108 -71 23 -287 34 -393 21z"/>
<path d="M6363 2185 c-207 -41 -370 -165 -464 -355 -16 -32 -29 -67 -29 -77 0
-18 29 -36 105 -67 35 -15 86 -36 135 -58 60 -26 91 -38 100 -38 5 0 19 21 32
47 29 59 100 132 156 161 34 18 59 22 128 22 96 0 151 -19 202 -69 36 -36 75
-136 70 -182 l-3 -34 -160 -11 c-209 -14 -312 -35 -455 -93 -133 -53 -230
-136 -286 -242 -28 -52 -28 -58 -28 -199 0 -143 1 -146 33 -212 77 -159 227
-240 451 -240 177 -1 334 56 450 162 68 62 77 65 94 33 18 -35 91 -105 131
-126 44 -24 133 -47 179 -47 82 1 215 46 284 98 39 28 39 40 3 132 -42 107
-53 135 -58 158 -7 31 -28 38 -58 18 -34 -22 -78 -20 -101 5 -36 40 -45 105
-54 394 -9 311 -17 360 -74 479 -70 144 -193 254 -351 312 -113 41 -307 54
-432 29z m440 -977 c30 -23 -10 -130 -74 -198 -86 -90 -165 -125 -284 -125
-105 0 -134 14 -159 80 -20 52 -20 78 0 117 43 83 127 108 439 132 22 1 45 3
51 4 5 1 18 -4 27 -10z"/>
<path d="M2130 2079 c-19 -5 -57 -13 -85 -18 -199 -37 -379 -196 -488 -431
-46 -99 -83 -199 -97 -260 -4 -19 -12 -55 -18 -80 -46 -189 -71 -415 -79 -695
-7 -284 -11 -273 89 -255 120 22 152 34 159 60 4 14 7 79 8 145 3 425 74 836
170 996 12 19 25 45 31 58 15 33 129 144 170 165 127 64 264 65 400 3 25 -11
72 -48 106 -81 147 -148 217 -408 229 -857 2 -108 8 -204 11 -213 10 -25 36
-27 114 -7 52 13 76 24 81 37 3 11 5 93 2 184 -10 443 -88 788 -227 1003 -36
55 -128 150 -167 172 -125 71 -298 102 -409 74z"/>
<path d="M2155 1726 c-5 -2 -37 -12 -70 -22 -50 -14 -71 -28 -125 -83 -36 -36
-76 -89 -89 -116 -13 -28 -29 -62 -37 -77 -8 -14 -14 -33 -14 -42 0 -8 -6 -30
-14 -48 -48 -114 -91 -461 -98 -799 -3 -153 -5 -152 187 -114 39 8 108 21 155
30 47 9 117 22 155 30 39 8 108 21 155 30 47 9 117 23 155 31 39 8 78 14 88
14 32 0 38 44 32 254 -14 491 -95 755 -265 860 -51 32 -182 63 -215 52z"/>
</g>
</svg>
