<svg width="208" height="56" viewBox="0 0 208 56" fill="none" xmlns="http://www.w3.org/2000/svg">
<path d="M200.418 21.0463C204.724 21.0463 207.406 24.6986 207.406 29.2436H207.42C207.42 33.8153 204.738 37.4398 200.432 37.4398C197.616 37.4398 195.448 35.9796 194.771 33.8695V42.6615C194.771 42.7512 194.735 42.8374 194.672 42.9008C194.608 42.9639 194.523 42.9993 194.434 42.9994H190.886C190.796 42.9994 190.71 42.964 190.646 42.9008C190.583 42.8374 190.547 42.7512 190.547 42.6615V21.8305C190.547 21.7408 190.583 21.6547 190.646 21.5912C190.71 21.528 190.796 21.4926 190.886 21.4926H194.42C194.509 21.4926 194.596 21.5279 194.659 21.5912C194.723 21.6547 194.759 21.7408 194.759 21.8305V24.644C195.435 22.534 197.602 21.0464 200.418 21.0463ZM15.207 13.0014C17.6381 12.9676 20.0193 13.6899 22.0215 15.0678C22.2495 15.2055 22.4554 15.3772 22.6309 15.5775C22.7605 15.7352 22.8472 15.9243 22.8818 16.1254C22.8952 16.1727 22.9226 16.2154 22.96 16.2475C23.4372 16.7073 23.9448 17.1435 24.3848 17.6371C25.084 18.4003 25.5898 19.3201 25.8604 20.3188C25.9843 20.7222 26.0283 21.1467 25.9883 21.5668C25.9481 21.9867 25.8248 22.3944 25.627 22.767C25.2959 23.3236 24.8306 23.7888 24.2734 24.1195C23.6533 24.541 22.9085 24.7431 22.1602 24.6918C21.4607 24.6598 20.7969 24.3746 20.292 23.89C19.7614 23.3393 19.1954 22.8226 18.5986 22.3441C18.2062 22.0467 17.8 21.7664 17.3906 21.4994C16.8954 21.2022 16.3465 21.0042 15.7754 20.9174C15.126 20.7988 14.4646 20.7592 13.8057 20.7992C12.3647 20.8267 10.9698 21.3153 9.82715 22.1928C8.97104 22.839 8.26662 23.6644 7.7627 24.6107C7.47739 25.1848 7.29656 25.8052 7.23047 26.4428C7.17535 26.8362 7.14376 27.2331 7.13574 27.6303C7.16769 28.7623 7.46337 29.8715 7.99902 30.8695C8.39484 31.6438 8.92221 32.3438 9.55664 32.9389C10.1468 33.4686 10.8004 33.924 11.5029 34.2924C12.3024 34.7253 13.1857 34.9822 14.0928 35.0463C15.284 35.1705 16.4875 34.9898 17.5898 34.5219C18.1181 34.2738 18.605 33.9455 19.0322 33.5482C19.7702 32.9142 20.3893 32.1531 20.8604 31.3022C21.0363 30.9946 21.1587 30.6569 21.3076 30.3324C21.3516 30.2344 21.4024 30.1361 21.4531 30.0414C21.4841 29.9955 21.5206 29.9537 21.5615 29.9164L21.6016 30.0111C21.6418 30.1194 21.6516 30.2373 21.6289 30.352C21.3446 31.6426 20.6526 32.8079 19.6553 33.6762C19.6006 33.7175 19.5542 33.7695 19.5195 33.8285C19.5071 33.8555 19.501 33.8849 19.501 33.9145C19.501 33.9443 19.5071 33.9744 19.5195 34.0014C19.5394 34.0244 19.5647 34.0424 19.5928 34.0541C19.621 34.0659 19.6521 34.0709 19.6826 34.0688C19.8269 34.0303 19.9664 33.976 20.0986 33.9066C20.6835 33.5748 21.2006 33.1354 21.6221 32.6117C21.876 32.3041 22.1268 31.996 22.3672 31.6781C22.8198 31.0503 23.1545 30.3453 23.3555 29.5981C23.5382 28.9929 23.6942 28.381 23.8838 27.7758C23.9612 27.5538 24.0554 27.3373 24.165 27.1293C24.2091 27.0654 24.2604 27.0062 24.3174 26.9535H24.3643C24.4116 27.1124 24.4691 27.2649 24.5029 27.4272C24.5915 27.9376 24.6039 28.4588 24.54 28.9731C24.4698 29.642 24.3329 30.3021 24.1309 30.9438C23.9893 31.3382 23.7985 31.7136 23.5625 32.06C22.9693 33.0365 22.2685 33.9439 21.4736 34.765C20.8881 35.3299 20.2546 35.8435 19.5811 36.3002C19.532 36.3253 19.4874 36.3591 19.4492 36.3988C19.4098 36.4462 19.3893 36.5062 19.3916 36.5678C19.4057 36.5951 19.426 36.6185 19.4512 36.6361C19.4765 36.6539 19.5064 36.6656 19.5371 36.6693C19.6786 36.6684 19.82 36.6497 19.957 36.6147C20.5824 36.4346 21.1672 36.1363 21.6797 35.7357C23.1136 34.6798 24.2785 33.3009 25.0791 31.7113C25.5891 30.6745 25.9192 29.5587 26.0566 28.4115C26.139 27.6872 26.1476 26.9558 26.0811 26.2299C26.023 25.8579 26.0338 25.4784 26.1143 25.1107C26.1356 25.0265 26.1667 24.945 26.2061 24.8676C26.2975 24.6917 26.4296 24.6816 26.5176 24.8676C26.6101 25.0435 26.6785 25.2311 26.7207 25.4252C26.9065 26.3554 26.9649 27.3066 26.8936 28.2523C26.7622 29.789 26.3751 31.2929 25.749 32.7025C25.1149 34.154 24.1628 35.4449 22.9629 36.4799C22.5736 36.8181 22.2007 37.1561 21.7979 37.474C21.3141 37.8253 20.7958 38.1269 20.251 38.3734C19.0487 38.9701 17.7691 39.3974 16.4492 39.642C15.6403 39.7822 14.8185 39.8365 13.998 39.8041C13.5953 39.8041 13.1888 39.7766 12.7861 39.7563C11.8754 39.7059 10.9764 39.5237 10.1182 39.2152C8.87543 38.7833 7.68072 38.2238 6.55371 37.5453C5.23925 36.7402 4.1187 35.6557 3.27051 34.3695C2.85177 33.7647 2.48628 33.1242 2.17969 32.4555C2.16405 32.4159 2.13883 32.3806 2.10645 32.3529C2.07414 32.3255 2.03557 32.3065 1.99414 32.2973C1.77152 32.242 1.56365 32.1367 1.3877 31.9897C1.21176 31.8426 1.07232 31.6568 0.978516 31.4477C0.727516 30.8353 0.531857 30.2016 0.395508 29.5541C0.147461 28.5089 0.0151788 27.4397 0 26.3656C0.010168 25.6855 0.0717659 25.0069 0.185547 24.3363C0.314051 23.4252 0.541728 22.5307 0.863281 21.6684C1.14767 20.9137 1.54707 20.207 2.04785 19.5746C2.3389 19.2095 2.57997 18.801 2.86426 18.4291C4.66904 16.0465 7.25255 14.3711 10.166 13.6947C10.7279 13.5595 11.2898 13.4167 11.8584 13.3119C12.3661 13.2172 12.8743 13.1571 13.3955 13.1098C13.9981 13.0557 14.601 13.0081 15.207 13.0014ZM127.457 20.8637C132.44 20.8638 135.202 24.6244 135.202 29.2504V30.102C135.206 30.1474 135.2 30.1938 135.185 30.2367C135.17 30.2793 135.145 30.3179 135.112 30.35C135.081 30.3823 135.041 30.4077 134.998 30.4232C134.955 30.4387 134.909 30.444 134.863 30.4398H124.03C124.301 33.0368 126.143 33.9837 128.146 33.9838C128.857 34.0019 129.561 33.844 130.194 33.5229C130.828 33.2018 131.372 32.7281 131.776 32.1449C131.801 32.1093 131.834 32.0793 131.872 32.057C131.909 32.0346 131.951 32.0201 131.994 32.015C132.038 32.01 132.082 32.0137 132.124 32.0268C132.166 32.0398 132.204 32.0615 132.236 32.0902L134.606 34.2006C134.647 34.2282 134.68 34.2639 134.707 34.3051C134.733 34.3462 134.75 34.3919 134.758 34.4398C134.766 34.4879 134.763 34.5373 134.751 34.5844C134.739 34.6315 134.717 34.6757 134.688 34.7143C133.55 36.3645 131.14 37.6098 128.323 37.6098C123.124 37.6098 119.711 34.0386 119.711 29.2504C119.711 24.6243 122.772 20.8637 127.457 20.8637ZM46.4775 16.2914C50.242 16.2914 53.2219 17.5905 54.9824 20.1606C55.0337 20.2343 55.0567 20.3242 55.0469 20.4135C55.0369 20.503 54.9943 20.586 54.9277 20.6469L52.0566 23.1088C52.0232 23.1464 51.9815 23.1755 51.9346 23.1938C51.8875 23.2119 51.8363 23.2195 51.7861 23.2143C51.7358 23.2089 51.6869 23.1911 51.6445 23.1635C51.6024 23.1358 51.5668 23.0989 51.542 23.0551C50.9549 22.2587 50.1908 21.6093 49.3096 21.1586C48.4285 20.708 47.4546 20.4677 46.4648 20.4574C42.8628 20.4574 40.4522 23.1359 40.4521 26.8422C40.4521 30.5485 42.8628 33.227 46.4648 33.227V33.2133C47.4457 33.217 48.4143 32.9944 49.2949 32.5629C50.1758 32.1311 50.9445 31.5014 51.542 30.724C51.5642 30.6809 51.5977 30.6441 51.6377 30.6166C51.6776 30.5893 51.7235 30.5722 51.7715 30.5668C51.8197 30.5615 51.869 30.5683 51.9141 30.5863C51.959 30.6044 51.9992 30.6332 52.0303 30.6703L54.9277 33.0375C54.9949 33.098 55.0379 33.1812 55.0479 33.2709C55.0577 33.3604 55.0344 33.4504 54.9824 33.5238C53.4116 35.8504 50.242 37.4467 46.4775 37.4467C40.059 37.4465 35.8066 32.6585 35.8066 26.8422C35.8067 21.08 40.0455 16.2916 46.4775 16.2914ZM60.25 21.4926C60.3397 21.4927 60.4259 21.5279 60.4893 21.5912C60.5528 21.6547 60.5878 21.7408 60.5879 21.8305V31.0824C60.5879 32.7326 61.6173 33.7074 63.3506 33.7074C65.084 33.7074 66.0586 32.7327 66.0586 31.0824L66.0723 21.8305C66.0723 21.7408 66.1084 21.6547 66.1719 21.5912C66.2353 21.5279 66.3214 21.4926 66.4111 21.4926H69.9727C70.0623 21.4926 70.1485 21.5279 70.2119 21.5912C70.2754 21.6547 70.3115 21.7408 70.3115 21.8305V36.6557C70.3115 36.7453 70.2754 36.8315 70.2119 36.8949C70.1485 36.9583 70.0623 36.9935 69.9727 36.9936H66.4248C66.3366 36.9886 66.2529 36.9515 66.1904 36.8891C66.1281 36.8268 66.0908 36.7437 66.0859 36.6557V34.0854C65.463 36.0873 64.0007 37.4135 61.834 37.4135C58.8008 37.4135 56.3908 35.3573 56.3906 31.2455V21.8305C56.3907 21.7408 56.4258 21.6547 56.4893 21.5912C56.5527 21.5279 56.6388 21.4927 56.7285 21.4926H60.25ZM96.7031 21.4926C96.7933 21.4926 96.8797 21.528 96.9424 21.5912C97.0059 21.6547 97.0419 21.7408 97.042 21.8305V31.0824C97.042 32.7327 98.0709 33.7074 99.8047 33.7074C101.538 33.7074 102.513 32.7327 102.513 31.0824L102.526 21.8305C102.526 21.7408 102.562 21.6547 102.626 21.5912C102.69 21.528 102.776 21.4926 102.865 21.4926H106.426C106.516 21.4926 106.602 21.528 106.666 21.5912C106.729 21.6547 106.765 21.7408 106.765 21.8305V36.6557C106.765 36.7453 106.729 36.8315 106.666 36.8949C106.602 36.9582 106.516 36.9936 106.426 36.9936H102.878C102.79 36.9885 102.706 36.9514 102.645 36.8891C102.582 36.8268 102.545 36.7436 102.54 36.6557V34.0854C101.918 36.0873 100.454 37.4135 98.2881 37.4135C95.2548 37.4134 92.8449 35.3572 92.8447 31.2455V21.8305C92.8448 21.7408 92.8798 21.6547 92.9434 21.5912C93.0069 21.528 93.0934 21.4926 93.1836 21.4926H96.7031ZM148.852 16.724H154.241C154.337 16.7204 154.43 16.7476 154.508 16.8012C154.586 16.8548 154.645 16.9324 154.675 17.0219L162.258 36.6898C162.273 36.7261 162.279 36.7652 162.274 36.8041C162.271 36.8432 162.258 36.8815 162.237 36.9145C162.216 36.9475 162.187 36.9748 162.153 36.9945C162.119 37.0142 162.08 37.0257 162.041 37.0277H157.817C157.714 37.0308 157.612 36.9992 157.528 36.9379C157.445 36.8767 157.385 36.7893 157.356 36.6898L155.663 32.1986H147.322L145.67 36.6898C145.642 36.7894 145.582 36.8767 145.498 36.9379C145.415 36.9991 145.313 37.0307 145.21 37.0277H141.066C141.027 37.0257 140.988 37.0142 140.954 36.9945C140.921 36.9748 140.891 36.9475 140.87 36.9145C140.849 36.8815 140.836 36.8432 140.833 36.8041C140.829 36.7653 140.835 36.7261 140.85 36.6898L148.392 17.0219C148.423 16.9276 148.487 16.8464 148.57 16.7924C148.654 16.7386 148.753 16.7144 148.852 16.724ZM86.5303 16.7045C86.6197 16.7045 86.706 16.7398 86.7695 16.8031C86.8331 16.8665 86.8691 16.9527 86.8691 17.0424V21.5063H90.0918C90.1812 21.5063 90.2675 21.5415 90.3311 21.6049C90.3946 21.6683 90.4307 21.7544 90.4307 21.8441V24.7934C90.4306 24.8828 90.3944 24.9683 90.3311 25.0316C90.2675 25.0951 90.1813 25.1313 90.0918 25.1313H86.8691V32.1313C86.8692 32.9562 87.1939 33.2943 88.1689 33.2943H90.1367C90.1817 33.2903 90.228 33.2964 90.2705 33.3119C90.3138 33.3275 90.3523 33.352 90.3848 33.3842C90.4174 33.4164 90.4411 33.4556 90.457 33.4984C90.4721 33.5413 90.4787 33.5869 90.4746 33.6322V36.6762C90.4746 36.7658 90.4385 36.8521 90.375 36.9154C90.3116 36.9785 90.2259 37.0139 90.1367 37.0141H87.2383C84.1236 37.0141 82.6338 35.3098 82.6338 32.3881V25.1244H80.3594C80.2696 25.1244 80.1826 25.0892 80.1191 25.0258C80.0557 24.9625 80.0206 24.8761 80.0205 24.7865L79.9795 21.8168C79.9796 21.7272 80.0157 21.6409 80.0791 21.5775C80.1425 21.5143 80.2288 21.4789 80.3184 21.4789H82.5938V17.0424C82.5896 16.9969 82.5948 16.9505 82.6104 16.9076C82.6258 16.8648 82.6514 16.8265 82.6836 16.7943C82.7159 16.7621 82.7549 16.7366 82.7979 16.7211C82.8406 16.7057 82.8863 16.7004 82.9316 16.7045H86.5303ZM77.6748 15.6215C77.7201 15.6174 77.7658 15.6236 77.8086 15.6391C77.8514 15.6546 77.8906 15.6792 77.9229 15.7113C77.955 15.7435 77.9796 15.7829 77.9951 15.8256C78.0107 15.8685 78.0169 15.9149 78.0127 15.9604V36.6625C78.0127 36.7521 77.9775 36.8384 77.9141 36.9018C77.8507 36.9651 77.7644 37.0003 77.6748 37.0004H74.1025C74.0129 37.0004 73.9267 36.9651 73.8633 36.9018C73.7998 36.8384 73.7637 36.7521 73.7637 36.6625V15.9672C73.7596 15.9217 73.7657 15.8753 73.7812 15.8324C73.7968 15.7896 73.8222 15.7504 73.8545 15.7182C73.8867 15.6861 73.9259 15.6614 73.9688 15.6459C74.0116 15.6305 74.0572 15.6242 74.1025 15.6283L77.6748 15.6215ZM119.061 21.4926C119.151 21.4926 119.237 21.5278 119.301 21.5912C119.364 21.6547 119.399 21.7408 119.399 21.8305V25.2797C119.399 25.3693 119.364 25.4556 119.301 25.519C119.237 25.5823 119.151 25.6175 119.061 25.6176H117.652C115.757 25.6176 114.402 26.0245 114.402 28.1615V36.6557C114.402 36.7453 114.366 36.8315 114.303 36.8949C114.239 36.9582 114.153 36.9936 114.063 36.9936H110.57C110.48 36.9935 110.394 36.9583 110.33 36.8949C110.267 36.8315 110.231 36.7453 110.231 36.6557L110.219 21.8441C110.219 21.7544 110.254 21.6683 110.317 21.6049C110.381 21.5417 110.467 21.5064 110.557 21.5063H114.051C114.14 21.5063 114.227 21.5415 114.29 21.6049C114.354 21.6683 114.39 21.7545 114.39 21.8441V25.1176C115.04 22.5476 116.448 21.4926 118.723 21.4926H119.061ZM181.731 21.0463C184.751 21.0464 187.121 23.075 187.121 27.0785V36.6557C187.121 36.7453 187.085 36.8315 187.021 36.8949C186.958 36.9583 186.872 36.9935 186.782 36.9936H183.261C183.173 36.9886 183.089 36.9514 183.027 36.8891C182.965 36.8268 182.927 36.7437 182.923 36.6557V27.2143C182.923 25.6994 182.002 24.7524 180.432 24.7523C178.86 24.7523 177.993 25.6994 177.993 27.2143V36.6557C177.993 36.7453 177.958 36.8315 177.895 36.8949C177.831 36.9582 177.745 36.9936 177.654 36.9936H174.106C174.017 36.9934 173.931 36.9582 173.867 36.8949C173.804 36.8315 173.769 36.7452 173.769 36.6557V27.2143C173.769 25.6994 172.875 24.7523 171.276 24.7523C169.679 24.7524 168.84 25.6994 168.84 27.2143V36.6557C168.84 36.7453 168.803 36.8315 168.74 36.8949C168.677 36.9581 168.591 36.9935 168.501 36.9936H164.98C164.89 36.9936 164.804 36.9583 164.741 36.8949C164.678 36.8315 164.642 36.7453 164.642 36.6557L164.628 21.8305C164.628 21.7409 164.663 21.6547 164.727 21.5912C164.79 21.5279 164.877 21.4926 164.967 21.4926H168.487C168.578 21.4926 168.663 21.5279 168.727 21.5912C168.79 21.6547 168.826 21.7408 168.826 21.8305V24.4008C169.585 22.3989 170.587 21.0463 172.808 21.0463C173.858 21.0634 174.871 21.4426 175.673 22.1205C176.475 22.7986 177.017 23.7337 177.208 24.766C177.885 22.6965 179.186 21.0463 181.731 21.0463ZM198.848 24.7523C196.383 24.7523 194.759 26.5109 194.759 29.2162C194.759 31.9215 196.411 33.7074 198.848 33.7074C201.285 33.7074 202.91 31.9216 202.91 29.2436C202.91 26.5654 201.286 24.7524 198.848 24.7523ZM148.744 28.3305H154.215L151.476 20.9652L148.744 28.3305ZM127.483 24.4818C125.615 24.4819 124.369 25.5235 124.071 27.2143H130.924C130.625 25.537 129.379 24.4818 127.483 24.4818Z" fill="black"/>
</svg>
