<svg width="152" height="56" viewBox="0 0 152 56" fill="none" xmlns="http://www.w3.org/2000/svg">
<g clip-path="url(#clip0_6522_21752)">
<mask id="mask0_6522_21752" style="mask-type:luminance" maskUnits="userSpaceOnUse" x="0" y="12" width="152" height="32">
<path d="M151.667 12.7896H0V43.2104H151.667V12.7896Z" fill="white"/>
</mask>
<g mask="url(#mask0_6522_21752)">
<path d="M63.0183 19.9939C61.445 19.9939 59.9071 20.4604 58.599 21.3345C57.2909 22.2086 56.2713 23.4509 55.6693 24.9044C55.0672 26.3579 54.9097 27.9572 55.2166 29.5003C55.5235 31.0433 56.2811 32.4606 57.3936 33.5731C58.506 34.6856 59.9234 35.4431 61.4664 35.7501C63.0094 36.057 64.6088 35.8995 66.0623 35.2974C67.5158 34.6954 68.7581 33.6758 69.6322 32.3677C70.5062 31.0596 70.9727 29.5217 70.9727 27.9484C70.9727 25.8388 70.1347 23.8155 68.6429 22.3237C67.1512 20.832 65.1279 19.9939 63.0183 19.9939ZM63.0183 33.2684C61.966 33.2684 60.9375 32.9564 60.0626 32.3719C59.1877 31.7873 58.5059 30.9564 58.1032 29.9843C57.7005 29.0122 57.5952 27.9425 57.8005 26.9105C58.0057 25.8786 58.5124 24.9306 59.2564 24.1866C60.0005 23.4426 60.9484 22.9359 61.9804 22.7306C63.0124 22.5253 64.082 22.6307 65.0541 23.0334C66.0263 23.436 66.8571 24.1179 67.4417 24.9928C68.0263 25.8676 68.3383 26.8962 68.3383 27.9484C68.3355 29.3585 67.7741 30.7101 66.777 31.7072C65.7799 32.7043 64.4284 33.2657 63.0183 33.2684Z" fill="black"/>
<path d="M52.7623 14.584H50.8155C50.7248 14.5843 50.638 14.6205 50.574 14.6847C50.51 14.7489 50.474 14.8358 50.474 14.9265V21.9066C49.9388 21.2777 49.2687 20.7774 48.5136 20.443C47.7584 20.1086 46.9377 19.9486 46.1122 19.975C42.0948 19.975 39.2881 23.2177 39.2881 27.8605C39.2881 32.5902 41.9491 35.7743 45.9098 35.7743C46.786 35.8107 47.6588 35.6444 48.4602 35.2882C49.2615 34.932 49.9698 34.3955 50.5298 33.7206V35.0875C50.5301 35.1782 50.5663 35.265 50.6304 35.329C50.6946 35.3931 50.7816 35.429 50.8722 35.429H52.7641C52.8091 35.4291 52.8536 35.4204 52.8951 35.4033C52.9367 35.3862 52.9744 35.361 53.0062 35.3293C53.038 35.2976 53.0633 35.2599 53.0805 35.2184C53.0977 35.1769 53.1066 35.1324 53.1066 35.0875V14.9265C53.1066 14.8357 53.0705 14.7486 53.0063 14.6843C52.9421 14.6201 52.855 14.584 52.7641 14.584M50.5289 27.8614C50.5289 31.9016 48.2907 33.3413 46.1964 33.3413C43.6338 33.3413 41.9794 31.1902 41.9794 27.8614C41.9794 24.6518 43.7492 22.4099 46.2834 22.4099C49.2159 22.4099 50.5289 25.1475 50.5289 27.8614Z" fill="black"/>
<path d="M94.8192 14.584H92.8686C92.778 14.5843 92.6911 14.6205 92.6271 14.6847C92.5631 14.7489 92.5272 14.8358 92.5272 14.9265V21.9066C91.9919 21.2777 91.3219 20.7774 90.5667 20.443C89.8116 20.1086 88.9908 19.9486 88.1654 19.975C84.1479 19.975 81.3413 23.2177 81.3413 27.8605C81.3413 32.5902 84.0023 35.7743 87.9629 35.7743C88.8392 35.8107 89.712 35.6444 90.5133 35.2882C91.3147 34.932 92.023 34.3955 92.583 33.7206V35.0875C92.5832 35.1782 92.6194 35.265 92.6836 35.329C92.7478 35.3931 92.8347 35.429 92.9254 35.429H94.8173C94.8622 35.4291 94.9067 35.4204 94.9483 35.4033C94.9898 35.3862 95.0276 35.361 95.0594 35.3293C95.0912 35.2976 95.1164 35.2599 95.1337 35.2184C95.1509 35.1769 95.1597 35.1324 95.1597 35.0875V14.9265C95.1597 14.8357 95.1237 14.7486 95.0594 14.6843C94.9952 14.6201 94.9081 14.584 94.8173 14.584M92.582 27.8614C92.582 31.9016 90.3439 33.3413 88.2496 33.3413C85.687 33.3413 84.0325 31.1902 84.0325 27.8614C84.0325 24.6518 85.8024 22.4099 88.3366 22.4099C91.269 22.4099 92.582 25.1475 92.582 27.8614Z" fill="black"/>
<path d="M79.8089 33.1303C79.7695 33.0988 79.7236 33.0763 79.6746 33.0645C79.6255 33.0528 79.5745 33.052 79.5251 33.0622C79.3312 33.097 79.1346 33.1135 78.9376 33.1114C77.8555 33.1114 76.0393 32.6602 76.0393 29.6398V22.8119H79.3113C79.4021 22.8119 79.4892 22.7758 79.5534 22.7116C79.6176 22.6474 79.6537 22.5603 79.6537 22.4695V20.8349C79.6537 20.7441 79.6176 20.657 79.5534 20.5927C79.4892 20.5285 79.4021 20.4924 79.3113 20.4924H76.0393V16.6765C76.0394 16.6316 76.0306 16.587 76.0135 16.5455C75.9964 16.504 75.9713 16.4662 75.9396 16.4344C75.9079 16.4026 75.8702 16.3774 75.8287 16.3601C75.7872 16.3429 75.7427 16.334 75.6978 16.334H73.7727C73.7277 16.3339 73.6832 16.3427 73.6416 16.3599C73.6 16.377 73.5622 16.4022 73.5303 16.4341C73.4985 16.4659 73.4733 16.5037 73.4561 16.5453C73.439 16.5869 73.4302 16.6315 73.4303 16.6765V20.4924H71.8525C71.7617 20.4924 71.6746 20.5285 71.6103 20.5927C71.5461 20.657 71.51 20.7441 71.51 20.8349V22.4695C71.51 22.5603 71.5461 22.6474 71.6103 22.7116C71.6746 22.7758 71.7617 22.8119 71.8525 22.8119H73.4029V29.8403C73.4029 31.5553 73.9251 35.5463 78.7645 35.5463C79.0634 35.5498 79.3621 35.5286 79.6575 35.4829C79.7369 35.4691 79.8088 35.4278 79.8607 35.3662C79.9126 35.3046 79.9412 35.2267 79.9413 35.1462V33.3961C79.9412 33.3451 79.9296 33.2948 79.9075 33.2488C79.8854 33.2028 79.8533 33.1623 79.8136 33.1303" fill="black"/>
<path d="M132.478 33.1303C132.439 33.0988 132.393 33.0763 132.344 33.0645C132.295 33.0528 132.244 33.052 132.195 33.0622C132.001 33.097 131.804 33.1135 131.607 33.1114C130.525 33.1114 128.709 32.6602 128.709 29.6398V22.8119H131.981C132.072 22.8119 132.159 22.7758 132.223 22.7116C132.287 22.6474 132.323 22.5603 132.323 22.4695V20.8349C132.323 20.7441 132.287 20.657 132.223 20.5927C132.159 20.5285 132.072 20.4924 131.981 20.4924H128.709V16.6765C128.709 16.6316 128.7 16.587 128.683 16.5455C128.666 16.504 128.641 16.4662 128.609 16.4344C128.577 16.4026 128.54 16.3774 128.498 16.3601C128.457 16.3429 128.412 16.334 128.367 16.334H126.446C126.401 16.3339 126.356 16.3427 126.315 16.3599C126.273 16.377 126.235 16.4022 126.204 16.4341C126.172 16.4659 126.147 16.5037 126.129 16.5453C126.112 16.5869 126.104 16.6315 126.104 16.6765V20.4924H124.525C124.434 20.4924 124.347 20.5285 124.283 20.5927C124.219 20.657 124.182 20.7441 124.182 20.8349V22.4695C124.182 22.5603 124.219 22.6474 124.283 22.7116C124.347 22.7758 124.434 22.8119 124.525 22.8119H126.075V29.8403C126.075 31.5553 126.597 35.5463 131.437 35.5463C131.736 35.5498 132.035 35.5286 132.33 35.4829C132.409 35.4691 132.481 35.4278 132.533 35.3662C132.585 35.3046 132.614 35.2267 132.614 35.1462V33.3962C132.614 33.3451 132.602 33.2948 132.58 33.2488C132.558 33.2028 132.526 33.1623 132.486 33.1303" fill="black"/>
<path d="M140.69 19.9741C138.762 19.9274 136.874 20.5327 135.332 21.6919C135.271 21.745 135.23 21.8182 135.218 21.8984C135.205 21.9786 135.222 22.0607 135.264 22.1299L136.182 23.6216C136.207 23.6632 136.241 23.6988 136.282 23.7261C136.322 23.7533 136.368 23.7717 136.416 23.7798C136.464 23.788 136.513 23.7858 136.56 23.7733C136.607 23.7609 136.651 23.7385 136.689 23.7077C137.809 22.8852 139.156 22.431 140.545 22.408C142.728 22.408 143.789 23.5157 143.789 25.7945V25.8248H143.324C141.053 25.8248 134.148 25.8248 134.148 31.158C134.148 34.1851 136.787 35.7733 139.394 35.7733C140.264 35.7869 141.124 35.5918 141.903 35.2044C142.682 34.817 143.357 34.2485 143.87 33.5466V35.0866C143.87 35.1774 143.907 35.2645 143.971 35.3287C144.035 35.3929 144.122 35.429 144.213 35.429H146.077C146.168 35.429 146.255 35.3929 146.32 35.3287C146.384 35.2645 146.42 35.1774 146.42 35.0866V25.8513C146.42 22.0608 144.383 19.9741 140.685 19.9741M143.295 28.1159H143.785V28.3996C143.785 30.8251 142.148 33.4207 139.71 33.4207C137.739 33.4207 136.84 32.1853 136.84 31.0388C136.84 28.4441 140.289 28.1121 143.295 28.1121" fill="black"/>
<path d="M100.572 20.4915H98.6219C98.5313 20.4917 98.4444 20.5279 98.3804 20.5921C98.3164 20.6563 98.2804 20.7433 98.2804 20.8339V35.0894C98.2804 35.18 98.3164 35.267 98.3804 35.3312C98.4444 35.3954 98.5313 35.4316 98.6219 35.4318H100.572C100.617 35.4318 100.662 35.423 100.704 35.4058C100.745 35.3885 100.783 35.3633 100.815 35.3315C100.846 35.2997 100.872 35.262 100.889 35.2204C100.906 35.1789 100.915 35.1344 100.915 35.0894V20.8349C100.915 20.7899 100.906 20.7454 100.889 20.7038C100.872 20.6623 100.846 20.6245 100.815 20.5927C100.783 20.5609 100.745 20.5357 100.704 20.5185C100.662 20.5013 100.617 20.4915 100.572 20.4915Z" fill="black"/>
<path d="M121.988 20.4915H120.041C119.95 20.4917 119.864 20.5279 119.8 20.5921C119.736 20.6563 119.7 20.7433 119.7 20.8339V35.0894C119.7 35.18 119.736 35.267 119.8 35.3312C119.864 35.3954 119.95 35.4316 120.041 35.4318H121.992C122.082 35.4318 122.17 35.3957 122.234 35.3315C122.298 35.2673 122.334 35.1802 122.334 35.0894V20.8349C122.334 20.744 122.298 20.6569 122.234 20.5927C122.17 20.5285 122.082 20.4924 121.992 20.4924" fill="black"/>
<path d="M122.739 16.1505C122.739 16.492 122.638 16.8259 122.448 17.1099C122.259 17.3939 121.989 17.6153 121.674 17.7461C121.358 17.877 121.011 17.9113 120.676 17.8448C120.341 17.7783 120.034 17.6139 119.792 17.3725C119.551 17.1311 119.386 16.8235 119.319 16.4886C119.253 16.1537 119.287 15.8065 119.418 15.491C119.548 15.1755 119.769 14.9059 120.053 14.7161C120.337 14.5264 120.671 14.4251 121.013 14.4251C121.47 14.4259 121.909 14.6079 122.232 14.9312C122.556 15.2546 122.738 15.6931 122.739 16.1505Z" fill="black"/>
<path d="M101.323 16.1505C101.323 16.492 101.222 16.8259 101.032 17.1099C100.843 17.3939 100.573 17.6153 100.258 17.7461C99.9421 17.877 99.595 17.9113 99.2601 17.8448C98.9251 17.7783 98.6174 17.6139 98.3759 17.3725C98.1344 17.1311 97.9698 16.8235 97.9031 16.4886C97.8364 16.1537 97.8706 15.8065 98.0012 15.491C98.1319 15.1755 98.3531 14.9059 98.6371 14.7161C98.921 14.5264 99.2548 14.4251 99.5963 14.4251C100.054 14.4259 100.492 14.6079 100.816 14.9312C101.139 15.2546 101.322 15.6931 101.323 16.1505Z" fill="black"/>
<path d="M151.325 14.584H149.373C149.184 14.584 149.032 14.7959 149.032 15.057V34.9608C149.032 35.2218 149.185 35.4337 149.373 35.4337H151.324C151.513 35.4337 151.666 35.2218 151.666 34.9608V15.058C151.666 14.7959 151.513 14.585 151.324 14.585" fill="black"/>
<path d="M109.493 39.3963C112.067 39.3963 114.172 38.2555 114.172 35.2426V34.1605C114.172 33.6922 114.202 33.2249 114.202 33.2249H114.143C113.7 33.981 113.055 34.598 112.279 35.0062C111.504 35.4144 110.63 35.5976 109.756 35.5349C105.631 35.5349 103.145 32.2298 103.145 27.9598C103.145 23.7191 105.51 20.5596 109.609 20.5596C113.177 20.5596 114.259 22.7533 114.259 22.7533H114.318C114.298 22.598 114.288 22.4416 114.289 22.285V20.9427C114.289 20.8424 114.329 20.7461 114.4 20.6752C114.471 20.6042 114.567 20.5643 114.667 20.5643H116.623C116.724 20.5643 116.82 20.6042 116.891 20.6752C116.962 20.7461 117.002 20.8424 117.002 20.9427V35.096C117.002 39.98 113.288 41.852 109.544 41.852C107.919 41.835 106.316 41.4753 104.84 40.7963C104.743 40.7502 104.668 40.6684 104.63 40.568C104.592 40.4676 104.595 40.3565 104.637 40.2581L105.25 38.8022C105.271 38.7512 105.302 38.7049 105.342 38.666C105.381 38.6271 105.428 38.5965 105.479 38.5759C105.53 38.5553 105.585 38.5451 105.64 38.5459C105.696 38.5468 105.75 38.5587 105.801 38.5809C106.962 39.0952 108.215 39.3718 109.485 39.3944M114.223 27.9881C114.223 24.1277 112.351 23.0162 110.041 23.0162C107.468 23.0162 106.005 24.8883 106.005 27.9002C106.005 30.9707 107.642 33.0774 110.304 33.0774C112.351 33.0774 114.223 31.8476 114.223 27.9881Z" fill="black"/>
</g>
<path d="M17.5 28C17.5 26.8954 16.6046 26 15.5 26C14.3954 26 13.5 26.8954 13.5 28C13.5 29.1046 14.3954 30 15.5 30V33C12.7386 33 10.5 30.7614 10.5 28C10.5 25.2386 12.7386 23 15.5 23C18.2614 23 20.5 25.2386 20.5 28C20.5 30.7614 18.2614 33 15.5 33V30C16.6046 30 17.5 29.1046 17.5 28Z" fill="black"/>
<path d="M22.5 28C22.5 24.134 19.366 21 15.5 21C11.634 21 8.5 24.134 8.5 28C8.5 31.866 11.634 35 15.5 35V38C9.97715 38 5.5 33.5228 5.5 28C5.5 22.4772 9.97715 18 15.5 18C21.0228 18 25.5 22.4772 25.5 28C25.5 33.5228 21.0228 38 15.5 38V35C19.366 35 22.5 31.866 22.5 28Z" fill="black"/>
<path d="M27.5 28C27.5 21.3726 22.1274 16 15.5 16C8.87258 16 3.5 21.3726 3.5 28C3.5 34.6274 8.87258 40 15.5 40V43C7.21573 43 0.5 36.2843 0.5 28C0.5 19.7157 7.21573 13 15.5 13C23.7843 13 30.5 19.7157 30.5 28C30.5 36.2843 23.7843 43 15.5 43V40C22.1274 40 27.5 34.6274 27.5 28Z" fill="black"/>
</g>
<defs>
<clipPath id="clip0_6522_21752">
<rect width="151.667" height="30.4208" fill="white" transform="translate(0 12.7896)"/>
</clipPath>
</defs>
</svg>
