<svg width="136" height="56" viewBox="0 0 136 56" fill="none" xmlns="http://www.w3.org/2000/svg">
<g clip-path="url(#clip0_6522_21962)">
<path d="M40.7898 19.8514H44.7906V37.6107H40.7898V19.8514ZM40.6245 17.1277H44.9241V13.2588H40.6245V17.1277ZM56.6594 19.4826C53.9496 19.4826 52.3278 20.9319 51.202 22.614V19.8579H47.2013V37.6172H51.202V27.5956C51.202 24.8396 52.8238 23.1898 55.139 23.1898C57.4544 23.1898 58.879 24.7684 58.879 27.531V37.6237H62.8798V26.3211C62.8798 22.1805 60.5963 19.4956 56.6657 19.4956L56.6594 19.4826ZM118.521 21.8894C118.464 21.8053 118.413 21.7211 118.35 21.637C117.287 20.2331 115.64 19.4244 113.49 19.4244C110.781 19.4244 109.159 20.8736 108.033 22.5557V13H104.032V37.559H108.033V27.5374C108.033 27.1622 108.071 26.8063 108.135 26.4764L108.16 26.3341C108.198 26.1335 108.249 25.9459 108.306 25.7647C108.58 24.9301 109.057 24.2702 109.687 23.8238C109.998 23.5974 110.354 23.4292 110.736 23.3127C111.118 23.1963 111.538 23.138 111.977 23.138C112.148 23.138 112.314 23.1445 112.472 23.1639C112.791 23.1963 113.09 23.2674 113.363 23.3645C113.503 23.4162 113.63 23.468 113.757 23.5327C113.897 23.6038 114.031 23.6815 114.152 23.7721C114.177 23.7915 114.196 23.8109 114.222 23.8238C114.966 24.3737 115.449 25.2471 115.627 26.4052C115.678 26.7416 115.717 27.091 115.717 27.4727V37.5655H119.717V26.2629C119.717 24.5355 119.31 23.0669 118.56 21.9346C118.553 21.9217 118.547 21.9088 118.534 21.8958L118.521 21.8894ZM136 14.3069L125.582 18.771V14.915H121.581V32.642C121.581 35.6892 122.853 37.1514 124.812 37.6496C125.359 37.7919 125.963 37.8566 126.606 37.8566C127.293 37.8566 127.897 37.7854 128.45 37.6496C129.099 37.4943 129.678 37.2549 130.212 36.9508V33.6189C129.417 34.0201 128.622 34.2271 127.731 34.2271C126.377 34.2271 125.582 33.5866 125.582 32.008V23.1704L136 18.7192V14.3069ZM11.8051 28.0032H17.7267V32.4091C16.3019 33.4831 14.3175 34.1947 12.1358 34.1947C7.40998 34.1947 4.26789 30.6299 4.26789 25.7841V25.7194C4.26789 21.2101 7.51173 17.4123 11.7733 17.4123C14.7182 17.4123 16.4673 18.3893 18.2546 19.9355L20.837 16.8042C18.4581 14.7533 15.9776 13.6082 11.9386 13.6082C4.96117 13.6082 0 19.1915 0 25.7841V25.8488C0 32.7132 4.764 37.96 12.0022 37.96C16.1048 37.96 19.3741 36.278 21.6575 34.2918V24.3996H11.8051V27.9968V28.0032ZM38.5319 27.0587V37.5849H34.563V35.3981C33.3734 36.8473 31.5544 37.9536 28.9085 37.9536C25.6009 37.9536 22.6879 36.0386 22.6879 32.4673V32.4026C22.6879 28.469 25.6964 26.5864 29.7672 26.5864C31.8852 26.5864 33.2398 26.8904 34.5947 27.3239V26.9875C34.5947 24.529 33.0746 23.1833 30.2951 23.1833C28.3424 23.1833 26.8858 23.6232 25.3021 24.2961L24.208 21.0354C26.1288 20.162 28.0116 19.5538 30.8547 19.5538C36.0132 19.5538 38.5255 22.3099 38.5255 27.0522L38.5319 27.0587ZM34.6646 30.1576C33.6407 29.7565 32.2159 29.4524 30.6639 29.4524C28.1515 29.4524 26.6631 30.4941 26.6631 32.2085V32.2732C26.6631 33.9554 28.1515 34.8999 30.0343 34.8999C32.6802 34.8999 34.6646 33.386 34.6646 31.1669V30.1576ZM71.9308 27.1298C69.8828 26.457 67.9937 25.92 67.9937 24.639V24.5743C67.9937 23.5327 68.884 22.7887 70.4424 22.7887C71.8989 22.7887 73.6862 23.4292 75.3718 24.4708L76.9619 21.5788C75.111 20.3366 72.7259 19.5603 70.5443 19.5603C67.0714 19.5603 64.3299 21.6112 64.3299 24.9754V25.0401C64.3299 28.4367 67.205 29.5172 69.7873 30.2547C71.8353 30.8952 73.6927 31.3675 73.6927 32.7455V32.8102C73.6927 33.9877 72.7003 34.7253 70.983 34.7253C69.2657 34.7253 67.1477 33.9877 65.2649 32.5385L63.4776 35.2946C65.6592 37.0414 68.407 37.9536 70.8877 37.9536C74.5258 37.9536 77.3689 36.1033 77.3689 32.3703V32.3056C77.3689 29.1096 74.4941 27.9321 71.9435 27.1234L71.9308 27.1298ZM97.8944 19.7932H101.895V33.923C101.895 35.3399 101.717 36.5756 101.386 37.6496C101.017 38.8464 100.445 39.8364 99.6817 40.6126C98.0916 42.2302 95.6489 43 92.5071 43C89.632 43 86.9479 42.2624 84.7027 40.8779L86.1911 37.8177C88.042 38.9954 90.0264 39.7005 92.4115 39.7005C94.5868 39.7005 96.1578 38.9954 97.0548 37.6431C97.627 36.7761 97.9324 35.6439 97.9324 34.253V32.8749C96.4759 34.7899 94.6567 36.1357 91.782 36.1357C90.478 36.1357 89.2123 35.8122 88.08 35.217C88.01 35.1781 87.9401 35.1458 87.8701 35.107C87.5777 34.9452 87.2976 34.7641 87.0305 34.5635C85.1479 33.1531 83.8503 30.8499 83.8503 27.8286V27.7639C83.8503 27.2851 83.8949 26.8322 83.9522 26.3923C84.5627 21.9864 88.0863 19.4244 91.7883 19.4244C94.733 19.4244 96.5522 20.8025 97.9071 22.4522V19.7932H97.8944ZM97.9644 27.7833C97.9644 25.0595 95.7062 22.8534 92.9204 22.8534C90.1346 22.8534 87.8765 25.0595 87.8765 27.7833C87.8765 30.507 90.1346 32.7132 92.9204 32.7132C95.7062 32.7132 97.9644 30.507 97.9644 27.7833ZM78.3294 17.0694H82.629V13.2006H78.3294V17.0694ZM78.4949 37.6107H82.4955V19.8514H78.4949V37.6107Z" fill="black"/>
</g>
<defs>
<clipPath id="clip0_6522_21962">
<rect width="136" height="30" fill="white" transform="translate(0 13)"/>
</clipPath>
</defs>
</svg>
