<svg width="172" height="56" viewBox="0 0 172 56" fill="none" xmlns="http://www.w3.org/2000/svg">
<g clip-path="url(#clip0_6522_21936)">
<mask id="mask0_6522_21936" style="mask-type:luminance" maskUnits="userSpaceOnUse" x="0" y="17" width="172" height="22">
<path d="M171.896 17.9545H0.104248V38.0078H171.896V17.9545Z" fill="white"/>
</mask>
<g mask="url(#mask0_6522_21936)">
<path d="M106.119 27.6182C107.929 26.9284 108.98 25.4832 108.98 23.4105C108.98 20.2539 106.546 18.3159 102.667 18.3159H93.5614V37.6465H102.897C106.973 37.6465 109.21 35.7742 109.21 32.2234C109.21 29.8223 108.159 28.2785 106.119 27.6215V27.6182ZM98.9846 22.3594H102.01C103.061 22.3594 103.652 23.0492 103.652 24.2678C103.652 25.4865 103.061 26.2058 102.076 26.2058H98.9846V22.3594ZM102.404 33.5472H98.9846V29.6679H102.338C103.389 29.6679 103.981 30.4234 103.981 31.6059C103.981 32.7884 103.389 33.5439 102.404 33.5439V33.5472Z" fill="black"/>
<path d="M120.746 17.9545C114.994 17.9545 110.652 22.2937 110.652 27.9828C110.652 33.672 114.991 38.0079 120.746 38.0079C126.501 38.0079 130.804 33.6687 130.804 27.9828C130.804 22.2969 126.497 17.9545 120.746 17.9545ZM120.746 32.9132C118.016 32.9132 116.144 30.8438 116.144 27.9828C116.144 25.1218 118.016 23.0853 120.746 23.0853C123.475 23.0853 125.315 25.1251 125.315 27.9828C125.315 30.8405 123.439 32.9132 120.746 32.9132Z" fill="black"/>
<path d="M142.737 17.9545C136.986 17.9545 132.643 22.2937 132.643 27.9828C132.643 33.672 136.982 38.0079 142.737 38.0079C148.492 38.0079 152.795 33.6687 152.795 27.9828C152.795 22.2969 148.492 17.9545 142.737 17.9545ZM142.737 32.9132C140.008 32.9132 138.135 30.8438 138.135 27.9828C138.135 25.1218 140.008 23.0853 142.737 23.0853C145.467 23.0853 147.306 25.1251 147.306 27.9828C147.306 30.8405 145.431 32.9132 142.737 32.9132Z" fill="black"/>
<path d="M165.32 27.5525L171.568 18.3159H165.484L160.356 27.027V18.3159H154.868V37.6465H160.356V28.8369L165.484 37.6465H171.896L165.32 27.5525Z" fill="black"/>
<path d="M9.96502 25.4503H5.59303V18.3159H0.104252V37.6465H5.59303V30.4135H9.96502V37.6465H15.4571V18.3159H9.96502V25.4503Z" fill="black"/>
<path d="M27.6172 17.9545C21.8656 17.9545 17.5232 22.2937 17.5232 27.9828C17.5232 33.672 21.8623 38.0079 27.6172 38.0079C33.372 38.0079 37.6783 33.6687 37.6783 27.9828C37.6783 22.2969 33.372 17.9545 27.6172 17.9545ZM27.6172 32.9132C24.8875 32.9132 23.0152 30.8438 23.0152 27.9828C23.0152 25.1218 24.8908 23.0853 27.6172 23.0853C30.3435 23.0853 32.1863 25.1251 32.1863 27.9828C32.1863 30.8405 30.314 32.9132 27.6172 32.9132Z" fill="black"/>
<path d="M51.7534 30.3708L49.4606 25.2204L46.1627 18.3159H39.7476V37.6465H44.8062L44.6747 26.1861L46.57 30.2822L50.2392 37.6465H56.6443V18.3159H51.6219L51.7534 30.3708Z" fill="black"/>
<path d="M65.4212 30.0949H72.9498V25.7558H65.3554V22.9178H73.1797V18.3159H59.9324V37.6465H73.252V33.0118H65.4212V30.0949Z" fill="black"/>
<path d="M83.4019 26.3011L80.3437 18.3159H74.4937L80.6098 31.9607V37.6465H86.1643V31.9607L92.2772 18.3159H86.4272L83.4019 26.3011Z" fill="black"/>
</g>
</g>
<defs>
<clipPath id="clip0_6522_21936">
<rect width="172" height="20.1982" fill="white" transform="translate(0 17.9009)"/>
</clipPath>
</defs>
</svg>
