<svg width="178" height="56" viewBox="0 0 178 56" fill="none" xmlns="http://www.w3.org/2000/svg">
<g clip-path="url(#clip0_6522_21983)">
<path d="M14.14 41.8414C10.655 41.8414 7.16996 41.8459 3.68496 41.8405C1.92282 41.8378 0.568631 40.872 0.13122 39.3035C0.0455238 38.9956 0.00624608 38.6644 0.00624608 38.3439C-0.00178798 31.2115 -2.63427e-06 24.079 -2.63427e-06 16.9465C-2.63427e-06 15.2388 1.45506 13.69 3.16363 13.5776C3.34485 13.566 3.52785 13.5624 3.70906 13.5624C10.6282 13.5597 17.5455 13.5624 24.4637 13.5508C25.5358 13.549 26.4865 13.8043 27.2739 14.5702C27.9764 15.2531 28.3138 16.0887 28.3147 17.0501C28.3228 24.1959 28.3272 31.3418 28.3156 38.4867C28.3129 40.2034 26.8168 41.7655 25.1002 41.8021C22.6177 41.8557 20.1334 41.8334 17.6499 41.8405C16.4797 41.8441 15.3094 41.8405 14.1391 41.8414H14.14ZM14.1346 38.0529C14.2515 38.0529 14.3676 38.0529 14.4845 38.0529C16.435 38.0449 18.3391 37.7423 20.186 37.1129C21.5563 36.6469 22.8667 36.0489 24.0174 35.1571C24.2379 34.9866 24.437 34.717 24.5173 34.4536C24.6298 34.0832 24.4762 33.7359 24.1281 33.5163C23.7291 33.2646 23.3363 33.3083 22.9667 33.5806C21.8902 34.3724 20.7065 34.9527 19.4389 35.3686C17.3625 36.0506 15.2308 36.2461 13.0554 36.1247C10.2318 35.9676 7.61629 35.208 5.28909 33.5601C5.17572 33.4797 5.04271 33.411 4.90881 33.3798C4.46872 33.2753 4.03488 33.4949 3.84296 33.8984C3.63229 34.3421 3.75101 34.7705 4.22592 35.1169C7.17888 37.2682 10.5559 38.0101 14.1346 38.0547V38.0529ZM15.1014 25.077H15.0996C15.0996 22.9596 15.0996 20.8422 15.0987 18.7247C15.0987 18.5301 15.0942 18.3346 15.0746 18.1409C15.0121 17.5187 14.3997 17.1501 13.8204 17.3786C13.3803 17.5518 13.1973 17.8562 13.1973 18.4328C13.1973 22.823 13.1973 27.2141 13.1991 31.6042C13.1991 31.7729 13.2026 31.9434 13.2312 32.1086C13.2999 32.5094 13.6231 32.8049 14.023 32.854C14.4372 32.9049 14.8282 32.7192 14.9817 32.3416C15.0666 32.1327 15.096 31.889 15.0969 31.6614C15.1049 29.4663 15.1014 27.2712 15.1014 25.0752V25.077ZM10.3755 25.0368C10.3755 22.9596 10.3791 20.8814 10.3738 18.8042C10.372 18.1989 9.98009 17.7856 9.43378 17.7812C8.87943 17.7767 8.4804 18.1775 8.47951 18.7872C8.47504 22.9426 8.47594 27.098 8.48576 31.2534C8.48576 31.4516 8.54467 31.6703 8.64198 31.8417C8.85443 32.213 9.29184 32.3594 9.6864 32.2398C10.1194 32.1086 10.3729 31.764 10.3738 31.2704C10.3773 29.1931 10.3755 27.115 10.3747 25.0377L10.3755 25.0368ZM19.8272 25.0217C19.8272 24.9181 19.8272 24.8137 19.8272 24.7101C19.8272 22.7373 19.8299 20.7636 19.8245 18.7908C19.8227 18.2123 19.438 17.8017 18.9086 17.783C18.3694 17.7642 17.9785 18.14 17.932 18.7265C17.9222 18.856 17.924 18.9863 17.924 19.1157C17.924 23.0363 17.9258 26.957 17.9276 30.8767C17.9276 31.0713 17.9213 31.2686 17.9526 31.4596C17.9776 31.6069 18.032 31.7631 18.1168 31.8845C18.3561 32.2255 18.7738 32.355 19.1479 32.2309C19.5871 32.0863 19.8236 31.7578 19.8245 31.2534C19.8281 29.1762 19.8263 27.0989 19.8263 25.0225L19.8272 25.0217ZM22.6436 24.8628H22.6418C22.6418 26.2134 22.6409 27.5649 22.6418 28.9155C22.6418 29.602 23.0274 30.0465 23.6085 30.0385C24.1888 30.0304 24.5503 29.6145 24.553 28.9378C24.5566 27.9898 24.5539 27.0409 24.5539 26.0929C24.5539 24.3129 24.5539 22.5338 24.5521 20.7538C24.5521 20.2226 24.3325 19.8682 23.9362 19.7326C23.2434 19.496 22.6516 19.9441 22.6462 20.7306C22.6382 22.1071 22.6436 23.4845 22.6436 24.861V24.8628ZM5.64973 24.844H5.64527C5.64527 23.48 5.64259 22.116 5.64616 20.752C5.64705 20.3003 5.51315 19.9281 5.06949 19.7406C4.41873 19.4665 3.75458 19.9441 3.7528 20.6958C3.74744 23.1899 3.75101 25.684 3.75101 28.1781C3.75101 28.5031 3.73762 28.8289 3.75637 29.1521C3.77869 29.5163 3.96526 29.793 4.29733 29.9492C4.62851 30.1045 4.96148 30.0769 5.25785 29.8617C5.55422 29.6466 5.6533 29.3342 5.65152 28.9744C5.64616 27.5979 5.64973 26.2205 5.64973 24.844Z" fill="black"/>
<path d="M35.7811 13.5508H41.1166V19.2496H35.7811V13.5508ZM35.8614 22.4427H41.0354V41.8432H35.8614V22.4427Z" fill="black"/>
<path d="M43.8518 22.4425H48.8231L48.9445 26.04H49.1061C49.955 23.8172 51.3288 21.8364 54.8861 21.8364C58.4434 21.8364 60.9894 23.453 60.9894 28.5457V41.843H55.8154V29.475C55.8154 27.5754 55.4521 25.9177 53.0669 25.9177C49.7122 25.9177 49.0248 29.8785 49.0248 32.2226V41.8421H43.8509V22.4425H43.8518Z" fill="black"/>
<path d="M65.192 37.2362V26.3232H61.7971V22.8882C66.2837 22.6856 66.7684 20.22 67.0112 16.8252H70.2847V22.4437H74.4079V26.3241H70.3659V36.5908C70.3659 37.1567 70.6087 37.3987 71.1747 37.3987H74.4079V41.8451H69.3554C66.2435 41.8451 65.192 40.1883 65.192 37.2371V37.2362Z" fill="black"/>
<path d="M74.6097 32.1833C74.6097 26.4435 78.4902 21.8364 84.472 21.8364C90.4538 21.8364 94.0915 26.04 94.0915 32.5877H79.9854C79.9854 36.0227 81.4806 38.6909 84.6737 38.6909C87.5428 38.6909 88.7559 36.2655 88.9577 33.8812L93.8486 34.9721C92.8783 39.1757 89.7263 42.4491 84.6336 42.4491C78.5304 42.4491 74.6097 37.9625 74.6097 32.1833ZM88.797 29.8392C88.3926 26.8077 86.5742 25.5142 84.472 25.5142C82.3698 25.5142 80.5514 26.8889 80.147 29.8392H88.7961H88.797Z" fill="black"/>
<path d="M95.8295 22.4427H100.801L100.922 27.0909H101.084C101.69 24.1406 103.186 22.1196 106.095 22.1196C106.661 22.1196 106.984 22.1597 107.389 22.241V27.3738C106.823 27.2524 106.418 27.1712 105.691 27.1712C101.973 27.1712 101.003 30.6071 101.003 34.3251V41.8432H95.8286V22.4427H95.8295Z" fill="black"/>
<path d="M107.336 32.1833C107.336 26.2819 111.135 21.8364 117.279 21.8364C122.654 21.8364 125.646 25.0295 126.413 29.0304L121.361 30.6872C121.158 27.5352 119.906 25.5945 117.279 25.5945C114.894 25.5945 112.995 27.6557 112.995 32.1825C112.995 36.7092 115.016 38.6892 117.36 38.6892C120.108 38.6892 121.482 36.345 121.846 33.1117L126.737 34.0812C126.05 39.0525 122.655 42.4473 117.361 42.4473C111.096 42.4473 107.337 38.0821 107.337 32.1816L107.336 32.1833Z" fill="black"/>
<path d="M127.367 32.1432C127.367 26.3631 131.166 21.8364 137.188 21.8364C143.21 21.8364 147.009 26.3631 147.009 32.1432C147.009 37.9232 143.21 42.45 137.188 42.45C131.166 42.45 127.367 37.9232 127.367 32.1432ZM141.351 32.1432C141.351 27.7378 139.735 25.5954 137.188 25.5954C134.641 25.5954 133.025 27.7378 133.025 32.1432C133.025 36.5485 134.641 38.6909 137.188 38.6909C139.735 38.6909 141.351 36.5485 141.351 32.1432Z" fill="black"/>
<path d="M148.853 22.4425H153.825L153.946 26.04H154.108C154.916 23.5342 156.452 21.8364 159.807 21.8364C162.635 21.8364 164.698 23.0486 165.344 26.0801H165.505C166.313 23.7761 167.768 21.8364 171.244 21.8364C174.72 21.8364 177.146 23.453 177.146 28.5457V41.843H171.972V29.475C171.972 27.6155 171.568 25.9177 169.385 25.9177C166.232 25.9177 165.586 29.8785 165.586 32.2226V41.8421H160.412V29.4741C160.412 27.6146 160.007 25.9168 157.825 25.9168C154.672 25.9168 154.026 29.8776 154.026 32.2217V41.8412H148.852V22.4425H148.853Z" fill="black"/>
</g>
<defs>
<clipPath id="clip0_6522_21983">
<rect width="177.146" height="28.8985" fill="white" transform="translate(0 13.5507)"/>
</clipPath>
</defs>
</svg>
