<?xml version="1.0" encoding="UTF-8"?>
<svg xmlns="http://www.w3.org/2000/svg" xmlns:xlink="http://www.w3.org/1999/xlink" version="1.1" viewBox="0 0 400 200">
  <defs>
    <style>
      .cls-1 {
        fill: none;
      }

      .cls-2 {
        mask: url(#mask);
      }

      .cls-3 {
        opacity: .2;
      }

      .cls-3, .cls-4, .cls-5, .cls-6 {
        fill: #fff;
      }

      .cls-7 {
        fill: #ff5600;
      }

      .cls-8 {
        clip-path: url(#clippath-1);
      }

      .cls-9 {
        fill: #0e1522;
      }

      .cls-5 {
        fill-opacity: .2;
      }

      .cls-6 {
        fill-opacity: 0;
      }

      .cls-10 {
        clip-path: url(#clippath);
      }
    </style>
    <clipPath id="clippath">
      <rect class="cls-1" y="0" width="400" height="200"/>
    </clipPath>
    <clipPath id="clippath-1">
      <rect class="cls-1" x="84" y="39" width="232" height="122"/>
    </clipPath>
    <mask id="mask" x="83" y="39" width="233" height="123" maskUnits="userSpaceOnUse">
      <g id="path-137-inside-1_8452_20660">
        <path class="cls-4" d="M84,39h232v122H84V39Z"/>
      </g>
    </mask>
  </defs>
  <!-- Generator: Adobe Illustrator 28.7.1, SVG Export Plug-In . SVG Version: 1.2.0 Build 142)  -->
  <g>
    <g id="Layer_1">
      <g class="cls-10">
        <g>
          <rect class="cls-9" y="0" width="400" height="200"/>
          <rect class="cls-6" x="16" y="16" width="2" height="2"/>
          <rect class="cls-6" x="38.9" y="16" width="2" height="2"/>
          <rect class="cls-6" x="61.8" y="16" width="2" height="2"/>
          <rect class="cls-6" x="84.6" y="16" width="2" height="2"/>
          <rect class="cls-6" x="107.5" y="16" width="2" height="2"/>
          <rect class="cls-6" x="130.4" y="16" width="2" height="2"/>
          <rect class="cls-6" x="153.2" y="16" width="2" height="2"/>
          <rect class="cls-6" x="176.1" y="16" width="2" height="2"/>
          <rect class="cls-6" x="199" y="16" width="2" height="2"/>
          <rect class="cls-6" x="221.9" y="16" width="2" height="2"/>
          <rect class="cls-6" x="244.8" y="16" width="2" height="2"/>
          <rect class="cls-6" x="267.6" y="16" width="2" height="2"/>
          <rect class="cls-6" x="290.5" y="16" width="2" height="2"/>
          <rect class="cls-6" x="313.4" y="16" width="2" height="2"/>
          <rect class="cls-6" x="336.2" y="16" width="2" height="2"/>
          <rect class="cls-6" x="359.1" y="16" width="2" height="2"/>
          <rect class="cls-6" x="382" y="16" width="2" height="2"/>
          <rect class="cls-6" x="16" y="39.7" width="2" height="2"/>
          <rect class="cls-6" x="38.9" y="39.7" width="2" height="2"/>
          <rect class="cls-6" x="61.8" y="39.7" width="2" height="2"/>
          <rect class="cls-6" x="84.6" y="39.7" width="2" height="2"/>
          <rect class="cls-6" x="107.5" y="39.7" width="2" height="2"/>
          <rect class="cls-6" x="130.4" y="39.7" width="2" height="2"/>
          <rect class="cls-6" x="153.2" y="39.7" width="2" height="2"/>
          <rect class="cls-6" x="176.1" y="39.7" width="2" height="2"/>
          <rect class="cls-6" x="199" y="39.7" width="2" height="2"/>
          <rect class="cls-6" x="221.9" y="39.7" width="2" height="2"/>
          <rect class="cls-6" x="244.8" y="39.7" width="2" height="2"/>
          <rect class="cls-6" x="267.6" y="39.7" width="2" height="2"/>
          <rect class="cls-6" x="290.5" y="39.7" width="2" height="2"/>
          <rect class="cls-6" x="313.4" y="39.7" width="2" height="2"/>
          <rect class="cls-6" x="336.2" y="39.7" width="2" height="2"/>
          <rect class="cls-6" x="359.1" y="39.7" width="2" height="2"/>
          <rect class="cls-6" x="382" y="39.7" width="2" height="2"/>
          <rect class="cls-6" x="16" y="63.4" width="2" height="2"/>
          <rect class="cls-6" x="38.9" y="63.4" width="2" height="2"/>
          <rect class="cls-6" x="61.8" y="63.4" width="2" height="2"/>
          <rect class="cls-6" x="84.6" y="63.4" width="2" height="2"/>
          <rect class="cls-6" x="107.5" y="63.4" width="2" height="2"/>
          <rect class="cls-6" x="130.4" y="63.4" width="2" height="2"/>
          <rect class="cls-6" x="153.2" y="63.4" width="2" height="2"/>
          <rect class="cls-6" x="176.1" y="63.4" width="2" height="2"/>
          <rect class="cls-6" x="199" y="63.4" width="2" height="2"/>
          <rect class="cls-6" x="221.9" y="63.4" width="2" height="2"/>
          <rect class="cls-6" x="244.8" y="63.4" width="2" height="2"/>
          <rect class="cls-6" x="267.6" y="63.4" width="2" height="2"/>
          <rect class="cls-6" x="290.5" y="63.4" width="2" height="2"/>
          <rect class="cls-6" x="313.4" y="63.4" width="2" height="2"/>
          <rect class="cls-6" x="336.2" y="63.4" width="2" height="2"/>
          <rect class="cls-6" x="359.1" y="63.4" width="2" height="2"/>
          <rect class="cls-6" x="382" y="63.4" width="2" height="2"/>
          <rect class="cls-6" x="16" y="87.1" width="2" height="2"/>
          <rect class="cls-6" x="38.9" y="87.1" width="2" height="2"/>
          <rect class="cls-6" x="61.8" y="87.1" width="2" height="2"/>
          <rect class="cls-6" x="84.6" y="87.1" width="2" height="2"/>
          <rect class="cls-6" x="107.5" y="87.1" width="2" height="2"/>
          <rect class="cls-6" x="130.4" y="87.1" width="2" height="2"/>
          <rect class="cls-6" x="153.2" y="87.1" width="2" height="2"/>
          <rect class="cls-6" x="176.1" y="87.1" width="2" height="2"/>
          <rect class="cls-6" x="199" y="87.1" width="2" height="2"/>
          <rect class="cls-6" x="221.9" y="87.1" width="2" height="2"/>
          <rect class="cls-6" x="244.8" y="87.1" width="2" height="2"/>
          <rect class="cls-6" x="267.6" y="87.1" width="2" height="2"/>
          <rect class="cls-6" x="290.5" y="87.1" width="2" height="2"/>
          <rect class="cls-6" x="313.4" y="87.1" width="2" height="2"/>
          <rect class="cls-6" x="336.2" y="87.1" width="2" height="2"/>
          <rect class="cls-6" x="359.1" y="87.1" width="2" height="2"/>
          <rect class="cls-6" x="382" y="87.1" width="2" height="2"/>
          <rect class="cls-6" x="16" y="110.9" width="2" height="2"/>
          <rect class="cls-6" x="38.9" y="110.9" width="2" height="2"/>
          <rect class="cls-6" x="61.8" y="110.9" width="2" height="2"/>
          <rect class="cls-6" x="84.6" y="110.9" width="2" height="2"/>
          <rect class="cls-6" x="107.5" y="110.9" width="2" height="2"/>
          <rect class="cls-6" x="130.4" y="110.9" width="2" height="2"/>
          <rect class="cls-6" x="153.2" y="110.9" width="2" height="2"/>
          <rect class="cls-6" x="176.1" y="110.9" width="2" height="2"/>
          <rect class="cls-6" x="199" y="110.9" width="2" height="2"/>
          <rect class="cls-6" x="221.9" y="110.9" width="2" height="2"/>
          <rect class="cls-6" x="244.8" y="110.9" width="2" height="2"/>
          <rect class="cls-6" x="267.6" y="110.9" width="2" height="2"/>
          <rect class="cls-6" x="290.5" y="110.9" width="2" height="2"/>
          <rect class="cls-6" x="313.4" y="110.9" width="2" height="2"/>
          <rect class="cls-6" x="336.2" y="110.9" width="2" height="2"/>
          <rect class="cls-6" x="359.1" y="110.9" width="2" height="2"/>
          <rect class="cls-6" x="382" y="110.9" width="2" height="2"/>
          <rect class="cls-6" x="16" y="134.6" width="2" height="2"/>
          <rect class="cls-6" x="38.9" y="134.6" width="2" height="2"/>
          <rect class="cls-6" x="61.8" y="134.6" width="2" height="2"/>
          <rect class="cls-6" x="84.6" y="134.6" width="2" height="2"/>
          <rect class="cls-6" x="107.5" y="134.6" width="2" height="2"/>
          <rect class="cls-6" x="130.4" y="134.6" width="2" height="2"/>
          <rect class="cls-6" x="153.2" y="134.6" width="2" height="2"/>
          <rect class="cls-6" x="176.1" y="134.6" width="2" height="2"/>
          <rect class="cls-6" x="199" y="134.6" width="2" height="2"/>
          <rect class="cls-6" x="221.9" y="134.6" width="2" height="2"/>
          <rect class="cls-6" x="244.8" y="134.6" width="2" height="2"/>
          <rect class="cls-6" x="267.6" y="134.6" width="2" height="2"/>
          <rect class="cls-6" x="290.5" y="134.6" width="2" height="2"/>
          <rect class="cls-6" x="313.4" y="134.6" width="2" height="2"/>
          <rect class="cls-6" x="336.2" y="134.6" width="2" height="2"/>
          <rect class="cls-6" x="359.1" y="134.6" width="2" height="2"/>
          <rect class="cls-6" x="382" y="134.6" width="2" height="2"/>
          <rect class="cls-6" x="16" y="158.3" width="2" height="2"/>
          <rect class="cls-6" x="38.9" y="158.3" width="2" height="2"/>
          <rect class="cls-6" x="61.8" y="158.3" width="2" height="2"/>
          <rect class="cls-6" x="84.6" y="158.3" width="2" height="2"/>
          <rect class="cls-6" x="107.5" y="158.3" width="2" height="2"/>
          <rect class="cls-6" x="130.4" y="158.3" width="2" height="2"/>
          <rect class="cls-6" x="153.2" y="158.3" width="2" height="2"/>
          <rect class="cls-6" x="176.1" y="158.3" width="2" height="2"/>
          <rect class="cls-6" x="199" y="158.3" width="2" height="2"/>
          <rect class="cls-6" x="221.9" y="158.3" width="2" height="2"/>
          <rect class="cls-6" x="244.8" y="158.3" width="2" height="2"/>
          <rect class="cls-6" x="267.6" y="158.3" width="2" height="2"/>
          <rect class="cls-6" x="290.5" y="158.3" width="2" height="2"/>
          <rect class="cls-6" x="313.4" y="158.3" width="2" height="2"/>
          <rect class="cls-6" x="336.2" y="158.3" width="2" height="2"/>
          <rect class="cls-6" x="359.1" y="158.3" width="2" height="2"/>
          <rect class="cls-6" x="382" y="158.3" width="2" height="2"/>
          <rect class="cls-6" x="16" y="182" width="2" height="2"/>
          <rect class="cls-6" x="38.9" y="182" width="2" height="2"/>
          <rect class="cls-6" x="61.8" y="182" width="2" height="2"/>
          <rect class="cls-6" x="84.6" y="182" width="2" height="2"/>
          <rect class="cls-6" x="107.5" y="182" width="2" height="2"/>
          <rect class="cls-6" x="130.4" y="182" width="2" height="2"/>
          <rect class="cls-6" x="153.2" y="182" width="2" height="2"/>
          <rect class="cls-6" x="176.1" y="182" width="2" height="2"/>
          <rect class="cls-6" x="199" y="182" width="2" height="2"/>
          <rect class="cls-6" x="221.9" y="182" width="2" height="2"/>
          <rect class="cls-6" x="244.8" y="182" width="2" height="2"/>
          <rect class="cls-6" x="267.6" y="182" width="2" height="2"/>
          <rect class="cls-6" x="290.5" y="182" width="2" height="2"/>
          <rect class="cls-6" x="313.4" y="182" width="2" height="2"/>
          <rect class="cls-6" x="336.2" y="182" width="2" height="2"/>
          <rect class="cls-6" x="359.1" y="182" width="2" height="2"/>
          <rect class="cls-6" x="382" y="182" width="2" height="2"/>
          <g class="cls-8">
            <g>
              <path class="cls-4" d="M312.5,42l-5.3,2.2,4.6,3.5.8-5.7ZM260.7,93.5l.3.4c25.9-20.1,42.8-40.1,49.1-48l-.4-.3-.4-.3c-6.3,7.9-23.1,27.8-49,47.8l.3.4Z"/>
              <path class="cls-7" d="M84.1,161.5v-1c0,0,1.3-.1,3.9-.5v1c-2.5.3-3.9.5-3.9.5ZM92,160.5v-1c1.1-.2,2.4-.4,3.8-.6l.2,1c-1.4.2-2.8.4-4,.6ZM100,159.2l-.2-1c1.3-.2,2.6-.4,3.9-.7l.2,1c-1.4.2-2.7.5-4,.7ZM107.9,157.8l-.2-1c1.3-.2,2.6-.5,3.9-.8l.2,1c-1.4.3-2.7.5-3.9.8ZM115.7,156.3l-.2-1c1.3-.3,2.6-.5,3.9-.8l.2,1c-1.3.3-2.6.6-3.9.8ZM123.6,154.6l-.2-1c1.3-.3,2.6-.6,3.9-.9l.2,1c-1.3.3-2.6.6-3.9.9ZM131.4,152.8l-.2-1c1.3-.3,2.6-.6,3.9-1l.2,1c-1.3.3-2.6.6-3.9,1ZM139.1,150.8l-.3-1c1.3-.3,2.6-.7,3.9-1l.3,1c-1.3.3-2.6.7-3.9,1ZM146.9,148.8l-.3-1c1.3-.4,2.6-.7,3.8-1.1l.3,1c-1.3.4-2.6.7-3.9,1.1ZM154.6,146.5l-.3-1c1.3-.4,2.5-.8,3.8-1.2l.3,1c-1.3.4-2.6.8-3.8,1.2ZM162.2,144.2l-.3-1c1.3-.4,2.5-.8,3.8-1.2l.3.9c-1.3.4-2.5.8-3.8,1.2ZM169.9,141.7l-.3-.9c1.3-.4,2.5-.9,3.8-1.3l.3.9c-1.3.4-2.5.9-3.8,1.3ZM177.4,139.1l-.3-.9c1.2-.4,2.5-.9,3.8-1.4l.3.9c-1.3.5-2.5.9-3.8,1.4ZM184.9,136.3l-.4-.9c1.2-.5,2.5-1,3.7-1.5l.4.9c-1.2.5-2.5,1-3.7,1.5ZM192.4,133.3l-.4-.9c1.2-.5,2.5-1,3.7-1.5l.4.9c-1.2.5-2.5,1-3.7,1.5ZM199.8,130.2l-.4-.9c1.2-.5,2.4-1.1,3.7-1.6l.4.9c-1.2.5-2.4,1.1-3.7,1.6ZM207.1,126.9l-.4-.9c1.2-.6,2.4-1.1,3.6-1.7l.4.9c-1.2.6-2.4,1.1-3.6,1.7ZM214.3,123.4l-.4-.9c1.2-.6,2.4-1.2,3.6-1.8l.5.9c-1.2.6-2.4,1.2-3.6,1.8ZM221.4,119.7l-.5-.9c1.2-.6,2.3-1.3,3.5-1.9l.5.9c-1.2.6-2.3,1.3-3.5,1.9ZM228.4,115.9l-.5-.9c1.2-.7,2.3-1.3,3.4-2l.5.9c-1.1.7-2.3,1.4-3.5,2ZM235.3,111.8l-.5-.9c1.1-.7,2.3-1.4,3.4-2.1l.5.8c-1.1.7-2.3,1.4-3.4,2.1Z"/>
              <circle class="cls-7" cx="251" cy="101" r="5"/>
              <path class="cls-3" d="M84.5,161v-1s1.4,0,4,0v1c-2.6,0-4,0-4,0ZM92.5,160.8v-1s4-.1,4-.1v1s-4,.1-4,.1ZM100.6,160.5v-1c1.2,0,2.6,0,4-.1v1c-1.4,0-2.7,0-4,.1ZM108.6,160.2v-1c1.3,0,2.6-.1,4-.2v1c-1.3,0-2.7.1-4,.2ZM116.6,159.9v-1s4-.2,4-.2v1s-4,.2-4,.2ZM124.6,159.6v-1s4-.2,4-.2v1s-4,.2-4,.2ZM132.6,159.2v-1s3.9-.2,3.9-.2v1c0,0-3.9.2-3.9.2ZM140.6,158.8v-1c0,0,3.9-.2,3.9-.2v1c0,0-3.9.2-3.9.2ZM148.6,158.4v-1c0,0,3.9-.2,3.9-.2v1c0,0-3.9.2-3.9.2ZM156.6,157.9v-1c0,0,3.9-.2,3.9-.2v1c0,0-3.9.2-3.9.2ZM164.5,157.4v-1c0,0,3.9-.3,3.9-.3v1c0,0-3.9.3-3.9.3ZM172.5,156.8v-1c0,0,3.9-.3,3.9-.3v1c0,0-3.9.3-3.9.3ZM180.5,156.3v-1c0,0,3.9-.3,3.9-.3v1c0,0-3.9.3-3.9.3ZM188.5,155.6v-1c0,0,3.9-.3,3.9-.3v1c0,0-3.9.3-3.9.3ZM196.5,155v-1c1.2-.1,2.6-.2,3.9-.3v1c-1.2.1-2.6.2-3.9.3ZM204.4,154.3v-1c1.2-.1,2.6-.2,3.9-.4v1c-1.2.1-2.6.2-3.9.4ZM212.4,153.5v-1c0,0,3.9-.4,3.9-.4v1c.1,0-3.9.4-3.9.4ZM220.4,152.7v-1c1.2-.1,2.6-.3,3.9-.4v1c-1.2.1-2.5.3-3.9.4ZM228.3,151.8v-1c1.2-.2,2.5-.3,3.9-.5v1c-1.2.2-2.5.3-3.9.5ZM236.3,150.9v-1c1.2-.2,2.5-.3,3.8-.5v1c-1.2.2-2.5.3-3.8.5ZM244.2,149.8v-1c1.2-.2,2.5-.4,3.8-.5v1c-1.2.2-2.5.4-3.8.5ZM252.2,148.7v-1c1.2-.2,2.5-.4,3.8-.6l.2,1c-1.3.2-2.6.4-4,.6ZM260.1,147.5l-.2-1c1.3-.2,2.7-.4,3.9-.6l.2,1c-1.3.2-2.6.4-4,.6ZM268,146.2l-.2-1c1.3-.2,2.7-.4,3.9-.7l.2,1c-1.3.2-2.6.4-3.9.7ZM275.9,144.9l-.2-1c1.3-.2,2.7-.5,3.9-.7l.2,1c-1.3.2-2.6.5-3.9.7ZM283.7,143.4l-.2-1c1.4-.3,2.7-.5,3.9-.8l.2,1c-1.3.3-2.6.5-3.9.8ZM291.6,141.9l-.2-1c1.4-.3,2.7-.6,3.9-.8l.2,1c-1.2.3-2.5.5-3.9.8ZM299.4,140.2l-.2-1c1.4-.3,2.7-.6,3.9-.9l.2,1c-1.2.3-2.5.6-3.9.9ZM307.2,138.4l-.2-1c1.7-.4,3-.7,3.9-1l.3,1c-.9.2-2.2.6-3.9,1Z"/>
            </g>
          </g>
          <g class="cls-2">
            <path class="cls-5" d="M84,161h-1v1h1v-1ZM316,161v-1H84v2h232v-1ZM84,161h1V39h-2v122h1Z"/>
          </g>
        </g>
      </g>
    </g>
  </g>
</svg>