<?xml version="1.0" encoding="UTF-8"?>
<svg xmlns="http://www.w3.org/2000/svg" xmlns:xlink="http://www.w3.org/1999/xlink" version="1.1" viewBox="0 0 400 200">
  <defs>
    <style>
      .cls-1 {
        fill: none;
      }

      .cls-2 {
        opacity: .2;
      }

      .cls-2, .cls-3, .cls-4 {
        fill: #fff;
      }

      .cls-5 {
        fill: #ff5600;
      }

      .cls-6 {
        fill: #0e1522;
      }

      .cls-3 {
        fill-opacity: 0;
      }

      .cls-4 {
        fill-opacity: .8;
      }

      .cls-7 {
        clip-path: url(#clippath);
      }
    </style>
    <clipPath id="clippath">
      <rect class="cls-1" y="0" width="400" height="200"/>
    </clipPath>
  </defs>
  <!-- Generator: Adobe Illustrator 28.7.1, SVG Export Plug-In . SVG Version: 1.2.0 Build 142)  -->
  <g>
    <g id="Layer_1">
      <g class="cls-7">
        <g>
          <rect class="cls-6" y="0" width="400" height="200"/>
          <rect class="cls-3" x="16" y="16" width="2" height="2"/>
          <rect class="cls-3" x="38.9" y="16" width="2" height="2"/>
          <rect class="cls-3" x="61.8" y="16" width="2" height="2"/>
          <rect class="cls-3" x="84.6" y="16" width="2" height="2"/>
          <rect class="cls-3" x="107.5" y="16" width="2" height="2"/>
          <rect class="cls-3" x="130.4" y="16" width="2" height="2"/>
          <rect class="cls-3" x="153.2" y="16" width="2" height="2"/>
          <rect class="cls-3" x="176.1" y="16" width="2" height="2"/>
          <rect class="cls-3" x="199" y="16" width="2" height="2"/>
          <rect class="cls-3" x="221.9" y="16" width="2" height="2"/>
          <rect class="cls-3" x="244.8" y="16" width="2" height="2"/>
          <rect class="cls-3" x="267.6" y="16" width="2" height="2"/>
          <rect class="cls-3" x="290.5" y="16" width="2" height="2"/>
          <rect class="cls-3" x="313.4" y="16" width="2" height="2"/>
          <rect class="cls-3" x="336.2" y="16" width="2" height="2"/>
          <rect class="cls-3" x="359.1" y="16" width="2" height="2"/>
          <rect class="cls-3" x="382" y="16" width="2" height="2"/>
          <rect class="cls-3" x="16" y="39.7" width="2" height="2"/>
          <rect class="cls-3" x="38.9" y="39.7" width="2" height="2"/>
          <rect class="cls-3" x="61.8" y="39.7" width="2" height="2"/>
          <rect class="cls-3" x="84.6" y="39.7" width="2" height="2"/>
          <rect class="cls-3" x="107.5" y="39.7" width="2" height="2"/>
          <rect class="cls-3" x="130.4" y="39.7" width="2" height="2"/>
          <rect class="cls-3" x="153.2" y="39.7" width="2" height="2"/>
          <rect class="cls-3" x="176.1" y="39.7" width="2" height="2"/>
          <rect class="cls-3" x="199" y="39.7" width="2" height="2"/>
          <rect class="cls-3" x="221.9" y="39.7" width="2" height="2"/>
          <rect class="cls-3" x="244.8" y="39.7" width="2" height="2"/>
          <rect class="cls-3" x="267.6" y="39.7" width="2" height="2"/>
          <rect class="cls-3" x="290.5" y="39.7" width="2" height="2"/>
          <rect class="cls-3" x="313.4" y="39.7" width="2" height="2"/>
          <rect class="cls-3" x="336.2" y="39.7" width="2" height="2"/>
          <rect class="cls-3" x="359.1" y="39.7" width="2" height="2"/>
          <rect class="cls-3" x="382" y="39.7" width="2" height="2"/>
          <rect class="cls-3" x="16" y="63.4" width="2" height="2"/>
          <rect class="cls-3" x="38.9" y="63.4" width="2" height="2"/>
          <rect class="cls-3" x="61.8" y="63.4" width="2" height="2"/>
          <rect class="cls-3" x="84.6" y="63.4" width="2" height="2"/>
          <rect class="cls-3" x="107.5" y="63.4" width="2" height="2"/>
          <rect class="cls-3" x="130.4" y="63.4" width="2" height="2"/>
          <rect class="cls-3" x="153.2" y="63.4" width="2" height="2"/>
          <rect class="cls-3" x="176.1" y="63.4" width="2" height="2"/>
          <rect class="cls-3" x="199" y="63.4" width="2" height="2"/>
          <rect class="cls-3" x="221.9" y="63.4" width="2" height="2"/>
          <rect class="cls-3" x="244.8" y="63.4" width="2" height="2"/>
          <rect class="cls-3" x="267.6" y="63.4" width="2" height="2"/>
          <rect class="cls-3" x="290.5" y="63.4" width="2" height="2"/>
          <rect class="cls-3" x="313.4" y="63.4" width="2" height="2"/>
          <rect class="cls-3" x="336.2" y="63.4" width="2" height="2"/>
          <rect class="cls-3" x="359.1" y="63.4" width="2" height="2"/>
          <rect class="cls-3" x="382" y="63.4" width="2" height="2"/>
          <rect class="cls-3" x="16" y="87.1" width="2" height="2"/>
          <rect class="cls-3" x="38.9" y="87.1" width="2" height="2"/>
          <rect class="cls-3" x="61.8" y="87.1" width="2" height="2"/>
          <rect class="cls-3" x="84.6" y="87.1" width="2" height="2"/>
          <rect class="cls-3" x="107.5" y="87.1" width="2" height="2"/>
          <rect class="cls-3" x="130.4" y="87.1" width="2" height="2"/>
          <rect class="cls-3" x="153.2" y="87.1" width="2" height="2"/>
          <rect class="cls-3" x="176.1" y="87.1" width="2" height="2"/>
          <rect class="cls-3" x="199" y="87.1" width="2" height="2"/>
          <rect class="cls-3" x="221.9" y="87.1" width="2" height="2"/>
          <rect class="cls-3" x="244.8" y="87.1" width="2" height="2"/>
          <rect class="cls-3" x="267.6" y="87.1" width="2" height="2"/>
          <rect class="cls-3" x="290.5" y="87.1" width="2" height="2"/>
          <rect class="cls-3" x="313.4" y="87.1" width="2" height="2"/>
          <rect class="cls-3" x="336.2" y="87.1" width="2" height="2"/>
          <rect class="cls-3" x="359.1" y="87.1" width="2" height="2"/>
          <rect class="cls-3" x="382" y="87.1" width="2" height="2"/>
          <rect class="cls-3" x="16" y="110.9" width="2" height="2"/>
          <rect class="cls-3" x="38.9" y="110.9" width="2" height="2"/>
          <rect class="cls-3" x="61.8" y="110.9" width="2" height="2"/>
          <rect class="cls-3" x="84.6" y="110.9" width="2" height="2"/>
          <rect class="cls-3" x="107.5" y="110.9" width="2" height="2"/>
          <rect class="cls-3" x="130.4" y="110.9" width="2" height="2"/>
          <rect class="cls-3" x="153.2" y="110.9" width="2" height="2"/>
          <rect class="cls-3" x="176.1" y="110.9" width="2" height="2"/>
          <rect class="cls-3" x="199" y="110.9" width="2" height="2"/>
          <rect class="cls-3" x="221.9" y="110.9" width="2" height="2"/>
          <rect class="cls-3" x="244.8" y="110.9" width="2" height="2"/>
          <rect class="cls-3" x="267.6" y="110.9" width="2" height="2"/>
          <rect class="cls-3" x="290.5" y="110.9" width="2" height="2"/>
          <rect class="cls-3" x="313.4" y="110.9" width="2" height="2"/>
          <rect class="cls-3" x="336.2" y="110.9" width="2" height="2"/>
          <rect class="cls-3" x="359.1" y="110.9" width="2" height="2"/>
          <rect class="cls-3" x="382" y="110.9" width="2" height="2"/>
          <rect class="cls-3" x="16" y="134.6" width="2" height="2"/>
          <rect class="cls-3" x="38.9" y="134.6" width="2" height="2"/>
          <rect class="cls-3" x="61.8" y="134.6" width="2" height="2"/>
          <rect class="cls-3" x="84.6" y="134.6" width="2" height="2"/>
          <rect class="cls-3" x="107.5" y="134.6" width="2" height="2"/>
          <rect class="cls-3" x="130.4" y="134.6" width="2" height="2"/>
          <rect class="cls-3" x="153.2" y="134.6" width="2" height="2"/>
          <rect class="cls-3" x="176.1" y="134.6" width="2" height="2"/>
          <rect class="cls-3" x="199" y="134.6" width="2" height="2"/>
          <rect class="cls-3" x="221.9" y="134.6" width="2" height="2"/>
          <rect class="cls-3" x="244.8" y="134.6" width="2" height="2"/>
          <rect class="cls-3" x="267.6" y="134.6" width="2" height="2"/>
          <rect class="cls-3" x="290.5" y="134.6" width="2" height="2"/>
          <rect class="cls-3" x="313.4" y="134.6" width="2" height="2"/>
          <rect class="cls-3" x="336.2" y="134.6" width="2" height="2"/>
          <rect class="cls-3" x="359.1" y="134.6" width="2" height="2"/>
          <rect class="cls-3" x="382" y="134.6" width="2" height="2"/>
          <rect class="cls-3" x="16" y="158.3" width="2" height="2"/>
          <rect class="cls-3" x="38.9" y="158.3" width="2" height="2"/>
          <rect class="cls-3" x="61.8" y="158.3" width="2" height="2"/>
          <rect class="cls-3" x="84.6" y="158.3" width="2" height="2"/>
          <rect class="cls-3" x="107.5" y="158.3" width="2" height="2"/>
          <rect class="cls-3" x="130.4" y="158.3" width="2" height="2"/>
          <rect class="cls-3" x="153.2" y="158.3" width="2" height="2"/>
          <rect class="cls-3" x="176.1" y="158.3" width="2" height="2"/>
          <rect class="cls-3" x="199" y="158.3" width="2" height="2"/>
          <rect class="cls-3" x="221.9" y="158.3" width="2" height="2"/>
          <rect class="cls-3" x="244.8" y="158.3" width="2" height="2"/>
          <rect class="cls-3" x="267.6" y="158.3" width="2" height="2"/>
          <rect class="cls-3" x="290.5" y="158.3" width="2" height="2"/>
          <rect class="cls-3" x="313.4" y="158.3" width="2" height="2"/>
          <rect class="cls-3" x="336.2" y="158.3" width="2" height="2"/>
          <rect class="cls-3" x="359.1" y="158.3" width="2" height="2"/>
          <rect class="cls-3" x="382" y="158.3" width="2" height="2"/>
          <rect class="cls-3" x="16" y="182" width="2" height="2"/>
          <rect class="cls-3" x="38.9" y="182" width="2" height="2"/>
          <rect class="cls-3" x="61.8" y="182" width="2" height="2"/>
          <rect class="cls-3" x="84.6" y="182" width="2" height="2"/>
          <rect class="cls-3" x="107.5" y="182" width="2" height="2"/>
          <rect class="cls-3" x="130.4" y="182" width="2" height="2"/>
          <rect class="cls-3" x="153.2" y="182" width="2" height="2"/>
          <rect class="cls-3" x="176.1" y="182" width="2" height="2"/>
          <rect class="cls-3" x="199" y="182" width="2" height="2"/>
          <rect class="cls-3" x="221.9" y="182" width="2" height="2"/>
          <rect class="cls-3" x="244.8" y="182" width="2" height="2"/>
          <rect class="cls-3" x="267.6" y="182" width="2" height="2"/>
          <rect class="cls-3" x="290.5" y="182" width="2" height="2"/>
          <rect class="cls-3" x="313.4" y="182" width="2" height="2"/>
          <rect class="cls-3" x="336.2" y="182" width="2" height="2"/>
          <rect class="cls-3" x="359.1" y="182" width="2" height="2"/>
          <rect class="cls-3" x="382" y="182" width="2" height="2"/>
          <path class="cls-4" d="M147.2,71.5l-4.8,3.2,5.2,2.6-.4-5.8ZM260,100h-.5c0,32.9-26.6,59.5-59.5,59.5v1c33.4,0,60.5-27.1,60.5-60.5h-.5ZM200,160v-.5c-32.9,0-59.5-26.6-59.5-59.5h-1c0,33.4,27.1,60.5,60.5,60.5v-.5ZM156.7,58.5l.4.3c10.8-11.3,26.1-18.3,43-18.3v-1c-17.2,0-32.7,7.2-43.7,18.7l.4.3ZM140,100h.5c0-8.6,1.8-16.9,5.2-24.3l-.5-.2-.5-.2c-3.4,7.5-5.2,15.9-5.2,24.7h.5ZM200,40v.5c15.8,0,30.2,6.2,40.9,16.3l.3-.4.3-.4c-10.8-10.3-25.5-16.6-41.6-16.6v.5ZM252.5,70.9l-.4.2c4.8,8.6,7.5,18.4,7.5,28.9h1c0-10.7-2.8-20.7-7.6-29.4l-.4.2Z"/>
          <path class="cls-2" d="M201.8,149.5v-1c1.3,0,2.6-.1,3.9-.3v1c-1.2.2-2.6.3-3.9.3ZM197.8,149.5c-1.3,0-2.7-.2-4-.3v-1c1.4.2,2.8.3,4.1.3v1ZM209.8,148.5l-.2-1c1.3-.3,2.6-.6,3.8-.9l.3,1c-1.3.4-2.6.7-3.9,1ZM189.7,148.4c-1.3-.3-2.6-.6-3.9-1l.3-1c1.3.4,2.6.7,3.8,1l-.2,1ZM217.6,146.3l-.4-.9c1.2-.5,2.5-1,3.6-1.6l.4.9c-1.2.6-2.5,1.1-3.7,1.6ZM182,146.1c-1.2-.5-2.5-1-3.7-1.6l.4-.9c1.2.6,2.4,1.1,3.6,1.6l-.4.9ZM224.8,142.8l-.5-.9c1.1-.7,2.3-1.4,3.3-2.1l.6.8c-1.1.8-2.2,1.5-3.4,2.2ZM174.8,142.6c-1.1-.7-2.3-1.4-3.4-2.2l.6-.8c1.1.8,2.2,1.5,3.3,2.2l-.5.9ZM231.5,138.2l-.6-.8c1-.8,2-1.7,2.9-2.6l.7.7c-1,.9-2,1.8-3,2.7ZM168.2,137.9c-1-.9-2-1.8-3-2.7l.7-.7c.9.9,1.9,1.8,2.9,2.7l-.6.8ZM237.3,132.6l-.8-.7c.9-1,1.7-2,2.5-3.1l.8.6c-.8,1.1-1.7,2.1-2.5,3.1ZM162.4,132.2c-.9-1-1.7-2.1-2.5-3.2l.8-.6c.8,1.1,1.6,2.1,2.5,3.1l-.8.7ZM242.1,126.1l-.8-.5c.7-1.1,1.3-2.3,2-3.4l.9.5c-.6,1.2-1.3,2.4-2,3.5ZM157.7,125.7c-.7-1.1-1.4-2.3-2-3.5l.9-.4c.6,1.2,1.2,2.3,1.9,3.5l-.9.5ZM245.8,118.9l-.9-.4c.5-1.2,1-2.5,1.4-3.7l1,.3c-.4,1.3-.9,2.5-1.4,3.8ZM154.1,118.5c-.5-1.2-1-2.5-1.4-3.8l1-.3c.4,1.3.8,2.5,1.3,3.7l-.9.4ZM248.2,111.2l-1-.2c.3-1.3.5-2.6.7-3.9h1c-.2,1.5-.4,2.8-.8,4.1ZM151.7,110.8c-.3-1.3-.5-2.6-.7-4h1c.2,1.2.4,2.5.7,3.8l-1,.2ZM249.4,103.3h-1c0-1.1.1-2.2.1-3.3,0-.3,0-.5,0-.8h1c0,.2,0,.5,0,.8,0,1.1,0,2.2-.1,3.3ZM150.6,102.8c0-.9,0-1.9,0-2.8,0-.4,0-.8,0-1.2h1c0,.4,0,.8,0,1.2,0,.9,0,1.8,0,2.7h-1ZM248.3,95.3c-.1-1.3-.3-2.6-.5-3.9l1-.2c.2,1.3.4,2.7.6,4h-1ZM151.8,94.8h-1c.1-1.4.3-2.8.6-4.1l1,.2c-.2,1.3-.4,2.6-.6,3.9ZM246.9,87.5c-.3-1.3-.7-2.5-1.2-3.8l.9-.3c.5,1.3.9,2.6,1.2,3.9l-1,.3ZM153.2,87.1l-1-.3c.4-1.3.8-2.6,1.2-3.8l.9.3c-.5,1.2-.9,2.5-1.2,3.8ZM156,79.6l-.9-.4c.6-1.2,1.2-2.4,1.8-3.6l.9.5c-.6,1.1-1.3,2.3-1.8,3.5ZM159.9,72.8l-.8-.6c.8-1.1,1.6-2.2,2.4-3.2l.8.6c-.8,1-1.6,2.1-2.4,3.2ZM164.8,66.6l-.7-.7c.9-1,1.9-1.9,2.9-2.8l.7.7c-1,.9-1.9,1.8-2.8,2.8ZM232.7,64.2c-1-.9-2-1.7-3-2.5l.6-.8c1.1.8,2.1,1.7,3.1,2.6l-.7.7ZM170.7,61.3l-.6-.8c1.1-.8,2.2-1.6,3.3-2.3l.5.8c-1.1.7-2.2,1.5-3.2,2.3ZM226.4,59.3c-1.1-.7-2.2-1.4-3.4-2l.5-.9c1.2.6,2.3,1.3,3.5,2.1l-.5.8ZM177.4,57.1l-.5-.9c1.2-.6,2.4-1.2,3.6-1.7l.4.9c-1.2.5-2.4,1.1-3.6,1.7ZM219.5,55.6c-1.2-.5-2.4-1-3.7-1.4l.3-.9c1.3.4,2.5.9,3.8,1.5l-.4.9ZM184.7,54l-.3-.9c1.3-.4,2.6-.8,3.9-1.1l.2,1c-1.3.3-2.6.7-3.8,1.1ZM212,53c-1.3-.3-2.6-.6-3.9-.8l.2-1c1.3.2,2.7.5,4,.8l-.2,1ZM192.3,52.1l-.2-1c1.3-.2,2.7-.4,4-.5v1c-1.2.1-2.6.3-3.9.5ZM204.2,51.7c-1.3-.1-2.6-.2-4-.2v-1c1.4,0,2.7,0,4,.2v1Z"/>
          <path class="cls-2" d="M200,172.5h-.2v-1h.3c1.2,0,2.5,0,3.7,0v1c-1.2,0-2.5,0-3.7,0ZM195.7,172.4c-1.3,0-2.7-.2-4-.3v-1c1.4.1,2.8.3,4.1.3v1ZM207.8,172.1v-1c1.2-.1,2.5-.3,3.8-.5l.2,1c-1.3.2-2.7.4-4,.5ZM187.7,171.5c-1.3-.2-2.6-.5-3.9-.8l.2-1c1.3.3,2.6.6,3.9.8l-.2,1ZM215.7,170.8l-.2-1c1.3-.3,2.6-.6,3.9-1l.3,1c-1.3.4-2.6.7-3.9,1ZM179.9,169.7c-1.3-.4-2.6-.8-3.8-1.2l.3-.9c1.2.4,2.5.8,3.8,1.2l-.3,1ZM223.5,168.6l-.3-.9c1.3-.4,2.5-.9,3.7-1.4l.4.9c-1.2.5-2.5,1-3.8,1.4ZM172.3,167c-1.2-.5-2.5-1.1-3.7-1.6l.4-.9c1.2.6,2.4,1.1,3.6,1.6l-.4.9ZM231,165.6l-.4-.9c1.2-.6,2.4-1.2,3.5-1.8l.5.9c-1.2.6-2.4,1.3-3.6,1.8ZM165,163.5c-1.2-.6-2.3-1.3-3.5-2l.5-.8c1.1.7,2.3,1.4,3.4,2l-.5.9ZM238,161.7l-.5-.9c1.1-.7,2.2-1.4,3.3-2.2l.6.8c-1.1.8-2.2,1.5-3.4,2.2ZM158.2,159.3c-1.1-.8-2.2-1.6-3.2-2.4l.6-.8c1,.8,2.1,1.6,3.2,2.4l-.6.8ZM244.6,157.1l-.6-.8c1-.8,2.1-1.7,3.1-2.5l.7.8c-1,.9-2,1.7-3.1,2.6ZM151.9,154.3c-1-.9-2-1.8-2.9-2.8l.7-.7c.9.9,1.9,1.8,2.9,2.7l-.7.7ZM250.7,151.8l-.7-.7c.9-.9,1.9-1.9,2.8-2.9l.7.7c-.9,1-1.8,2-2.8,2.9ZM146.2,148.6c-.9-1-1.8-2-2.6-3.1l.8-.6c.8,1,1.7,2,2.6,3l-.7.7ZM256.1,145.9l-.8-.6c.8-1,1.6-2.1,2.4-3.1l.8.6c-.8,1.1-1.6,2.2-2.5,3.2ZM141.1,142.3c-.8-1.1-1.5-2.2-2.3-3.3l.8-.5c.7,1.1,1.5,2.2,2.2,3.3l-.8.6ZM260.9,139.4l-.8-.5c.7-1.1,1.4-2.2,2.1-3.4l.9.5c-.7,1.2-1.4,2.3-2.1,3.4ZM136.8,135.6c-.7-1.2-1.3-2.4-1.9-3.6l.9-.4c.6,1.2,1.2,2.4,1.9,3.5l-.9.5ZM264.9,132.4l-.9-.4c.6-1.2,1.2-2.4,1.7-3.6l.9.4c-.5,1.2-1.1,2.4-1.7,3.6ZM133.2,128.3c-.5-1.2-1-2.5-1.5-3.8l.9-.3c.4,1.2.9,2.5,1.5,3.7l-.9.4ZM268.1,125l-.9-.3c.5-1.2.9-2.5,1.3-3.8l1,.3c-.4,1.3-.8,2.6-1.3,3.8ZM130.5,120.7c-.4-1.3-.7-2.6-1-3.9l1-.2c.3,1.3.7,2.6,1,3.8l-1,.3ZM270.4,117.3l-1-.2c.3-1.3.6-2.6.8-3.9l1,.2c-.2,1.3-.5,2.6-.8,3.9ZM128.6,112.9c-.2-1.3-.4-2.7-.6-4h1c.2,1.2.4,2.5.6,3.8l-1,.2ZM271.9,109.4h-1c.2-1.4.3-2.8.4-4.1h1c0,1.4-.2,2.8-.4,4.1ZM127.7,104.9c0-1.3-.1-2.7-.2-4h1c0,1.3,0,2.6.2,4h-1ZM272.5,101.4h-1c0-.5,0-.9,0-1.4,0-.9,0-1.7,0-2.6h1c0,.8,0,1.7,0,2.6,0,.5,0,.9,0,1.4ZM128.6,96.9h-1c0-1.4.2-2.7.3-4.1h1c-.1,1.4-.2,2.7-.3,4.1ZM271.2,93.4c-.1-1.3-.3-2.6-.5-3.9h1c.2,1.2.4,2.5.5,3.9h-1ZM129.3,89l-1-.2c.2-1.3.4-2.7.7-4l1,.2c-.3,1.3-.5,2.6-.7,3.9ZM270,85.6c-.3-1.3-.6-2.6-.9-3.9l1-.3c.3,1.3.7,2.6.9,3.9l-1,.2ZM131,81.3l-1-.3c.3-1.3.7-2.6,1.2-3.9l.9.3c-.4,1.2-.8,2.5-1.1,3.8ZM268,77.9c-.4-1.3-.9-2.5-1.3-3.7l.9-.4c.5,1.2.9,2.5,1.4,3.8l-1,.3ZM133.5,73.7l-.9-.4c.5-1.2,1-2.5,1.6-3.7l.9.4c-.6,1.2-1.1,2.4-1.6,3.6ZM265.1,70.5c-.5-1.2-1.1-2.4-1.7-3.6l.9-.5c.6,1.2,1.2,2.4,1.8,3.6l-.9.4ZM136.8,66.5l-.9-.5c.6-1.2,1.3-2.4,2-3.5l.9.5c-.7,1.1-1.3,2.3-2,3.4ZM261.5,63.5c-.5-.9-1.1-1.8-1.7-2.7l.8-.5c.6.9,1.2,1.8,1.7,2.7l-.9.5ZM140.9,59.7l-.8-.6c.7-1.1,1.5-2.2,2.4-3.3l.8.6c-.8,1.1-1.6,2.1-2.3,3.2ZM145.7,53.4l-.8-.7c.9-1,1.8-2,2.7-3l.7.7c-.9,1-1.8,1.9-2.7,2.9ZM151.2,47.7l-.7-.7c1-.9,2-1.8,3-2.7l.6.8c-1,.8-2,1.7-3,2.6ZM248.7,47.6c-1-.9-2-1.8-3-2.6l.6-.8c1,.9,2,1.7,3,2.7l-.7.7ZM157.3,42.6l-.6-.8c1.1-.8,2.2-1.6,3.3-2.3l.6.8c-1.1.7-2.2,1.5-3.3,2.3ZM242.6,42.6c-1.1-.8-2.2-1.6-3.3-2.3l.6-.8c1.1.7,2.2,1.5,3.3,2.3l-.6.8ZM164,38.2l-.5-.9c1.2-.7,2.3-1.3,3.5-1.9l.5.9c-1.2.6-2.3,1.2-3.5,1.9ZM236,38.2c-1.1-.7-2.3-1.3-3.5-1.9l.5-.9c1.2.6,2.4,1.3,3.5,1.9l-.5.9ZM171,34.6l-.4-.9c1.2-.5,2.5-1.1,3.7-1.5l.4.9c-1.2.5-2.5,1-3.7,1.5ZM228.9,34.6c-1.2-.5-2.4-1-3.7-1.5l.4-.9c1.2.5,2.5,1,3.7,1.5l-.4.9ZM178.5,31.8l-.3-1c1.3-.4,2.6-.8,3.9-1.1l.2,1c-1.3.3-2.6.7-3.8,1.1ZM221.5,31.8c-1.3-.4-2.5-.8-3.8-1.1l.2-1c1.3.3,2.6.7,3.9,1.1l-.3,1ZM186.2,29.8l-.2-1c1.3-.3,2.6-.5,4-.7v1c-1.2.2-2.5.4-3.8.7ZM213.8,29.8c-1.3-.3-2.6-.5-3.9-.7v-1c1.5.2,2.8.4,4.1.7l-.2,1ZM194,28.7v-1c1.2-.1,2.6-.2,3.9-.2v1c-1.3,0-2.6.1-3.9.2ZM205.9,28.7c-1.3-.1-2.6-.2-4-.2v-1c1.4,0,2.7.1,4,.2v1Z"/>
          <path class="cls-4" d="M182,132.3l3.3,4.8,2.5-5.2-5.8.4ZM237,100h-.5c0,20.2-16.3,36.5-36.5,36.5v1c20.7,0,37.5-16.8,37.5-37.5h-.5ZM163,100h.5c0-20.2,16.3-36.5,36.5-36.5v-1c-20.7,0-37.5,16.8-37.5,37.5h.5ZM171,123l.4-.3c-4.9-6.2-7.9-14.1-7.9-22.7h-1c0,8.8,3,16.9,8.1,23.3l.4-.3ZM200,137v-.5c-4.9,0-9.5-1-13.8-2.7l-.2.5-.2.5c4.4,1.8,9.1,2.8,14.1,2.8v-.5ZM200,63v.5c9.7,0,18.4,3.7,25,9.9l.3-.4.3-.4c-6.7-6.3-15.7-10.1-25.6-10.1v.5ZM235.2,88.6l-.5.2c1.1,3.5,1.8,7.3,1.8,11.2h1c0-4-.6-7.9-1.8-11.5l-.5.2Z"/>
          <polygon class="cls-5" points="200 112.7 182.4 94.3 183.1 93.7 200 111.3 268.1 40.7 268.9 41.3 200 112.7"/>
        </g>
      </g>
    </g>
  </g>
</svg>