<svg xmlns="http://www.w3.org/2000/svg" fill="none" viewBox="0 0 173 56" height="56" width="173">
<path fill="black" d="M15.259 11.207C15.6438 11.8772 15.6438 12.6915 15.259 13.3457L4.27661 32.4277L9.45532 41.4268C10.6898 43.5966 13.4635 44.3623 15.6438 43.1338C16.365 42.7349 16.9579 42.1446 17.3586 41.4268L22.5374 32.4277L21.1428 30.0029L15.259 40.2139C14.6659 41.2349 13.3671 41.5862 12.3411 40.9961C12.0204 40.8046 11.7473 40.533 11.5549 40.2139L7.08228 32.4277L17.2786 14.7178L19.1223 17.9248C19.507 18.5949 19.507 19.4084 19.1223 20.0625L12.0042 32.4121L13.3987 34.8369L21.1262 21.4189L26.2083 30.2266C26.9937 31.5827 26.9938 33.2421 26.2083 34.6143L21.0461 43.5645C20.2606 44.9366 17.8238 47.9999 13.3831 48C8.94211 48 6.53721 44.9366 5.7356 43.5645L0.589111 34.6143C-0.196418 33.2581 -0.196312 31.5827 0.589111 30.2266L13.4153 8L15.259 11.207ZM54.4417 23.4131C58.5779 23.4132 61.9446 26.3014 61.9446 30.9443C61.9445 32.7791 61.2551 35.3635 58.8186 36.4805C61.2714 37.709 61.8801 39.4803 61.8801 41.3789C61.8801 45.4635 58.7539 48 54.4573 48C50.1607 47.9999 46.9543 45.3836 46.9543 41.3789H50.594C50.594 43.3095 52.3736 44.5703 54.4739 44.5703C56.5739 44.5702 58.2249 43.4211 58.2249 41.3789C58.2248 39.3368 56.3014 38.3956 54.4739 38.3955C49.8566 38.3955 46.97 35.5388 46.97 30.9277C46.9702 26.3169 50.3055 23.429 54.4417 23.4131ZM114.418 23.4131C118.955 23.4131 121.969 26.7959 121.969 31.1357C121.969 35.4436 119.228 38.9697 114.498 38.9697C112.959 38.9697 110.683 38.459 109.641 36.8477V44.7295L106.001 45.1289V23.748H109.529L109.641 25.7744C110.779 24.1312 112.751 23.4131 114.418 23.4131ZM97.6165 23.4131C99.941 23.4131 101.689 23.8597 103.42 25.3594L101.368 27.7529C100.31 26.7638 99.1076 26.4288 97.6809 26.4287C95.9335 26.4287 94.9711 26.9712 94.9709 27.8965C94.9709 29.1887 96.5258 29.4283 97.5198 29.4922C99.2192 29.6039 100.983 29.7153 102.458 30.6406C103.645 31.3905 104.126 32.7311 104.11 34.1191C104.11 36.5921 102.17 38.2354 99.9094 38.7461C96.9114 39.4162 93.5922 38.7779 91.2034 36.8154L90.9788 36.6406L92.8225 34.2793C93.6562 34.8218 94.4582 35.3004 95.4202 35.5557C96.3179 35.779 97.2638 35.8584 98.1936 35.8105C99.0753 35.7786 100.277 35.4915 100.47 34.4707C100.743 33.0347 99.0433 32.7631 98.0012 32.6514C96.4301 32.4759 94.6661 32.3645 93.2874 31.5029C92.085 30.753 91.3313 29.4444 91.3313 28.0244C91.3313 24.61 94.907 23.4131 97.6165 23.4131ZM86.1057 23.7646H89.344L89.0071 26.9395H86.0735V34.2314C86.0735 34.8691 86.1852 35.3317 86.4094 35.6348C86.6339 35.9379 86.9709 36.082 87.4358 36.082C87.9809 36.0661 88.5264 35.8904 88.9592 35.6191L90.2092 37.9482C89.6962 38.2833 89.1354 38.5553 88.5422 38.7148C87.9332 38.8903 87.308 38.9853 86.6829 38.9854C85.2881 38.9694 84.2295 38.5708 83.5081 37.7891C82.7867 37.0073 82.4339 35.8586 82.4338 34.3271L82.4182 26.9551H79.6438V23.7803H82.4182V20.0947L86.1057 19.6953V23.7646ZM173 17.2705V38.5869H169.473L169.345 36.6084C168.207 38.2517 166.235 38.9696 164.568 38.9697C160.031 38.9857 157.016 35.6033 157.016 31.2637C157.016 26.9398 159.742 23.4453 164.455 23.4453C166.01 23.4454 168.318 23.924 169.361 25.5352V17.2705H173ZM131.044 23.3809C135.533 23.3651 139.252 26.4449 138.852 32.4756L126.763 32.5078C127.18 34.2629 128.783 35.7949 131.365 35.7949C132.711 35.7949 134.491 35.1402 135.324 34.2627L137.665 36.5605C136.094 38.172 133.545 38.9541 131.3 38.9541C126.683 38.954 123.332 35.8741 123.332 31.1514C123.332 26.6521 126.796 23.3968 131.044 23.3809ZM147.942 23.3809C152.431 23.3649 156.15 26.4446 155.749 32.4756L143.661 32.5078C144.078 34.2628 145.681 35.7947 148.262 35.7949C149.609 35.7949 151.389 35.1402 152.223 34.2627L154.563 36.5605C153.008 38.1718 150.443 38.9541 148.198 38.9541C143.581 38.9541 140.231 35.8742 140.231 31.1514C140.231 26.6521 143.693 23.3969 147.942 23.3809ZM38.2327 17.2383V38.6025H34.6252V17.2383H38.2327ZM67.925 17.2383V25.6152C69.2396 23.9082 70.8584 23.3975 72.5256 23.3975C76.7099 23.3975 78.5699 26.2372 78.554 30.5928V38.6025H74.9143V30.8486C74.9143 28.1522 73.5036 27.0195 71.5637 27.0195C69.4156 27.0197 67.9251 28.838 67.925 31.0557V38.6025H64.2854V17.2383H67.925ZM44.8704 23.7803V38.5869H41.2307V23.7803H44.8704ZM164.84 26.5723C162.371 26.5723 160.656 28.8544 160.656 31.168C160.656 33.4814 162.211 35.9541 164.84 35.9541C167.469 35.9539 169.024 33.4813 169.025 31.168C169.025 28.8545 167.325 26.5724 164.84 26.5723ZM114.146 26.4443C111.516 26.4443 109.961 28.9339 109.961 31.2314C109.961 33.529 111.661 35.8105 114.146 35.8105C116.631 35.8105 118.33 33.5449 118.33 31.2314C118.33 28.9179 116.775 26.4444 114.146 26.4443ZM54.4573 26.4443C52.3411 26.4445 50.5774 28.3596 50.5774 30.9443C50.5775 33.5289 52.3251 35.3641 54.4573 35.3643C56.5735 35.3483 58.3049 33.4806 58.3049 30.9277C58.3047 28.3751 56.5734 26.4443 54.4573 26.4443ZM131.092 26.4443C129.072 26.4603 127.324 27.8012 126.763 29.7158H135.372C134.955 27.9608 133.192 26.4444 131.092 26.4443ZM147.99 26.4443C145.97 26.4605 144.222 27.8013 143.661 29.7158H152.271C151.854 27.9607 150.09 26.4443 147.99 26.4443ZM43.0588 16.9189C44.2291 16.9351 45.1911 17.893 45.175 19.0576C45.1589 20.2223 44.2125 21.1631 43.0422 21.1631C42.4812 21.163 41.9361 20.9398 41.5354 20.541C41.1507 20.1581 40.9264 19.5997 40.9104 19.0254C40.9265 17.8447 41.8885 16.903 43.0588 16.9189Z"></path>
</svg>
