<svg xmlns="http://www.w3.org/2000/svg" fill="none" viewBox="0 0 173 56" height="56" width="173">
<path fill="white" d="M68.9229 35.4026C69.027 36.3896 69.7555 37.5844 71.1085 37.5844H71.8891C72.2013 37.5844 72.4615 37.3247 72.4615 37.013V19.8182C72.4615 19.5065 72.2013 19.2987 71.8891 19.2987H69.4433C69.1311 19.2987 68.9229 19.5065 68.8709 19.8182V21.2208C67.3618 19.4026 65.02 18.6234 62.6783 18.6234C57.3184 18.6234 52.9992 22.9351 52.9992 28.2857C53.0512 33.6364 57.3704 37.948 62.7304 37.948C65.0721 37.948 67.622 37.0649 68.9229 35.4026ZM62.7304 34.5714C59.3479 34.5714 56.5898 31.7662 56.5898 28.2857C56.5898 24.8052 59.3479 22 62.7304 22C66.1128 22 68.8709 24.8052 68.8709 28.2857C68.8709 31.7662 66.1128 34.5714 62.7304 34.5714Z"></path>
<path fill="white" d="M108.472 35.4025C108.576 36.3896 109.305 37.5844 110.658 37.5844H111.438C111.75 37.5844 112.011 37.3246 112.011 37.0129V19.8181C112.011 19.5064 111.75 19.2986 111.438 19.2986H109.044C108.732 19.2986 108.524 19.5064 108.472 19.8181V21.2207C106.963 19.4025 104.621 18.6233 102.279 18.6233C96.9195 18.6233 92.6003 22.935 92.6003 28.2857C92.6003 33.6363 96.9195 37.948 102.279 37.948C104.673 37.948 107.223 37.0649 108.472 35.4025ZM102.332 34.5714C98.949 34.5714 96.191 31.7662 96.191 28.2857C96.191 24.8051 98.949 21.9999 102.332 21.9999C105.714 21.9999 108.472 24.8051 108.472 28.2857C108.472 31.7662 105.714 34.5714 102.332 34.5714Z"></path>
<path fill="white" d="M152.757 35.4025C152.861 36.3896 153.589 37.5844 154.942 37.5844H155.723C156.035 37.5844 156.295 37.3246 156.295 37.0129V19.8181C156.295 19.5064 156.035 19.2986 155.723 19.2986H153.277C152.965 19.2986 152.757 19.5064 152.704 19.8181V21.2207C151.195 19.4025 148.854 18.6233 146.512 18.6233C141.152 18.6233 136.833 22.935 136.833 28.2857C136.833 33.6363 141.152 37.948 146.512 37.948C148.906 37.948 151.456 37.0649 152.757 35.4025ZM146.564 34.5714C143.181 34.5714 140.423 31.7662 140.423 28.2857C140.423 24.8051 143.181 21.9999 146.564 21.9999C149.946 21.9999 152.704 24.8051 152.704 28.2857C152.704 31.7662 149.946 34.5714 146.564 34.5714Z"></path>
<path fill="white" d="M133.815 35.974V27.0909C133.815 22.0519 130.64 18.6753 125.593 18.6753C123.199 18.6753 120.961 20.0779 120.493 21.2727C120.337 20.3377 119.868 19.3506 118.307 19.3506H117.527C117.214 19.3506 116.954 19.6104 116.954 19.9221V35.4545V37.1169V37.1688C116.954 37.4805 117.214 37.6883 117.527 37.6883H119.192H119.972C120.024 37.6883 120.024 37.6883 120.077 37.6883H120.129H120.181C120.181 37.6883 120.233 37.6883 120.233 37.6364C120.233 37.6364 120.233 37.6364 120.285 37.6364L120.337 37.5844L120.389 37.5325C120.441 37.4286 120.493 37.3247 120.493 37.2208V37.1688V36.0779V35.7662V26.9351C120.493 24.2338 122.678 22.0519 125.384 22.0519C128.09 22.0519 130.276 24.2338 130.276 26.9351V35.4545V37.0649V37.1169C130.276 37.4286 130.536 37.6364 130.848 37.6364H132.514H133.294C133.346 37.6364 133.346 37.6364 133.398 37.6364H133.45H133.502C133.502 37.6364 133.554 37.6364 133.554 37.5844C133.554 37.5844 133.554 37.5844 133.606 37.5844L133.659 37.5325L133.711 37.4805C133.763 37.3766 133.815 37.2727 133.815 37.1688V37.1169V35.974Z"></path>
<path fill="white" d="M78.2378 32.9091C79.8509 34.0519 81.6202 34.5714 83.3375 34.5714C84.9507 34.5714 86.6159 33.7403 86.6159 32.2857C86.6159 30.3117 82.9732 30.0519 80.6836 29.2727C78.3939 28.4935 76.4164 26.8831 76.4164 24.2857C76.4164 20.2857 79.955 18.6753 83.2855 18.6753C85.367 18.6753 87.5526 19.3506 88.9576 20.3377C89.426 20.7013 89.1658 21.1169 89.1658 21.1169L87.8128 23.039C87.6567 23.2468 87.3965 23.4545 87.0322 23.1948C86.6679 22.987 85.315 22 83.2855 22C81.256 22 80.0591 22.9351 80.0591 24.0779C80.0591 25.4805 81.6202 25.8961 83.4936 26.3636C86.72 27.2468 90.2586 28.2857 90.2586 32.2338C90.2586 35.7662 86.9802 37.8961 83.3375 37.8961C80.5795 37.8961 78.2378 37.1169 76.2603 35.6623C75.844 35.2468 76.1562 34.8831 76.1562 34.8831L77.5092 32.961C77.7694 32.7013 78.0816 32.8052 78.2378 32.9091Z"></path>
<path fill="white" d="M37.804 20.5974C37.804 24.2338 34.8378 27.1948 31.1952 27.1948C27.5525 27.1948 24.5863 24.2338 24.5863 20.5974C24.5863 16.961 27.5525 14 31.1952 14C34.8899 14 37.804 16.9091 37.804 20.5974ZM22.6089 28.8052C18.9662 28.8052 16 31.7662 16 35.4026C16 39.039 18.9662 42 22.6089 42C26.2515 42 29.2177 39.039 29.2177 35.4026C29.2177 31.7662 26.3036 28.8052 22.6089 28.8052ZM39.7815 28.8052C36.1388 28.8052 33.1726 31.7662 33.1726 35.4026C33.1726 39.039 36.1388 42 39.7815 42C43.4242 42 46.3903 39.039 46.3903 35.4026C46.3903 31.7662 43.4762 28.8052 39.7815 28.8052Z"></path>
<mask height="28" width="31" y="14" x="16" maskUnits="userSpaceOnUse" style="mask-type:luminance" id="mask0_5_1983">
<path fill="white" d="M37.804 20.5974C37.804 24.2338 34.8378 27.1948 31.1952 27.1948C27.5525 27.1948 24.5863 24.2338 24.5863 20.5974C24.5863 16.961 27.5525 14 31.1952 14C34.8899 14 37.804 16.9091 37.804 20.5974ZM22.6089 28.8052C18.9662 28.8052 16 31.7662 16 35.4026C16 39.039 18.9662 42 22.6089 42C26.2515 42 29.2177 39.039 29.2177 35.4026C29.2177 31.7662 26.3036 28.8052 22.6089 28.8052ZM39.7815 28.8052C36.1388 28.8052 33.1726 31.7662 33.1726 35.4026C33.1726 39.039 36.1388 42 39.7815 42C43.4242 42 46.3903 39.039 46.3903 35.4026C46.3903 31.7662 43.4762 28.8052 39.7815 28.8052Z"></path>
</mask>
<g mask="url(#mask0_5_1983)">
<path fill="white" d="M31.1951 13.6884C40.4059 13.6884 47.8474 21.117 47.8474 30.3118C47.8474 39.5066 40.4059 46.9351 31.1951 46.9351C21.9844 46.9351 14.5429 39.5066 14.5429 30.3118C14.5949 21.117 22.0364 13.6884 31.1951 13.6884Z"></path>
</g>
</svg>
