<svg xmlns="http://www.w3.org/2000/svg" fill="none" viewBox="0 0 205 56" height="56" width="205">
<path fill="white" d="M45.9781 27.9121C45.9781 26.4176 46.9906 25.4066 48.5312 25.4066C49.9399 25.4066 50.9083 26.4176 50.9083 27.9121C50.9083 29.3626 49.9399 30.3296 48.5312 30.3296C46.9906 30.3296 45.9781 29.3626 45.9781 27.9121ZM42.1923 20.0879C43.0727 18.8132 43.6449 17.2747 43.6449 15.1209C45.802 16.3956 47.6067 18.1978 48.8834 20.3517C46.7704 20.3517 45.2296 20.923 43.9531 21.8461C43.4688 21.1868 42.8526 20.5715 42.1923 20.0879ZM42.1042 35.8241C42.7645 35.3407 43.3368 34.7252 43.865 34.1099C45.1416 35.077 46.7264 35.6484 48.8834 35.6484C47.6067 37.8461 45.802 39.6484 43.6449 40.8791C43.6449 38.6814 43.0727 37.0989 42.1042 35.8241ZM40.7836 9.71429C49.0154 11.7802 54.9142 19.077 54.9142 28C54.9142 31.7362 52.0969 34.5055 48.4432 34.5055C46.9465 34.5055 45.5378 34.022 44.4814 33.2308C45.0536 32.3077 45.4498 31.2967 45.714 30.1978C46.4182 30.989 47.4307 31.4725 48.5312 31.4725C50.4241 31.4725 52.0529 29.8461 52.0529 27.9121C52.0529 21.8022 48.5312 16.4396 43.3809 13.7582C42.9847 12.1758 42.0162 10.7253 40.7836 9.71429ZM38.7147 33.2308C40.6076 32.2638 41.9282 30.2857 41.9282 28C41.9282 23.6922 45.7579 20.8791 49.5437 21.5824C50.0279 22.6374 50.3801 23.8241 50.6442 25.011C50.0279 24.5275 49.3236 24.2638 48.5312 24.2638C46.5062 24.2638 44.8334 25.9341 44.8334 27.9121C44.8334 30.9011 43.4688 33.4505 41.3999 35.033C40.6515 34.2418 39.7271 33.6264 38.7147 33.2308ZM33.5643 15.6483C33.5643 14.1539 34.5767 13.1429 36.1174 13.1429C37.5261 13.1429 38.4945 14.1538 38.4945 15.6483C38.4945 17.0989 37.5261 18.0659 36.1174 18.0659C34.5767 18.0659 33.5643 17.0989 33.5643 15.6483ZM33.5643 40.4396C33.5643 38.9451 34.5767 37.9341 36.1174 37.9341C37.5261 37.9341 38.4945 38.9451 38.4945 40.4396C38.4945 41.8901 37.5261 42.8571 36.1174 42.8571C34.5767 42.8571 33.5643 41.8901 33.5643 40.4396ZM31.2752 28C31.2752 25.2747 33.3001 23.2528 36.0734 23.2528C38.8027 23.2528 40.7836 25.2747 40.7836 28C40.7836 30.7693 38.8027 32.7472 36.0734 32.7472C33.3001 32.7472 31.2752 30.7693 31.2752 28ZM36.0734 22.1099C31.8474 22.1099 29.0301 18.5934 29.6464 14.5494C30.7469 14.022 31.9794 13.6264 33.212 13.4066C32.7278 14.022 32.4197 14.8132 32.4197 15.6483C32.4197 17.5824 34.0924 19.2088 36.1174 19.2088C39.0668 19.2088 41.62 20.4396 43.1607 22.5055C42.3244 23.2968 41.7081 24.2638 41.2678 25.3186C40.2994 23.4285 38.3185 22.1099 36.0734 22.1099ZM29.5584 40.3516C29.5584 38.8571 30.0426 37.4945 30.835 36.4396C31.7153 36.967 32.6838 37.4066 33.7403 37.6704C32.9479 38.3296 32.4197 39.3407 32.4197 40.4396C32.4197 42.3736 34.0924 44 36.1174 44C42.2803 44 47.5628 40.5275 50.204 35.4285C51.8328 35.033 53.2854 34.1099 54.2979 32.8351C52.229 41.011 44.9655 46.8571 36.0294 46.8571C32.3756 46.8571 29.5584 44.044 29.5584 40.3516ZM29.0301 33.4066C29.7785 32.6154 30.3947 31.6923 30.7909 30.6814C31.7594 32.5715 33.7843 33.8901 36.0734 33.8901C40.2994 33.8901 43.0727 37.6264 42.4124 41.5385C41.3119 42.022 40.1233 42.4176 38.8907 42.6374C39.331 42.022 39.639 41.2747 39.639 40.4396C39.639 38.4615 38.0103 36.7911 36.1174 36.7911C33.1681 36.7911 30.6148 35.4725 29.0301 33.4066ZM23.2194 35.6484C25.3324 35.6484 26.9171 35.077 28.1937 34.1099C28.7219 34.7252 29.2942 35.3408 29.9546 35.8241C28.986 37.0989 28.4138 38.6814 28.4138 40.8351C26.2568 39.5604 24.496 37.8022 23.2194 35.6484ZM23.1754 20.3517C24.452 18.2417 26.2568 16.4396 28.4138 15.1649C28.4138 17.3626 28.986 18.9451 29.9985 20.2198C29.3382 20.7032 28.7219 21.2747 28.2377 21.9341C26.9612 20.923 25.3764 20.3517 23.1754 20.3517ZM21.3705 30.6814C22.0308 31.1649 22.8232 31.4725 23.7036 31.4725C25.5965 31.4725 27.2253 29.8461 27.2253 27.9121C27.2253 25.0549 28.59 22.5934 30.6589 21.011C31.4512 21.7583 32.3756 22.3736 33.3881 22.7692C31.4512 23.7362 30.1306 25.7583 30.1306 28C30.1306 32.3077 26.4769 35.033 22.5591 34.4176C22.0308 33.2308 21.6346 32 21.3705 30.6814ZM21.1504 27.9121C21.1504 26.4176 22.1629 25.4066 23.7036 25.4066C25.1123 25.4066 26.0807 26.4176 26.0807 27.9121C26.0807 29.3626 25.1123 30.3296 23.7036 30.3296C22.1629 30.3296 21.1504 29.3626 21.1504 27.9121ZM17.7168 23.2089C19.8298 14.989 27.0932 9.14285 35.9853 9.14285C39.6831 9.14285 42.5004 11.956 42.5004 15.6044C42.5004 17.0989 42.0602 18.4176 41.3119 19.4725C40.4315 18.9451 39.4629 18.5494 38.4065 18.3296C39.1548 17.6704 39.639 16.7033 39.639 15.6483C39.639 13.6703 38.0103 12 36.1174 12C29.9105 12 24.54 15.5165 21.8547 20.5715C20.226 20.967 18.7733 21.9341 17.7168 23.2089ZM17.1445 28C17.1445 24.3078 19.9618 21.4945 23.6596 21.4945C25.1563 21.4945 26.5209 21.978 27.5774 22.8133C27.0492 23.6484 26.653 24.5715 26.3889 25.5824C25.7286 24.7911 24.7601 24.2638 23.7036 24.2638C21.6787 24.2638 20.0059 25.9341 20.0059 27.9121C20.0059 34.1539 23.4835 39.4725 28.6339 42.1978C29.0301 43.8241 29.9985 45.2307 31.2752 46.2857C23.0433 44.2637 17.1445 36.967 17.1445 28ZM35.9853 48C46.6824 48 56.0588 39.4725 56.0588 28C56.0588 16.923 47.1226 8 35.9853 8C24.9362 8 16 16.923 16 28C16 39.077 24.9362 48 35.9853 48Z"></path>
<path fill="white" d="M45.9781 27.9121C45.9781 26.4176 46.9906 25.4066 48.5312 25.4066C49.9399 25.4066 50.9083 26.4176 50.9083 27.9121C50.9083 29.3626 49.9399 30.3296 48.5312 30.3296C46.9906 30.3296 45.9781 29.3626 45.9781 27.9121ZM42.1923 20.0879C43.0727 18.8132 43.6449 17.2747 43.6449 15.1209C45.802 16.3956 47.6067 18.1978 48.8834 20.3517C46.7704 20.3517 45.2296 20.923 43.9531 21.8461C43.4688 21.1868 42.8526 20.5715 42.1923 20.0879ZM42.1042 35.8241C42.7645 35.3407 43.3368 34.7252 43.865 34.1099C45.1416 35.077 46.7264 35.6484 48.8834 35.6484C47.6067 37.8461 45.802 39.6484 43.6449 40.8791C43.6449 38.6814 43.0727 37.0989 42.1042 35.8241ZM40.7836 9.71429C49.0154 11.7802 54.9142 19.077 54.9142 28C54.9142 31.7362 52.0969 34.5055 48.4432 34.5055C46.9465 34.5055 45.5378 34.022 44.4814 33.2308C45.0536 32.3077 45.4498 31.2967 45.714 30.1978C46.4182 30.989 47.4307 31.4725 48.5312 31.4725C50.4241 31.4725 52.0529 29.8461 52.0529 27.9121C52.0529 21.8022 48.5312 16.4396 43.3809 13.7582C42.9847 12.1758 42.0162 10.7253 40.7836 9.71429ZM38.7147 33.2308C40.6076 32.2638 41.9282 30.2857 41.9282 28C41.9282 23.6922 45.7579 20.8791 49.5437 21.5824C50.0279 22.6374 50.3801 23.8241 50.6442 25.011C50.0279 24.5275 49.3236 24.2638 48.5312 24.2638C46.5062 24.2638 44.8334 25.9341 44.8334 27.9121C44.8334 30.9011 43.4688 33.4505 41.3999 35.033C40.6515 34.2418 39.7271 33.6264 38.7147 33.2308ZM33.5643 15.6483C33.5643 14.1539 34.5767 13.1429 36.1174 13.1429C37.5261 13.1429 38.4945 14.1538 38.4945 15.6483C38.4945 17.0989 37.5261 18.0659 36.1174 18.0659C34.5767 18.0659 33.5643 17.0989 33.5643 15.6483ZM33.5643 40.4396C33.5643 38.9451 34.5767 37.9341 36.1174 37.9341C37.5261 37.9341 38.4945 38.9451 38.4945 40.4396C38.4945 41.8901 37.5261 42.8571 36.1174 42.8571C34.5767 42.8571 33.5643 41.8901 33.5643 40.4396ZM31.2752 28C31.2752 25.2747 33.3001 23.2528 36.0734 23.2528C38.8027 23.2528 40.7836 25.2747 40.7836 28C40.7836 30.7693 38.8027 32.7472 36.0734 32.7472C33.3001 32.7472 31.2752 30.7693 31.2752 28ZM36.0734 22.1099C31.8474 22.1099 29.0301 18.5934 29.6464 14.5494C30.7469 14.022 31.9794 13.6264 33.212 13.4066C32.7278 14.022 32.4197 14.8132 32.4197 15.6483C32.4197 17.5824 34.0924 19.2088 36.1174 19.2088C39.0668 19.2088 41.62 20.4396 43.1607 22.5055C42.3244 23.2968 41.7081 24.2638 41.2678 25.3186C40.2994 23.4285 38.3185 22.1099 36.0734 22.1099ZM29.5584 40.3516C29.5584 38.8571 30.0426 37.4945 30.835 36.4396C31.7153 36.967 32.6838 37.4066 33.7403 37.6704C32.9479 38.3296 32.4197 39.3407 32.4197 40.4396C32.4197 42.3736 34.0924 44 36.1174 44C42.2803 44 47.5628 40.5275 50.204 35.4285C51.8328 35.033 53.2854 34.1099 54.2979 32.8351C52.229 41.011 44.9655 46.8571 36.0294 46.8571C32.3756 46.8571 29.5584 44.044 29.5584 40.3516ZM29.0301 33.4066C29.7785 32.6154 30.3947 31.6923 30.7909 30.6814C31.7594 32.5715 33.7843 33.8901 36.0734 33.8901C40.2994 33.8901 43.0727 37.6264 42.4124 41.5385C41.3119 42.022 40.1233 42.4176 38.8907 42.6374C39.331 42.022 39.639 41.2747 39.639 40.4396C39.639 38.4615 38.0103 36.7911 36.1174 36.7911C33.1681 36.7911 30.6148 35.4725 29.0301 33.4066ZM23.2194 35.6484C25.3324 35.6484 26.9171 35.077 28.1937 34.1099C28.7219 34.7252 29.2942 35.3408 29.9546 35.8241C28.986 37.0989 28.4138 38.6814 28.4138 40.8351C26.2568 39.5604 24.496 37.8022 23.2194 35.6484ZM23.1754 20.3517C24.452 18.2417 26.2568 16.4396 28.4138 15.1649C28.4138 17.3626 28.986 18.9451 29.9985 20.2198C29.3382 20.7032 28.7219 21.2747 28.2377 21.9341C26.9612 20.923 25.3764 20.3517 23.1754 20.3517ZM21.3705 30.6814C22.0308 31.1649 22.8232 31.4725 23.7036 31.4725C25.5965 31.4725 27.2253 29.8461 27.2253 27.9121C27.2253 25.0549 28.59 22.5934 30.6589 21.011C31.4512 21.7583 32.3756 22.3736 33.3881 22.7692C31.4512 23.7362 30.1306 25.7583 30.1306 28C30.1306 32.3077 26.4769 35.033 22.5591 34.4176C22.0308 33.2308 21.6346 32 21.3705 30.6814ZM21.1504 27.9121C21.1504 26.4176 22.1629 25.4066 23.7036 25.4066C25.1123 25.4066 26.0807 26.4176 26.0807 27.9121C26.0807 29.3626 25.1123 30.3296 23.7036 30.3296C22.1629 30.3296 21.1504 29.3626 21.1504 27.9121ZM17.7168 23.2089C19.8298 14.989 27.0932 9.14285 35.9853 9.14285C39.6831 9.14285 42.5004 11.956 42.5004 15.6044C42.5004 17.0989 42.0602 18.4176 41.3119 19.4725C40.4315 18.9451 39.4629 18.5494 38.4065 18.3296C39.1548 17.6704 39.639 16.7033 39.639 15.6483C39.639 13.6703 38.0103 12 36.1174 12C29.9105 12 24.54 15.5165 21.8547 20.5715C20.226 20.967 18.7733 21.9341 17.7168 23.2089ZM17.1445 28C17.1445 24.3078 19.9618 21.4945 23.6596 21.4945C25.1563 21.4945 26.5209 21.978 27.5774 22.8133C27.0492 23.6484 26.653 24.5715 26.3889 25.5824C25.7286 24.7911 24.7601 24.2638 23.7036 24.2638C21.6787 24.2638 20.0059 25.9341 20.0059 27.9121C20.0059 34.1539 23.4835 39.4725 28.6339 42.1978C29.0301 43.8241 29.9985 45.2307 31.2752 46.2857C23.0433 44.2637 17.1445 36.967 17.1445 28ZM35.9853 48C46.6824 48 56.0588 39.4725 56.0588 28C56.0588 16.923 47.1226 8 35.9853 8C24.9362 8 16 16.923 16 28C16 39.077 24.9362 48 35.9853 48Z"></path>
<path fill="white" d="M71.0808 20.92H75.0266L78.712 30.98H78.7721L82.4174 20.92H86.3832V35.08H83.8796V23.7H83.8395L79.5332 35.08H77.7706L73.5244 23.7H73.4843V35.08H71.0808V20.92ZM93.2911 20.92H102.685V23.12H95.8148V26.72H102.324V28.84H95.8148V32.84H103.045V35.08H93.2911V20.92ZM113.879 27.02C114.24 27.02 114.6 26.9934 114.961 26.94C115.321 26.8866 115.645 26.7866 115.932 26.64C116.219 26.4934 116.456 26.2834 116.643 26.01C116.83 25.7366 116.924 25.3866 116.924 24.96C116.924 24.5734 116.837 24.2566 116.663 24.01C116.49 23.7634 116.269 23.5666 116.002 23.42C115.735 23.2734 115.431 23.1734 115.091 23.12C114.75 23.0666 114.42 23.04 114.099 23.04H111.816V27.02H113.879ZM109.292 20.92H114.22C114.887 20.92 115.535 20.99 116.162 21.13C116.79 21.27 117.348 21.5 117.835 21.82C118.322 22.14 118.713 22.56 119.007 23.08C119.3 23.6 119.447 24.2334 119.447 24.98C119.447 26.0066 119.157 26.8434 118.576 27.49C117.995 28.1366 117.204 28.5734 116.202 28.8L119.988 35.08H116.944L113.659 29.08H111.816V35.08H109.292V20.92ZM135.909 24.24C135.535 23.7334 135.048 23.3634 134.447 23.13C133.846 22.8966 133.259 22.78 132.685 22.78C131.95 22.78 131.282 22.9134 130.682 23.18C130.081 23.4466 129.563 23.8134 129.129 24.28C128.695 24.7466 128.361 25.2934 128.128 25.92C127.894 26.5466 127.777 27.2266 127.777 27.96C127.777 28.7334 127.891 29.44 128.118 30.08C128.345 30.72 128.669 31.27 129.089 31.73C129.51 32.19 130.014 32.5466 130.601 32.8C131.189 33.0534 131.85 33.18 132.584 33.18C133.345 33.18 134.02 33.03 134.607 32.73C135.195 32.43 135.669 32.0334 136.029 31.54L138.052 32.96C137.425 33.7466 136.657 34.3566 135.749 34.79C134.841 35.2234 133.779 35.44 132.564 35.44C131.456 35.44 130.438 35.2566 129.51 34.89C128.582 34.5234 127.784 34.01 127.116 33.35C126.449 32.69 125.928 31.9034 125.554 30.99C125.18 30.0766 124.993 29.0666 124.993 27.96C124.993 26.8266 125.19 25.8034 125.584 24.89C125.978 23.9766 126.519 23.2 127.206 22.56C127.894 21.92 128.705 21.4266 129.64 21.08C130.575 20.7334 131.59 20.56 132.685 20.56C133.138 20.56 133.613 20.6034 134.107 20.69C134.601 20.7766 135.075 20.91 135.529 21.09C135.983 21.27 136.41 21.4934 136.811 21.76C137.211 22.0266 137.552 22.3466 137.832 22.72L135.909 24.24ZM154.695 29.88C154.695 30.7334 154.548 31.5034 154.254 32.19C153.96 32.8766 153.559 33.46 153.052 33.94C152.545 34.42 151.944 34.79 151.25 35.05C150.555 35.31 149.801 35.44 148.986 35.44C148.171 35.44 147.418 35.31 146.723 35.05C146.028 34.79 145.425 34.42 144.91 33.94C144.396 33.46 143.995 32.8766 143.709 32.19C143.422 31.5034 143.278 30.7334 143.278 29.88V20.92H145.802V29.78C145.802 30.1934 145.855 30.6034 145.962 31.01C146.068 31.4166 146.246 31.78 146.493 32.1C146.739 32.42 147.067 32.68 147.474 32.88C147.881 33.08 148.385 33.18 148.986 33.18C149.587 33.18 150.092 33.08 150.499 32.88C150.905 32.68 151.233 32.42 151.48 32.1C151.727 31.78 151.904 31.4166 152.011 31.01C152.117 30.6034 152.171 30.1934 152.171 29.78V20.92H154.695V29.88ZM166.069 27.02C166.429 27.02 166.79 26.9934 167.15 26.94C167.511 26.8866 167.835 26.7866 168.122 26.64C168.409 26.4934 168.646 26.2834 168.833 26.01C169.019 25.7366 169.113 25.3866 169.113 24.96C169.113 24.5734 169.027 24.2566 168.853 24.01C168.679 23.7634 168.459 23.5666 168.192 23.42C167.925 23.2734 167.621 23.1734 167.281 23.12C166.94 23.0666 166.61 23.04 166.289 23.04H164.006V27.02H166.069ZM161.482 20.92H166.409C167.077 20.92 167.725 20.99 168.352 21.13C168.979 21.27 169.538 21.5 170.025 21.82C170.512 22.14 170.902 22.56 171.196 23.08C171.491 23.6 171.637 24.2334 171.637 24.98C171.637 26.0066 171.347 26.8434 170.766 27.49C170.185 28.1366 169.394 28.5734 168.392 28.8L172.178 35.08H169.133L165.849 29.08H164.006V35.08H161.482V20.92ZM181.148 28.94L175.821 20.92H178.905L182.47 26.88L186.076 20.92H189L183.672 28.94V35.08H181.148V28.94Z" clip-rule="evenodd" fill-rule="evenodd"></path>
</svg>
