<svg xmlns="http://www.w3.org/2000/svg" fill="none" viewBox="0 0 182 56" height="56" width="182">
<path fill="white" d="M74.7949 21.4365C76.6459 21.4365 78.2662 21.835 79.6553 22.6318C81.0469 23.4287 82.12 24.5658 82.874 26.042C83.6399 27.5069 84.0224 29.2293 84.0225 31.209C84.0225 33.1891 83.639 34.9183 82.8721 36.3955C82.1181 37.8717 81.0461 39.0079 79.6562 39.8047C78.2654 40.6015 76.6451 41 74.7949 41C72.9439 41 71.3171 40.6015 69.915 39.8047C68.5244 39.0079 67.4457 37.8717 66.6797 36.3955C65.9257 34.9183 65.5488 33.1891 65.5488 31.209C65.5489 29.2291 65.9258 27.5071 66.6797 26.043C67.4466 24.565 68.5251 23.4278 69.915 22.6318C71.3171 21.835 72.9439 21.4365 74.7949 21.4365ZM110.421 21.4365C112.176 21.4366 113.661 21.7238 114.874 22.2979C116.089 22.8608 117.002 23.6689 117.614 24.7227C118.239 25.7773 118.551 27.0369 118.551 28.501V36.2363C118.551 37.0689 118.611 37.8423 118.729 38.5566C118.858 39.2592 119.04 39.705 119.276 39.8936V40.4902H113.708C113.569 39.9296 113.468 39.3602 113.406 38.7861C113.383 38.5727 113.364 38.3585 113.348 38.1445C113.214 38.3425 113.069 38.5336 112.911 38.7148C112.323 39.4063 111.562 39.9633 110.631 40.3857C109.712 40.7943 108.663 40.9991 107.485 41C106.319 41 105.269 40.7719 104.338 40.3145C103.443 39.8801 102.689 39.2037 102.163 38.3633C101.644 37.5091 101.385 36.5128 101.385 35.375C101.385 33.6408 101.898 32.3167 102.924 31.4033C103.949 30.4781 105.429 29.8745 107.361 29.5918L110.597 29.1348C111.245 29.0405 111.757 28.9238 112.135 28.7842C112.511 28.6428 112.788 28.4555 112.965 28.2217C113.142 27.9758 113.23 27.6644 113.23 27.2891C113.23 26.9037 113.124 26.5523 112.911 26.2354C112.71 25.9074 112.405 25.6495 111.994 25.4619C111.593 25.2623 111.103 25.1621 110.525 25.1621C109.607 25.1621 108.87 25.4032 108.315 25.8838C107.762 26.3524 107.462 26.9967 107.414 27.8174H101.882C101.928 26.5751 102.305 25.473 103.013 24.5117C103.731 23.5402 104.727 22.7849 106 22.2451C107.273 21.7053 108.747 21.4357 110.421 21.4365ZM126.287 24.6455C126.474 24.2871 126.685 23.9553 126.924 23.6514C127.49 22.9369 128.179 22.3919 128.991 22.0166C129.805 21.631 130.719 21.4374 131.732 21.4365C133.253 21.4366 134.573 21.8295 135.692 22.6143C136.813 23.3982 137.673 24.5289 138.273 26.0068C138.874 27.472 139.175 29.2123 139.175 31.2275C139.175 33.2314 138.868 34.971 138.256 36.4463C137.644 37.9115 136.765 39.0364 135.621 39.8213C134.491 40.6069 133.165 40.9999 131.645 41C130.631 41 129.723 40.8249 128.922 40.4736C128.129 40.1183 127.437 39.5739 126.905 38.8896C126.651 38.5614 126.429 38.1973 126.234 37.7998V40.4902H120.931V15.2842H126.287V24.6455ZM157.069 21.4365C158.801 21.4365 160.34 21.8118 161.685 22.5615C163.028 23.3121 164.071 24.402 164.812 25.8311C165.567 27.2602 165.945 28.971 165.945 30.9639C165.945 31.6783 165.939 32.2464 165.927 32.668H153.023C153.074 33.4903 153.231 34.2057 153.498 34.8135C153.828 35.5639 154.3 36.132 154.912 36.5176C155.526 36.8929 156.251 37.0801 157.088 37.0801C158.007 37.0801 158.768 36.8456 159.368 36.377C159.97 35.8971 160.347 35.2233 160.499 34.3555H165.855C165.691 35.7142 165.226 36.8924 164.46 37.8896C163.705 38.8843 162.697 39.6515 161.437 40.1904C160.175 40.7302 158.708 41 157.035 41C155.149 41 153.51 40.6433 152.12 39.9287C150.729 39.2013 149.645 38.1112 148.867 36.6592C148.1 35.2069 147.717 33.4072 147.718 31.2617C147.718 29.2228 148.119 27.4654 148.92 25.9893C149.721 24.501 150.829 23.3694 152.243 22.5957C153.657 21.8229 155.266 21.4366 157.069 21.4365ZM23.6318 15C27.8455 15.0003 31.2626 18.4059 31.2627 22.6084V25.5H33.8027C38.0167 25.5 41.4346 28.9067 41.4346 33.1094C41.4343 37.3093 38.0178 40.7158 33.8027 40.7158H16V22.6074C16 18.406 19.4166 15 23.6318 15ZM92.8809 35.0117L96.7432 21.9453H102.277L95.8242 40.4912H89.8672L83.167 21.9453H88.8594L92.8809 35.0117ZM55.4434 35.4199H61.9316C66.6613 35.4199 66.0137 40.4902 66.0137 40.4902H49.8926V15.2842H55.4434V35.4199ZM146.116 40.4902H140.76V15.2842H146.116V40.4902ZM113.266 31.4443C113.078 31.6019 112.871 31.7366 112.647 31.8418C112.234 32.0413 111.674 32.2111 110.968 32.3516L109.606 32.6152C108.7 32.7909 108.016 33.0607 107.555 33.4248C107.107 33.7871 106.883 34.2972 106.883 34.9541C106.883 35.6113 107.125 36.1329 107.609 36.5176C108.092 36.9047 108.709 37.0986 109.464 37.0986C110.219 37.0986 110.886 36.9346 111.463 36.6064C112.04 36.2654 112.482 35.7965 112.789 35.2002C113.107 34.603 113.266 33.9227 113.266 33.1602V31.4443ZM129.981 25.4961C129.192 25.4962 128.515 25.7363 127.95 26.2158C127.395 26.6845 126.976 27.3537 126.693 28.2217C126.411 29.0767 126.27 30.0787 126.27 31.2275C126.27 32.3867 126.411 33.3941 126.693 34.25C126.978 35.1051 127.397 35.7676 127.95 36.2363C128.515 36.7047 129.192 36.9394 129.981 36.9395C130.783 36.9395 131.455 36.7048 131.998 36.2363C132.551 35.7676 132.964 35.1051 133.235 34.25C133.518 33.3941 133.659 32.3866 133.659 31.2275C133.659 30.0674 133.518 29.0591 133.235 28.2031C132.964 27.3489 132.551 26.6873 131.998 26.2178C131.455 25.7371 130.783 25.4961 129.981 25.4961ZM74.7939 25.5146C74.0175 25.5146 73.3453 25.7315 72.7783 26.165C72.2251 26.5866 71.8015 27.225 71.5068 28.0801C71.2122 28.9248 71.0645 29.9677 71.0645 31.209C71.0645 32.4505 71.2121 33.4995 71.5068 34.3555C71.8016 35.2114 72.2251 35.8565 72.7783 36.29C73.3445 36.7116 74.0168 36.9219 74.7949 36.9219C75.5722 36.9219 76.2379 36.7116 76.792 36.29C77.3452 35.8557 77.7699 35.217 78.0654 34.374C78.3601 33.5181 78.5068 32.4625 78.5068 31.209C78.5068 29.3467 78.1829 27.9349 77.5342 26.9736C76.8862 26.0013 75.9726 25.5148 74.7939 25.5146ZM156.945 25.2861C156.156 25.2862 155.461 25.4789 154.859 25.8652C154.271 26.2405 153.811 26.8031 153.481 27.5527C153.301 27.9783 153.173 28.4532 153.095 28.9766H160.473C160.42 28.3131 160.288 27.7392 160.075 27.2549C159.804 26.5986 159.403 26.1065 158.873 25.7783C158.343 25.4502 157.7 25.2861 156.945 25.2861Z"></path>
</svg>
