<svg xmlns="http://www.w3.org/2000/svg" fill="none" viewBox="0 0 141 56" height="56" width="141">
<path fill="white" d="M61.2135 22.228H58.0591V25.5099H61.2135V32.6793C61.2135 36.248 63.5078 38.2872 67.0128 38.2872H69.5937V34.7504H67.4588C65.9931 34.7504 65.1328 33.922 65.1328 32.2969V25.5099H69.5937V22.228H65.1328V17.3848H61.2135V22.228Z"></path>
<path fill="white" d="M71.4194 19.7109H75.7528V15.25H71.4194V19.7109ZM75.5298 38.2873V22.2281H71.6106V38.2873H75.5298Z"></path>
<path fill="white" d="M81.8524 38.2873V29.5249C81.8524 27.167 83.3818 25.4464 85.5804 25.4464C87.5878 25.4464 88.9261 26.9757 88.9261 29.1743V38.2873H92.8453V28.3459C92.8453 24.5859 90.4874 21.9731 86.8549 21.9731C84.5608 21.9731 82.7445 22.961 81.8524 24.7134V22.228H77.9331V38.2873H81.8524Z"></path>
<path fill="white" d="M106.295 32.9342C105.881 34.4637 104.575 35.2921 102.567 35.2921C100.082 35.2921 98.4252 33.6353 98.1384 31.0543H109.992C110.024 30.7357 110.055 30.2577 110.055 29.716C110.055 25.8924 107.634 21.9731 102.249 21.9731C96.9913 21.9731 94.3784 25.9561 94.3784 30.194C94.3784 34.3999 97.31 38.5422 102.567 38.5422C106.518 38.5422 109.514 36.3437 110.119 32.9342H106.295ZM102.249 24.9046C104.575 24.9046 105.977 26.4341 106.136 28.4733H98.2339C98.6482 26.0518 100.05 24.9046 102.249 24.9046Z"></path>
<path fill="white" d="M117.923 38.5422C121.683 38.5422 124.136 36.5667 124.136 33.5396C124.136 26.2748 115.214 30.0984 115.214 26.6253C115.214 25.5419 116.138 24.9046 117.54 24.9046C118.783 24.9046 120.153 25.6694 120.376 27.167H123.945C123.786 24.0443 121.205 21.9731 117.445 21.9731C114.131 21.9731 111.677 23.9488 111.677 26.7527C111.677 33.5396 120.472 30.1303 120.472 33.699C120.472 34.6548 119.452 35.4196 117.923 35.4196C116.17 35.4196 114.991 34.4637 114.832 32.9342H111.263C111.454 36.3755 114.035 38.5422 117.923 38.5422Z"></path>
<path fill="white" d="M28.0979 11C24.074 11 20.5161 13.6111 19.3119 17.448L16 28L19.3119 38.552C20.5161 42.3889 24.074 45 28.0979 45H37.019C41.0429 45 44.6008 42.3889 45.805 38.552L49.1169 28L45.805 17.448C44.6008 13.6111 41.0429 11 37.019 11H28.0979ZM37.0191 13.6524C39.8832 13.6524 42.4155 15.5108 43.2726 18.2418L44.0846 20.8288C42.4511 19.4804 40.3826 18.7214 38.2208 18.7213L26.872 18.721C24.7246 18.7211 22.6694 19.4699 21.0412 20.8014L21.8445 18.2418C22.7017 15.5108 25.234 13.6524 28.098 13.6524H37.0191ZM21.6538 23.961L19.5916 26.6739H45.5009L43.4389 23.9613C42.1997 22.3311 40.2692 21.3738 38.2206 21.3736H26.8102C24.7847 21.3929 22.8805 22.3473 21.6538 23.961ZM45.4967 29.3262L43.4388 32.0363C42.1995 33.6683 40.2675 34.6268 38.2174 34.6266L26.8751 34.6264C24.825 34.6265 22.8929 33.668 21.6537 32.036L19.596 29.3262H45.4967ZM21.8444 37.7582C22.7015 40.4892 25.2338 42.3477 28.0979 42.3477H37.019C39.883 42.3477 42.4153 40.4892 43.2724 37.7582L44.085 35.1693C42.4508 36.5193 40.3808 37.2791 38.2172 37.279L26.8752 37.2787C24.7261 37.2789 22.6692 36.5291 21.0402 35.196L21.8444 37.7582Z" clip-rule="evenodd" fill-rule="evenodd"></path>
</svg>
