<svg xmlns="http://www.w3.org/2000/svg" fill="none" viewBox="0 0 93 56" height="56" width="93">
<g clip-path="url(#clip0_5823_933)">
<path fill="white" d="M92.2949 49.7803H0V6.21973H92.2949V49.7803ZM1.26758 48.5117H91.0244V7.4873H1.26758V48.5117ZM64.9219 35.2646C66.8929 35.2646 68.1853 36.8348 68.1855 38.6113V38.6299C68.1855 40.4066 66.8746 41.9951 64.9033 41.9951C62.9326 41.9949 61.6406 40.425 61.6406 38.6484V38.6299C61.6408 36.8535 62.9512 35.2648 64.9219 35.2646ZM49.3643 35.2646C50.4251 35.2647 51.0944 35.5795 51.7451 36.1191L51.4277 36.4834C50.9158 36.0362 50.3206 35.7032 49.3369 35.7031C47.7578 35.7031 46.6496 37.0415 46.6494 38.6113V38.6299C46.6494 40.3141 47.7019 41.5664 49.4385 41.5664C50.265 41.5663 51.0357 41.2211 51.5107 40.8232V38.9541H49.3369V38.5068H51.9766V41.0176C51.3906 41.5388 50.4809 41.9921 49.4199 41.9922C47.4941 41.9922 46.3026 40.6614 46.1611 38.9854L46.1475 38.6484V38.6299C46.1477 36.8719 47.4211 35.2646 49.3643 35.2646ZM70.9561 39.124C70.9561 40.657 71.7823 41.543 73.1582 41.543C74.5338 41.5428 75.3232 40.7437 75.3232 39.1738V35.3701H75.8076V39.1182C75.8076 40.9873 74.7188 41.9804 73.1396 41.9805C71.5604 41.9805 70.4717 40.9968 70.4717 39.1738V35.3672H70.9561V39.124ZM57.2012 35.376C57.9999 35.376 58.6415 35.6259 59.0332 36.0176C59.3385 36.326 59.5264 36.7609 59.5264 37.2266V37.2451C59.5263 38.3339 58.7182 38.9574 57.6201 39.1055L59.7676 41.8838H59.1533L57.0811 39.1885H54.9521V41.8838H54.4678V35.376H57.2012ZM80.7461 35.376C82.1772 35.376 83.165 36.1099 83.165 37.3652V37.3838C83.165 38.7501 81.9836 39.4569 80.627 39.457H78.8682V41.8838H78.3838V35.376H80.7461ZM64.9033 35.7031C63.2967 35.7033 62.1438 37.0046 62.1436 38.6113V38.6299C62.1436 40.2369 63.315 41.5574 64.9219 41.5576C66.529 41.5576 67.6826 40.2555 67.6826 38.6484V38.6299C67.6824 37.0231 66.5104 35.7031 64.9033 35.7031ZM78.8652 39.0127H80.6514V39.0098C81.8604 39.0096 82.6777 38.3765 82.6777 37.4111V37.3936C82.6777 36.3603 81.8785 35.8232 80.7061 35.8232H78.8652V39.0127ZM54.9521 38.75H57.1455C58.2342 38.7499 59.0419 38.2013 59.042 37.2637V37.2451C59.042 36.3722 58.3543 35.8232 57.1729 35.8232H54.9521V38.75ZM37.4697 15.0596C42.0254 15.0596 45.4002 18.4552 45.4004 22.6963V22.7402C45.4002 26.9813 41.9824 30.417 37.4268 30.417C32.871 30.417 29.4963 27.0214 29.4961 22.7803V22.7363C29.4963 18.4954 32.9141 15.0597 37.4697 15.0596ZM16.9756 21.0645L20.498 15.3486H24.8232V30.1143H20.751V21.6348L16.9756 27.415H16.8926L13.1387 21.6562V30.1143H9.13184V15.3486H13.4531L16.9756 21.0645ZM59.9561 23.1523V15.3486H64.0059V30.1143H60.4404L54.1113 22.0146V30.1143H50.0605V15.3486H53.8828L59.9561 23.1523ZM75.5244 20.7285L78.584 15.3486H83.1611L77.5508 24.5254V30.1143H73.458V24.5869L67.8252 15.3486H72.4863L75.5244 20.7285ZM37.4297 18.752C35.172 18.752 33.676 20.565 33.6758 22.6963V22.7402C33.676 24.8714 35.2151 26.7254 37.4727 26.7256C39.7304 26.7256 41.2049 24.9116 41.2051 22.7803V22.7363C41.2049 20.5835 39.6874 18.752 37.4297 18.752Z"></path>
</g>
<defs>
<clipPath id="clip0_5823_933">
<rect fill="white" height="56" width="92.2949"></rect>
</clipPath>
</defs>
</svg>
