<svg version="1.0" xmlns="http://www.w3.org/2000/svg" width="840.000000pt" height="236.000000pt" viewBox="0 0 840.000000 236.000000" preserveAspectRatio="xMidYMid meet">

<g transform="translate(0.000000,236.000000) scale(0.100000,-0.100000)" fill="#ffffff" stroke="none">
<path d="M813 1928 c-6 -7 -31 -49 -55 -93 -63 -110 -71 -125 -193 -335 -59
-102 -130 -225 -158 -275 -56 -98 -56 -98 -137 -236 -53 -90 -55 -97 -55 -164
l1 -70 134 -235 c180 -313 232 -365 404 -405 127 -30 287 27 378 134 18 22 74
110 123 197 50 86 105 182 123 213 52 90 56 103 56 171 0 69 -3 75 -96 229
-21 34 -38 65 -38 67 0 2 -13 25 -29 51 -16 27 -40 68 -54 93 -13 24 -29 46
-33 47 -5 2 -43 -56 -84 -128 -41 -72 -82 -143 -90 -158 -9 -14 -33 -57 -55
-96 -21 -38 -53 -93 -70 -120 -16 -28 -35 -59 -40 -69 -6 -10 -15 -19 -20 -19
-8 0 -43 51 -61 90 -3 7 21 56 53 110 32 54 60 103 62 108 2 6 22 38 43 73 21
34 38 64 38 66 0 2 30 55 66 117 87 149 88 162 26 267 l-49 84 -33 -59 c-60
-106 -67 -118 -100 -178 -19 -33 -41 -71 -50 -85 -10 -14 -28 -45 -42 -70 -14
-25 -60 -106 -103 -180 -113 -196 -135 -237 -135 -249 0 -6 16 -35 35 -65 19
-30 35 -57 35 -59 0 -15 135 -236 156 -254 39 -35 89 -31 128 11 17 18 40 51
51 72 11 21 37 67 57 102 21 34 38 67 38 72 0 6 4 10 9 10 5 0 11 6 13 13 5
21 113 207 120 207 10 0 58 -87 58 -105 0 -23 -227 -414 -263 -452 -38 -40
-106 -73 -152 -73 -46 0 -114 33 -152 73 -36 39 -263 428 -263 452 0 9 37 80
82 158 45 78 146 255 226 392 202 351 202 350 202 382 0 23 -82 183 -94 183
-2 0 -8 -6 -13 -12z"></path>
<path d="M2150 1532 c-68 -34 -79 -102 -25 -157 40 -39 69 -44 116 -19 68 35
71 135 5 175 -38 23 -52 24 -96 1z"></path>
<path d="M1800 1035 l0 -495 90 0 90 0 0 495 0 495 -90 0 -90 0 0 -495z"></path>
<path d="M3170 1035 l0 -495 89 0 90 0 3 213 3 214 28 36 c36 47 75 67 130 67
54 0 105 -31 129 -80 15 -30 18 -65 18 -242 l0 -208 91 0 91 0 -5 243 c-5 246
-7 264 -49 343 -74 137 -288 163 -415 50 l-23 -19 0 186 0 187 -90 0 -90 0 0
-495z"></path>
<path d="M8030 1343 l0 -186 -22 20 c-31 28 -82 49 -149 63 -70 14 -177 -6
-236 -43 -114 -72 -163 -169 -163 -322 1 -169 98 -302 253 -345 91 -25 233 5
281 59 27 30 36 26 36 -14 l0 -35 85 0 85 0 0 495 0 495 -85 0 -85 0 0 -187z
m-130 -275 c88 -45 132 -167 95 -264 -33 -88 -94 -134 -177 -134 -70 0 -125
38 -160 109 -88 179 75 373 242 289z"></path>
<path d="M4130 1413 c-19 -2 -54 -6 -77 -9 l-43 -5 0 -85 0 -84 -65 0 -65 0 0
-80 0 -80 65 0 65 0 0 -188 c0 -257 16 -306 112 -347 62 -25 179 -15 234 21
l24 17 -26 46 c-36 63 -36 63 -72 50 -47 -16 -78 -5 -91 32 -6 19 -11 104 -11
200 l0 169 69 0 69 0 6 31 c3 17 6 53 6 80 l0 48 -72 3 -73 3 -3 93 c-1 50 -6
91 -10 90 -4 0 -23 -3 -42 -5z"></path>
<path d="M2624 1231 c-109 -31 -175 -86 -221 -186 -24 -52 -27 -72 -27 -155 0
-83 3 -103 28 -158 52 -114 131 -164 286 -182 52 -6 111 -19 130 -29 83 -42
92 -154 17 -214 -75 -61 -220 -42 -267 35 -11 18 -20 41 -20 51 0 15 -11 17
-91 17 l-92 0 7 -42 c11 -66 41 -125 88 -170 55 -51 107 -75 195 -88 163 -23
316 40 375 154 26 49 37 194 19 248 -12 35 -50 82 -89 109 l-22 16 49 49 c56
56 73 103 76 208 6 174 -100 308 -273 345 -69 14 -94 13 -168 -8z m166 -153
c64 -33 102 -98 103 -176 2 -214 -228 -286 -324 -100 -43 83 -13 212 59 261
66 44 98 47 162 15z"></path>
<path d="M4622 1235 c-152 -37 -219 -126 -191 -255 8 -38 20 -58 54 -89 51
-47 86 -58 292 -87 38 -6 73 -45 66 -75 -19 -70 -191 -75 -311 -7 l-37 20 -42
-48 c-24 -27 -43 -54 -43 -60 0 -14 76 -63 140 -89 67 -27 238 -30 305 -4 60
22 119 69 142 112 20 39 23 151 4 187 -40 75 -121 112 -266 123 -83 6 -119 20
-133 52 -36 78 136 113 243 51 24 -14 46 -26 48 -26 3 0 24 25 47 55 36 47 41
57 29 71 -32 39 -172 85 -254 83 -22 -1 -64 -7 -93 -14z"></path>
<path d="M5455 1245 c-5 -2 -29 -9 -52 -15 -23 -6 -63 -26 -88 -45 l-45 -35 0
40 0 40 -85 0 -85 0 0 -495 0 -495 24 0 c12 0 51 3 85 6 l61 7 0 173 c0 96 4
174 8 174 5 0 17 -9 27 -20 45 -50 210 -72 312 -42 88 26 172 116 206 220 31
92 19 233 -26 318 -17 32 -87 101 -127 126 -47 28 -181 55 -215 43z m76 -156
c80 -27 133 -109 133 -209 0 -53 -5 -73 -26 -106 -67 -106 -161 -129 -264 -65
-48 30 -88 118 -82 184 12 143 123 234 239 196z"></path>
<path d="M6172 1234 c-68 -18 -104 -37 -152 -81 -184 -165 -149 -478 64 -590
73 -38 175 -50 273 -33 69 12 197 71 206 95 3 7 -19 36 -48 65 l-53 52 -43
-25 c-24 -14 -72 -31 -105 -38 -55 -11 -67 -10 -110 6 -54 19 -98 56 -120 97
-8 15 -14 29 -14 33 0 3 124 5 275 5 l275 0 0 68 c0 109 -41 205 -114 270 -49
42 -83 59 -158 77 -77 18 -107 18 -176 -1z m163 -153 c39 -17 115 -91 115
-111 0 -6 -70 -10 -190 -10 -127 0 -190 4 -190 11 0 21 86 100 125 114 54 19
92 18 140 -4z"></path>
<path d="M6995 1245 c-5 -2 -35 -11 -67 -19 -181 -51 -288 -261 -232 -454 55
-189 229 -282 449 -241 65 12 160 56 187 86 17 18 15 21 -36 72 l-53 53 -49
-26 c-79 -42 -145 -52 -207 -33 -55 18 -119 73 -132 115 l-6 22 276 0 277 0
-4 83 c-6 132 -72 247 -170 298 -64 33 -194 57 -233 44z m120 -165 c22 -10 47
-25 55 -32 22 -19 60 -69 60 -79 0 -5 -85 -9 -190 -9 -106 0 -190 4 -190 9 0
5 19 30 43 56 66 72 146 92 222 55z"></path>
<path d="M2110 885 l0 -345 85 0 85 0 0 345 0 345 -85 0 -85 0 0 -345z"></path>
</g>
</svg>
