<svg xmlns="http://www.w3.org/2000/svg" fill="none" viewBox="0 0 180 56" height="56" width="180">
<path fill="white" d="M107.55 21.6389L107.546 21.6362C107.546 21.6362 107.544 21.6347 107.541 21.6347C107.44 21.5903 107.33 21.5673 107.225 21.5673C107.053 21.5685 106.888 21.62 106.745 21.7105C106.599 21.8038 106.475 21.9401 106.404 22.1104V22.1146L103.054 31.3508L100.473 25.1601L100.469 25.1572C100.397 24.9842 100.267 24.8505 100.119 24.7574C99.9701 24.6641 99.7983 24.6128 99.6173 24.6128C99.442 24.6128 99.2781 24.668 99.1334 24.7586C98.991 24.8518 98.8628 24.9842 98.7902 25.1572L98.7885 25.1601L96.2024 31.3549L92.8351 22.1226H92.8323C92.7739 21.9443 92.6542 21.805 92.5118 21.7131C92.3672 21.62 92.1981 21.5685 92.024 21.5673C91.9128 21.5673 91.7999 21.5903 91.6938 21.6347H91.6887L91.6847 21.6389C91.3711 21.7862 91.1793 22.1023 91.1776 22.4468C91.1776 22.5551 91.1992 22.6631 91.2406 22.7698H91.2394L95.3816 33.9761V33.9802C95.4139 34.0638 95.4593 34.1464 95.5262 34.2275C95.5744 34.2856 95.6459 34.3342 95.7197 34.3748C95.7333 34.3882 95.7543 34.4071 95.7866 34.4273C95.8212 34.4491 95.8654 34.464 95.9114 34.472C95.9851 34.4965 96.0827 34.5326 96.2143 34.5326C96.3817 34.5326 96.5376 34.472 96.6766 34.3814C96.8071 34.2937 96.9234 34.1625 96.988 33.9924L96.9988 33.9841L99.6173 27.6757L102.24 33.9585H102.243C102.303 34.1261 102.409 34.2573 102.533 34.3504C102.663 34.4491 102.809 34.5099 102.963 34.5326H103.073C103.178 34.5326 103.28 34.5126 103.365 34.4789C103.455 34.4437 103.528 34.3977 103.588 34.3518C103.729 34.2436 103.837 34.095 103.905 33.9301V33.9262L108.02 22.7698C108.06 22.6631 108.081 22.5563 108.081 22.4483C108.08 22.1065 107.88 21.7808 107.55 21.6389ZM88.6165 28.0365C88.6165 26.7206 88.115 25.5288 87.3174 24.668C86.5153 23.8061 85.429 23.2791 84.2491 23.2791C83.0692 23.2791 81.9807 23.8061 81.1797 24.668C80.3804 25.5288 79.879 26.7206 79.879 28.0365C79.879 29.3512 80.3804 30.5321 81.1797 31.3872C81.9807 32.2453 83.0692 32.7642 84.2491 32.7642C85.429 32.7642 86.5193 32.2453 87.3174 31.3872C88.115 30.5321 88.6165 29.3512 88.6165 28.0365ZM88.5938 23.4684C89.7016 24.6519 90.3744 26.2759 90.3772 28.0365C90.3744 29.7971 89.7016 31.4197 88.5938 32.6034C87.4944 33.7857 85.9588 34.5329 84.252 34.5329C82.5581 34.5329 81.0203 33.7857 79.917 32.6034C78.812 31.4197 78.1278 29.7971 78.1278 28.0365C78.1278 26.2759 78.812 24.6519 79.917 23.4684C81.0203 22.2873 82.5581 21.5402 84.252 21.5402C85.9588 21.5402 87.4944 22.2873 88.5938 23.4684ZM71.1551 21.5631C69.7818 21.5631 68.5281 22.1023 67.5921 22.9629V22.4483C67.591 22.2118 67.5037 21.9915 67.3511 21.8295C67.2024 21.6699 66.9823 21.5631 66.7407 21.5631C66.4911 21.5631 66.2659 21.6645 66.1093 21.828C65.955 21.9888 65.8626 22.2118 65.8626 22.4483V33.9154L65.8989 33.9518L65.9 33.9572C65.9097 33.9951 65.9335 34.0369 65.959 34.0774C66.0781 34.2895 66.2738 34.4506 66.5166 34.5219L66.5518 34.5329H66.7407C66.8672 34.5329 66.9943 34.5058 67.1151 34.4491C67.2155 34.4004 67.3097 34.322 67.3845 34.2221L67.3874 34.2233C67.3964 34.214 67.3993 34.2018 67.4101 34.1923C67.414 34.1911 67.418 34.1869 67.4208 34.1828C67.4674 34.1222 67.5065 34.0599 67.5309 34.002C67.5564 33.9328 67.5723 33.8681 67.5842 33.818L67.5921 33.7857V26.9002C67.6177 25.9153 68.0199 25.0247 68.6654 24.3775C69.3058 23.7305 70.1845 23.3306 71.1551 23.3306C72.1421 23.3306 73.0231 23.7305 73.6613 24.3775C74.3023 25.0223 74.6914 25.9111 74.6914 26.8909V33.6518C74.6914 33.8991 74.7958 34.1275 74.954 34.2842C75.1163 34.4408 75.3375 34.5329 75.5684 34.5329C75.8027 34.5329 76.0227 34.4408 76.1838 34.2842C76.3472 34.1275 76.4465 33.8991 76.4465 33.6518V26.8909C76.4465 23.9724 74.081 21.5673 71.1551 21.5631ZM157.595 26.7826C157.096 24.7437 155.319 23.2912 153.292 23.2954C151.213 23.2954 149.461 24.7169 148.918 26.7826H157.595ZM159.516 27.6178V27.7054C159.516 27.95 159.407 28.1702 159.243 28.3148C159.08 28.4607 158.866 28.5364 158.637 28.5391H148.796C149.047 30.9589 150.964 32.7454 153.253 32.7642H153.834C154.591 32.7669 155.329 32.5035 155.978 32.0669C156.628 31.6347 157.19 31.0307 157.585 30.3659C157.667 30.2239 157.784 30.116 157.911 30.0498C158.042 29.9782 158.181 29.9457 158.322 29.9457C158.477 29.9457 158.631 29.9862 158.767 30.0686L158.776 30.0727L158.787 30.0808C159.034 30.2633 159.188 30.5416 159.188 30.847C159.188 31.0024 159.148 31.1605 159.063 31.3037L159.061 31.309L159.058 31.3117C158.508 32.1928 157.758 32.9966 156.868 33.579C155.977 34.1627 154.943 34.5329 153.834 34.5329H153.244C151.516 34.5206 149.956 33.7857 148.831 32.6101C147.708 31.4387 147.016 29.8294 147.016 28.061C147.016 26.2625 147.714 24.6304 148.846 23.4493C149.977 22.27 151.55 21.5402 153.292 21.5402C154.955 21.5402 156.448 22.2064 157.555 23.2969C158.661 24.3871 159.384 25.9016 159.512 27.6055L159.516 27.6178ZM119.151 16.2032C118.911 16.2032 118.691 16.3046 118.533 16.4641C118.374 16.6221 118.274 16.845 118.274 17.0869V33.6518C118.274 33.8937 118.374 34.1153 118.533 34.2722C118.691 34.4288 118.911 34.5329 119.151 34.5329C119.648 34.5329 120.051 34.1383 120.053 33.6518V17.0869C120.051 16.5992 119.648 16.2032 119.151 16.2032ZM61.805 27.7204C61.097 27.3839 60.2938 27.1355 59.4923 26.8677C58.7543 26.6165 58.006 26.403 57.4723 26.122C57.2039 25.9774 56.9952 25.8246 56.8596 25.6531C56.7214 25.4816 56.6545 25.3072 56.6504 25.0694C56.6518 24.7437 56.7457 24.4816 56.9039 24.2493C57.1438 23.9021 57.546 23.6318 57.9862 23.4574C58.4207 23.282 58.891 23.1994 59.2279 23.1994C60.2223 23.2009 60.8514 23.5346 61.3342 23.8803C61.573 24.0547 61.7743 24.2316 61.9644 24.3775C62.0625 24.4533 62.1538 24.5221 62.2594 24.5735C62.3598 24.6235 62.4783 24.6641 62.6071 24.6641C62.6888 24.6641 62.7705 24.6492 62.8453 24.6167C62.9247 24.5844 62.9934 24.5385 63.0586 24.4816C63.1233 24.421 63.1783 24.348 63.2169 24.2669C63.2521 24.183 63.2679 24.0965 63.2679 24.0115C63.2679 23.8546 63.218 23.7076 63.1471 23.5695C63.0144 23.3264 62.8107 23.0941 62.5504 22.8617C62.1641 22.5158 61.6547 22.1862 61.1061 21.9374C60.5564 21.689 59.9665 21.5199 59.4049 21.5199C58.1025 21.5199 57.015 21.8172 56.2253 22.3645C55.8136 22.6509 55.4516 22.9643 55.1955 23.3968C54.9354 23.8305 54.7906 24.3655 54.7717 25.0614C54.7705 25.0924 54.7705 25.1234 54.7705 25.1545C54.7678 25.83 54.9836 26.3869 55.3229 26.8232C55.8379 27.4799 56.6021 27.8731 57.352 28.1513C58.1002 28.4296 58.8484 28.596 59.3204 28.7553C59.9852 28.9784 60.692 29.22 61.2065 29.5403C61.4629 29.7038 61.6711 29.8794 61.8118 30.0727C61.9485 30.2714 62.0262 30.4766 62.029 30.7361V30.7551C62.0273 31.1306 61.9179 31.4253 61.7363 31.6779C61.4629 32.0535 61.0085 32.3291 60.5258 32.5035C60.0442 32.6736 59.5439 32.7454 59.2223 32.7454C58.0866 32.7454 57.3265 32.4696 56.7753 32.1927C56.4988 32.0535 56.2751 31.9156 56.0725 31.7994C55.972 31.7439 55.8781 31.6926 55.7789 31.652C55.6822 31.6117 55.5791 31.5858 55.4625 31.5858C55.3914 31.5858 55.3136 31.598 55.2423 31.6264C55.1701 31.6576 55.1044 31.7009 55.0493 31.7534C54.9729 31.828 54.906 31.9115 54.859 32.0076C54.8134 32.1035 54.7906 32.2047 54.7906 32.3103C54.7906 32.4832 54.8549 32.6413 54.9463 32.7845C55.0895 32.9912 55.3003 33.1764 55.5629 33.3613C55.8337 33.5439 56.157 33.7234 56.5296 33.9006C57.356 34.2937 58.415 34.4991 59.2194 34.5126H59.2223C60.4736 34.5126 61.5543 34.2221 62.4647 33.5465V33.5451H62.4658C63.3564 32.8695 63.9101 31.8656 63.9101 30.7321C63.9101 30.1091 63.7654 29.5809 63.5119 29.1484C63.1301 28.4932 62.5089 28.061 61.805 27.7204ZM132.375 28.0365C132.375 26.7084 131.877 25.518 131.083 24.6587C130.288 23.8021 129.198 23.282 128.006 23.2793C126.824 23.2793 125.737 23.8021 124.935 24.6587C124.139 25.518 123.635 26.7084 123.635 28.0365C123.635 29.3634 124.139 30.5457 124.935 31.3982C125.733 32.2509 126.824 32.7642 128.006 32.7642C129.201 32.7642 130.291 32.2509 131.085 31.4009C131.877 30.5457 132.375 29.3647 132.375 28.0365ZM133.866 21.7862C134.028 21.9443 134.129 22.1727 134.129 22.4197V33.6518C134.129 33.8937 134.025 34.1153 133.872 34.2722C133.713 34.4288 133.495 34.5329 133.253 34.5329C133.012 34.5329 132.791 34.4288 132.635 34.2722C132.477 34.1153 132.375 33.8937 132.375 33.6518V32.556C131.271 33.7574 129.721 34.5329 128.006 34.5329C126.299 34.5329 124.762 33.7938 123.662 32.6101C122.557 31.4319 121.881 29.8091 121.881 28.0365C121.881 26.264 122.557 24.6397 123.662 23.4603C124.762 22.278 126.299 21.5402 128.006 21.5402C129.72 21.5402 131.271 22.293 132.375 23.4887V22.4197C132.375 22.1727 132.476 21.9443 132.638 21.7862C132.8 21.6308 133.019 21.5402 133.253 21.5402C133.485 21.5402 133.707 21.6308 133.866 21.7862ZM146.247 22.9252C146.421 22.7508 146.516 22.5197 146.516 22.2903C146.516 22.0645 146.421 21.8387 146.245 21.6753H146.247C146.245 21.6699 146.241 21.6699 146.241 21.6699C146.24 21.666 146.237 21.6645 146.237 21.6645H146.235C146.066 21.4969 145.848 21.4051 145.624 21.4051C145.398 21.4051 145.177 21.4998 145.008 21.6699L138.152 28.4028V17.0869C138.152 16.5992 137.747 16.2032 137.249 16.2032C137.009 16.2032 136.789 16.3046 136.633 16.4641C136.477 16.6221 136.372 16.845 136.372 17.0869V33.6518C136.372 33.8937 136.477 34.1153 136.633 34.2722C136.789 34.4288 137.009 34.5329 137.249 34.5329C137.747 34.5329 138.152 34.1383 138.152 33.6518V30.9186L140.384 28.6715L144.936 34.2045C145.021 34.3315 145.138 34.4193 145.253 34.4652C145.385 34.5153 145.512 34.5329 145.626 34.5329C145.782 34.5329 146.004 34.4991 146.199 34.345L146.209 34.3384L146.221 34.3262C146.404 34.1452 146.507 33.9045 146.507 33.6587C146.507 33.452 146.431 33.2411 146.29 33.0723V33.0696L141.657 27.3947L146.243 22.9252H146.247ZM115.533 16.2425H115.337C115.312 16.2425 115.286 16.2452 115.259 16.2464C115.235 16.2452 115.21 16.2425 115.185 16.2425C114.679 16.2425 114.188 16.3004 113.729 16.4545C113.277 16.6058 112.861 16.8557 112.537 17.2357L112.536 17.2342L112.535 17.2357V17.2369C112.201 17.6112 111.981 18.0583 111.847 18.5665C111.713 19.0771 111.657 19.6528 111.652 20.3066V21.5729H110.267C109.786 21.5756 109.404 21.9633 109.404 22.4322C109.401 22.6848 109.499 22.9172 109.657 23.0848C109.817 23.2497 110.035 23.3577 110.278 23.3711H111.652V33.6736L111.651 33.6978C111.651 33.9397 111.752 34.1625 111.914 34.322C112.074 34.4789 112.3 34.572 112.546 34.572C113.012 34.5693 113.395 34.1857 113.397 33.6978V23.3711H114.887C115.127 23.3577 115.348 23.2563 115.506 23.0928C115.668 22.9294 115.768 22.6998 115.768 22.451V22.4173C115.762 21.9538 115.377 21.5729 114.896 21.5729H113.397V20.312C113.406 19.7542 113.464 19.3366 113.547 19.0327C113.627 18.7273 113.737 18.5352 113.837 18.4165C113.933 18.3109 114.059 18.2232 114.264 18.1528C114.471 18.0854 114.757 18.0422 115.143 18.0422H115.189C115.211 18.0422 115.235 18.038 115.257 18.038C115.284 18.038 115.309 18.0422 115.337 18.0422H115.45H115.533C116.028 18.0422 116.426 17.6395 116.426 17.1423C116.426 16.6451 116.028 16.2425 115.533 16.2425ZM27.2159 28.6215C27.2869 28.3957 27.3165 28.1633 27.3112 27.9337C27.3029 27.7675 27.2816 27.6013 27.2348 27.4352C27.0939 26.919 26.76 26.4582 26.2598 26.1677L19.1448 22.0279C18.1404 21.4454 16.8599 21.7916 16.2833 22.8021C15.7014 23.8114 16.0447 25.1002 17.0491 25.6842L21.0249 28.0013L17.0491 30.3117C16.0447 30.8968 15.7026 32.1857 16.2833 33.1991C16.8599 34.2069 18.1404 34.5517 19.1448 33.9692L26.2598 29.8267C26.7399 29.5484 27.0658 29.1118 27.2159 28.6215ZM29.1467 32.5006C28.7379 32.4654 28.3128 32.5519 27.9307 32.7762L20.8103 36.9133C19.8087 37.497 19.4666 38.7927 20.0446 39.8035C20.6254 40.8115 21.9046 41.1587 22.9049 40.5724L26.8941 38.2537V42.8868C26.8941 44.0542 27.8313 45 28.9913 45C30.1457 45 31.0858 44.0542 31.0858 42.8868V34.6042C31.0858 33.4923 30.2303 32.5787 29.1467 32.5006ZM36.4387 23.4992C36.8463 23.5329 37.2702 23.4452 37.6523 23.2236L44.7712 19.0825C45.7743 18.4986 46.1148 17.2083 45.5382 16.1951C44.9603 15.1857 43.6798 14.8398 42.6779 15.4235L38.6916 17.7448V13.1102C38.6916 11.9458 37.7542 11 36.5944 11C35.4344 11 34.4996 11.9458 34.4996 13.1102V21.3928C34.4996 22.5035 35.3527 23.4183 36.4387 23.4992ZM20.8103 19.0825L27.9307 23.2236C28.3128 23.4452 28.7379 23.5329 29.1467 23.4992C30.2303 23.4183 31.0858 22.5035 31.0858 21.3928V13.1102C31.0858 11.9458 30.1457 11 28.9913 11C27.8313 11 26.8941 11.9458 26.8941 13.1102V17.7448L22.9049 15.4235C21.9046 14.8398 20.6254 15.1857 20.0446 16.1951C19.4666 17.2083 19.8087 18.4986 20.8103 19.0825ZM34.1912 27.9837C34.1912 27.8635 34.119 27.6959 34.0346 27.6068L33.1777 26.7475C33.0933 26.6624 32.9269 26.5921 32.8074 26.5921H32.7739C32.6546 26.5921 32.4885 26.6624 32.4054 26.7475L31.5484 27.6068C31.4626 27.6959 31.3969 27.8635 31.3969 27.9837V28.0175C31.3969 28.1365 31.4626 28.3026 31.5484 28.3891L32.4054 29.251C32.4897 29.3361 32.6546 29.4065 32.7739 29.4065H32.8074C32.9269 29.4065 33.0933 29.3361 33.1777 29.251L34.0346 28.3891C34.119 28.3026 34.1912 28.1365 34.1912 28.0175V27.9837ZM36.5568 28.8105L33.5974 31.7886C33.5128 31.8763 33.3493 31.9479 33.2259 31.9479H33.0113H32.5741H32.3556C32.2361 31.9479 32.07 31.8763 31.9842 31.7886L29.0262 28.8105C28.9416 28.7267 28.8732 28.5579 28.8732 28.4392V28.2188V27.7783V27.5608C28.8732 27.4391 28.9416 27.2703 29.0262 27.1853L31.9842 24.2072C32.07 24.1195 32.2361 24.0506 32.3556 24.0506H32.5741H33.0113H33.2259C33.3466 24.0506 33.5128 24.1195 33.5974 24.2072L36.5568 27.1853C36.6412 27.2703 36.7096 27.4391 36.7096 27.5608V27.7783V28.2188V28.4392C36.7096 28.5579 36.6412 28.7267 36.5568 28.8105ZM44.7712 36.9133L37.6523 32.7762C37.2702 32.5519 36.8463 32.4654 36.4387 32.5006C35.3527 32.5787 34.4996 33.4923 34.4996 34.6042V42.8868C34.4996 44.0542 35.4344 45 36.5944 45C37.7542 45 38.6916 44.0542 38.6916 42.8868V38.2537L42.6779 40.5724C43.6796 41.1587 44.9603 40.8115 45.5382 39.8035C46.1148 38.7927 45.7743 37.497 44.7712 36.9133ZM48.5352 25.6842L44.5593 28.0013L48.5352 30.3117C49.5395 30.8968 49.8828 32.1857 49.3021 33.1991C48.7229 34.2069 47.4411 34.5517 46.4407 33.9692L39.3203 29.8267C38.8455 29.5484 38.5158 29.1118 38.3696 28.6215C38.3 28.3957 38.2677 28.1633 38.2757 27.9337C38.2799 27.7675 38.3039 27.6013 38.3495 27.4352C38.4918 26.919 38.8257 26.4584 39.3203 26.1677L46.4407 22.0279C47.4411 21.4454 48.7229 21.7916 49.3021 22.8021C49.8828 23.8114 49.5395 25.1002 48.5352 25.6842ZM164 21.5517C164 22.7132 163.229 23.6826 161.94 23.6826C160.66 23.6826 159.898 22.704 159.898 21.5517C159.898 20.3903 160.66 19.4209 161.94 19.4209C163.229 19.4209 164 20.3903 164 21.5517ZM163.592 21.5517C163.592 20.564 162.938 19.8141 161.94 19.8141C160.959 19.8141 160.306 20.5275 160.306 21.5517C160.306 22.5303 160.959 23.2893 161.94 23.2893C162.938 23.2893 163.592 22.5394 163.592 21.5517ZM161.132 20.5915H162.012C162.493 20.5915 162.811 20.8567 162.811 21.2682C162.811 21.5243 162.684 21.7163 162.493 21.8352L162.838 22.3382V22.4388H162.339L162.003 21.9541H161.613V22.4388H161.132V20.5915ZM162.003 21.0396H161.613V21.5243H162.003C162.185 21.5243 162.303 21.442 162.303 21.2865C162.303 21.1219 162.194 21.0396 162.003 21.0396Z" clip-rule="evenodd" fill-rule="evenodd"></path>
</svg>
