<svg xmlns="http://www.w3.org/2000/svg" fill="none" viewBox="0 0 151 56" height="56" width="151">
<path fill="white" d="M19.9121 16.146C26.2558 12.2388 35.0069 11.9555 41.5771 15.3813C43.4179 16.3157 45.2588 17.7599 46.0234 19.7983C46.5897 21.3271 46.7308 23.4782 45.0605 24.356C44.8624 24.4126 44.6923 24.4408 44.4941 24.3843C45.9383 24.7241 46.3916 26.4237 46.5332 27.7544C46.7314 29.7361 46.8164 31.6896 46.7881 33.6714C46.7881 33.8979 46.7881 34.1246 46.7598 34.3511C46.7598 36.4461 46.7314 38.5695 46.2783 40.6079C45.7969 42.7596 43.0781 42.6187 41.4355 42.5903C38.3204 42.562 35.2616 41.8257 32.1748 41.7407C29.9942 41.6841 27.8134 42.0806 25.6328 42.3354C23.6788 42.5619 21.5546 43.2133 19.5723 42.9302C17.1651 42.5904 16.457 39.4755 16.2588 37.3804C15.919 34.0112 15.7208 31.2932 16.9385 27.103C17.3349 25.6874 17.9581 24.6681 18.8076 23.5073C18.8076 23.5073 18.3828 23.0542 18.1846 22.856C17.7598 22.4313 17.4199 21.9212 17.1934 21.3833C16.344 19.1467 18.2413 17.1653 19.9121 16.146ZM94.1104 22.2896C98.2451 22.2896 102.04 23.9032 102.04 29.0278V38.4849C102.011 39.7304 100.992 40.7778 99.6895 40.8062H99.3213C98.9527 40.806 97.2539 40.5221 97.2539 38.7388C96.0078 40.1827 93.8838 41.0327 91.5049 41.0327C88.6163 41.0326 85.1895 39.1068 85.1895 35.1431C85.1897 30.9815 88.6164 29.3961 91.5049 29.396C93.9119 29.396 96.0361 30.1602 97.2539 31.5757V29.1411C97.2539 27.3291 95.6679 26.1685 93.2891 26.1685C91.8448 26.1402 90.4286 26.5369 89.2393 27.3013C88.9845 27.471 88.6727 27.5552 88.3896 27.5552C87.3986 27.5267 86.5772 26.7345 86.5771 25.7437C86.5771 25.4322 86.6621 25.0922 86.832 24.8091C87.9648 23.0537 92.0146 22.2896 94.1104 22.2896ZM55.4541 17.8159C56.7 17.8161 57.7481 18.7793 57.8613 19.9966V22.771H59.7305C60.8631 22.7995 61.7412 23.706 61.7412 24.8101C61.741 25.9139 60.8629 26.8196 59.7305 26.8481H57.8613V34.8892C57.8614 36.3047 58.7676 36.8423 59.5039 36.8423H59.9287C61.2878 36.8425 62.0244 37.7206 62.0244 38.8813C62.0243 40.0421 61.3159 41.0043 58.2012 41.0044C54.8596 41.0044 53.047 39.306 53.0469 36.1353V26.8481H51.8857C51.3194 26.8481 50.8096 26.6214 50.4131 26.2251C50.0167 25.8288 49.8185 25.2912 49.8184 24.7534C49.8467 23.6492 50.7529 22.771 51.8857 22.771H53.0469V19.9966C53.1318 18.7508 54.1797 17.8159 55.4541 17.8159ZM73.2383 22.2896C79.242 22.2896 82.8387 26.5645 82.8389 31.6323C82.8389 36.7287 79.2421 41.0044 73.2383 41.0044C67.263 41.0042 63.667 36.7285 63.667 31.6323C63.6672 26.5929 67.2915 22.2898 73.2383 22.2896ZM113.17 22.3179C115.52 22.3179 118.749 23.0538 119.769 24.4976C119.967 24.7523 120.08 25.0924 120.08 25.4038C120.052 26.3948 119.202 27.188 118.211 27.188C117.899 27.188 117.588 27.103 117.305 26.9614C116.059 26.2536 114.643 25.8853 113.198 25.8853C111.471 25.8853 110.338 26.6502 110.338 27.6694C110.339 30.3303 121.071 28.1228 121.071 35.314C121.128 38.5415 118.296 41.0044 113.283 41.0044C110.933 41.0044 107.138 40.2402 106.005 38.6265C105.778 38.3433 105.665 38.0033 105.665 37.6353C105.693 36.5594 106.571 35.7105 107.647 35.6821C107.987 35.6821 108.327 35.7663 108.61 35.9644C110.026 36.7854 111.924 37.4087 113.481 37.4087C115.549 37.4087 116.511 36.5879 116.512 35.4839C116.512 32.5394 105.75 34.9171 105.75 27.9243C105.75 24.9515 108.412 22.3179 113.17 22.3179ZM127.981 17.8159C129.227 17.816 130.275 18.7792 130.389 19.9966V22.771H132.258C133.391 22.7994 134.269 23.7059 134.269 24.8101C134.268 25.914 133.39 26.8197 132.258 26.8481H130.389V34.8892C130.389 36.3047 131.295 36.8423 132.031 36.8423H132.456C133.815 36.8424 134.552 37.7206 134.552 38.8813C134.552 40.0421 133.843 41.0044 130.729 41.0044C127.387 41.0044 125.574 39.306 125.574 36.1353V26.8481H124.413C123.847 26.8481 123.337 26.6215 122.94 26.2251C122.544 25.8288 122.346 25.2912 122.346 24.7534C122.374 23.6492 123.28 22.771 124.413 22.771H125.574V19.9966C125.659 18.7508 126.707 17.8159 127.981 17.8159ZM39.9912 18.7505C35.4317 15.9758 28.6913 15.7775 23.877 17.9292C22.4893 18.5521 19.9688 20.336 20.9883 22.4312C21.2432 22.9974 21.7246 23.2242 22.1211 23.6206C22.0645 23.564 21.2998 24.3847 20.7617 25.7153C20.3653 26.6496 20.0537 27.6122 19.8838 28.603C19.6006 30.1885 19.4307 31.831 19.4023 33.4448C19.4307 35.2285 19.6856 37.3524 21.1582 38.5981C22.4892 39.7304 24.5284 38.8813 26.001 38.5698C27.955 38.1168 29.9659 37.7486 31.9766 37.8052C34.2704 37.8901 36.5079 38.4283 38.7734 38.6265C40.3027 38.7397 42.4834 38.9374 43.248 37.2104C43.3613 36.9557 43.4463 36.6722 43.5029 36.3892C43.956 33.8411 44.041 31.236 43.7578 28.6597C43.5596 27.046 43.1627 24.7817 41.5771 24.0454C44.1541 22.5732 41.4073 19.6 39.9912 18.7505ZM93.4307 32.5103C91.5618 32.5103 90.0042 33.4447 90.0039 35.1997C90.0039 36.8701 91.5333 37.8334 93.4307 37.8335C94.9599 37.8335 96.4609 37.3234 97.2539 36.2759V34.0679C96.4609 33.0486 94.9599 32.5103 93.4307 32.5103ZM73.2383 26.48C70.2651 26.4802 68.6222 28.8862 68.6221 31.6323C68.6221 34.4352 70.2649 36.8421 73.2383 36.8423C76.2119 36.8423 77.8828 34.4353 77.8828 31.6323C77.8827 28.8861 76.1834 26.48 73.2383 26.48Z"></path>
</svg>
