<svg xmlns="http://www.w3.org/2000/svg" fill="none" viewBox="0 0 230 56" height="56" width="230">
<path fill="white" d="M67.2087 36.7145C62.8702 36.7145 59.664 33.316 59.664 29.1417C59.664 24.9674 62.8702 21.4856 67.2356 21.4856C70.0005 21.4856 71.7138 22.5089 73.0681 24.0016L70.9956 26.2395C69.9724 25.1622 68.8951 24.4159 67.2087 24.4159C64.7759 24.4159 63.0074 26.5165 63.0074 29.0866C63.0074 31.7117 64.8041 33.8123 67.3741 33.8123C68.9502 33.8123 70.1109 33.066 71.1611 31.9887L73.1785 33.9778C71.7421 35.5808 70.0557 36.7145 67.2087 36.7145Z" clip-rule="evenodd" fill-rule="evenodd"></path>
<path fill="white" d="M79.5247 36.7144H76.1812V21.5135H79.5247V25.0788C80.4365 22.8948 82.1229 21.4021 84.6929 21.5135V25.0518H84.4993C81.5701 25.0518 79.5247 26.9588 79.5247 30.8279V36.7144Z" clip-rule="evenodd" fill-rule="evenodd"></path>
<path fill="white" d="M102.198 21.4856L94.8086 40.8066H91.4182L93.033 36.7192L86.7018 21.4856H90.267L94.5867 32.7374L98.734 21.4856H102.198Z" clip-rule="evenodd" fill-rule="evenodd"></path>
<path fill="white" d="M112.065 24.3877C109.799 24.3877 107.809 26.2395 107.809 29.0866C107.809 31.9335 109.799 33.7842 112.065 33.7842C114.36 33.7842 116.239 31.9887 116.239 29.0866C116.239 26.2114 114.331 24.3877 112.065 24.3877ZM112.839 36.6863C110.435 36.6863 108.914 35.4706 107.891 34.1163V40.8054H104.548V21.4856H107.891V24.2211C108.97 22.7014 110.49 21.4856 112.839 21.4856C116.294 21.4856 119.638 24.2211 119.638 29.0866C119.638 33.9508 116.322 36.6863 112.839 36.6863Z" clip-rule="evenodd" fill-rule="evenodd"></path>
<path fill="white" d="M126.968 24.6645V31.8207C126.968 33.1187 127.627 33.6433 128.764 33.6433H130.075V36.6299H127.788C125.354 36.6228 123.624 35.5408 123.624 32.3453V24.6645H121.768V21.7929H123.624V17.7842H126.968V21.7929H130.075V24.6645H126.968Z" clip-rule="evenodd" fill-rule="evenodd"></path>
<path fill="white" d="M140.654 24.4154C137.972 24.4154 136.259 26.516 136.259 29.0861C136.259 31.6843 138.11 33.8118 140.709 33.8118C143.416 33.8118 145.131 31.7124 145.131 29.1412C145.131 26.543 143.279 24.4154 140.654 24.4154ZM140.654 36.714C136.204 36.714 132.914 33.3155 132.914 29.1412C132.914 24.94 136.231 21.4851 140.709 21.4851C145.185 21.4851 148.475 24.8848 148.475 29.0861C148.475 33.2603 145.157 36.714 140.654 36.714Z" clip-rule="evenodd" fill-rule="evenodd"></path>
<path fill="white" d="M154.596 33.647V35.3322C154.596 35.4038 154.56 35.4684 154.498 35.5012L153.04 36.3438C152.978 36.379 152.903 36.379 152.846 36.3438L151.384 35.5012C151.325 35.4684 151.286 35.4038 151.286 35.3322V33.647C151.286 33.579 151.325 33.5145 151.384 33.4781L152.846 32.6355C152.903 32.6003 152.978 32.6003 153.04 32.6355L154.498 33.4781C154.56 33.5145 154.596 33.579 154.596 33.647Z" clip-rule="evenodd" fill-rule="evenodd"></path>
<path fill="white" d="M180.446 24.4154C177.765 24.4154 176.052 26.516 176.052 29.0861C176.052 31.6843 177.903 33.8118 180.502 33.8118C183.209 33.8118 184.922 31.7124 184.922 29.1412C184.922 26.543 183.071 24.4154 180.446 24.4154ZM180.446 36.714C175.996 36.714 172.707 33.3155 172.707 29.1412C172.707 24.94 176.023 21.4851 180.502 21.4851C184.979 21.4851 188.268 24.8848 188.268 29.0861C188.268 33.2603 184.951 36.714 180.446 36.714Z" clip-rule="evenodd" fill-rule="evenodd"></path>
<path fill="white" d="M164.777 36.6973C160.439 36.614 157.299 33.1533 157.38 28.9802C157.46 24.8083 160.731 21.3887 165.097 21.4719C167.861 21.5248 169.554 22.5798 170.88 24.0984L168.764 26.2964C167.763 25.1991 166.699 24.4328 165.014 24.3999C162.582 24.353 160.772 26.4196 160.723 28.9896C160.673 31.6148 162.429 33.7495 164.999 33.7988C166.575 33.8293 167.749 33.1052 168.819 32.0479L170.799 34.0757C169.332 35.6505 167.625 36.7514 164.777 36.6973Z" clip-rule="evenodd" fill-rule="evenodd"></path>
<path fill="white" d="M208.146 21.4856C211.325 21.4856 213.259 23.5029 213.259 27.068V36.7145H209.916V28.0914C209.916 25.7702 208.837 24.5262 206.959 24.5262C205.135 24.5262 203.834 25.7971 203.834 28.1465V36.7145H200.491V28.0632C200.491 25.7971 199.385 24.5262 197.532 24.5262C195.682 24.5262 194.41 25.9086 194.41 28.1747V36.7145H191.065V21.4856H194.41V24.0016C195.35 22.7026 196.622 21.4856 198.86 21.4856C200.961 21.4856 202.425 22.5089 203.198 24.0556C204.388 22.5089 205.935 21.4856 208.146 21.4856Z" clip-rule="evenodd" fill-rule="evenodd"></path>
<path fill="white" d="M16 18.5V37.4991L32.3696 47L48.7356 37.4991V18.5L32.3696 9L16 18.5ZM17.4408 36.6661V19.3366L32.3696 10.6677L47.2993 19.3366V36.6661L32.3696 45.3314L17.4408 36.6661Z" clip-rule="evenodd" fill-rule="evenodd"></path>
<path fill="white" d="M38.7834 17.2024H25.9211L24.4301 23.7947H40.3337L38.7834 17.2024Z" clip-rule="evenodd" fill-rule="evenodd"></path>
<path fill="white" d="M28.203 32.867V28.4866L24.3932 26.0518L20.0816 29.2735L25.9588 39.5478H28.3063L31.0829 36.9497V35.6438L28.203 32.867Z" clip-rule="evenodd" fill-rule="evenodd"></path>
<path fill="white" d="M36.5463 24.7895H28.2174L29.6206 28.4724L29.1933 32.5993H32.3675L35.5723 32.5848L35.1729 28.4724L36.5463 24.7895Z" clip-rule="evenodd" fill-rule="evenodd"></path>
<path fill="white" d="M40.3563 26.0218L36.5904 28.4864V32.8668L33.7115 35.6436V36.9495L36.4872 39.5187H38.8051L44.6536 29.2733L40.3563 26.0218Z" clip-rule="evenodd" fill-rule="evenodd"></path>
</svg>
