<svg xmlns="http://www.w3.org/2000/svg" fill="none" viewBox="0 0 106 56" height="56" width="106">
<path fill="white" d="M13.6563 18.115C15.9177 18.115 17.6313 18.7876 18.7973 20.1504C19.9633 21.4956 20.5287 23.4956 20.5287 26.115V35.5664H13.5503V27.6018C13.5503 25.0531 12.508 23.7788 10.4057 23.7788C8.109 23.7788 6.96067 25.0885 6.96067 27.7257V35.5841H0V18.8584H6.90767V23.0354C7.49067 21.354 8.33867 20.115 9.434 19.3186C10.5117 18.5221 11.925 18.115 13.6563 18.115ZM37.8243 18.8584H44.8203V35.5664H37.8243V32.115C36.676 34.823 34.4853 36.1681 31.2347 36.1681C29.0087 36.1681 27.3127 35.5487 26.1467 34.292C24.9807 33.0531 24.3977 31.2655 24.3977 28.9292V18.8407H31.3937V27.2124C31.3937 28.4867 31.641 29.4248 32.1533 30.0265C32.648 30.6283 33.443 30.9292 34.503 30.9292C36.729 30.9292 37.842 29.6372 37.842 27.0708V18.8584H37.8243ZM58.883 36.1504C55.438 36.1504 52.8763 35.3717 51.198 33.8142C49.5197 32.2566 48.6717 30.2389 48.6717 27.7788V18.8407H55.6677V26.9292C55.6677 28.2035 55.9327 29.1416 56.445 29.7434C56.9573 30.3451 57.77 30.646 58.9007 30.646C60.0313 30.646 60.844 30.3451 61.3563 29.7434C61.8687 29.1416 62.1337 28.2035 62.1337 26.9292V18.8407H69.1297V27.7788C69.1297 30.2566 68.2817 32.2743 66.5857 33.8142C64.8367 35.3717 62.2927 36.1504 58.883 36.1504ZM73.0163 15H79.977V35.5664H73.0163V15ZM98.6153 18.8584L94.5873 27.8496L90.8243 18.8584H83.3867L90.683 34.0619L86.9553 41H94.817L106 18.8584H98.6153Z"></path>
</svg>
