<svg width="67" height="56" viewBox="0 0 67 56" fill="none" xmlns="http://www.w3.org/2000/svg">
<path fill-rule="evenodd" clip-rule="evenodd" d="M20.0468 20.0587C24.2619 14.1724 33.1942 12.7682 39.157 16.7742C38.1576 18.2409 37.2257 19.7558 36.2601 21.2466C33.3437 19.1547 29.1287 19.097 26.2366 21.2611C22.7748 23.603 21.611 28.667 23.8998 32.2063C26.3186 36.3808 32.4988 37.6841 36.2794 34.5629C39.5095 32.2063 39.4901 27.9025 40.5668 24.4254C41.8608 20.0444 45.4241 16.2933 49.8853 15.0669C53.9025 13.9464 58.4506 14.4802 61.9222 16.8608C60.9421 18.3371 60.015 19.8424 59.0639 21.3332C56.9974 19.8568 54.2597 19.2701 51.7925 19.9674C48.1135 20.8908 45.4289 24.613 45.6896 28.3785C45.7765 32.5624 49.4507 36.3375 53.6997 36.3326C57.1808 36.525 60.2274 33.9376 61.251 30.7301C58.5568 30.6965 55.8676 30.7446 53.1782 30.706C54.0907 28.9747 55.2495 27.3926 56.2876 25.7384C59.8123 25.7527 63.3417 25.695 66.8662 25.7768C67.5326 30.6243 65.6931 35.823 61.7098 38.7902C55.8917 43.4214 46.5008 41.8485 42.363 35.7363C40.1515 38.7565 36.738 40.9301 32.9866 41.3534C28.535 42.0267 23.8757 40.3436 20.8241 37.0635C19.3613 39.2856 16.8553 40.8387 14.1514 40.8725C9.43922 40.9829 4.71222 41.0359 0 40.8531C0.0433576 32.2594 0.028873 23.6704 0.00956002 15.0766C4.2489 15.0622 8.48786 15.0429 12.7271 15.0814C15.8462 15.144 19.0135 17.0387 20.0468 20.0587ZM5.64412 19.9337C5.70694 21.7805 5.68284 23.6272 5.67792 25.4787C7.86019 25.469 10.0428 25.5171 12.2251 25.469C13.7265 25.5171 15.1026 24.1272 14.9771 22.6269C15.0301 21.16 13.6783 19.8376 12.2155 19.8856C10.0233 19.8472 7.83132 19.8424 5.64412 19.9337ZM5.69738 30.2155C5.66836 32.1921 5.67329 34.1639 5.69738 36.1403C8.18856 36.1212 10.68 36.1692 13.1665 36.1354C14.6488 36.2171 16.1602 35.1687 16.382 33.673C16.754 32.0043 15.3248 30.3356 13.6494 30.2684C11.0036 30.1721 8.34799 30.2877 5.69738 30.2155Z" fill="black"/>
</svg>
