<svg width="116" height="56" viewBox="0 0 116 56" fill="none" xmlns="http://www.w3.org/2000/svg">
<path d="M60.2295 18C63.5826 18 66.3096 20.7435 66.3096 24.1152V37.5498H61.8594V24.1152C61.8594 23.2043 61.1284 22.4718 60.2197 22.4717C59.3109 22.4717 58.5791 23.2042 58.5791 24.1152V31.8848C58.5791 35.2565 55.8531 38 52.5 38C49.147 37.9999 46.4209 35.2564 46.4209 31.8848V24.126C46.4209 23.2151 45.6898 22.4817 44.7812 22.4814C43.8725 22.4814 43.1406 23.215 43.1406 24.126V37.5498H38.6914V24.126C38.6914 20.7542 41.4174 18.0107 44.7705 18.0107C48.1235 18.0108 50.8496 20.7543 50.8496 24.126V31.8848C50.8496 32.7956 51.5807 33.5281 52.4893 33.5283C53.398 33.5283 54.1299 32.7958 54.1299 31.8848V24.1152C54.1299 20.7435 56.856 18.0001 60.209 18H60.2295ZM91.1074 18C94.4605 18 97.1865 20.7435 97.1865 24.1152V37.5498H92.7373V24.1152C92.7373 23.2042 92.0055 22.4717 91.0967 22.4717C90.1881 22.4719 89.457 23.2044 89.457 24.1152V31.8848C89.457 35.2564 86.7309 37.9999 83.3779 38C80.0249 38 77.2988 35.2565 77.2988 31.8848V24.1152C77.2988 23.2042 76.567 22.4717 75.6582 22.4717C74.7495 22.4718 74.0186 23.2043 74.0186 24.1152V37.5498H69.5684V24.1152C69.5684 20.7437 72.2946 18.0003 75.6475 18C79.0005 18 81.7275 20.7435 81.7275 24.1152V31.8848C81.7275 32.7957 82.4585 33.5283 83.3672 33.5283C84.276 33.5283 85.0068 32.7958 85.0068 31.8848V24.1152C85.0068 20.7435 87.7338 18 91.0869 18H91.1074ZM107.915 18.0312C112.375 18.0314 116 21.6757 116 26.1572V37.5498H111.612V31.833H104.217V37.5498H99.8301V26.1572C99.8301 21.6756 103.455 18.0312 107.915 18.0312ZM17.2041 22.5859H10.0488C9.09827 22.5859 8.20989 22.8269 7.41602 23.3086C6.61184 23.7798 5.97489 24.4292 5.50488 25.2354C5.04527 26.0312 4.80469 26.9319 4.80469 27.8848C4.80471 28.8376 5.03484 29.7279 5.50488 30.5342C5.9749 31.3298 6.62229 31.9793 7.41602 32.4609C8.20989 32.9426 9.09827 33.1826 10.0488 33.1826H12.7227V29.8535H8.73242V25.7588H17.1934V37.5391H9.90234C8.09531 37.539 6.42405 37.0988 4.91992 36.2402C3.41584 35.3816 2.21402 34.199 1.32617 32.7227C0.448732 31.2462 0 29.6122 0 27.874C2.77785e-05 26.136 0.449183 24.5027 1.33691 23.0264C2.21435 21.5604 3.42648 20.3665 4.93066 19.5078C6.4348 18.6492 8.10605 18.209 9.91309 18.209H17.2041V22.5859ZM27.9531 18.0215C32.4133 18.0215 36.0379 21.665 36.0381 26.1465V37.5391H31.6514V31.8223H24.2559V37.5391H19.8682V26.1465C19.8683 21.665 23.4929 18.0215 27.9531 18.0215ZM107.915 22.4404C105.878 22.4404 104.217 24.1049 104.217 26.1572V27.7598H111.612V26.1572C111.612 24.105 109.952 22.4406 107.915 22.4404ZM27.9531 22.4189C25.9162 22.419 24.2559 24.0844 24.2559 26.1367V27.7383H31.6514V26.1367C31.6514 24.0844 29.99 22.4189 27.9531 22.4189Z" fill="black"/>
</svg>
