<svg xmlns="http://www.w3.org/2000/svg" fill="none" viewBox="0 0 103 25"><mask id="a" width="103" height="25" x="0" y="0" maskUnits="userSpaceOnUse" style="mask-type:luminance"><path fill="#ffffff" d="M102.5.813H.5v23.925h102V.813Z"/></mask><g fill="currentColor" mask="url(#a)"><path d="m8.336 1.21 1.077 1.887c.215.39.215.868 0 1.258l-6.42 11.21 3.038 5.29a2.68 2.68 0 0 0 2.305 1.346c.947 0 1.83-.52 2.304-1.345l3.037-5.29-.797-1.432-3.446 6.006c-.215.39-.646.63-1.077.63a1.22 1.22 0 0 1-1.077-.63l-2.65-4.574 5.967-10.408 1.077 1.887a1.3 1.3 0 0 1 0 1.257l-4.157 7.264.819 1.43 4.523-7.891 2.972 5.182a2.62 2.62 0 0 1 0 2.58l-3.015 5.27c-.453.802-1.896 2.602-4.48 2.602-2.584 0-4.006-1.8-4.48-2.602L.84 16.867a2.62 2.62 0 0 1 0-2.58L8.336 1.21Z"/><path fill-rule="evenodd" d="M27.245 6.633c.678 0 1.229.553 1.229 1.236a1.232 1.232 0 0 1-1.7 1.141 1.23 1.23 0 0 1-.757-1.141c0-.683.55-1.236 1.229-1.236Zm-4.89.195h2.09v12.424h-2.09V6.828Zm5.947 3.794H26.19v8.63h2.11v-8.63Zm5.556 6.744c-1.227 0-2.24-1.062-2.24-2.58 0-1.497 1.012-2.602 2.24-2.602 1.228 0 2.219 1.127 2.219 2.602 0 1.496-1.012 2.58-2.218 2.58Zm-.021-6.96c-2.39 0-4.33 1.69-4.33 4.38 0 2.688 1.68 4.336 4.351 4.336 1.056 0 2.175.542 2.175 1.735s-.947 1.865-2.175 1.865c-1.227 0-2.24-.737-2.24-1.865h-2.11c0 2.32 1.852 3.86 4.35 3.86 2.477 0 4.287-1.475 4.287-3.86 0-1.106-.346-2.147-1.768-2.862 1.4-.65 1.81-2.147 1.81-3.231 0-2.667-1.96-4.36-4.35-4.36m7.796 1.28c.775-.976 1.701-1.28 2.67-1.28 2.434 0 3.512 1.648 3.49 4.185v4.64h-2.11v-4.486c0-1.561-.82-2.233-1.94-2.233-1.248 0-2.11 1.062-2.11 2.342v4.38h-2.11V6.806h2.11v4.878Zm11.307 6.093c-.258 0-.472-.087-.602-.26-.13-.173-.194-.434-.194-.824v-4.25h1.702l.194-1.843h-1.874V8.237l-2.133.239v2.146h-1.616v1.843h1.615v4.294c0 .889.217 1.56.626 2.016.408.455 1.033.694 1.83.694.367 0 .712-.043 1.078-.152.365-.108.689-.26.97-.455l-.733-1.366c-.28.195-.581.28-.862.28Zm5.825-3.836c.987.064 1.996.13 2.855.67.712.435.97 1.237.928 2.04 0 1.43-1.12 2.385-2.436 2.688-1.744.39-3.66.022-5.04-1.127 0 0-.064-.066-.129-.11l1.078-1.365c.495.325.947.585 1.508.737.538.13 1.076.174 1.614.152.496-.021 1.207-.195 1.315-.78.172-.846-.819-.998-1.422-1.063l-.314-.037c-.806-.092-1.696-.194-2.4-.635a2.36 2.36 0 0 1-1.142-2.017c0-1.995 2.069-2.688 3.64-2.688 1.358 0 2.37.26 3.36 1.127l-1.184 1.388c-.604-.564-1.314-.76-2.133-.76-1.011 0-1.572.304-1.572.847 0 .759.884.889 1.466.932h.008Zm9.64 3.685c-1.442 0-2.412-1.323-2.412-2.667 0-1.344.904-2.775 2.413-2.775 1.53 0 2.411 1.452 2.411 2.775.023 1.345-.97 2.667-2.411 2.667Zm.172-7.22c-.968 0-2.11.412-2.778 1.366l-.065-1.171H63.69v12.424l2.11-.238v-4.554c.603.933 1.916 1.236 2.822 1.236 2.736 0 4.33-2.06 4.33-4.553 0-2.537-1.745-4.51-4.373-4.51Zm9.629 1.756c1.227 0 2.24.889 2.477 1.908h-4.976c.302-1.127 1.357-1.908 2.499-1.908Zm.171 5.443c-1.507 0-2.433-.89-2.67-1.91h7.02c.216-3.511-1.938-5.29-4.522-5.29-2.454 0-4.459 1.909-4.459 4.51 0 2.754 1.94 4.533 4.61 4.533 1.293 0 2.779-.456 3.683-1.388l-1.356-1.344c-.497.498-1.53.889-2.306.889Zm12.105-3.535c-.236-1.02-1.25-1.908-2.478-1.908-1.14 0-2.196.78-2.498 1.908h4.975Zm-4.996 1.626c.236 1.02 1.162 1.909 2.67 1.909.775 0 1.81-.39 2.304-.89l1.358 1.345c-.904.932-2.39 1.388-3.683 1.388-2.672 0-4.61-1.78-4.61-4.532 0-2.602 2.003-4.51 4.459-4.51 2.585 0 4.739 1.778 4.523 5.29h-7.022Zm14.689-.78c0-1.345-.97-2.667-2.412-2.667-1.444 0-2.413 1.322-2.413 2.667 0 1.323.884 2.775 2.413 2.775 1.507 0 2.412-1.43 2.412-2.775Zm.213 3.187c-.666.954-1.809 1.366-2.778 1.366-2.627 0-4.373-1.973-4.373-4.488 0-2.515 1.574-4.554 4.31-4.554.904 0 2.24.282 2.841 1.215V6.828h2.112v12.424h-2.046l-.066-1.15Z" clip-rule="evenodd"/></g></svg>
