<svg width="98" height="56" viewBox="0 0 98 56" fill="none" xmlns="http://www.w3.org/2000/svg">
<path d="M26.4834 10.1259C27.11 10.1242 27.7349 10.1622 28.3497 10.291C28.3994 10.3012 28.4003 10.301 28.4512 10.3115C28.8264 10.392 29.1892 10.5077 29.5528 10.6298C29.5972 10.6444 29.6421 10.6592 29.6866 10.6738C30.0808 10.8053 30.4667 10.9727 30.8213 11.1904C30.8861 11.2291 30.9513 11.2619 31.0196 11.2939C31.3603 11.461 31.6748 11.6971 31.9834 11.9169C32.0182 11.9415 32.0182 11.9426 32.0538 11.9677C32.0738 11.9823 32.0946 11.9967 32.1153 12.0117C32.1322 12.0239 32.1496 12.0361 32.167 12.0488C32.1786 12.0595 32.1902 12.0709 32.2022 12.082V12.1367C32.2172 12.1431 32.2326 12.1496 32.2481 12.1562C32.3267 12.1999 32.3854 12.255 32.4512 12.3163C32.5382 12.4004 32.5382 12.4011 32.6387 12.4658V12.5204C32.6613 12.5305 32.6616 12.5307 32.6846 12.541C32.7593 12.5815 32.8214 12.628 32.8848 12.6845V12.7392C32.9027 12.7482 32.921 12.7573 32.9395 12.7665C33.0039 12.836 33.0657 12.9081 33.128 12.9794C33.1792 13.0418 33.1794 13.0422 33.2393 13.0683V13.123C33.2662 13.132 33.2936 13.1411 33.3213 13.1503C33.3585 13.2045 33.3952 13.2592 33.4307 13.3144C33.4487 13.3234 33.4669 13.3325 33.4854 13.3417C33.5014 13.3696 33.5014 13.37 33.5176 13.3984C33.56 13.4672 33.6015 13.5187 33.6553 13.5781C33.756 13.6925 33.8435 13.8131 33.9288 13.9394C33.9438 13.9615 33.9592 13.984 33.9747 14.0068C34.1202 14.2239 34.2505 14.4495 34.378 14.6777C34.4154 14.743 34.4556 14.807 34.4952 14.871C34.5869 15.0238 34.6576 15.1839 34.7276 15.3476C34.7406 15.3778 34.7542 15.4083 34.7676 15.4394C34.8047 15.5255 34.8414 15.6118 34.878 15.6982C34.8867 15.7187 34.8953 15.7395 34.9043 15.7607C34.9943 15.9735 35.0713 16.1904 35.1456 16.4091C35.1538 16.433 35.1625 16.4568 35.1709 16.4814C35.2117 16.604 35.2404 16.7191 35.253 16.8476C35.2638 16.9354 35.2856 17.0203 35.3057 17.1064C35.3701 17.3829 35.4191 17.6601 35.4581 17.9413C35.4625 17.9728 35.4671 18.0046 35.4717 18.037C35.5384 18.5384 35.5375 19.0391 35.5372 19.5439V20.997C35.5374 21.4588 35.5381 21.921 35.5381 22.3828V26.7392C35.5381 27.5963 35.5387 28.4534 35.5391 29.3105C35.5395 30.2748 35.5401 31.2397 35.5401 32.204V36.5302C35.5412 37.1169 35.5244 37.7053 35.4278 38.2851C35.4231 38.3141 35.4179 38.3441 35.4131 38.374C35.3391 38.8267 35.2402 39.2698 35.1016 39.707C35.0926 39.7359 35.0835 39.765 35.0743 39.7949C35.0212 39.9624 34.9604 40.1222 34.8858 40.2812C34.8499 40.358 34.8157 40.4357 34.7823 40.5136C34.7711 40.5397 34.7596 40.5658 34.7481 40.5927C34.7253 40.6459 34.7024 40.6997 34.6797 40.7529C34.6058 40.9248 34.5268 41.0932 34.4415 41.2597H34.3868C34.38 41.2782 34.3733 41.2973 34.3663 41.3163C34.1838 41.7514 33.8932 42.167 33.5713 42.5087C33.5041 42.584 33.446 42.6642 33.3868 42.746C33.2937 42.8731 33.1991 42.9715 33.0762 43.0683C33.0032 43.1364 32.9453 43.1941 32.8946 43.2802C32.8222 43.3951 32.7115 43.4714 32.6065 43.5546C32.5191 43.6246 32.436 43.6986 32.3536 43.7744C32.3112 43.8075 32.3109 43.8076 32.2569 43.8076C32.2488 43.8305 32.2485 43.8311 32.2403 43.8544C32.1868 43.943 32.1102 43.9938 32.0274 44.0527C32.0098 44.0654 31.9918 44.0786 31.9737 44.0917C31.5972 44.3609 31.205 44.6298 30.7891 44.8339C30.7562 44.8501 30.7224 44.8656 30.6895 44.8818C30.665 44.8938 30.6646 44.8939 30.6397 44.9062C30.5925 44.9297 30.5459 44.955 30.4991 44.9794C30.1659 45.1524 29.8179 45.2811 29.4639 45.3974L28.9307 45.5673C28.0962 45.8253 27.2139 45.8753 26.3467 45.873C26.2693 45.873 26.1917 45.8728 26.1143 45.873C25.9472 45.8733 25.7795 45.8742 25.6124 45.874H21.9737C20.9898 45.8742 20.0054 45.8734 19.0215 45.873C18.1492 45.8726 17.2767 45.8726 16.4043 45.873C15.4221 45.8734 14.4393 45.8742 13.4571 45.874H9.83208C9.66681 45.8741 9.50125 45.8733 9.33598 45.873C9.24231 45.8728 9.14841 45.8727 9.05473 45.873C8.42306 45.8746 7.79406 45.8352 7.17485 45.7031C7.14107 45.6961 7.10711 45.6888 7.07231 45.6816C6.80971 45.6255 6.55273 45.5572 6.2979 45.4726C6.23048 45.4504 6.16255 45.4292 6.09477 45.4081C5.62249 45.2587 5.16051 45.0738 4.7354 44.8173C4.64778 44.7661 4.55862 44.7228 4.46684 44.6796C4.21012 44.5529 3.98055 44.385 3.74809 44.2187C3.72741 44.204 3.7069 44.1889 3.68559 44.1738C3.6274 44.1325 3.56865 44.0906 3.51079 44.0488C3.48501 44.0303 3.48435 44.0305 3.45805 44.0117C3.4173 43.9818 3.37794 43.9491 3.33891 43.9169V43.8622C3.32391 43.8606 3.30846 43.8591 3.29301 43.8574C3.20262 43.8255 3.1579 43.7682 3.09282 43.6982C2.98592 43.5798 2.98533 43.58 2.84673 43.5068C2.80074 43.4675 2.80143 43.4665 2.76567 43.4238V43.3691C2.74973 43.3623 2.73326 43.3556 2.71684 43.3486C2.64841 43.3101 2.61048 43.2692 2.56059 43.2089C2.50814 43.1465 2.45688 43.0873 2.39848 43.0302C2.35582 42.9857 2.35551 42.9854 2.35551 42.9306H2.30083C2.14529 42.7974 1.9837 42.6048 1.91899 42.4101C1.89203 42.4011 1.86474 42.392 1.83696 42.3828C1.79252 42.3283 1.75171 42.2744 1.71196 42.2167C1.70005 42.1997 1.68809 42.1826 1.67583 42.165C1.55414 41.9888 1.43955 41.8084 1.32915 41.6249C1.28824 41.5578 1.24635 41.491 1.20415 41.4247C0.991378 41.083 0.827139 40.7316 0.675827 40.3593C0.666775 40.3371 0.657807 40.3148 0.648483 40.2919C0.55193 40.0536 0.460755 39.8128 0.377975 39.5693C0.367915 39.5402 0.367819 39.5396 0.357468 39.5097C0.314667 39.3804 0.294792 39.2584 0.280319 39.123C0.262219 39.059 0.243922 38.9945 0.225632 38.9306C0.200826 38.8131 0.178839 38.6952 0.157272 38.5771C0.148206 38.5276 0.147968 38.527 0.138718 38.4765C0.0953992 38.236 0.0564783 37.9963 0.0342255 37.7529C0.0319981 37.7306 0.0296836 37.7084 0.0273895 37.6855C-0.00182455 37.3483 0.00368498 37.01 0.00395203 36.6718C0.00399658 36.5762 0.003068 36.4803 0.00297546 36.3847V32.6318C0.00295064 32.527 0.00202313 32.4221 0.0019989 32.3173V26.663C0.001579 25.6805 0.000996987 24.6973 0.00102234 23.7148V22.0781C0.000790361 21.6611 -0.00013321 21.2441 4.57764e-05 20.8271V19.3046C-0.001002 18.7518 0.0155325 18.2024 0.114304 17.6572C0.121386 17.6164 0.121716 17.6158 0.128952 17.5742C0.142555 17.4967 0.156678 17.419 0.170944 17.3417C0.174769 17.3209 0.178723 17.2997 0.182663 17.2783C0.301192 16.6417 0.505553 16.0448 0.756882 15.4501C0.769352 15.4203 0.769572 15.42 0.782272 15.3896C0.939072 15.0155 1.13928 14.6813 1.35844 14.3408C1.3953 14.2812 1.4281 14.2214 1.46001 14.1591C1.52896 14.0317 1.6139 13.9167 1.70024 13.8007C1.71407 13.7821 1.72799 13.7633 1.74223 13.7441C1.80483 13.6612 1.86769 13.5829 1.94243 13.5107C2.00671 13.4595 2.00743 13.4585 2.00102 13.3964C2.04574 13.3504 2.09092 13.3046 2.13676 13.2597C2.14573 13.2417 2.15487 13.2236 2.16411 13.205H2.2188V13.1503H2.27348V13.0956H2.32817C2.33178 13.0716 2.33234 13.0712 2.33598 13.0468C2.36111 12.9707 2.39411 12.9451 2.4561 12.8954C2.55054 12.8168 2.62836 12.7342 2.70415 12.6376C2.71516 12.6261 2.72699 12.6144 2.73833 12.6025H2.79301C2.80644 12.5621 2.80575 12.5615 2.81938 12.5204C2.8558 12.4961 2.89348 12.4713 2.93071 12.4482C3.02738 12.3796 3.11113 12.295 3.19731 12.2138C3.25643 12.1639 3.25701 12.164 3.31157 12.164C3.31803 12.1479 3.32445 12.1317 3.3311 12.1152C3.40435 11.9881 3.54706 11.9162 3.66606 11.8349C3.68433 11.8224 3.70291 11.8097 3.72173 11.7968C4.0864 11.5473 4.45422 11.3101 4.85161 11.1161C4.92026 11.0826 4.98882 11.0487 5.05669 11.0136C5.52313 10.7733 6.00353 10.6133 6.50591 10.4658C6.54042 10.4555 6.54112 10.4547 6.57622 10.4443C6.84922 10.3642 7.1256 10.3062 7.40532 10.2548C7.44987 10.2465 7.45063 10.2467 7.49614 10.2382C8.01519 10.1469 8.52945 10.1289 9.05571 10.1298C9.15178 10.1299 9.24871 10.129 9.34477 10.1288H10.5977C11.0699 10.1284 11.5425 10.1278 12.0147 10.1279H16.4698C17.3463 10.128 18.2231 10.1274 19.0997 10.1269H22.4532C22.8433 10.1269 23.2339 10.1262 23.6241 10.1259H26.4834ZM22.753 16.9199C22.5692 16.9209 22.3849 16.9231 22.2012 16.9277C22.0116 16.9324 21.8216 16.9353 21.6319 16.9374C21.2231 16.9418 20.814 16.9492 20.4053 16.9589C20.4053 17.0135 20.4052 17.0138 20.4288 17.0615C20.4402 17.0813 20.4518 17.1008 20.4629 17.1201C20.4821 17.1534 20.4822 17.1537 20.501 17.1865C20.5154 17.2113 20.53 17.2356 20.544 17.2597C20.5904 17.3404 20.6371 17.4213 20.6836 17.5019C20.7509 17.6182 20.8178 17.735 20.8848 17.8515C20.9023 17.8819 20.9196 17.9118 20.9366 17.9413C21.1415 18.2973 21.3441 18.6548 21.544 19.0136C21.7572 19.3969 21.9724 19.7792 22.1915 20.1591C22.4752 20.6511 22.7532 21.1461 23.0274 21.6435C22.9733 21.6185 22.9723 21.6183 22.9317 21.5849C22.9158 21.5718 22.9002 21.5585 22.8848 21.5458C22.867 21.5312 22.8494 21.5171 22.8321 21.5029C22.6866 21.3828 22.5402 21.2627 22.3916 21.1464C22.2508 21.0364 22.1113 20.9245 21.9737 20.8105C21.799 20.6655 21.6239 20.5215 21.4434 20.3837C21.245 20.2328 21.0492 20.0783 20.8575 19.9189C20.7168 19.8019 20.5748 19.6859 20.4307 19.5732C20.3125 19.4807 20.1953 19.3869 20.0791 19.2919C19.9251 19.1658 19.7701 19.0407 19.6133 18.9179C19.4945 18.8248 19.3767 18.7303 19.2598 18.6347C19.1058 18.5086 18.9507 18.3825 18.794 18.2597C18.6752 18.1666 18.5573 18.072 18.4405 17.9765C18.296 17.8582 18.1509 17.7404 18.0049 17.624C17.988 17.6105 17.9716 17.597 17.9551 17.5839C17.8791 17.5229 17.8046 17.4628 17.7188 17.416C17.704 17.4095 17.6892 17.4037 17.6749 17.3974V17.3427C17.6564 17.3334 17.6381 17.3244 17.6202 17.3154C17.5799 17.2726 17.5394 17.2292 17.4981 17.1874C17.2073 16.9122 16.9252 16.9107 16.5401 16.9208C16.4699 16.9228 16.3993 16.9241 16.3291 16.9247C16.144 16.9257 15.9585 16.9276 15.7735 16.9316C15.5822 16.9357 15.3906 16.9385 15.1993 16.9404C14.7867 16.9442 14.3735 16.9506 13.961 16.9589C13.961 17.0135 13.9612 17.0136 13.9864 17.0634C14.0728 17.2148 14.1531 17.3691 14.2305 17.5253C14.3276 17.7219 14.425 17.9184 14.5274 18.1122C14.6275 18.3011 14.7253 18.4911 14.8204 18.6826C14.9321 18.9083 15.0452 19.1338 15.1631 19.3564C15.2515 19.5231 15.337 19.6912 15.4209 19.8603C15.5328 20.0862 15.6457 20.3114 15.7637 20.5341C15.8669 20.7288 15.9657 20.9255 16.0635 21.123C16.1518 21.3013 16.2413 21.4792 16.334 21.6552C16.4291 21.8349 16.5232 22.0155 16.6143 22.1972C16.6267 22.222 16.6384 22.2463 16.6504 22.2704C16.7142 22.3977 16.7785 22.5235 16.8282 22.6572C16.6282 22.4894 16.6283 22.4887 16.4463 22.3007C16.3789 22.2313 16.3115 22.1656 16.2374 22.1035C16.1233 22.0126 16.0103 21.9228 15.9082 21.8183C15.8616 21.7698 15.8149 21.7225 15.7647 21.6777C15.675 21.6002 15.5869 21.5231 15.504 21.4384C15.4546 21.3878 15.4047 21.3387 15.3516 21.2919C15.2972 21.2453 15.2423 21.1987 15.1895 21.1503C15.1174 21.0594 15.0469 20.981 14.96 20.9042C14.9184 20.8679 14.8764 20.8305 14.835 20.7939C14.7455 20.7041 14.6551 20.6191 14.5586 20.537C14.425 20.4236 14.2952 20.3084 14.1729 20.1826C14.1201 20.1268 14.077 20.086 14.0098 20.0488C13.9935 20.0416 13.9768 20.0342 13.961 20.0273V19.9726H13.9063C13.9063 19.9179 13.9064 19.9174 13.8711 19.8818C13.7682 19.7962 13.6677 19.708 13.5694 19.6171C13.5548 19.6036 13.5406 19.5902 13.5264 19.5771C13.285 19.3531 13.0456 19.126 12.8067 18.8994C12.7854 18.8792 12.7648 18.8593 12.7442 18.8398C12.7035 18.8012 12.6619 18.7631 12.6211 18.7245C12.531 18.6388 12.4411 18.5528 12.3477 18.4706C12.2417 18.3786 12.1405 18.2839 12.043 18.1826C11.981 18.1179 11.9285 18.0636 11.8506 18.0195C11.8349 18.0129 11.819 18.0063 11.8038 17.9999V17.9453C11.7064 17.8363 11.5938 17.733 11.4659 17.662C11.4439 17.6527 11.4434 17.6526 11.4219 17.6435V17.5888C11.3942 17.5795 11.3668 17.5705 11.3399 17.5615V17.5068H11.2852V17.4521C11.2706 17.4377 11.2564 17.4231 11.2422 17.4091C11.1834 17.3599 11.1245 17.3099 11.0665 17.2597L10.9297 17.123C10.9172 17.1089 10.9048 17.0947 10.8926 17.081C10.773 16.9597 10.6783 16.9398 10.5108 16.9384C10.4807 16.939 10.4511 16.9398 10.4219 16.9404C10.3222 16.9403 10.2218 16.9402 10.1221 16.9413C10.0509 16.9422 9.97943 16.943 9.90825 16.9433C9.72152 16.9437 9.53442 16.9444 9.3477 16.9462C9.15442 16.9481 8.96091 16.9493 8.76762 16.9501C8.35087 16.9519 7.93339 16.9551 7.51665 16.9589C7.51665 17.0134 7.51674 17.0136 7.5352 17.0605C7.54423 17.0802 7.55281 17.1 7.56157 17.1191C7.5718 17.1417 7.58191 17.1636 7.59184 17.1855C7.61534 17.2373 7.63918 17.2897 7.66216 17.3417C7.68096 17.3847 7.6807 17.3853 7.69926 17.4277C7.7124 17.4576 7.72558 17.4865 7.73833 17.5156C7.75827 17.561 7.75881 17.5618 7.77837 17.6064C7.79183 17.637 7.80436 17.6674 7.81743 17.6972C7.83056 17.7271 7.84375 17.756 7.85649 17.7851C7.89298 17.8683 7.92924 17.9516 7.96489 18.0351C8.00548 18.1303 8.04654 18.2254 8.08794 18.3203C8.09804 18.3434 8.10841 18.3662 8.11821 18.3886C8.13956 18.4375 8.16131 18.4862 8.18266 18.5351C8.2049 18.586 8.22684 18.6376 8.24907 18.6884C8.3465 18.9117 8.44224 19.1361 8.54399 19.3574C8.6222 19.5249 8.6965 19.6935 8.76762 19.8642C8.87264 20.1164 8.98201 20.367 9.09184 20.6171C9.113 20.6653 9.13419 20.7135 9.15532 20.7617C9.20876 20.8836 9.26196 21.006 9.31548 21.1279C9.3655 21.2418 9.41589 21.3557 9.46587 21.4697C9.49152 21.5282 9.51735 21.5869 9.54301 21.6454C9.61665 21.8131 9.68956 21.9815 9.76274 22.1494C9.85497 22.361 9.9476 22.5726 10.0401 22.7841C10.0716 22.8561 10.1034 22.928 10.1348 22.9999C10.2346 23.2284 10.3344 23.4572 10.4366 23.6845C10.4448 23.7028 10.453 23.7205 10.461 23.7382C10.4906 23.8042 10.5202 23.8705 10.5499 23.9365C10.5637 23.9668 10.5774 23.9968 10.5909 24.0263C10.6033 24.054 10.6149 24.0814 10.627 24.1083C10.7024 24.2741 10.7218 24.4015 10.6768 24.58C10.6644 24.6268 10.6524 24.6737 10.6407 24.7206C10.6339 24.7479 10.6267 24.7743 10.6202 24.8007C10.5701 25.0023 10.5254 25.2053 10.4805 25.4081C10.4757 25.43 10.4706 25.4514 10.4659 25.4726C10.4027 25.7578 10.3413 26.0433 10.2852 26.33C10.2027 26.7516 10.1088 27.1713 10.0118 27.5898C9.9905 27.6814 9.96952 27.7736 9.94829 27.8652C9.94282 27.8887 9.93699 27.9116 9.93169 27.9345C9.86441 28.2247 9.79832 28.515 9.74223 28.8076C9.68697 29.0963 9.62151 29.3827 9.55473 29.6689C9.46772 30.0416 9.38502 30.4155 9.31059 30.791C9.28178 30.9366 9.25548 31.0831 9.21684 31.2265C9.17985 31.3546 9.14852 31.4816 9.12602 31.6132C9.08808 31.8399 9.04179 32.0633 8.9893 32.287C8.96256 32.4002 8.93652 32.5136 8.9102 32.6269C8.9046 32.651 8.89904 32.6747 8.8936 32.6982C8.82388 32.9987 8.75833 33.3006 8.69438 33.6025C8.6858 33.643 8.6776 33.684 8.66899 33.7245C8.66479 33.7443 8.66038 33.764 8.6563 33.7831C8.63452 33.8855 8.61225 33.9882 8.58696 34.0898C8.55304 34.2212 8.52223 34.3511 8.50102 34.4853C8.47151 34.6727 8.43022 34.8579 8.38872 35.0429C8.37938 35.0845 8.37064 35.1263 8.36137 35.1679C8.31058 35.3962 8.25883 35.6247 8.2061 35.8525C8.20065 35.876 8.19479 35.899 8.1895 35.9218C8.17888 35.9676 8.16887 36.0137 8.15825 36.0595C8.15288 36.0827 8.14686 36.1054 8.14165 36.1279C8.13626 36.1511 8.13125 36.1747 8.12602 36.1972C8.05883 36.4868 7.9931 36.7764 7.93657 37.0683C7.89093 37.3053 7.84057 37.541 7.78716 37.7763C7.73428 38.0088 7.68063 38.2413 7.63091 38.4745C7.6263 38.4964 7.62171 38.5178 7.61723 38.539C7.5801 38.7129 7.58018 38.7132 7.51665 39.0956H10.7393C10.8428 38.8287 10.9463 38.5615 11.0528 38.2958C11.1515 38.0499 11.2504 37.8037 11.3438 37.5556C11.5035 37.1294 11.6754 36.708 11.8506 36.288C11.8915 36.1905 11.93 36.0926 11.9659 35.9931C12.2418 35.2479 12.242 35.2474 12.5342 34.5087C12.5766 34.4013 12.6198 34.2929 12.6622 34.1855C12.6709 34.1633 12.6791 34.1416 12.6875 34.1201C12.8211 33.7813 12.953 33.441 13.0821 33.1005C13.1855 32.8275 13.2906 32.5551 13.3995 32.2841C13.4624 32.1287 13.5246 31.9726 13.5831 31.8154C13.656 31.6187 13.7315 31.4231 13.8096 31.2285C13.8489 31.1306 13.8877 31.0324 13.9268 30.9345C13.9357 30.9122 13.9445 30.8898 13.9532 30.8681C14.0672 30.5826 14.1809 30.2965 14.294 30.0107C14.3196 29.946 14.3456 29.881 14.3711 29.8163C14.4929 29.5089 14.6155 29.2016 14.7305 28.8915C14.9556 28.2979 14.9557 28.2974 15.1895 27.707C15.3095 27.4034 15.4304 27.0995 15.5479 26.7949C15.5569 26.7714 15.5655 26.7483 15.5743 26.7255C15.6162 26.6166 15.6586 26.5074 15.7002 26.3984C15.7557 26.253 15.8075 26.1045 15.876 25.9648C15.9171 25.8878 15.9526 25.8148 15.9795 25.7314C16.0396 25.5273 16.109 25.3298 16.1885 25.1328C16.2297 25.0314 16.2708 24.9295 16.3116 24.8281C16.3247 24.7954 16.325 24.7947 16.3379 24.7626C16.4423 24.5034 16.5453 24.2435 16.6475 23.9833C16.6659 23.9364 16.6838 23.8886 16.7022 23.8417C16.7427 23.7386 16.7838 23.6353 16.8243 23.5322C16.8349 23.505 16.8452 23.4785 16.8555 23.4521C16.837 23.5519 16.8184 23.6521 16.7999 23.7519C16.7922 23.7928 16.785 23.834 16.7774 23.8749C16.745 24.0501 16.7141 24.2263 16.6758 24.4003C16.6432 24.5405 16.6195 24.6807 16.5987 24.8232C16.5636 25.0653 16.5269 25.3068 16.4747 25.5458C16.4316 25.7427 16.3936 25.9404 16.3575 26.1386C16.3199 26.3451 16.2817 26.5516 16.2422 26.7578C16.2374 26.7831 16.2323 26.8083 16.2276 26.8329C16.2082 26.9341 16.1894 27.0355 16.17 27.1367C16.116 27.4159 16.0629 27.6953 16.0196 27.9765C15.9959 28.1307 15.9717 28.2845 15.9405 28.4374C15.9315 28.4804 15.9219 28.5233 15.9131 28.5663C15.9083 28.5899 15.9041 28.6137 15.8995 28.6367C15.883 28.7175 15.8668 28.7987 15.8516 28.8798C15.82 29.0512 15.7874 29.2227 15.753 29.3935C15.6647 29.8311 15.5854 30.2706 15.5059 30.7099C15.5011 30.7363 15.4959 30.7624 15.4913 30.788C15.4675 30.9193 15.4436 31.0513 15.42 31.1826C15.3388 31.6333 15.2559 32.084 15.1661 32.5331C15.1609 32.559 15.1555 32.5842 15.1504 32.6093C15.1218 32.7529 15.0929 32.8966 15.0635 33.04C14.9895 33.3998 14.9232 33.7607 14.8624 34.123C14.8151 34.4047 14.7662 34.6859 14.709 34.9658C14.6649 35.1809 14.6245 35.3966 14.5879 35.6132C14.5597 35.7806 14.5299 35.9473 14.4942 36.1132C14.4354 36.3834 14.3882 36.6548 14.3438 36.9277C14.2879 37.2722 14.2363 37.6179 14.1524 37.957C14.1122 38.119 14.0807 38.2817 14.0528 38.4462C14.0478 38.4761 14.0429 38.5051 14.0381 38.5341C14.0071 38.7214 13.9819 38.9067 13.961 39.0956H17.1836C17.2331 38.9715 17.2852 38.8478 17.3233 38.7197C17.339 38.6615 17.3559 38.603 17.375 38.5458C17.3854 38.5166 17.3962 38.4883 17.4063 38.4599C17.4186 38.4252 17.4305 38.3911 17.4424 38.3574C17.4776 38.2582 17.5128 38.1588 17.5479 38.0595C17.5559 38.0368 17.5636 38.0141 17.5713 37.9921C17.6359 37.8094 17.7006 37.6262 17.7647 37.4433C17.7753 37.4131 17.7857 37.3837 17.7959 37.3544C17.8393 37.2306 17.8825 37.1061 17.9258 36.9824C18.0464 36.6382 18.1673 36.2938 18.2891 35.9501C18.3295 35.8363 18.3699 35.7221 18.4102 35.6083C18.4202 35.5802 18.4298 35.5526 18.4395 35.5253C18.5707 35.1552 18.699 34.7842 18.8213 34.4111C18.9316 34.0747 19.0511 33.7416 19.1778 33.4111C19.21 33.3272 19.2417 33.2431 19.2735 33.1591C19.2805 33.1407 19.2882 33.1223 19.295 33.1044C19.3301 33.0126 19.3627 32.9211 19.3916 32.8271C19.4514 32.6287 19.5159 32.4325 19.585 32.2372C19.6057 32.1791 19.6269 32.1206 19.6475 32.0624C19.6698 31.9994 19.6916 31.936 19.7139 31.873C19.7856 31.6705 19.8568 31.4673 19.9278 31.2646C19.9638 31.1617 20.0002 31.0579 20.0362 30.955C20.044 30.9328 20.0521 30.9112 20.0596 30.8896C20.1237 30.7067 20.1878 30.5236 20.252 30.3408C20.263 30.3093 20.2735 30.2785 20.2842 30.248C20.3286 30.1214 20.3726 29.9946 20.417 29.8681C20.5333 29.5367 20.6503 29.2047 20.7657 28.873C20.7749 28.8465 20.7841 28.8206 20.793 28.7949C20.8351 28.674 20.8771 28.5525 20.919 28.4316C20.9838 28.2443 21.0475 28.0566 21.1221 27.873C21.1508 27.8053 21.1744 27.7399 21.1944 27.6689C21.2245 27.5604 21.2607 27.4538 21.2979 27.3476C21.3077 27.3197 21.3176 27.2926 21.3272 27.2656C21.3594 27.1739 21.3916 27.0818 21.4239 26.9902C21.4469 26.9249 21.4703 26.8591 21.4932 26.7939C21.6104 26.4604 21.7281 26.1262 21.8457 25.7929C21.8622 25.7465 21.8618 25.7459 21.878 25.7001C21.9294 25.5545 21.9817 25.4092 22.0332 25.2636C22.043 25.2359 22.0521 25.2085 22.0616 25.1816C22.0798 25.1301 22.0981 25.0778 22.1163 25.0263C22.1758 24.8583 22.2345 24.6899 22.2901 24.5204C22.3538 24.3247 22.4186 24.1295 22.4903 23.9365C22.6001 23.6413 22.7037 23.3435 22.8067 23.0458C22.8252 22.9925 22.8438 22.939 22.8624 22.8857C22.9057 22.7608 22.949 22.6356 22.9922 22.5107C23.004 22.4768 23.016 22.4439 23.0274 22.4111C22.9968 22.5897 22.9679 22.7685 22.9444 22.9482C22.8884 23.3798 22.8197 23.8096 22.7442 24.2382C22.6757 24.6264 22.676 24.6269 22.5284 25.5634C22.503 25.7246 22.4773 25.8858 22.4512 26.0468C22.4481 26.0659 22.4454 26.0849 22.4424 26.1035C22.4366 26.1397 22.4307 26.1766 22.4249 26.2128C22.3832 26.4694 22.3421 26.7261 22.3047 26.9833C22.263 27.2715 22.218 27.5594 22.17 27.8466C22.1649 27.8772 22.1652 27.8774 22.1602 27.9072C22.1534 27.948 22.1465 27.9894 22.1397 28.0302C22.1361 28.0514 22.1324 28.0721 22.129 28.0927C22.1253 28.1147 22.1218 28.1368 22.1182 28.1581C22.0737 28.4242 22.029 28.6908 21.9854 28.957C21.9758 29.0157 21.9667 29.075 21.9571 29.1337C21.8997 29.4818 21.8445 29.8299 21.7979 30.1796C21.7782 30.3275 21.7578 30.4757 21.7344 30.623C21.7305 30.6469 21.7265 30.6701 21.7227 30.6933C21.6823 30.9448 21.6398 31.1961 21.5967 31.4472C21.5183 31.9044 21.4425 32.3622 21.3692 32.8203C21.3644 32.8504 21.3592 32.8798 21.3545 32.9091C21.3021 33.235 21.2511 33.5613 21.2081 33.8886C21.1909 34.0244 21.1723 34.1585 21.1416 34.2919C21.1243 34.3669 21.1115 34.439 21.1006 34.5156C21.0763 34.7325 21.0469 34.9477 21.0108 35.163C21.0009 35.2212 20.9903 35.2796 20.9805 35.3378C20.948 35.5323 20.9157 35.7274 20.8829 35.9218C20.8509 36.1106 20.8188 36.2994 20.7872 36.4882C20.7816 36.5212 20.7759 36.5538 20.7706 36.5859C20.7044 36.9806 20.6396 37.3752 20.5899 37.7724C20.558 38.0317 20.5163 38.2874 20.4668 38.5439C20.4606 38.5751 20.4544 38.6064 20.4483 38.6367C20.4426 38.6657 20.4372 38.6944 20.4317 38.7226C20.4058 38.8495 20.4045 38.9666 20.4053 39.0956C20.8023 39.0963 21.1998 39.0963 21.5967 39.0966C21.7896 39.0968 21.983 39.0973 22.1758 39.0976C22.3452 39.0979 22.5153 39.0985 22.6846 39.0986H23.3038C23.3344 39.0987 23.3649 39.0995 23.3946 39.0995C23.4221 39.0995 23.449 39.0986 23.4756 39.0986C23.5171 39.0986 23.5592 39.0983 23.6006 39.0956C23.6277 39.0685 23.6276 39.068 23.6514 39.0029C23.6658 38.9592 23.6665 38.9588 23.6807 38.916C23.6966 38.868 23.6963 38.8676 23.712 38.8203C23.7233 38.7858 23.7342 38.7521 23.7452 38.7187C23.8086 38.5277 23.8711 38.3361 23.9297 38.1435C23.9688 38.0151 24.0108 37.8878 24.0538 37.7607C24.169 37.4199 24.2773 37.0766 24.3848 36.7333C24.4863 36.4091 24.589 36.0843 24.6924 35.7607C24.7351 35.6271 24.7778 35.493 24.8204 35.3593C24.985 34.8419 25.1499 34.3244 25.3165 33.8076C25.3231 33.7871 25.3296 33.7669 25.336 33.747C25.4002 33.5476 25.465 33.3478 25.5293 33.1484C25.5537 33.073 25.5783 32.9972 25.6026 32.9218C25.6141 32.8862 25.6253 32.85 25.6368 32.8144C25.6976 32.6264 25.7577 32.4379 25.8155 32.249C25.8435 32.1571 25.8721 32.065 25.9014 31.9736C25.9168 31.9261 25.9319 31.8784 25.9473 31.831C25.9562 31.8036 25.9562 31.8032 25.9649 31.7763C26.0779 31.428 26.19 31.0788 26.2999 30.7294C26.4233 30.3368 26.5489 29.9448 26.6797 29.5546C26.7714 29.2814 26.8593 29.0071 26.9434 28.7314C27.0273 28.4563 27.1165 28.1827 27.2081 27.9101C27.3183 27.5821 27.4248 27.2532 27.5245 26.9218C27.6758 26.418 27.8365 25.9169 28 25.4169C28.0853 25.1562 28.171 24.8955 28.2559 24.6347C28.2847 24.5462 28.3139 24.4575 28.3428 24.3691C28.4314 24.0978 28.5198 23.8258 28.6026 23.5527C28.715 23.1808 28.8372 22.8118 28.96 22.4433C29.067 22.1226 29.1735 21.8015 29.2735 21.4785C29.2907 21.4227 29.3087 21.3671 29.3262 21.3115C29.3976 21.0856 29.4668 20.8592 29.5264 20.6298C29.1389 20.4121 29.1382 20.4123 28.7666 20.1679C28.5823 20.0496 28.3971 19.9322 28.21 19.8183C28.0423 19.7162 27.8756 19.6122 27.71 19.5068C27.5604 19.4115 27.4102 19.317 27.2588 19.2245C27.1272 19.1443 26.9947 19.0642 26.8653 18.9804C26.6649 18.8498 26.4622 18.7238 26.2579 18.5995C26.1045 18.5066 25.9509 18.4132 25.7999 18.3163C25.6685 18.2321 25.5363 18.1491 25.4034 18.0673C25.168 17.9227 24.9324 17.7775 24.6983 17.6308C24.6525 17.602 24.6523 17.6013 24.6075 17.5732C24.4724 17.4902 24.3367 17.4082 24.2081 17.3154C23.7943 17.0079 23.4765 16.8991 22.962 16.915C22.8925 16.9172 22.8225 16.9191 22.753 16.9199ZM89.7403 22.1074C91.4342 22.05 93.2145 22.585 94.5157 23.6992C94.5377 23.7213 94.5603 23.7437 94.5831 23.7665C94.6444 23.828 94.7083 23.8835 94.7754 23.9384C94.9457 24.0776 95.0958 24.2265 95.2413 24.3915C95.2848 24.4404 95.3297 24.4879 95.376 24.5341C95.447 24.6058 95.5113 24.6807 95.5752 24.7587C95.5968 24.7848 95.6185 24.811 95.6407 24.8378C95.6896 24.9043 95.6895 24.9042 95.6895 24.9589H95.7442C95.7577 24.9843 95.7713 25.0099 95.7852 25.0361C95.8357 25.125 95.893 25.2061 95.9541 25.288C96.9896 26.7108 97.3532 28.6263 97.0967 30.3495C96.9886 31.0249 96.9889 31.0252 96.8916 31.3427C96.8861 31.3614 96.8807 31.3801 96.875 31.3994C96.6928 32.0073 96.4182 32.5758 96.0997 33.123H96.045C96.0391 33.1409 96.0335 33.1592 96.0274 33.1777C95.9783 33.2879 95.9116 33.3814 95.8418 33.4794C95.8273 33.5 95.8129 33.5208 95.7979 33.5419C95.6623 33.7308 95.5167 33.9084 95.3624 34.082C95.3496 34.0965 95.3364 34.111 95.3233 34.1259C94.8305 34.6834 94.2143 35.2499 93.5323 35.5615H93.4786C93.4696 35.5794 93.4604 35.5977 93.4512 35.6161C93.3829 35.6535 93.3142 35.6887 93.2442 35.7226L93.0713 35.8076C93.0146 35.8355 92.9586 35.8646 92.9024 35.8935C92.6705 36.01 92.4214 36.0883 92.167 36.1367V36.1923C92.1507 36.1955 92.1341 36.1979 92.1172 36.2011C91.9747 36.229 91.8333 36.2606 91.6924 36.2958C90.9728 36.4752 90.206 36.5738 89.4639 36.5204C89.4549 36.5114 89.4458 36.5024 89.4366 36.4931C89.3748 36.4879 89.3129 36.4845 89.251 36.4814C88.9956 36.4667 88.7539 36.4276 88.5079 36.3564C88.4194 36.3335 88.3309 36.3109 88.2422 36.289C87.6851 36.1499 87.685 36.1501 87.4434 36.0546C87.4167 36.0448 87.3898 36.0355 87.3624 36.0253C87.0848 35.9218 86.8247 35.7931 86.5674 35.6464C86.533 35.6272 86.4983 35.6083 86.4629 35.5908C86.2524 35.4843 86.0537 35.3578 85.8633 35.2187C85.8064 35.1775 85.8063 35.1775 85.7461 35.1494C85.6697 35.1106 85.62 35.0469 85.5596 34.9863C85.4575 34.9026 85.3522 34.8226 85.2461 34.7441C85.1317 34.658 85.0565 34.5915 84.9854 34.4658C84.9313 34.4288 84.8771 34.3923 84.8223 34.3564C84.7848 34.3119 84.748 34.2662 84.7129 34.2197C84.6921 34.1989 84.6709 34.1776 84.6495 34.1562C84.4379 33.943 84.2559 33.6987 84.085 33.4521C84.0734 33.4354 84.0618 33.4185 84.0499 33.4013C84.0123 33.347 83.9746 33.2929 83.9375 33.2382C83.9258 33.2212 83.9144 33.204 83.9024 33.1865C83.8354 33.0863 83.7895 32.9944 83.7569 32.8769H83.7022V32.7675C83.6842 32.7585 83.6661 32.7495 83.6475 32.7402C83.6107 32.6785 83.5771 32.6163 83.544 32.5527C83.5343 32.5342 83.5237 32.516 83.5137 32.497C83.2105 31.9114 83.211 31.9108 83.211 31.6708H83.1563V31.5068C83.1383 31.4977 83.1202 31.4887 83.1016 31.4794C83.0825 31.4197 83.0663 31.3588 83.0518 31.2978C83.0473 31.2788 83.0428 31.2598 83.0381 31.2402C83.0225 31.174 83.0073 31.1073 82.9922 31.041C82.9865 31.0161 82.9806 30.9913 82.9747 30.9658C82.8731 30.5245 82.8036 30.0941 82.7803 29.6415C82.7769 29.5871 82.7737 29.5324 82.7657 29.4785C82.7311 29.2345 82.7649 28.9933 82.7911 28.7499C82.7936 28.7262 82.7963 28.7021 82.7989 28.6777C82.8607 28.0956 82.9765 27.55 83.1631 26.9951C83.1903 26.9119 83.213 26.8274 83.2364 26.7431C83.3019 26.5287 83.4065 26.3341 83.5108 26.1367C83.5327 26.0949 83.5553 26.0534 83.5772 26.0117C83.6189 25.9323 83.6611 25.8525 83.7032 25.7734C83.7499 25.6853 83.7949 25.5963 83.8389 25.5068H83.8936V25.4247H83.9483C83.9511 25.4091 83.9542 25.393 83.9571 25.3769C83.979 25.3045 84.0104 25.2587 84.0557 25.1982C84.0808 25.1646 84.0809 25.1641 84.1065 25.1298C84.1244 25.1062 84.1427 25.0828 84.1612 25.0585C84.1797 25.034 84.1987 25.0095 84.2178 24.9843C84.5715 24.5202 84.9585 24.0824 85.4229 23.7265C85.439 23.7141 85.4552 23.7012 85.4717 23.6884C86.4039 22.9676 87.4904 22.3765 88.6719 22.2197C88.7233 22.2124 88.7748 22.2045 88.8262 22.1972C89.1303 22.1549 89.4334 22.1193 89.7403 22.1074ZM49.2598 22.1337C49.4797 22.1281 49.6975 22.1549 49.9151 22.1835C49.9549 22.1887 49.9953 22.1935 50.0352 22.1982C50.5727 22.2628 51.0734 22.4842 51.5342 22.7617C51.5928 22.7962 51.6522 22.8289 51.712 22.8613C51.8302 22.9269 51.9384 23.0019 52.0459 23.0839C52.074 23.1053 52.0749 23.1051 52.1036 23.1269C52.4118 23.3649 52.8045 23.6721 52.9815 24.0273C53.0482 24.0221 53.0485 24.0222 53.1182 23.9999C53.1372 23.9638 53.1553 23.9264 53.1729 23.8896C53.2393 23.8084 53.3128 23.7334 53.3848 23.6572C53.404 23.6364 53.4227 23.6151 53.4424 23.5937C53.5458 23.4836 53.6446 23.3945 53.7735 23.3144C53.82 23.2762 53.8666 23.2375 53.9122 23.1982C54.5556 22.6693 55.4988 22.2985 56.3291 22.2245C56.377 22.2203 56.4249 22.2157 56.4727 22.2109C56.8832 22.1698 57.2828 22.1596 57.6944 22.1874C57.7466 22.1908 57.7993 22.1924 57.8516 22.1943C58.9036 22.2445 59.9336 22.7869 60.6827 23.5068C60.7207 23.5419 60.7209 23.5421 60.7598 23.5781C61.0563 23.8577 61.319 24.2091 61.501 24.5751V24.6298H61.5557C62.163 25.7752 62.2713 27.0512 62.2696 28.3242C62.2695 28.4307 62.2686 28.5379 62.2686 28.6445V29.9951C62.2685 30.427 62.2679 30.859 62.2676 31.291V33.0175C62.2673 34.0936 62.2663 35.17 62.2657 36.246C61.8426 36.2467 61.4192 36.2477 60.9961 36.248C60.7999 36.2481 60.6036 36.2477 60.4073 36.248C60.2362 36.2483 60.0647 36.2489 59.8936 36.249H59.3174C59.2873 36.2491 59.2567 36.2498 59.2256 36.2499H59.0704C59.0165 36.2466 59.0166 36.246 58.9893 36.2187C58.9866 36.1725 58.9855 36.1263 58.9854 36.08V35.7773C58.9851 35.6783 58.9845 35.5794 58.9844 35.4804C58.9843 35.3737 58.9837 35.2668 58.9834 35.1601C58.983 34.975 58.9827 34.7895 58.9825 34.6044C58.9821 34.3367 58.9821 34.0685 58.9815 33.8007C58.9805 33.3659 58.9794 32.9308 58.9786 32.496C58.9785 32.4701 58.9786 32.4437 58.9786 32.4169C58.9778 32.0476 58.9772 31.6779 58.9766 31.3085C58.9766 31.2828 58.9767 31.257 58.9766 31.2304C58.9766 31.2044 58.9757 31.1781 58.9756 31.1513C58.9749 30.7184 58.9748 30.2854 58.9737 29.8525C58.973 29.5853 58.972 29.3179 58.9717 29.0507C58.9715 28.8676 58.9713 28.684 58.9707 28.5009C58.9704 28.3954 58.9698 28.29 58.9698 28.1845C58.9698 28.07 58.9692 27.9553 58.9688 27.8408C58.9689 27.8075 58.9697 27.7735 58.9698 27.7392C58.9688 27.5815 58.9606 27.4367 58.919 27.2841C58.9074 27.2325 58.9073 27.2323 58.9073 27.123H58.8526C58.8481 27.0902 58.8436 27.0571 58.8389 27.0234C58.8111 26.8963 58.7567 26.7895 58.6924 26.6777C58.6832 26.6615 58.6736 26.6455 58.6641 26.6288C58.6197 26.5537 58.5731 26.4853 58.5176 26.4179C58.4701 26.3559 58.4707 26.3555 58.4707 26.2734C58.4547 26.2663 58.4384 26.2592 58.4219 26.2519C58.3577 26.2167 58.3177 26.1791 58.2676 26.1259C58.1283 25.9804 58.1276 25.9804 57.9512 25.8896C57.9368 25.8734 57.9222 25.8574 57.9073 25.8408C57.7313 25.6781 57.3948 25.5615 57.1592 25.5615V25.5068C57.1313 25.5051 57.103 25.5036 57.0743 25.5019C57.0562 25.5008 57.0382 25.4991 57.0196 25.498C56.9794 25.4955 56.9387 25.4935 56.8985 25.4911C56.7913 25.4846 56.6856 25.4743 56.5791 25.4599C56.2838 25.4316 55.9428 25.4676 55.6631 25.5673C55.5967 25.5906 55.5296 25.6054 55.461 25.621C55.1321 25.7113 54.8585 25.8956 54.6202 26.1367C54.596 26.1592 54.5718 26.1818 54.5469 26.205C54.0903 26.7003 53.9287 27.3464 53.9297 28.0097C53.9295 28.0627 53.93 28.063 53.9297 28.1171C53.9293 28.2144 53.9288 28.3118 53.9288 28.4091C53.9287 28.5143 53.9282 28.6194 53.9278 28.7245C53.9272 28.9067 53.9271 29.0893 53.9268 29.2714C53.9264 29.5348 53.9256 29.7981 53.9249 30.0615C53.9236 30.4888 53.9228 30.9163 53.9219 31.3437C53.9211 31.7587 53.9201 32.1738 53.919 32.5888C53.9189 32.6143 53.9191 32.6397 53.919 32.666C53.9187 32.7944 53.9184 32.9233 53.918 33.0517C53.9152 34.1164 53.9124 35.1813 53.9102 36.246H50.6602C50.6598 35.987 50.6596 35.7278 50.6592 35.4609C50.6579 34.6308 50.6563 33.8007 50.6543 32.9706C50.654 32.8416 50.6537 32.712 50.6534 32.5829C50.6533 32.5446 50.6535 32.5441 50.6534 32.5048C50.6524 32.0895 50.652 31.674 50.6514 31.2587C50.6508 30.8323 50.6497 30.4059 50.6485 29.9794C50.6478 29.7165 50.6467 29.4533 50.6465 29.1904C50.6464 29.0098 50.6462 28.8289 50.6456 28.6484C50.6452 28.5443 50.6454 28.4399 50.6456 28.3359C50.6478 27.6464 50.6474 27.6461 50.4864 26.9794C50.4695 26.9311 50.4695 26.9307 50.4541 26.8486C50.4502 26.8306 50.4465 26.8124 50.4424 26.7939C50.4244 26.7849 50.4063 26.7758 50.3877 26.7665C50.3967 26.7485 50.4058 26.7304 50.4151 26.7119H50.3604C50.3478 26.6747 50.3479 26.6745 50.335 26.6367C50.2578 26.4545 50.114 26.2462 49.9502 26.1367V26.082H49.8956V26.0273C49.8749 26.0194 49.8544 26.011 49.8331 26.0029C49.7598 25.9721 49.7593 25.9725 49.6778 25.9179V25.8622H49.5957V25.8076C49.5682 25.8002 49.5402 25.7936 49.5118 25.7861C49.4077 25.7565 49.3115 25.7152 49.2129 25.6708V25.6161C49.1888 25.6125 49.1646 25.6082 49.1397 25.6044C49.062 25.5905 48.9905 25.5722 48.9151 25.5497C48.321 25.4006 47.7185 25.436 47.1377 25.6161C47.1166 25.6213 47.0951 25.6264 47.0733 25.6318C46.5728 25.765 46.1777 26.1808 45.9092 26.6025C45.8955 26.6222 45.8814 26.6417 45.8672 26.662C45.6309 27.0088 45.6007 27.4432 45.6016 27.8505C45.6014 27.9041 45.6008 27.9043 45.6006 27.9589C45.6003 28.0578 45.6006 28.1569 45.6006 28.2558C45.6006 28.3626 45.6 28.4693 45.5997 28.5761C45.5991 28.7611 45.5989 28.9468 45.5987 29.1318C45.5984 29.3992 45.5984 29.6671 45.5977 29.9345C45.5966 30.3684 45.5955 30.8023 45.5948 31.2363V31.3935C45.5942 31.7625 45.5926 32.1319 45.5918 32.5009C45.5918 32.5269 45.5919 32.5533 45.5918 32.58C45.591 33.0126 45.5899 33.4453 45.5889 33.8779C45.5883 34.1449 45.5883 34.4126 45.5879 34.6796C45.5877 34.8622 45.5874 35.0449 45.587 35.2275C45.5867 35.3329 45.5861 35.4385 45.586 35.5439C45.5859 35.6578 45.5853 35.7717 45.585 35.8857C45.585 35.9194 45.586 35.9535 45.586 35.9882C45.5858 36.0335 45.5852 36.0337 45.585 36.08C45.585 36.1063 45.5851 36.133 45.585 36.1601C45.5815 36.2188 45.581 36.2187 45.5538 36.246H42.1407V22.5751H45.5811C45.5901 22.9909 45.5992 23.4066 45.6084 23.8349C45.7301 23.6993 45.7305 23.6997 45.8545 23.5615C46.7642 22.6112 47.9716 22.1915 49.2598 22.1337ZM69.6387 36.246H66.335V22.7392H69.6387V36.246ZM81.2452 22.3007C81.289 22.3447 81.2755 22.3922 81.2754 22.4531V25.4804C81.272 25.5337 81.2723 25.5342 81.2452 25.5615C80.978 25.6109 80.7084 25.6253 80.4375 25.6376C80.2966 25.6441 80.156 25.656 80.0157 25.6708V25.7255C80.0002 25.7272 79.9847 25.7287 79.9688 25.7304C79.8385 25.7446 79.7088 25.7608 79.5791 25.7802V25.8359H79.3877V25.8906C79.3645 25.8939 79.3413 25.8969 79.3174 25.9003C79.2873 25.9049 79.2567 25.9093 79.2256 25.914C79.1956 25.9184 79.1657 25.9231 79.1348 25.9277C79.1104 25.9334 79.0858 25.9394 79.0606 25.9453C79.0516 25.9633 79.0425 25.9813 79.0332 25.9999C78.9789 26.019 78.924 26.037 78.8692 26.0546C78.7858 26.0881 78.7044 26.1259 78.6231 26.164C78.5909 26.1786 78.5586 26.1939 78.5254 26.2089C78.2392 26.3428 77.9943 26.5131 77.7491 26.7119C77.7344 26.7236 77.7202 26.7359 77.7051 26.748C77.3641 27.0248 77.1494 27.4348 76.9854 27.8359C76.9738 27.8634 76.9729 27.8633 76.961 27.8915C76.7885 28.3496 76.8093 28.8541 76.8096 29.3349C76.8094 29.4106 76.809 29.4868 76.8086 29.5624C76.808 29.7242 76.8078 29.886 76.8077 30.0478C76.8075 30.2818 76.8064 30.5159 76.8057 30.7499C76.8045 31.1298 76.8034 31.5098 76.8028 31.8896C76.8022 32.2583 76.8018 32.6273 76.8008 32.996C76.8008 33.0188 76.8009 33.0419 76.8008 33.0654C76.8005 33.1796 76.8002 33.294 76.7999 33.4081C76.7973 34.3541 76.7956 35.3001 76.794 36.246H73.544C73.5422 35.1898 73.5409 34.1333 73.5401 33.0771V32.6269C73.5397 32.2253 73.5389 31.8234 73.5381 31.4218C73.5374 31.0088 73.5363 30.5955 73.5362 30.1826C73.5361 29.9283 73.5359 29.6741 73.5352 29.4199C73.5348 29.2449 73.5351 29.0695 73.5352 28.8945C73.5353 28.794 73.5347 28.6932 73.5342 28.5927C73.5317 27.9833 73.5565 27.3781 73.7129 26.7861C73.7211 26.7543 73.7299 26.7222 73.7383 26.6894C73.8145 26.4037 73.9139 26.132 74.0362 25.8632C74.0443 25.8451 74.0522 25.8262 74.0606 25.8076C74.184 25.5375 74.3328 25.2793 74.5254 25.0527C74.5864 24.9888 74.5869 24.989 74.6094 24.9042C74.6487 24.858 74.6488 24.8572 74.6915 24.8212H74.7461C74.7595 24.7675 74.7597 24.767 74.7735 24.7119H74.8282C74.8344 24.6965 74.8404 24.6808 74.8467 24.665C74.8921 24.5856 74.9488 24.5374 75.0176 24.4775C75.1121 24.3955 75.1121 24.3951 75.2012 24.3076C75.237 24.2741 75.2374 24.2734 75.292 24.2734C75.2988 24.2573 75.3056 24.2411 75.3125 24.2245C75.3508 24.1567 75.3874 24.1252 75.4502 24.08C75.4775 24.06 75.4781 24.0604 75.5059 24.04C75.5475 24.0118 75.5898 23.9848 75.6329 23.9589C75.6983 23.9194 75.7596 23.877 75.8213 23.832C76.0697 23.6567 76.329 23.496 76.6084 23.3759C76.6614 23.3528 76.7139 23.3275 76.7657 23.3017C77.3362 23.0192 77.946 22.8256 78.5635 22.6786C78.6475 22.6583 78.731 22.6365 78.8145 22.6142C79.5775 22.4145 80.4541 22.2509 81.2452 22.3007ZM89.8819 25.1425C89.0748 25.1529 88.0174 25.4478 87.4434 26.0546C87.4086 26.0813 87.3735 26.108 87.3379 26.1337C87.1227 26.2932 86.9458 26.4965 86.7881 26.7128V26.7675C86.7476 26.7811 86.7475 26.781 86.7061 26.7949C86.2847 27.2909 86.0707 27.9981 85.9688 28.6298C85.9641 28.6502 85.959 28.6714 85.9541 28.6923C85.9382 28.7853 85.9376 28.8743 85.9375 28.9687V29.5527C85.9404 29.6263 85.948 29.6841 85.9688 29.7538C85.9733 29.7825 85.9778 29.8112 85.9825 29.8408C86.0595 30.3179 86.2311 30.7541 86.46 31.1777C86.475 31.2068 86.475 31.2075 86.4903 31.2372C86.5727 31.3934 86.6708 31.5263 86.7842 31.6611C86.8002 31.6805 86.8166 31.6997 86.8331 31.7197C86.9391 31.8473 87.0514 31.9661 87.17 32.082C87.193 32.1055 87.2165 32.1291 87.2403 32.1533C87.484 32.3939 87.7391 32.5848 88.044 32.7402C88.0618 32.7494 88.0803 32.758 88.0987 32.7675C89.0952 33.2752 90.1931 33.3778 91.2618 33.0341C91.4323 32.9754 91.5959 32.9015 91.7579 32.8222C91.7843 32.8093 91.7846 32.809 91.8116 32.7958C92.0595 32.6734 92.2801 32.5318 92.4952 32.3564C92.5112 32.3434 92.5275 32.3297 92.544 32.3163C92.5939 32.2757 92.6439 32.2345 92.6934 32.1933C92.7089 32.1805 92.7243 32.1675 92.7403 32.1542C92.7778 32.1224 92.8139 32.0885 92.8497 32.0546V31.9999C92.8766 31.9909 92.9039 31.9819 92.9317 31.9726C92.977 31.9309 92.9769 31.9306 93.0186 31.8798C93.033 31.8633 93.0477 31.847 93.0625 31.83C93.1031 31.7796 93.1033 31.7794 93.0957 31.6992C93.1228 31.6901 93.1499 31.6802 93.1778 31.6708V31.5888C93.2048 31.5798 93.232 31.5708 93.2598 31.5615C93.3056 31.5008 93.346 31.4414 93.3858 31.3769C93.4037 31.348 93.4037 31.3478 93.4219 31.3183C93.9502 30.4344 94.1587 29.3629 93.9424 28.3515C93.806 27.8295 93.6063 27.2887 93.2872 26.8495H93.2325C93.2235 26.8135 93.2144 26.7773 93.2051 26.7402H93.1504V26.6845H93.0957C93.0868 26.6485 93.0776 26.6122 93.0684 26.5751H93.0137C93.0066 26.5594 92.9996 26.5435 92.9922 26.5273C92.9101 26.3738 92.7743 26.2346 92.6319 26.1367H92.5772V26.082C92.5326 26.0453 92.4857 26.0108 92.4385 25.9775C92.4131 25.9594 92.3876 25.9414 92.3614 25.9228C92.3196 25.8934 92.319 25.8932 92.2764 25.8632C92.2477 25.8414 92.219 25.8193 92.1895 25.7968C92.0632 25.7064 91.9251 25.6414 91.7852 25.5751C91.7573 25.5619 91.7289 25.5487 91.7002 25.5351C91.3652 25.3785 91.0293 25.2726 90.6651 25.206C90.6299 25.1991 90.6298 25.1984 90.5938 25.1913C90.3879 25.1533 90.1887 25.1415 89.9795 25.1425C89.9474 25.1426 89.915 25.1424 89.8819 25.1425ZM67.1543 17.1171C67.7218 16.796 68.5436 16.9155 69.0655 17.2597C69.1124 17.3039 69.1581 17.3503 69.2022 17.3974C69.2383 17.4317 69.2385 17.4316 69.2754 17.4667C69.5956 17.7752 69.8255 18.1669 69.837 18.6249C69.8429 18.929 69.8348 19.1938 69.7207 19.4794C69.7112 19.5035 69.7022 19.5278 69.6924 19.5527C69.6067 19.7442 69.477 19.8985 69.3389 20.0546C69.3232 20.0727 69.3073 20.0907 69.2911 20.1093C69.1623 20.2481 69.01 20.3431 68.8477 20.4384C68.8276 20.4515 68.8069 20.464 68.7862 20.4775C68.4929 20.6511 68.0033 20.7163 67.6709 20.6337C67.6352 20.6235 67.5993 20.6127 67.5635 20.6025C67.5308 20.5955 67.4976 20.5891 67.4639 20.582C67.3257 20.5474 67.2061 20.4832 67.0811 20.416C67.0586 20.4044 67.0359 20.3927 67.0127 20.3808C66.8855 20.3133 66.7871 20.246 66.6905 20.1367C66.667 20.112 66.6666 20.112 66.6426 20.0869C66.2434 19.6425 66.1114 19.2029 66.1329 18.6113C66.1441 18.4319 66.1803 18.2738 66.253 18.1093C66.2652 18.081 66.2775 18.0525 66.2901 18.0234C66.3748 17.8415 66.4767 17.685 66.6084 17.5341C66.6229 17.5173 66.6375 17.5006 66.6524 17.4833C66.7823 17.343 66.9357 17.2465 67.0997 17.1503C67.1176 17.1393 67.1359 17.1285 67.1543 17.1171Z" fill="black"/>
</svg>
