<svg width="188" height="56" viewBox="0 0 188 56" fill="none" xmlns="http://www.w3.org/2000/svg">
<path d="M62.6055 19.2422L66.3096 31.4033L70.0127 19.2422H74.749L67.7695 40.1455C67.2 41.8724 65.633 43 63.7812 43H59.2588V39.3701H62.5352C63.7458 39.37 64.3149 38.2771 63.959 37.2549L57.9414 19.2422H62.6055ZM34.9414 22.6191L33.9453 31.8828C33.4471 36.3561 30.3864 39.2793 25.583 39.2793H6.08496L6.72559 32.834H25.2988C26.4728 32.8338 27.1842 32.1993 27.291 31.0723L28.2158 22.6191H34.9414ZM50.0713 18.8896C54.1661 18.8896 56.9439 20.9693 57.2646 24.2119H53.0273C52.7422 23.1548 51.603 22.4142 50.001 22.4141C48.3984 22.4141 47.294 23.0842 47.2939 24.1064C47.2939 25.0229 47.9356 25.552 49.3242 25.7988L53.4189 26.5391C56.1609 27.0681 57.5498 28.7597 57.5498 31.4033C57.5498 34.9635 54.7005 37.2197 50.1426 37.2197C45.5491 37.2196 42.5583 34.9984 42.3447 31.4033H46.7959C47.0453 32.8487 48.2557 33.6943 50.1787 33.6943C52.066 33.6943 53.1699 32.9896 53.1699 31.791C53.1699 31.0156 52.6708 30.4518 51.7451 30.2754L47.6504 29.5352C44.588 28.9359 42.9141 27.0675 42.9141 24.4238C42.9141 21.0398 45.6559 18.8898 50.0713 18.8896ZM135.605 18.8896C140.733 18.8897 143.938 22.3797 143.938 27.9492C143.937 28.5482 143.901 28.8654 143.901 29.1826H131.225C131.26 31.7909 133.29 33.6943 135.604 33.6943C137.813 33.6942 139.165 32.7779 139.521 31.4033H143.651C143.367 34.8929 140.091 37.2196 135.604 37.2197C130.513 37.2197 126.952 33.5183 126.952 28.0547C126.952 22.591 130.513 18.8896 135.605 18.8896ZM153.159 18.8896C157.254 18.8897 160.031 20.9693 160.353 24.2119H156.115C155.83 23.1547 154.69 22.4141 153.088 22.4141C151.486 22.4141 150.382 23.0842 150.382 24.1064C150.382 25.0228 151.022 25.552 152.411 25.7988L156.506 26.5391C159.248 27.0681 160.638 28.7597 160.638 31.4033C160.638 34.9635 157.789 37.2197 153.23 37.2197C148.637 37.2197 145.645 34.9985 145.433 31.4033H149.884C150.133 32.8486 151.343 33.6942 153.266 33.6943C155.153 33.6943 156.258 32.9896 156.258 31.791C156.258 31.0157 155.759 30.4519 154.833 30.2754L150.738 29.5352C147.675 28.9359 146.002 27.0675 146.002 24.4238C146.002 21.0397 148.744 18.8896 153.159 18.8896ZM178.121 18.8896C180.435 18.8896 182.216 19.8414 183.463 21.4277L183.818 19.2422H187.843V36.8672H183.818L183.463 34.6816C182.216 36.2676 180.435 37.2197 178.121 37.2197C173.349 37.2196 170.252 33.2363 170.252 28.0547C170.252 22.8729 173.349 18.8898 178.121 18.8896ZM86.4287 18.8896C90.1672 18.8899 92.5527 21.6042 92.5527 25.8691V36.8672H88.0664V26.3975C88.0663 24.0712 86.7485 22.7314 84.79 22.7314C82.725 22.7315 81.1934 24.2828 81.1934 26.6797V36.8672H76.707V19.2412H80.7305L81.0869 21.5332C82.1909 19.8764 84.0786 18.8896 86.4287 18.8896ZM101.776 14.0625V19.2422H106.049V22.9082H101.776V31.6143C101.776 32.5308 102.452 33.2009 103.378 33.2012H106.049V36.8672H101.776C99.177 36.8672 97.2893 34.9987 97.2891 32.4258V22.9082H94.2627V19.2422H97.2891V14.0625H101.776ZM113.099 13V21.3564C114.203 19.8055 116.055 18.8896 118.334 18.8896C122.073 18.8898 124.458 21.6041 124.458 25.8691V36.8672H119.972V26.3975C119.972 24.0712 118.654 22.7314 116.695 22.7314C114.63 22.7317 113.1 24.2829 113.1 26.6797V36.8672H108.612V13H113.099ZM167.546 19.2422V36.8672H163.059V19.2422H167.546ZM179.047 22.7314C176.589 22.7317 174.88 24.8824 174.88 28.0547C174.88 31.227 176.59 33.4121 179.047 33.4121C181.824 33.4121 183.463 31.3681 183.463 28.0547C183.463 24.741 181.825 22.7314 179.047 22.7314ZM28.8574 16.1738L28.2158 22.6191H9.64258C8.46876 22.6193 7.75733 23.253 7.65039 24.3799L6.72559 32.834H0L0.996094 23.5703C1.49433 19.0972 4.5549 16.1738 9.3584 16.1738H28.8574ZM135.604 22.4141C133.504 22.4141 131.723 23.93 131.331 26.0449H139.7C139.308 23.6837 137.884 22.4142 135.604 22.4141ZM167.546 13.002V17.3379H163.059V13.002H167.546Z" fill="black"/>
</svg>
