<svg width="161" height="56" viewBox="0 0 161 56" fill="none" xmlns="http://www.w3.org/2000/svg">
<g clip-path="url(#clip0_6522_21712)">
<path fill-rule="evenodd" clip-rule="evenodd" d="M29.063 21.938C29.063 21.938 28.5101 21.4686 27.9012 22.062C27.3101 22.6364 27.7763 23.2152 27.7763 23.2152L32.6946 28.097L27.7754 32.9792C27.7754 32.9792 27.3025 33.528 27.9012 34.1333C28.4799 34.7196 29.063 34.2577 29.063 34.2577L35.2683 28.0979L29.063 21.938Z" fill="black"/>
<path fill-rule="evenodd" clip-rule="evenodd" d="M2.57723 28.0948L7.49369 23.2144C7.49369 23.2144 7.96569 22.6669 7.36747 22.0616C6.78924 21.4749 6.20657 21.9363 6.20657 21.9363L0.000333823 28.0922L0.00255605 28.0944L-0.000110626 28.0975L6.20568 34.2525C6.20568 34.2525 6.75857 34.7214 7.36747 34.1276C7.95947 33.5523 7.49369 32.9735 7.49369 32.9735L2.57723 28.0948Z" fill="black"/>
<path fill-rule="evenodd" clip-rule="evenodd" d="M23.709 38.2853C23.1304 37.6986 22.5472 38.1613 22.5472 38.1613L17.6312 43.04L12.7157 38.1613C12.7157 38.1613 12.1628 37.6906 11.553 38.2853C10.9628 38.8601 11.4277 39.4385 11.4277 39.4385L17.629 45.5987L17.6317 45.5956L17.6339 45.5983L23.8348 39.4385C23.8348 39.4385 24.3068 38.8906 23.709 38.2853Z" fill="black"/>
<path fill-rule="evenodd" clip-rule="evenodd" d="M17.6366 10.5927L17.6339 10.5954L17.6317 10.5932L11.4303 16.7534C11.4303 16.7534 10.9592 17.3009 11.5565 17.9062C12.1348 18.4938 12.7179 18.0306 12.7179 18.0306L17.6343 13.1519L22.5508 18.031C22.5508 18.031 23.1032 18.4995 23.7126 17.9062C24.3032 17.3327 23.8384 16.7534 23.8384 16.7534L17.6366 10.5927Z" fill="black"/>
<path fill-rule="evenodd" clip-rule="evenodd" d="M28.1342 30.1489C28.6942 29.5445 28.5569 28.9247 28.5569 28.9247H18.4702L18.4697 38.938C18.4697 38.938 19.0937 39.073 19.7026 38.5176C20.3395 37.9375 20.2897 37.248 20.2897 37.248V32.0128L25.4768 37.1615C25.4768 37.1615 26.0293 37.6305 26.6386 37.0371C27.2302 36.4618 26.7649 35.8835 26.7649 35.8835L21.5746 30.7313H26.8546C26.8546 30.7313 27.5493 30.7815 28.1342 30.1489Z" fill="black"/>
<path fill-rule="evenodd" clip-rule="evenodd" d="M16.7986 28.9246H6.71151C6.71151 28.9246 6.57462 29.5435 7.13417 30.1479C7.71862 30.7796 8.41329 30.7307 8.41329 30.7307H13.688L8.5004 35.8803C8.5004 35.8803 8.02795 36.4282 8.62662 37.0325C9.20485 37.6193 9.78796 37.1578 9.78796 37.1578L14.9782 32.0056V37.247C14.9782 37.247 14.9293 37.9369 15.5653 38.5175C16.1746 39.0724 16.7991 38.9361 16.7991 38.9361L16.7986 28.9246Z" fill="black"/>
<path fill-rule="evenodd" clip-rule="evenodd" d="M15.5658 17.6732C14.9293 18.2538 14.9791 18.9438 14.9791 18.9438V24.1789L9.79107 19.0293C9.79107 19.0293 9.23952 18.5608 8.62885 19.1542C8.03818 19.7295 8.50396 20.3078 8.50396 20.3078L13.6946 25.4596L8.41418 25.4592C8.41418 25.4592 7.71951 25.4102 7.13418 26.0415C6.57373 26.6463 6.71151 27.2666 6.71151 27.2666H16.7986L16.7991 17.2533C16.7991 17.2533 16.1746 17.1178 15.5658 17.6732Z" fill="black"/>
<path fill-rule="evenodd" clip-rule="evenodd" d="M28.1342 26.0422C27.5493 25.4105 26.8542 25.4595 26.8542 25.4595H21.5799L26.768 20.3103C26.768 20.3103 27.24 19.7624 26.6422 19.1563C26.0622 18.5704 25.4795 19.0327 25.4795 19.0327L20.2897 24.1854L20.2893 18.9432C20.2893 18.9432 20.3386 18.2532 19.7026 17.6727C19.0937 17.1172 18.4697 17.2536 18.4697 17.2536V27.2664L28.5569 27.266C28.5569 27.266 28.6942 26.647 28.1342 26.0422Z" fill="black"/>
<path fill-rule="evenodd" clip-rule="evenodd" d="M42.8829 24.3119C40.4011 24.3119 38.9153 22.7489 38.9153 20.2705V13.9434H40.3127V20.094C40.3127 21.8639 41.1144 23.0435 42.8829 23.0435C44.6216 23.0435 45.498 21.9817 45.498 20.1381V13.9434H46.8945V20.1968C46.8945 22.7634 45.3642 24.3119 42.8829 24.3119Z" fill="black"/>
<path fill-rule="evenodd" clip-rule="evenodd" d="M57.963 24.1204L52.3319 16.1999V24.1204H51.0386V13.9434H52.2866L57.7252 21.5687V13.9434H59.0177V24.1204H57.963Z" fill="black"/>
<path fill-rule="evenodd" clip-rule="evenodd" d="M63.5042 24.1204H64.901V13.9434H63.5042V24.1204Z" fill="black"/>
<path fill-rule="evenodd" clip-rule="evenodd" d="M73.4884 24.1645H72.24L68.2875 14.1353L69.684 13.8406L72.8791 22.3064L76.0142 13.9434H77.4853L73.4884 24.1645Z" fill="black"/>
<path fill-rule="evenodd" clip-rule="evenodd" d="M80.5599 24.1204V13.9434H86.0875V15.2121H81.9563V18.1621H85.1657L85.3741 19.43H81.9563V22.852H86.2359V24.1204H80.5599Z" fill="black"/>
<path fill-rule="evenodd" clip-rule="evenodd" d="M92.8316 15.168H91.4947V18.6633H92.6836C94.0356 18.6633 94.8974 18.0589 94.8974 16.9079C94.8974 15.802 94.1987 15.168 92.8316 15.168ZM97.0965 23.9139L95.6845 24.2236L92.5494 19.8284H91.4947V24.1204H90.0983V13.9434H92.8912C94.9867 13.9434 96.2938 14.9761 96.2938 16.8343C96.2938 18.3682 95.3876 19.2827 94.0503 19.6515L97.0965 23.9139Z" fill="black"/>
<path fill-rule="evenodd" clip-rule="evenodd" d="M102.771 24.2386C101.656 24.2386 100.661 23.9726 99.9037 23.5747L100.112 22.1586C100.81 22.6161 101.776 23.0285 102.801 23.0285C103.871 23.0285 104.629 22.4687 104.629 21.4801C104.629 20.5515 104.213 20.1677 102.667 19.4746C100.736 18.6047 100.008 17.9703 100.008 16.5101C100.008 14.8729 101.27 13.8252 103.128 13.8252C104.123 13.8252 104.866 14.0612 105.461 14.4009L105.238 15.7874C104.673 15.3595 103.9 15.0348 103.083 15.0348C101.91 15.0348 101.389 15.6547 101.389 16.4068C101.389 17.1885 101.776 17.5574 103.336 18.265C105.327 19.1649 106.01 19.8434 106.01 21.3769C106.01 23.1318 104.688 24.2386 102.771 24.2386Z" fill="black"/>
<path fill-rule="evenodd" clip-rule="evenodd" d="M109.902 24.1204H111.299V13.9434H109.902V24.1204Z" fill="black"/>
<path fill-rule="evenodd" clip-rule="evenodd" d="M119.337 15.212V24.1202H117.94V15.212H114.671V13.9432H122.487L122.695 15.212H119.337Z" fill="black"/>
<path fill-rule="evenodd" clip-rule="evenodd" d="M129.9 20.0793V24.1203H128.503V20.0793L124.878 14.1352L126.274 13.8405L129.217 18.8106L132.084 13.9433H133.63L129.9 20.0793Z" fill="black"/>
<path fill-rule="evenodd" clip-rule="evenodd" d="M146.258 15.0201C144.222 15.0201 142.974 16.5835 142.974 19.0319C142.974 21.4799 144.237 23.0438 146.258 23.0438C148.293 23.0438 149.542 21.4799 149.542 19.0319C149.542 16.5835 148.278 15.0201 146.258 15.0201ZM146.243 24.3121C143.36 24.3121 141.532 22.1879 141.532 19.0465C141.532 15.8905 143.39 13.7522 146.273 13.7522C149.17 13.7522 150.983 15.8759 150.983 19.0174C150.983 22.1588 149.14 24.3121 146.243 24.3121Z" fill="black"/>
<path fill-rule="evenodd" clip-rule="evenodd" d="M156.063 15.212V18.3239H159.153L159.361 19.5922H156.063V24.1202H154.666V13.9432H160V15.212H156.063Z" fill="black"/>
<path fill-rule="evenodd" clip-rule="evenodd" d="M41.4415 42.3681C40.3268 42.3681 39.3317 42.1026 38.5735 41.7046L38.782 40.2885C39.4797 40.746 40.4464 41.1589 41.4708 41.1589C42.5411 41.1589 43.2989 40.5987 43.2989 39.6105C43.2989 38.6814 42.8829 38.2976 41.3375 37.6046C39.4055 36.7346 38.678 36.0998 38.678 34.64C38.678 33.0029 39.9411 31.9556 41.7984 31.9556C42.7935 31.9556 43.5366 32.1921 44.1309 32.5304L43.9082 33.9174C43.3437 33.4899 42.5704 33.1657 41.7535 33.1657C40.5802 33.1657 40.0597 33.7846 40.0597 34.5368C40.0597 35.319 40.4464 35.6873 42.0064 36.3954C43.9971 37.2944 44.6811 37.9734 44.6811 39.5077C44.6811 41.2622 43.3584 42.3681 41.4415 42.3681Z" fill="black"/>
<path fill-rule="evenodd" clip-rule="evenodd" d="M51.5596 33.6812L49.9245 37.9732H53.2085L51.5596 33.6812ZM54.8876 42.3534L53.684 39.1974H49.4489L48.2907 42.2506H46.8787L50.8907 32.0295H52.2876L56.24 42.0583L54.8876 42.3534Z" fill="black"/>
<path fill-rule="evenodd" clip-rule="evenodd" d="M66.0154 42.2505L60.3842 34.3305V42.2505H59.0913V32.074H60.3393L65.7776 39.6989V32.074H67.0705V42.2505H66.0154Z" fill="black"/>
<path fill-rule="evenodd" clip-rule="evenodd" d="M76.8005 33.3422V36.4541H79.8917L80.0992 37.7228H76.8005V42.2504H75.4045V32.0738H80.7383V33.3422H76.8005Z" fill="black"/>
<path fill-rule="evenodd" clip-rule="evenodd" d="M86.7252 33.2982H85.3888V36.7934H86.5772C87.9297 36.7934 88.791 36.1886 88.791 35.0376C88.791 33.9321 88.0924 33.2982 86.7252 33.2982ZM90.9901 42.0436L89.5781 42.3533L86.443 37.9585H85.3888V42.2505H83.9919V32.074H86.7848C88.8804 32.074 90.1875 33.1058 90.1875 34.9644C90.1875 36.4987 89.2812 37.4124 87.9439 37.7816L90.9901 42.0436Z" fill="black"/>
<path fill-rule="evenodd" clip-rule="evenodd" d="M97.3038 33.6812L95.6692 37.9732H98.9532L97.3038 33.6812ZM100.632 42.3534L99.4287 39.1974H95.1941L94.0349 42.2506H92.6234L96.6349 32.0295H98.0318L101.984 42.0583L100.632 42.3534Z" fill="black"/>
<path fill-rule="evenodd" clip-rule="evenodd" d="M111.537 42.2505L105.906 34.3305V42.2505H104.613V32.074H105.861L111.3 39.6989V32.074H112.592V42.2505H111.537Z" fill="black"/>
<path fill-rule="evenodd" clip-rule="evenodd" d="M120.644 42.4418C117.761 42.4418 115.904 40.3185 115.904 37.1766C115.904 34.0206 117.791 31.8819 120.674 31.8819C121.893 31.8819 122.799 32.192 123.586 32.7228L123.378 34.1389C122.635 33.5777 121.759 33.1502 120.659 33.1502C118.578 33.1502 117.345 34.7141 117.345 37.1621C117.345 39.6105 118.594 41.1589 120.659 41.1589C121.759 41.1589 122.725 40.7315 123.542 40.1412L123.75 41.4541C122.962 42.0293 121.818 42.4418 120.644 42.4418Z" fill="black"/>
<path fill-rule="evenodd" clip-rule="evenodd" d="M127.27 42.2504H128.667V32.0739H127.27V42.2504Z" fill="black"/>
<path fill-rule="evenodd" clip-rule="evenodd" d="M135.055 42.3681C133.941 42.3681 132.945 42.1026 132.187 41.7046L132.396 40.2885C133.094 40.746 134.06 41.1589 135.085 41.1589C136.155 41.1589 136.913 40.5987 136.913 39.6105C136.913 38.6814 136.497 38.2976 134.951 37.6046C133.02 36.7346 132.291 36.0998 132.291 34.64C132.291 33.0029 133.554 31.9556 135.412 31.9556C136.407 31.9556 137.15 32.1921 137.745 32.5304L137.522 33.9174C136.957 33.4899 136.184 33.1657 135.367 33.1657C134.194 33.1657 133.673 33.7846 133.673 34.5368C133.673 35.319 134.06 35.6873 135.62 36.3954C137.611 37.2944 138.294 37.9734 138.294 39.5077C138.294 41.2622 136.972 42.3681 135.055 42.3681Z" fill="black"/>
<path fill-rule="evenodd" clip-rule="evenodd" d="M145.47 42.4418C142.588 42.4418 140.73 40.3185 140.73 37.1766C140.73 34.0206 142.617 31.8819 145.5 31.8819C146.719 31.8819 147.625 32.192 148.412 32.7228L148.204 34.1389C147.461 33.5777 146.585 33.1502 145.485 33.1502C143.405 33.1502 142.172 34.7141 142.172 37.1621C142.172 39.6105 143.42 41.1589 145.485 41.1589C146.585 41.1589 147.551 40.7315 148.368 40.1412L148.576 41.4541C147.788 42.0293 146.644 42.4418 145.47 42.4418Z" fill="black"/>
<path fill-rule="evenodd" clip-rule="evenodd" d="M155.261 33.1505C153.225 33.1505 151.977 34.7144 151.977 37.1623C151.977 39.6107 153.24 41.1737 155.261 41.1737C157.297 41.1737 158.545 39.6107 158.545 37.1623C158.545 34.7144 157.282 33.1505 155.261 33.1505ZM155.246 42.442C152.363 42.442 150.536 40.3183 150.536 37.1769C150.536 34.0209 152.393 31.8822 155.275 31.8822C158.173 31.8822 159.986 34.0059 159.986 37.1478C159.986 40.2888 158.143 42.442 155.246 42.442Z" fill="black"/>
</g>
<defs>
<clipPath id="clip0_6522_21712">
<rect width="161" height="44" fill="white" transform="translate(0 6)"/>
</clipPath>
</defs>
</svg>
