<svg width="1178" height="278" viewBox="0 0 1178 278" fill="none" xmlns="http://www.w3.org/2000/svg">
<mask id="path-1-outside-1_1049_3081" maskUnits="userSpaceOnUse" x="1.57812" y="1.61719" width="1175" height="275" fill="black">
<rect fill="white" x="1.57812" y="1.61719" width="1175" height="275"/>
<path d="M2.57812 220.443V207.612H5.63318C13.5763 207.612 17.2424 206.39 19.992 203.64C22.7415 200.89 23.9635 196.919 23.9635 189.281V37.7504C23.9635 30.1127 22.7415 26.1411 19.992 23.3916C17.2424 20.642 13.5763 19.42 5.63318 19.42H2.57812V6.58877H87.2032C111.644 6.58877 126.308 12.6989 136.084 23.0861C144.944 32.2513 150.748 44.166 150.748 57.9138C150.748 74.1056 145.249 86.0203 135.168 94.88C128.752 100.685 121.42 105.267 112.56 107.406C128.447 110.461 141.278 119.015 148.61 128.18C155.637 137.04 159.914 150.482 159.914 163.313C159.914 177.367 155.942 188.976 148.915 198.141C138.223 212.194 121.114 220.443 93.3133 220.443H2.57812ZM46.8765 103.129H79.2601C96.3684 103.129 106.45 98.8515 113.171 91.5194C120.198 83.8818 123.558 74.4111 123.558 64.6349C123.558 49.9706 119.587 39.5834 112.866 31.9458C106.145 24.3081 96.3684 19.7255 79.2601 19.7255H46.8765V103.129ZM46.8765 207.306H87.8142C103.09 207.306 114.088 203.335 121.114 195.391C128.447 187.143 132.724 174.923 132.724 163.313C132.724 148.649 128.752 136.734 120.809 128.791C113.171 121.153 103.09 116.265 87.8142 116.265H46.8765V207.306ZM173.626 220.443V209.139H175.153C183.096 209.139 186.762 207.917 189.512 205.168C192.261 202.418 193.483 198.446 193.483 190.809V35.9173C193.483 28.5852 192.261 24.6136 189.512 21.8641C186.762 19.1145 183.096 17.8925 175.153 17.8925H173.626V6.58877H214.869V190.809C214.869 198.446 216.091 202.418 218.84 205.168C221.59 207.917 225.256 209.139 233.199 209.139H234.727V220.443H173.626ZM358.249 220.443V188.365C351.528 208.528 334.114 223.498 310.896 223.498C296.842 223.498 284.316 218.915 275.457 209.445C267.208 200.89 262.015 188.976 262.015 169.423V97.324C262.015 89.6863 260.793 85.7148 258.043 82.9652C255.293 80.2157 251.627 78.9937 243.684 78.9937H242.157V67.6899H283.4V163.619C283.4 181.949 286.761 189.587 291.649 195.086C296.842 201.196 304.785 205.168 315.478 205.168C328.615 205.168 338.391 199.363 345.418 190.503C352.444 181.949 356.721 170.34 356.721 149.26V97.324C356.721 89.6863 355.499 85.7148 352.75 82.9652C350 80.2157 346.334 78.9937 338.391 78.9937H336.863V67.6899H378.107V191.114C378.107 198.446 379.329 202.418 382.078 205.168C384.828 207.917 388.494 209.139 396.437 209.139H397.965V220.443H358.249ZM526.883 160.869H537.576C534.826 193.558 514.358 223.498 478.002 223.498C437.065 223.498 410.791 192.031 410.791 145.594C410.791 98.2405 437.065 64.6349 475.864 64.6349C517.718 64.6349 537.576 98.2405 537.576 136.429H432.177C432.177 177.672 452.645 200.585 481.363 200.585C505.803 200.585 520.468 185.921 526.883 160.869ZM433.093 123.292H511.303C511.303 94.88 498.471 77.7716 475.558 77.7716C454.478 77.7716 437.37 93.0469 433.093 123.292ZM550.555 275.434V264.13H552.083C560.026 264.13 563.692 262.908 566.442 260.159C569.191 257.409 570.413 253.437 570.413 245.8V97.0185C570.413 89.6864 569.191 85.7148 566.442 82.9652C563.692 80.2157 560.026 78.9937 552.083 78.9937H550.555V67.6899H590.271V102.212C599.131 78.9937 619.905 64.6349 643.124 64.6349C681.312 64.6349 704.836 98.2405 704.836 142.539C704.836 188.365 679.173 223.498 637.624 223.498C616.545 223.498 600.353 214.944 591.799 206.695V245.8C591.799 253.437 593.021 257.409 595.77 260.159C598.52 262.908 602.186 264.13 611.656 264.13H614.712V275.434H550.555ZM606.463 195.086C614.101 204.557 624.793 209.75 637.624 209.75C668.481 209.75 680.395 179.811 680.395 149.566C680.395 110.766 663.592 82.9652 635.486 82.9652C623.266 82.9652 613.49 88.1588 606.157 96.713C596.992 107.711 591.799 123.903 591.799 141.011V144.372C591.799 164.535 596.687 183.171 606.463 195.086ZM720.013 220.443V209.139H721.541C729.484 209.139 733.15 207.917 735.899 205.168C738.649 202.418 739.871 198.446 739.871 190.809V97.0185C739.871 89.6864 738.649 85.7148 735.899 82.9652C733.15 80.2157 729.484 78.9937 721.541 78.9937H720.013V67.6899H759.729V102.823C766.145 79.2992 781.725 64.6349 803.722 64.6349C825.413 64.6349 842.215 81.1322 842.215 104.351C842.215 119.626 835.8 125.736 827.551 125.736C821.135 125.736 815.636 120.848 815.636 113.821C815.636 109.239 816.553 105.267 816.553 101.296C816.553 89.9919 809.832 82.9652 797.306 82.9652C781.114 82.9652 770.116 95.7965 765.533 111.377C762.478 121.459 761.256 132.457 761.256 148.649V190.809C761.256 198.446 762.478 202.418 765.228 205.168C767.978 207.917 771.644 209.139 781.114 209.139H784.169V220.443H720.013ZM862.586 18.809C862.586 9.94934 869.613 2.61719 878.473 2.61719C887.332 2.61719 894.665 9.94934 894.665 18.809C894.665 27.6687 887.332 34.6953 878.473 34.6953C869.613 34.6953 862.586 27.6687 862.586 18.809ZM848.839 220.443V209.139H850.366C858.309 209.139 861.975 207.917 864.725 205.168C867.475 202.418 868.697 198.446 868.697 190.809V97.324C868.697 89.6863 867.475 85.7148 864.725 82.9652C861.975 80.2157 858.309 78.9937 850.366 78.9937H848.839V67.6899H890.082V190.809C890.082 198.446 891.304 202.418 894.054 205.168C896.803 207.917 900.469 209.139 908.412 209.139H909.94V220.443H848.839ZM920.979 220.443V209.139H922.506C930.449 209.139 934.115 207.917 936.865 205.168C939.615 202.418 940.836 198.446 940.836 190.809V97.0185C940.836 89.6864 939.615 85.7148 936.865 82.9652C934.115 80.2157 930.449 78.9937 922.506 78.9937H920.979V67.6899H960.694V99.7681C967.416 79.6047 986.357 64.6349 1011.1 64.6349C1023.63 64.6349 1036.77 68.6065 1045.62 78.0771C1053.87 86.6313 1058.46 99.157 1058.46 118.709V190.809C1058.46 198.446 1059.68 202.418 1062.43 205.168C1065.18 207.917 1068.84 209.139 1076.79 209.139H1078.31V220.443H1018.74V209.139H1020.27C1026.68 209.139 1030.35 207.917 1033.1 205.168C1035.85 202.418 1037.07 198.446 1037.07 190.809V124.514C1037.07 106.184 1034.32 97.935 1029.43 92.4359C1024.24 86.3258 1015.69 82.9652 1006.52 82.9652C991.856 82.9652 980.552 88.7698 973.526 97.6295C966.499 106.184 962.222 117.793 962.222 138.873V190.809C962.222 198.446 963.444 202.418 966.194 205.168C968.943 207.917 972.609 209.139 979.025 209.139H980.552V220.443H920.979ZM1168.63 196.308L1175.05 203.029C1167.41 215.555 1155.19 223.498 1140.53 223.498C1132.28 223.498 1125.25 220.748 1120.06 216.777C1113.03 211.278 1109.36 203.029 1109.36 185.31V101.907C1109.36 92.4359 1107.84 89.9919 1106 88.1588C1103.86 86.0203 1101.42 84.4928 1091.95 84.4928H1080.34V73.8001C1107.53 67.9954 1117.31 53.6367 1120.06 26.4466H1130.75V67.6899H1171.99V84.4928H1148.16C1138.69 84.4928 1136.25 86.0203 1134.11 88.1588C1132.28 89.9919 1130.75 92.4359 1130.75 101.907V180.727C1130.75 193.864 1132.58 197.835 1135.94 200.89C1139 203.64 1143.58 205.168 1147.55 205.168C1157.02 205.168 1163.44 200.89 1168.63 196.308Z"/>
</mask>
<path d="M2.57812 220.443V207.612H5.63318C13.5763 207.612 17.2424 206.39 19.992 203.64C22.7415 200.89 23.9635 196.919 23.9635 189.281V37.7504C23.9635 30.1127 22.7415 26.1411 19.992 23.3916C17.2424 20.642 13.5763 19.42 5.63318 19.42H2.57812V6.58877H87.2032C111.644 6.58877 126.308 12.6989 136.084 23.0861C144.944 32.2513 150.748 44.166 150.748 57.9138C150.748 74.1056 145.249 86.0203 135.168 94.88C128.752 100.685 121.42 105.267 112.56 107.406C128.447 110.461 141.278 119.015 148.61 128.18C155.637 137.04 159.914 150.482 159.914 163.313C159.914 177.367 155.942 188.976 148.915 198.141C138.223 212.194 121.114 220.443 93.3133 220.443H2.57812ZM46.8765 103.129H79.2601C96.3684 103.129 106.45 98.8515 113.171 91.5194C120.198 83.8818 123.558 74.4111 123.558 64.6349C123.558 49.9706 119.587 39.5834 112.866 31.9458C106.145 24.3081 96.3684 19.7255 79.2601 19.7255H46.8765V103.129ZM46.8765 207.306H87.8142C103.09 207.306 114.088 203.335 121.114 195.391C128.447 187.143 132.724 174.923 132.724 163.313C132.724 148.649 128.752 136.734 120.809 128.791C113.171 121.153 103.09 116.265 87.8142 116.265H46.8765V207.306ZM173.626 220.443V209.139H175.153C183.096 209.139 186.762 207.917 189.512 205.168C192.261 202.418 193.483 198.446 193.483 190.809V35.9173C193.483 28.5852 192.261 24.6136 189.512 21.8641C186.762 19.1145 183.096 17.8925 175.153 17.8925H173.626V6.58877H214.869V190.809C214.869 198.446 216.091 202.418 218.84 205.168C221.59 207.917 225.256 209.139 233.199 209.139H234.727V220.443H173.626ZM358.249 220.443V188.365C351.528 208.528 334.114 223.498 310.896 223.498C296.842 223.498 284.316 218.915 275.457 209.445C267.208 200.89 262.015 188.976 262.015 169.423V97.324C262.015 89.6863 260.793 85.7148 258.043 82.9652C255.293 80.2157 251.627 78.9937 243.684 78.9937H242.157V67.6899H283.4V163.619C283.4 181.949 286.761 189.587 291.649 195.086C296.842 201.196 304.785 205.168 315.478 205.168C328.615 205.168 338.391 199.363 345.418 190.503C352.444 181.949 356.721 170.34 356.721 149.26V97.324C356.721 89.6863 355.499 85.7148 352.75 82.9652C350 80.2157 346.334 78.9937 338.391 78.9937H336.863V67.6899H378.107V191.114C378.107 198.446 379.329 202.418 382.078 205.168C384.828 207.917 388.494 209.139 396.437 209.139H397.965V220.443H358.249ZM526.883 160.869H537.576C534.826 193.558 514.358 223.498 478.002 223.498C437.065 223.498 410.791 192.031 410.791 145.594C410.791 98.2405 437.065 64.6349 475.864 64.6349C517.718 64.6349 537.576 98.2405 537.576 136.429H432.177C432.177 177.672 452.645 200.585 481.363 200.585C505.803 200.585 520.468 185.921 526.883 160.869ZM433.093 123.292H511.303C511.303 94.88 498.471 77.7716 475.558 77.7716C454.478 77.7716 437.37 93.0469 433.093 123.292ZM550.555 275.434V264.13H552.083C560.026 264.13 563.692 262.908 566.442 260.159C569.191 257.409 570.413 253.437 570.413 245.8V97.0185C570.413 89.6864 569.191 85.7148 566.442 82.9652C563.692 80.2157 560.026 78.9937 552.083 78.9937H550.555V67.6899H590.271V102.212C599.131 78.9937 619.905 64.6349 643.124 64.6349C681.312 64.6349 704.836 98.2405 704.836 142.539C704.836 188.365 679.173 223.498 637.624 223.498C616.545 223.498 600.353 214.944 591.799 206.695V245.8C591.799 253.437 593.021 257.409 595.77 260.159C598.52 262.908 602.186 264.13 611.656 264.13H614.712V275.434H550.555ZM606.463 195.086C614.101 204.557 624.793 209.75 637.624 209.75C668.481 209.75 680.395 179.811 680.395 149.566C680.395 110.766 663.592 82.9652 635.486 82.9652C623.266 82.9652 613.49 88.1588 606.157 96.713C596.992 107.711 591.799 123.903 591.799 141.011V144.372C591.799 164.535 596.687 183.171 606.463 195.086ZM720.013 220.443V209.139H721.541C729.484 209.139 733.15 207.917 735.899 205.168C738.649 202.418 739.871 198.446 739.871 190.809V97.0185C739.871 89.6864 738.649 85.7148 735.899 82.9652C733.15 80.2157 729.484 78.9937 721.541 78.9937H720.013V67.6899H759.729V102.823C766.145 79.2992 781.725 64.6349 803.722 64.6349C825.413 64.6349 842.215 81.1322 842.215 104.351C842.215 119.626 835.8 125.736 827.551 125.736C821.135 125.736 815.636 120.848 815.636 113.821C815.636 109.239 816.553 105.267 816.553 101.296C816.553 89.9919 809.832 82.9652 797.306 82.9652C781.114 82.9652 770.116 95.7965 765.533 111.377C762.478 121.459 761.256 132.457 761.256 148.649V190.809C761.256 198.446 762.478 202.418 765.228 205.168C767.978 207.917 771.644 209.139 781.114 209.139H784.169V220.443H720.013ZM862.586 18.809C862.586 9.94934 869.613 2.61719 878.473 2.61719C887.332 2.61719 894.665 9.94934 894.665 18.809C894.665 27.6687 887.332 34.6953 878.473 34.6953C869.613 34.6953 862.586 27.6687 862.586 18.809ZM848.839 220.443V209.139H850.366C858.309 209.139 861.975 207.917 864.725 205.168C867.475 202.418 868.697 198.446 868.697 190.809V97.324C868.697 89.6863 867.475 85.7148 864.725 82.9652C861.975 80.2157 858.309 78.9937 850.366 78.9937H848.839V67.6899H890.082V190.809C890.082 198.446 891.304 202.418 894.054 205.168C896.803 207.917 900.469 209.139 908.412 209.139H909.94V220.443H848.839ZM920.979 220.443V209.139H922.506C930.449 209.139 934.115 207.917 936.865 205.168C939.615 202.418 940.836 198.446 940.836 190.809V97.0185C940.836 89.6864 939.615 85.7148 936.865 82.9652C934.115 80.2157 930.449 78.9937 922.506 78.9937H920.979V67.6899H960.694V99.7681C967.416 79.6047 986.357 64.6349 1011.1 64.6349C1023.63 64.6349 1036.77 68.6065 1045.62 78.0771C1053.87 86.6313 1058.46 99.157 1058.46 118.709V190.809C1058.46 198.446 1059.68 202.418 1062.43 205.168C1065.18 207.917 1068.84 209.139 1076.79 209.139H1078.31V220.443H1018.74V209.139H1020.27C1026.68 209.139 1030.35 207.917 1033.1 205.168C1035.85 202.418 1037.07 198.446 1037.07 190.809V124.514C1037.07 106.184 1034.32 97.935 1029.43 92.4359C1024.24 86.3258 1015.69 82.9652 1006.52 82.9652C991.856 82.9652 980.552 88.7698 973.526 97.6295C966.499 106.184 962.222 117.793 962.222 138.873V190.809C962.222 198.446 963.444 202.418 966.194 205.168C968.943 207.917 972.609 209.139 979.025 209.139H980.552V220.443H920.979ZM1168.63 196.308L1175.05 203.029C1167.41 215.555 1155.19 223.498 1140.53 223.498C1132.28 223.498 1125.25 220.748 1120.06 216.777C1113.03 211.278 1109.36 203.029 1109.36 185.31V101.907C1109.36 92.4359 1107.84 89.9919 1106 88.1588C1103.86 86.0203 1101.42 84.4928 1091.95 84.4928H1080.34V73.8001C1107.53 67.9954 1117.31 53.6367 1120.06 26.4466H1130.75V67.6899H1171.99V84.4928H1148.16C1138.69 84.4928 1136.25 86.0203 1134.11 88.1588C1132.28 89.9919 1130.75 92.4359 1130.75 101.907V180.727C1130.75 193.864 1132.58 197.835 1135.94 200.89C1139 203.64 1143.58 205.168 1147.55 205.168C1157.02 205.168 1163.44 200.89 1168.63 196.308Z" fill="#F3F9FF"/>
<path d="M2.57812 220.443V207.612H5.63318C13.5763 207.612 17.2424 206.39 19.992 203.64C22.7415 200.89 23.9635 196.919 23.9635 189.281V37.7504C23.9635 30.1127 22.7415 26.1411 19.992 23.3916C17.2424 20.642 13.5763 19.42 5.63318 19.42H2.57812V6.58877H87.2032C111.644 6.58877 126.308 12.6989 136.084 23.0861C144.944 32.2513 150.748 44.166 150.748 57.9138C150.748 74.1056 145.249 86.0203 135.168 94.88C128.752 100.685 121.42 105.267 112.56 107.406C128.447 110.461 141.278 119.015 148.61 128.18C155.637 137.04 159.914 150.482 159.914 163.313C159.914 177.367 155.942 188.976 148.915 198.141C138.223 212.194 121.114 220.443 93.3133 220.443H2.57812ZM46.8765 103.129H79.2601C96.3684 103.129 106.45 98.8515 113.171 91.5194C120.198 83.8818 123.558 74.4111 123.558 64.6349C123.558 49.9706 119.587 39.5834 112.866 31.9458C106.145 24.3081 96.3684 19.7255 79.2601 19.7255H46.8765V103.129ZM46.8765 207.306H87.8142C103.09 207.306 114.088 203.335 121.114 195.391C128.447 187.143 132.724 174.923 132.724 163.313C132.724 148.649 128.752 136.734 120.809 128.791C113.171 121.153 103.09 116.265 87.8142 116.265H46.8765V207.306ZM173.626 220.443V209.139H175.153C183.096 209.139 186.762 207.917 189.512 205.168C192.261 202.418 193.483 198.446 193.483 190.809V35.9173C193.483 28.5852 192.261 24.6136 189.512 21.8641C186.762 19.1145 183.096 17.8925 175.153 17.8925H173.626V6.58877H214.869V190.809C214.869 198.446 216.091 202.418 218.84 205.168C221.59 207.917 225.256 209.139 233.199 209.139H234.727V220.443H173.626ZM358.249 220.443V188.365C351.528 208.528 334.114 223.498 310.896 223.498C296.842 223.498 284.316 218.915 275.457 209.445C267.208 200.89 262.015 188.976 262.015 169.423V97.324C262.015 89.6863 260.793 85.7148 258.043 82.9652C255.293 80.2157 251.627 78.9937 243.684 78.9937H242.157V67.6899H283.4V163.619C283.4 181.949 286.761 189.587 291.649 195.086C296.842 201.196 304.785 205.168 315.478 205.168C328.615 205.168 338.391 199.363 345.418 190.503C352.444 181.949 356.721 170.34 356.721 149.26V97.324C356.721 89.6863 355.499 85.7148 352.75 82.9652C350 80.2157 346.334 78.9937 338.391 78.9937H336.863V67.6899H378.107V191.114C378.107 198.446 379.329 202.418 382.078 205.168C384.828 207.917 388.494 209.139 396.437 209.139H397.965V220.443H358.249ZM526.883 160.869H537.576C534.826 193.558 514.358 223.498 478.002 223.498C437.065 223.498 410.791 192.031 410.791 145.594C410.791 98.2405 437.065 64.6349 475.864 64.6349C517.718 64.6349 537.576 98.2405 537.576 136.429H432.177C432.177 177.672 452.645 200.585 481.363 200.585C505.803 200.585 520.468 185.921 526.883 160.869ZM433.093 123.292H511.303C511.303 94.88 498.471 77.7716 475.558 77.7716C454.478 77.7716 437.37 93.0469 433.093 123.292ZM550.555 275.434V264.13H552.083C560.026 264.13 563.692 262.908 566.442 260.159C569.191 257.409 570.413 253.437 570.413 245.8V97.0185C570.413 89.6864 569.191 85.7148 566.442 82.9652C563.692 80.2157 560.026 78.9937 552.083 78.9937H550.555V67.6899H590.271V102.212C599.131 78.9937 619.905 64.6349 643.124 64.6349C681.312 64.6349 704.836 98.2405 704.836 142.539C704.836 188.365 679.173 223.498 637.624 223.498C616.545 223.498 600.353 214.944 591.799 206.695V245.8C591.799 253.437 593.021 257.409 595.77 260.159C598.52 262.908 602.186 264.13 611.656 264.13H614.712V275.434H550.555ZM606.463 195.086C614.101 204.557 624.793 209.75 637.624 209.75C668.481 209.75 680.395 179.811 680.395 149.566C680.395 110.766 663.592 82.9652 635.486 82.9652C623.266 82.9652 613.49 88.1588 606.157 96.713C596.992 107.711 591.799 123.903 591.799 141.011V144.372C591.799 164.535 596.687 183.171 606.463 195.086ZM720.013 220.443V209.139H721.541C729.484 209.139 733.15 207.917 735.899 205.168C738.649 202.418 739.871 198.446 739.871 190.809V97.0185C739.871 89.6864 738.649 85.7148 735.899 82.9652C733.15 80.2157 729.484 78.9937 721.541 78.9937H720.013V67.6899H759.729V102.823C766.145 79.2992 781.725 64.6349 803.722 64.6349C825.413 64.6349 842.215 81.1322 842.215 104.351C842.215 119.626 835.8 125.736 827.551 125.736C821.135 125.736 815.636 120.848 815.636 113.821C815.636 109.239 816.553 105.267 816.553 101.296C816.553 89.9919 809.832 82.9652 797.306 82.9652C781.114 82.9652 770.116 95.7965 765.533 111.377C762.478 121.459 761.256 132.457 761.256 148.649V190.809C761.256 198.446 762.478 202.418 765.228 205.168C767.978 207.917 771.644 209.139 781.114 209.139H784.169V220.443H720.013ZM862.586 18.809C862.586 9.94934 869.613 2.61719 878.473 2.61719C887.332 2.61719 894.665 9.94934 894.665 18.809C894.665 27.6687 887.332 34.6953 878.473 34.6953C869.613 34.6953 862.586 27.6687 862.586 18.809ZM848.839 220.443V209.139H850.366C858.309 209.139 861.975 207.917 864.725 205.168C867.475 202.418 868.697 198.446 868.697 190.809V97.324C868.697 89.6863 867.475 85.7148 864.725 82.9652C861.975 80.2157 858.309 78.9937 850.366 78.9937H848.839V67.6899H890.082V190.809C890.082 198.446 891.304 202.418 894.054 205.168C896.803 207.917 900.469 209.139 908.412 209.139H909.94V220.443H848.839ZM920.979 220.443V209.139H922.506C930.449 209.139 934.115 207.917 936.865 205.168C939.615 202.418 940.836 198.446 940.836 190.809V97.0185C940.836 89.6864 939.615 85.7148 936.865 82.9652C934.115 80.2157 930.449 78.9937 922.506 78.9937H920.979V67.6899H960.694V99.7681C967.416 79.6047 986.357 64.6349 1011.1 64.6349C1023.63 64.6349 1036.77 68.6065 1045.62 78.0771C1053.87 86.6313 1058.46 99.157 1058.46 118.709V190.809C1058.46 198.446 1059.68 202.418 1062.43 205.168C1065.18 207.917 1068.84 209.139 1076.79 209.139H1078.31V220.443H1018.74V209.139H1020.27C1026.68 209.139 1030.35 207.917 1033.1 205.168C1035.85 202.418 1037.07 198.446 1037.07 190.809V124.514C1037.07 106.184 1034.32 97.935 1029.43 92.4359C1024.24 86.3258 1015.69 82.9652 1006.52 82.9652C991.856 82.9652 980.552 88.7698 973.526 97.6295C966.499 106.184 962.222 117.793 962.222 138.873V190.809C962.222 198.446 963.444 202.418 966.194 205.168C968.943 207.917 972.609 209.139 979.025 209.139H980.552V220.443H920.979ZM1168.63 196.308L1175.05 203.029C1167.41 215.555 1155.19 223.498 1140.53 223.498C1132.28 223.498 1125.25 220.748 1120.06 216.777C1113.03 211.278 1109.36 203.029 1109.36 185.31V101.907C1109.36 92.4359 1107.84 89.9919 1106 88.1588C1103.86 86.0203 1101.42 84.4928 1091.95 84.4928H1080.34V73.8001C1107.53 67.9954 1117.31 53.6367 1120.06 26.4466H1130.75V67.6899H1171.99V84.4928H1148.16C1138.69 84.4928 1136.25 86.0203 1134.11 88.1588C1132.28 89.9919 1130.75 92.4359 1130.75 101.907V180.727C1130.75 193.864 1132.58 197.835 1135.94 200.89C1139 203.64 1143.58 205.168 1147.55 205.168C1157.02 205.168 1163.44 200.89 1168.63 196.308Z" stroke="#0044E5" stroke-width="2" mask="url(#path-1-outside-1_1049_3081)"/>
<rect x="0.267112" y="4.14407" width="3.70739" height="3.70739" fill="#0044E5" stroke="#0044E5" stroke-width="0.534225"/>
<rect x="84.5327" y="4.14407" width="3.70739" height="3.70739" fill="#0044E5" stroke="#0044E5" stroke-width="0.534225"/>
<rect x="0.267112" y="-0.267112" width="3.70739" height="3.70739" transform="matrix(1 8.74228e-08 8.74228e-08 -1 2.33517e-08 222.362)" fill="#0044E5" stroke="#0044E5" stroke-width="0.534225"/>
<rect x="0.267112" y="-0.267112" width="3.70739" height="3.70739" transform="matrix(1 8.74228e-08 8.74228e-08 -1 84.2656 222.362)" fill="#0044E5" stroke="#0044E5" stroke-width="0.534225"/>
<rect x="0.267112" y="17.8675" width="3.70739" height="3.70739" fill="#0044E5" stroke="#0044E5" stroke-width="0.534225"/>
<rect x="171.451" y="17.8677" width="3.70739" height="3.70739" fill="#0044E5" stroke="#0044E5" stroke-width="0.534225"/>
<rect x="334.546" y="77.6033" width="3.70739" height="3.70739" fill="#0044E5" stroke="#0044E5" stroke-width="0.534225"/>
<rect x="548.294" y="77.6033" width="3.70739" height="3.70739" fill="#0044E5" stroke="#0044E5" stroke-width="0.534225"/>
<rect x="717.822" y="77.6033" width="3.70739" height="3.70739" fill="#0044E5" stroke="#0044E5" stroke-width="0.534225"/>
<rect x="846.505" y="77.6033" width="3.70739" height="3.70739" fill="#0044E5" stroke="#0044E5" stroke-width="0.534225"/>
<rect x="918.773" y="77.6033" width="3.70739" height="3.70739" fill="#0044E5" stroke="#0044E5" stroke-width="0.534225"/>
<rect x="239.871" y="77.6033" width="3.70739" height="3.70739" fill="#0044E5" stroke="#0044E5" stroke-width="0.534225"/>
<rect x="0.267112" y="-0.267112" width="3.70739" height="3.70739" transform="matrix(1 8.74228e-08 8.74228e-08 -1 2.33517e-08 208.638)" fill="#0044E5" stroke="#0044E5" stroke-width="0.534225"/>
<rect x="21.6148" y="37.9571" width="3.70739" height="3.70739" fill="#0044E5" stroke="#0044E5" stroke-width="0.534225"/>
<rect x="191.009" y="37.9571" width="3.70739" height="3.70739" fill="#0044E5" stroke="#0044E5" stroke-width="0.534225"/>
<rect x="354.103" y="98.9512" width="3.70739" height="3.70739" fill="#0044E5" stroke="#0044E5" stroke-width="0.534225"/>
<rect x="568.019" y="98.9512" width="3.70739" height="3.70739" fill="#0044E5" stroke="#0044E5" stroke-width="0.534225"/>
<rect x="737.544" y="98.9512" width="3.70739" height="3.70739" fill="#0044E5" stroke="#0044E5" stroke-width="0.534225"/>
<rect x="866.23" y="98.9512" width="3.70739" height="3.70739" fill="#0044E5" stroke="#0044E5" stroke-width="0.534225"/>
<rect x="938.498" y="98.9512" width="3.70739" height="3.70739" fill="#0044E5" stroke="#0044E5" stroke-width="0.534225"/>
<rect x="259.695" y="98.9512" width="3.70739" height="3.70739" fill="#0044E5" stroke="#0044E5" stroke-width="0.534225"/>
<rect x="0.267112" y="-0.267112" width="3.70739" height="3.70739" transform="matrix(1 8.74228e-08 8.74228e-08 -1 21.3477 188.55)" fill="#0044E5" stroke="#0044E5" stroke-width="0.534225"/>
<rect x="0.267112" y="-0.267112" width="3.70739" height="3.70739" transform="matrix(1 8.74228e-08 8.74228e-08 -1 190.742 188.55)" fill="#0044E5" stroke="#0044E5" stroke-width="0.534225"/>
<rect x="0.267112" y="-0.267112" width="3.70739" height="3.70739" transform="matrix(1 8.74228e-08 8.74228e-08 -1 737.113 188.55)" fill="#0044E5" stroke="#0044E5" stroke-width="0.534225"/>
<rect x="0.267112" y="-0.267112" width="3.70739" height="3.70739" transform="matrix(1 8.74228e-08 8.74228e-08 -1 866.131 188.55)" fill="#0044E5" stroke="#0044E5" stroke-width="0.534225"/>
<rect x="0.267112" y="-0.267112" width="3.70739" height="3.70739" transform="matrix(1 8.74228e-08 8.74228e-08 -1 938.064 188.55)" fill="#0044E5" stroke="#0044E5" stroke-width="0.534225"/>
<rect x="0.267112" y="-0.267112" width="3.70739" height="3.70739" transform="matrix(1 8.74228e-08 8.74228e-08 -1 1034.46 188.55)" fill="#0044E5" stroke="#0044E5" stroke-width="0.534225"/>
<rect x="0.267112" y="-0.267112" width="3.70739" height="3.70739" transform="matrix(1 8.74228e-08 8.74228e-08 -1 567.752 243.578)" fill="#0044E5" stroke="#0044E5" stroke-width="0.534225"/>
<rect x="0.267112" y="-0.267112" width="3.70739" height="3.70739" transform="matrix(1 8.74228e-08 8.74228e-08 -1 213.217 188.55)" fill="#0044E5" stroke="#0044E5" stroke-width="0.534225"/>
<rect x="0.267112" y="-0.267112" width="3.70739" height="3.70739" transform="matrix(1 8.74228e-08 8.74228e-08 -1 759.588 188.55)" fill="#0044E5" stroke="#0044E5" stroke-width="0.534225"/>
<rect x="0.267112" y="-0.267112" width="3.70739" height="3.70739" transform="matrix(1 8.74228e-08 8.74228e-08 -1 888.539 188.55)" fill="#0044E5" stroke="#0044E5" stroke-width="0.534225"/>
<rect x="0.267112" y="-0.267112" width="3.70739" height="3.70739" transform="matrix(1 8.74228e-08 8.74228e-08 -1 960.639 188.55)" fill="#0044E5" stroke="#0044E5" stroke-width="0.534225"/>
<rect x="0.267112" y="-0.267112" width="3.70739" height="3.70739" transform="matrix(1 8.74228e-08 8.74228e-08 -1 1057.04 188.55)" fill="#0044E5" stroke="#0044E5" stroke-width="0.534225"/>
<rect x="0.267112" y="-0.267112" width="3.70739" height="3.70739" transform="matrix(1 8.74228e-08 8.74228e-08 -1 1106.86 188.55)" fill="#0044E5" stroke="#0044E5" stroke-width="0.534225"/>
<rect x="0.267112" y="-0.267112" width="3.70739" height="3.70739" transform="matrix(1 8.74228e-08 8.74228e-08 -1 759.588 138.491)" fill="#0044E5" stroke="#0044E5" stroke-width="0.534225"/>
<rect x="0.267112" y="-0.267112" width="3.70739" height="3.70739" transform="matrix(1 8.74228e-08 8.74228e-08 -1 960.639 138.491)" fill="#0044E5" stroke="#0044E5" stroke-width="0.534225"/>
<rect x="0.267112" y="-0.267112" width="3.70739" height="3.70739" transform="matrix(1 8.74228e-08 8.74228e-08 -1 1034.46 125.629)" fill="#0044E5" stroke="#0044E5" stroke-width="0.534225"/>
<rect x="0.267112" y="-0.267112" width="3.70739" height="3.70739" transform="matrix(1 8.74228e-08 8.74228e-08 -1 1057.04 120.193)" fill="#0044E5" stroke="#0044E5" stroke-width="0.534225"/>
<rect x="0.267112" y="-0.267112" width="3.70739" height="3.70739" transform="matrix(1 8.74228e-08 8.74228e-08 -1 590.26 243.578)" fill="#0044E5" stroke="#0044E5" stroke-width="0.534225"/>
<rect x="0.267112" y="-0.267112" width="3.70739" height="3.70739" transform="matrix(1 8.74228e-08 8.74228e-08 -1 590.26 210.229)" fill="#0044E5" stroke="#0044E5" stroke-width="0.534225"/>
<rect x="0.267112" y="-0.267112" width="3.70739" height="3.70739" transform="matrix(1 8.74228e-08 8.74228e-08 -1 376.379 188.55)" fill="#0044E5" stroke="#0044E5" stroke-width="0.534225"/>
<rect x="0.267112" y="-0.267112" width="3.70739" height="3.70739" transform="matrix(1 8.74228e-08 8.74228e-08 -1 213.217 7.58565)" fill="#0044E5" stroke="#0044E5" stroke-width="0.534225"/>
<rect x="0.267112" y="-0.267112" width="3.70739" height="3.70739" transform="matrix(1 8.74228e-08 8.74228e-08 -1 376.313 68.5813)" fill="#0044E5" stroke="#0044E5" stroke-width="0.534225"/>
<rect x="0.267112" y="-0.267112" width="3.70739" height="3.70739" transform="matrix(1 8.74228e-08 8.74228e-08 -1 588.404 68.5813)" fill="#0044E5" stroke="#0044E5" stroke-width="0.534225"/>
<rect x="0.267112" y="-0.267112" width="3.70739" height="3.70739" transform="matrix(1 8.74228e-08 8.74228e-08 -1 757.93 68.5813)" fill="#0044E5" stroke="#0044E5" stroke-width="0.534225"/>
<rect x="0.267112" y="-0.267112" width="3.70739" height="3.70739" transform="matrix(1 8.74228e-08 8.74228e-08 -1 888.338 68.5813)" fill="#0044E5" stroke="#0044E5" stroke-width="0.534225"/>
<rect x="0.267112" y="-0.267112" width="3.70739" height="3.70739" transform="matrix(1 8.74228e-08 8.74228e-08 -1 959.279 68.5813)" fill="#0044E5" stroke="#0044E5" stroke-width="0.534225"/>
<rect x="0.267112" y="-0.267112" width="3.70739" height="3.70739" transform="matrix(1 8.74228e-08 8.74228e-08 -1 1129.01 27.4755)" fill="#0044E5" stroke="#0044E5" stroke-width="0.534225"/>
<rect x="0.267112" y="-0.267112" width="3.70739" height="3.70739" transform="matrix(1 8.74228e-08 8.74228e-08 -1 1117.47 27.4755)" fill="#0044E5" stroke="#0044E5" stroke-width="0.534225"/>
<rect x="0.267112" y="-0.267112" width="3.70739" height="3.70739" transform="matrix(1 8.74228e-08 8.74228e-08 -1 1077.82 75.0783)" fill="#0044E5" stroke="#0044E5" stroke-width="0.534225"/>
<rect x="0.267112" y="-0.267112" width="3.70739" height="3.70739" transform="matrix(1 8.74228e-08 8.74228e-08 -1 1129.01 68.3159)" fill="#0044E5" stroke="#0044E5" stroke-width="0.534225"/>
<rect x="0.267112" y="-0.267112" width="3.70739" height="3.70739" transform="matrix(1 8.74228e-08 8.74228e-08 -1 1170.18 68.3159)" fill="#0044E5" stroke="#0044E5" stroke-width="0.534225"/>
<rect x="0.267112" y="-0.267112" width="3.70739" height="3.70739" transform="matrix(1 8.74228e-08 8.74228e-08 -1 1077.82 86.4155)" fill="#0044E5" stroke="#0044E5" stroke-width="0.534225"/>
<rect x="0.267112" y="-0.267112" width="3.70739" height="3.70739" transform="matrix(1 8.74228e-08 8.74228e-08 -1 1170.18 86.4155)" fill="#0044E5" stroke="#0044E5" stroke-width="0.534225"/>
<rect x="0.267112" y="-0.267112" width="3.70739" height="3.70739" transform="matrix(1 8.74228e-08 8.74228e-08 -1 1146.44 86.4155)" fill="#0044E5" stroke="#0044E5" stroke-width="0.534225"/>
<rect x="0.267112" y="-0.267112" width="3.70739" height="3.70739" transform="matrix(1 8.74228e-08 8.74228e-08 -1 1129.01 107.701)" fill="#0044E5" stroke="#0044E5" stroke-width="0.534225"/>
<rect x="0.267112" y="-0.267112" width="3.70739" height="3.70739" transform="matrix(1 8.74228e-08 8.74228e-08 -1 1106.86 107.701)" fill="#0044E5" stroke="#0044E5" stroke-width="0.534225"/>
<rect x="0.267112" y="-0.267112" width="3.70739" height="3.70739" transform="matrix(1 8.74228e-08 8.74228e-08 -1 959.279 100.272)" fill="#0044E5" stroke="#0044E5" stroke-width="0.534225"/>
<rect x="0.267112" y="-0.267112" width="3.70739" height="3.70739" transform="matrix(1 8.74228e-08 8.74228e-08 -1 876.473 36.6584)" fill="#0044E5" stroke="#0044E5" stroke-width="0.534225"/>
<rect x="0.267112" y="-0.267112" width="3.70739" height="3.70739" transform="matrix(1 8.74228e-08 8.74228e-08 -1 876.473 3.70747)" fill="#0044E5" stroke="#0044E5" stroke-width="0.534225"/>
<rect x="-0.267112" y="-0.267112" width="3.70739" height="3.70739" transform="matrix(4.37114e-08 -1 -1 -4.37114e-08 896.655 20.1831)" fill="#0044E5" stroke="#0044E5" stroke-width="0.534225"/>
<rect x="-0.267112" y="-0.267112" width="3.70739" height="3.70739" transform="matrix(4.37114e-08 -1 -1 -4.37114e-08 863.706 20.1831)" fill="#0044E5" stroke="#0044E5" stroke-width="0.534225"/>
<rect x="0.267112" y="-0.267112" width="3.70739" height="3.70739" transform="matrix(1 8.74228e-08 8.74228e-08 -1 588.404 102.394)" fill="#0044E5" stroke="#0044E5" stroke-width="0.534225"/>
<rect x="0.267112" y="-0.267112" width="3.70739" height="3.70739" transform="matrix(1 8.74228e-08 8.74228e-08 -1 757.93 102.394)" fill="#0044E5" stroke="#0044E5" stroke-width="0.534225"/>
<rect x="0.267112" y="-0.267112" width="3.70739" height="3.70739" transform="matrix(1 8.74228e-08 8.74228e-08 -1 281.639 68.5813)" fill="#0044E5" stroke="#0044E5" stroke-width="0.534225"/>
<rect x="0.267112" y="-0.267112" width="3.70739" height="3.70739" transform="matrix(1 8.74228e-08 8.74228e-08 -1 171.184 7.58565)" fill="#0044E5" stroke="#0044E5" stroke-width="0.534225"/>
<rect x="0.267112" y="-0.267112" width="3.70739" height="3.70739" transform="matrix(1 8.74228e-08 8.74228e-08 -1 334.279 68.5813)" fill="#0044E5" stroke="#0044E5" stroke-width="0.534225"/>
<rect x="0.267112" y="-0.267112" width="3.70739" height="3.70739" transform="matrix(1 8.74228e-08 8.74228e-08 -1 548.027 68.5813)" fill="#0044E5" stroke="#0044E5" stroke-width="0.534225"/>
<rect x="0.267112" y="-0.267112" width="3.70739" height="3.70739" transform="matrix(1 8.74228e-08 8.74228e-08 -1 717.555 68.5813)" fill="#0044E5" stroke="#0044E5" stroke-width="0.534225"/>
<rect x="0.267112" y="-0.267112" width="3.70739" height="3.70739" transform="matrix(1 8.74228e-08 8.74228e-08 -1 846.238 68.5813)" fill="#0044E5" stroke="#0044E5" stroke-width="0.534225"/>
<rect x="0.267112" y="-0.267112" width="3.70739" height="3.70739" transform="matrix(1 8.74228e-08 8.74228e-08 -1 918.506 68.5813)" fill="#0044E5" stroke="#0044E5" stroke-width="0.534225"/>
<rect x="0.267112" y="-0.267112" width="3.70739" height="3.70739" transform="matrix(1 8.74228e-08 8.74228e-08 -1 239.604 68.5813)" fill="#0044E5" stroke="#0044E5" stroke-width="0.534225"/>
<rect x="0.267112" y="-0.267112" width="3.70739" height="3.70739" transform="matrix(1 8.74228e-08 8.74228e-08 -1 158.188 165.809)" fill="#0044E5" stroke="#0044E5" stroke-width="0.534225"/>
<rect x="0.267112" y="-0.267112" width="3.70739" height="3.70739" transform="matrix(1 8.74228e-08 8.74228e-08 -1 171.184 210.229)" fill="#0044E5" stroke="#0044E5" stroke-width="0.534225"/>
<rect x="0.267112" y="-0.267112" width="3.70739" height="3.70739" transform="matrix(1 8.74228e-08 8.74228e-08 -1 717.555 210.229)" fill="#0044E5" stroke="#0044E5" stroke-width="0.534225"/>
<rect x="0.267112" y="-0.267112" width="3.70739" height="3.70739" transform="matrix(1 8.74228e-08 8.74228e-08 -1 846.238 210.229)" fill="#0044E5" stroke="#0044E5" stroke-width="0.534225"/>
<rect x="0.267112" y="-0.267112" width="3.70739" height="3.70739" transform="matrix(1 8.74228e-08 8.74228e-08 -1 918.506 210.229)" fill="#0044E5" stroke="#0044E5" stroke-width="0.534225"/>
<rect x="0.267112" y="-0.267112" width="3.70739" height="3.70739" transform="matrix(1 8.74228e-08 8.74228e-08 -1 1016.5 210.229)" fill="#0044E5" stroke="#0044E5" stroke-width="0.534225"/>
<rect x="0.267112" y="-0.267112" width="3.70739" height="3.70739" transform="matrix(1 8.74228e-08 8.74228e-08 -1 548.027 265.257)" fill="#0044E5" stroke="#0044E5" stroke-width="0.534225"/>
<rect x="0.267112" y="-0.267112" width="3.70739" height="3.70739" transform="matrix(1 8.74228e-08 8.74228e-08 -1 233.105 210.229)" fill="#0044E5" stroke="#0044E5" stroke-width="0.534225"/>
<rect x="0.267112" y="-0.267112" width="3.70739" height="3.70739" transform="matrix(1 8.74228e-08 8.74228e-08 -1 782.262 210.229)" fill="#0044E5" stroke="#0044E5" stroke-width="0.534225"/>
<rect x="0.267112" y="-0.267112" width="3.70739" height="3.70739" transform="matrix(1 8.74228e-08 8.74228e-08 -1 908.361 210.229)" fill="#0044E5" stroke="#0044E5" stroke-width="0.534225"/>
<rect x="0.267112" y="-0.267112" width="3.70739" height="3.70739" transform="matrix(1 8.74228e-08 8.74228e-08 -1 978.973 210.229)" fill="#0044E5" stroke="#0044E5" stroke-width="0.534225"/>
<rect x="0.267112" y="-0.267112" width="3.70739" height="3.70739" transform="matrix(1 8.74228e-08 8.74228e-08 -1 1076.63 210.229)" fill="#0044E5" stroke="#0044E5" stroke-width="0.534225"/>
<rect x="0.267112" y="-0.267112" width="3.70739" height="3.70739" transform="matrix(1 8.74228e-08 8.74228e-08 -1 613.068 265.257)" fill="#0044E5" stroke="#0044E5" stroke-width="0.534225"/>
<rect x="0.267112" y="-0.267112" width="3.70739" height="3.70739" transform="matrix(1 8.74228e-08 8.74228e-08 -1 396.27 210.229)" fill="#0044E5" stroke="#0044E5" stroke-width="0.534225"/>
<rect x="0.267112" y="-0.267112" width="3.70739" height="3.70739" transform="matrix(1 8.74228e-08 8.74228e-08 -1 535.895 162.096)" fill="#0044E5" stroke="#0044E5" stroke-width="0.534225"/>
<rect x="0.267112" y="-0.267112" width="3.70739" height="3.70739" transform="matrix(1 8.74228e-08 8.74228e-08 -1 524.49 162.096)" fill="#0044E5" stroke="#0044E5" stroke-width="0.534225"/>
<rect x="0.267112" y="-0.267112" width="3.70739" height="3.70739" transform="matrix(1 8.74228e-08 8.74228e-08 -1 535.895 138.491)" fill="#0044E5" stroke="#0044E5" stroke-width="0.534225"/>
<rect x="0.267112" y="-0.267112" width="3.70739" height="3.70739" transform="matrix(1 8.74228e-08 8.74228e-08 -1 703.232 138.491)" fill="#0044E5" stroke="#0044E5" stroke-width="0.534225"/>
<rect x="0.267112" y="-0.267112" width="3.70739" height="3.70739" transform="matrix(1 8.74228e-08 8.74228e-08 -1 677.775 146.447)" fill="#0044E5" stroke="#0044E5" stroke-width="0.534225"/>
<rect x="0.267112" y="-0.267112" width="3.70739" height="3.70739" transform="matrix(1 8.74228e-08 8.74228e-08 -1 590.26 146.447)" fill="#0044E5" stroke="#0044E5" stroke-width="0.534225"/>
<rect x="0.267112" y="-0.267112" width="3.70739" height="3.70739" transform="matrix(1 8.74228e-08 8.74228e-08 -1 408.07 146.447)" fill="#0044E5" stroke="#0044E5" stroke-width="0.534225"/>
<rect x="0.267112" y="-0.267112" width="3.70739" height="3.70739" transform="matrix(1 8.74228e-08 8.74228e-08 -1 431.01 138.491)" fill="#0044E5" stroke="#0044E5" stroke-width="0.534225"/>
<rect x="0.267112" y="-0.267112" width="3.70739" height="3.70739" transform="matrix(1 8.74228e-08 8.74228e-08 -1 431.938 123.773)" fill="#0044E5" stroke="#0044E5" stroke-width="0.534225"/>
<rect x="0.267112" y="-0.267112" width="3.70739" height="3.70739" transform="matrix(1 8.74228e-08 8.74228e-08 -1 508.182 123.773)" fill="#0044E5" stroke="#0044E5" stroke-width="0.534225"/>
<rect x="0.267112" y="-0.267112" width="3.70739" height="3.70739" transform="matrix(1 8.74228e-08 8.74228e-08 -1 825.289 127.817)" fill="#0044E5" stroke="#0044E5" stroke-width="0.534225"/>
<rect x="0.267112" y="-0.267112" width="3.70739" height="3.70739" transform="matrix(1 8.74228e-08 8.74228e-08 -1 473.705 79.7504)" fill="#0044E5" stroke="#0044E5" stroke-width="0.534225"/>
<rect x="0.267112" y="-0.267112" width="3.70739" height="3.70739" transform="matrix(1 8.74228e-08 8.74228e-08 -1 473.705 65.4301)" fill="#0044E5" stroke="#0044E5" stroke-width="0.534225"/>
<rect x="0.267112" y="-0.267112" width="3.70739" height="3.70739" transform="matrix(1 8.74228e-08 8.74228e-08 -1 473.705 225.677)" fill="#0044E5" stroke="#0044E5" stroke-width="0.534225"/>
<rect x="0.267112" y="-0.267112" width="3.70739" height="3.70739" transform="matrix(1 8.74228e-08 8.74228e-08 -1 636.867 225.677)" fill="#0044E5" stroke="#0044E5" stroke-width="0.534225"/>
<rect x="0.267112" y="-0.267112" width="3.70739" height="3.70739" transform="matrix(1 8.74228e-08 8.74228e-08 -1 1136.76 225.677)" fill="#0044E5" stroke="#0044E5" stroke-width="0.534225"/>
<rect x="0.267112" y="-0.267112" width="3.70739" height="3.70739" transform="matrix(1 8.74228e-08 8.74228e-08 -1 1144.98 205.986)" fill="#0044E5" stroke="#0044E5" stroke-width="0.534225"/>
<rect x="0.267112" y="-0.267112" width="3.70739" height="3.70739" transform="matrix(1 8.74228e-08 8.74228e-08 -1 1166.33 197.5)" fill="#0044E5" stroke="#0044E5" stroke-width="0.534225"/>
<rect x="0.267112" y="-0.267112" width="3.70739" height="3.70739" transform="matrix(1 8.74228e-08 8.74228e-08 -1 1173.76 204.926)" fill="#0044E5" stroke="#0044E5" stroke-width="0.534225"/>
<rect x="0.267112" y="-0.267112" width="3.70739" height="3.70739" transform="matrix(1 8.74228e-08 8.74228e-08 -1 636.867 65.4301)" fill="#0044E5" stroke="#0044E5" stroke-width="0.534225"/>
<rect x="0.267112" y="-0.267112" width="3.70739" height="3.70739" transform="matrix(1 8.74228e-08 8.74228e-08 -1 806.395 65.4301)" fill="#0044E5" stroke="#0044E5" stroke-width="0.534225"/>
<rect x="0.267112" y="-0.267112" width="3.70739" height="3.70739" transform="matrix(1 8.74228e-08 8.74228e-08 -1 1010.99 65.4301)" fill="#0044E5" stroke="#0044E5" stroke-width="0.534225"/>
<rect x="0.267112" y="-0.267112" width="3.70739" height="3.70739" transform="matrix(1 8.74228e-08 8.74228e-08 -1 798.836 85.2888)" fill="#0044E5" stroke="#0044E5" stroke-width="0.534225"/>
<rect x="0.267112" y="-0.267112" width="3.70739" height="3.70739" transform="matrix(1 8.74228e-08 8.74228e-08 -1 1005.16 85.2885)" fill="#0044E5" stroke="#0044E5" stroke-width="0.534225"/>
<rect x="0.267112" y="-0.267112" width="3.70739" height="3.70739" transform="matrix(1 8.74228e-08 8.74228e-08 -1 171.184 222.362)" fill="#0044E5" stroke="#0044E5" stroke-width="0.534225"/>
<rect x="0.267112" y="-0.267112" width="3.70739" height="3.70739" transform="matrix(1 8.74228e-08 8.74228e-08 -1 717.555 222.362)" fill="#0044E5" stroke="#0044E5" stroke-width="0.534225"/>
<rect x="0.267112" y="-0.267112" width="3.70739" height="3.70739" transform="matrix(1 8.74228e-08 8.74228e-08 -1 846.238 222.362)" fill="#0044E5" stroke="#0044E5" stroke-width="0.534225"/>
<rect x="0.267112" y="-0.267112" width="3.70739" height="3.70739" transform="matrix(1 8.74228e-08 8.74228e-08 -1 918.506 222.362)" fill="#0044E5" stroke="#0044E5" stroke-width="0.534225"/>
<rect x="0.267112" y="-0.267112" width="3.70739" height="3.70739" transform="matrix(1 8.74228e-08 8.74228e-08 -1 1016.5 222.362)" fill="#0044E5" stroke="#0044E5" stroke-width="0.534225"/>
<rect x="0.267112" y="-0.267112" width="3.70739" height="3.70739" transform="matrix(1 8.74228e-08 8.74228e-08 -1 548.027 277.39)" fill="#0044E5" stroke="#0044E5" stroke-width="0.534225"/>
<rect x="0.267112" y="-0.267112" width="3.70739" height="3.70739" transform="matrix(1 8.74228e-08 8.74228e-08 -1 233.105 222.362)" fill="#0044E5" stroke="#0044E5" stroke-width="0.534225"/>
<rect x="0.267112" y="-0.267112" width="3.70739" height="3.70739" transform="matrix(1 8.74228e-08 8.74228e-08 -1 782.262 222.362)" fill="#0044E5" stroke="#0044E5" stroke-width="0.534225"/>
<rect x="0.267112" y="-0.267112" width="3.70739" height="3.70739" transform="matrix(1 8.74228e-08 8.74228e-08 -1 908.361 222.958)" fill="#0044E5" stroke="#0044E5" stroke-width="0.534225"/>
<rect x="0.267112" y="-0.267112" width="3.70739" height="3.70739" transform="matrix(1 8.74228e-08 8.74228e-08 -1 978.973 222.958)" fill="#0044E5" stroke="#0044E5" stroke-width="0.534225"/>
<rect x="0.267112" y="-0.267112" width="3.70739" height="3.70739" transform="matrix(1 8.74228e-08 8.74228e-08 -1 1076.63 222.958)" fill="#0044E5" stroke="#0044E5" stroke-width="0.534225"/>
<rect x="0.267112" y="-0.267112" width="3.70739" height="3.70739" transform="matrix(1 8.74228e-08 8.74228e-08 -1 613.068 277.39)" fill="#0044E5" stroke="#0044E5" stroke-width="0.534225"/>
<rect x="0.267112" y="-0.267112" width="3.70739" height="3.70739" transform="matrix(1 8.74228e-08 8.74228e-08 -1 396.27 222.362)" fill="#0044E5" stroke="#0044E5" stroke-width="0.534225"/>
<rect x="0.267112" y="-0.267112" width="3.70739" height="3.70739" transform="matrix(1 8.74228e-08 8.74228e-08 -1 355.561 222.362)" fill="#0044E5" stroke="#0044E5" stroke-width="0.534225"/>
<rect x="0.267112" y="-0.267112" width="3.70739" height="3.70739" transform="matrix(1 8.74228e-08 8.74228e-08 -1 308.887 225.677)" fill="#0044E5" stroke="#0044E5" stroke-width="0.534225"/>
<rect x="0.267112" y="-0.267112" width="3.70739" height="3.70739" transform="matrix(1 8.74228e-08 8.74228e-08 -1 313.992 206.052)" fill="#0044E5" stroke="#0044E5" stroke-width="0.534225"/>
<rect x="0.267112" y="-0.267112" width="3.70739" height="3.70739" transform="matrix(1 8.74228e-08 8.74228e-08 -1 355.561 191.732)" fill="#0044E5" stroke="#0044E5" stroke-width="0.534225"/>
<rect x="0.267112" y="-0.267112" width="3.70739" height="3.70739" transform="matrix(1 8.74228e-08 8.74228e-08 -1 148.908 57.3437)" fill="#0044E5" stroke="#0044E5" stroke-width="0.534225"/>
<rect x="0.267112" y="-0.267112" width="3.70739" height="3.70739" transform="matrix(1 8.74228e-08 8.74228e-08 -1 120.664 65.9624)" fill="#0044E5" stroke="#0044E5" stroke-width="0.534225"/>
<rect x="0.267112" y="-0.267112" width="3.70739" height="3.70739" transform="matrix(1 8.74228e-08 8.74228e-08 -1 130.078 162.361)" fill="#0044E5" stroke="#0044E5" stroke-width="0.534225"/>
<rect x="0.267112" y="-0.267112" width="3.70739" height="3.70739" transform="matrix(1 8.74228e-08 8.74228e-08 -1 45.4141 208.306)" fill="#0044E5" stroke="#0044E5" stroke-width="0.534225"/>
<rect x="0.267112" y="-0.267112" width="3.70739" height="3.70739" transform="matrix(1 8.74228e-08 8.74228e-08 -1 45.4141 103.82)" fill="#0044E5" stroke="#0044E5" stroke-width="0.534225"/>
<rect x="0.267112" y="-0.267112" width="3.70739" height="3.70739" transform="matrix(1 8.74228e-08 8.74228e-08 -1 45.4141 118.538)" fill="#0044E5" stroke="#0044E5" stroke-width="0.534225"/>
<rect x="0.267112" y="-0.267112" width="3.70739" height="3.70739" transform="matrix(1 8.74228e-08 8.74228e-08 -1 112.441 108.829)" fill="#0044E5" stroke="#0044E5" stroke-width="0.534225"/>
<rect x="0.267112" y="-0.267112" width="3.70739" height="3.70739" transform="matrix(1 8.74228e-08 8.74228e-08 -1 45.4141 22.1386)" fill="#0044E5" stroke="#0044E5" stroke-width="0.534225"/>
</svg>
