<svg xmlns="http://www.w3.org/2000/svg" fill="none" viewBox="0 0 217 56" height="56" width="217">
<path fill="white" d="M36.6436 25.9814C37.4456 25.4776 38.5994 25.1768 39.7275 25.1768C42.2361 25.1768 43.4169 26.5712 43.417 28.6279V40.6367H47.4043V28.083C47.4043 24.2974 44.6624 21.5176 40.3389 21.5176C39.0766 21.5176 37.796 21.7619 36.6436 22.25V15H32.6523V40.6367H36.6436V25.9814ZM76.874 36.8174H76.2773C73.7679 36.8174 72.7119 35.3679 72.7119 33.3994V25.6982H79.4277V33.9482C79.4278 37.4724 80.8727 40.6367 85.9834 40.6367H87.5811V36.8174H86.9824C84.473 36.8174 83.419 35.3679 83.4189 33.3994V25.6982H88.001V21.8818H83.4189V15L79.4277 17.207V21.8818H72.7119V15L68.7188 17.207V21.8818H66.6963V25.6982H68.7188V33.9482C68.7188 37.4724 70.1669 40.6367 75.2754 40.6367H76.874V36.8174ZM142.886 36.8174H142.286C139.775 36.8173 138.72 35.3678 138.72 33.3994V25.6982H143.303V21.8818H138.72V15L134.729 17.207V21.8818H132.629V25.6982H134.729V33.9482C134.73 37.4724 136.179 40.6367 141.288 40.6367H142.886V36.8174ZM183.095 34.667L184.404 33.1885L190.118 40.6367H194.907L186.958 30.3057L194.418 21.8818H189.511L183.095 29.2246V15.001H179.101V40.6367H183.095V34.667ZM198.095 25.2354C199.174 25.2354 200.039 24.4162 200.039 23.3369C200.039 22.2672 199.164 21.3926 198.095 21.3926C197.016 21.3927 196.142 22.2583 196.142 23.3369C196.142 24.4161 197.016 25.2352 198.095 25.2354ZM97.1846 41C101.271 41 103.393 38.6378 104.022 37.2188L100.653 35.1943C100.366 36.0277 99.0319 37.1971 97.2119 37.1973C94.7444 37.1973 93.7949 35.8206 93.7949 34.0957L93.7812 33.0684H104.501V27.9629C104.501 24.5325 101.886 21.5166 97.1846 21.5166C91.848 21.5167 89.7988 24.8496 89.7988 27.9629V34.1914C89.7988 38.5006 92.5527 40.9999 97.1846 41ZM111.042 28.3105C111.042 27.2341 111.653 25.3947 114.581 25.3945C115.041 25.3945 116.081 25.5255 116.413 25.5879V21.7188C116.053 21.6318 115.229 21.5166 114.377 21.5166C109.305 21.5167 107.055 24.6981 107.055 27.9697V40.6367H111.042V28.3105ZM23.04 41C27.2561 40.9999 30.6395 38.9118 30.6396 35.0254C30.6033 31.4075 28.1722 30.0348 25.1904 29.5225C24.9142 29.4736 23.979 29.3179 23.7041 29.2676C22.2314 29.0022 20.9641 28.6574 20.9639 27.1729C20.9639 25.8979 22.2995 25.3027 23.9648 25.3027C26.4396 25.3027 28.6107 26.4241 28.8584 26.5479L30.2139 22.9688C29.695 22.6977 27.4846 21.5176 24.0049 21.5176C20.8215 21.5176 16.9297 23.1909 16.9297 27.3525C16.9298 31.0766 19.5881 32.2723 22.1562 32.7236C22.5096 32.7887 23.6236 32.9786 23.9443 33.0342C25.6685 33.3258 26.6121 33.9682 26.6123 35.0967C26.6123 36.5294 25.2707 37.2012 23.2344 37.2012C19.9696 37.2012 18.0555 36.2294 17.502 36.002L16 39.5039C16.4683 39.7445 18.6949 41 23.04 41ZM123.693 41C127.91 41 131.294 38.9119 131.294 35.0254C131.261 31.4074 128.829 30.0348 125.846 29.5225C125.567 29.4735 124.633 29.3178 124.359 29.2676C122.884 29.0022 121.619 28.6574 121.619 27.1729C121.619 25.8979 122.957 25.3027 124.62 25.3027C127.095 25.3029 129.266 26.4241 129.514 26.5479L130.87 22.9688C130.348 22.6977 128.14 21.5177 124.662 21.5176C121.477 21.5176 117.585 23.1909 117.585 27.3525C117.585 31.0767 120.247 32.2723 122.812 32.7236C123.166 32.7888 124.279 32.9787 124.598 33.0342C126.322 33.3259 127.269 33.9683 127.27 35.0967C127.27 36.5294 125.924 37.2012 123.887 37.2012C120.625 37.2011 118.711 36.2294 118.158 36.002L116.655 39.5039C117.122 39.7446 119.349 40.9999 123.693 41ZM169.867 41C172.804 40.9999 176.133 39.6574 177.147 36.0732L173.526 34.6963C173.048 36.4081 171.453 37.1211 169.896 37.1211C167.184 37.1211 166.466 35.6364 166.466 33.9443V28.5703C166.466 26.8802 167.185 25.3975 169.896 25.3975C171.453 25.3975 173.048 26.106 173.526 27.8193L177.147 26.4424C176.133 22.8584 172.804 21.5177 169.867 21.5176C164.605 21.5176 162.482 24.7864 162.482 27.9629V34.5537C162.482 37.7288 164.605 41 169.867 41ZM198.095 24.7979C197.258 24.7977 196.635 24.1277 196.635 23.3369C196.635 22.4912 197.249 21.8302 198.095 21.8301C198.885 21.8301 199.547 22.4996 199.547 23.3369C199.547 24.1278 198.941 24.7979 198.095 24.7979ZM57.4014 41C59.7345 41 62.3185 40.4099 64.5557 39.4414V21.8818H60.5664V36.9072C59.8078 37.3164 58.8477 37.5508 57.8926 37.5508C54.9143 37.5508 53.7941 36.0338 53.7939 33.9414V21.8818H49.8037V34.0146C49.8038 38.7306 52.5298 41 57.4014 41ZM149.121 27.168C149.121 26.5109 149.657 25.9748 150.316 25.9746H154.466V21.8818H150.316C147.394 21.882 145.028 24.2477 145.028 27.168V31.6699H149.121V27.168ZM197.816 24.2861C197.834 24.2861 197.845 24.2677 197.845 24.249V23.6074H198.058L198.355 24.2588C198.365 24.2768 198.384 24.2861 198.402 24.2861H198.839C198.858 24.2861 198.866 24.2678 198.857 24.249L198.485 23.5889C198.737 23.4771 198.876 23.2353 198.876 22.9746V22.9375C198.876 22.6406 198.653 22.3234 198.151 22.3232H197.406V24.249C197.407 24.2676 197.425 24.286 197.443 24.2861H197.816ZM197.845 23.291V22.6582H198.095C198.345 22.6582 198.439 22.7978 198.439 22.9463V22.9746C198.439 23.1697 198.365 23.291 198.095 23.291H197.845ZM93.7812 28.4727C93.7812 26.9506 94.5452 25.3184 97.166 25.3184C99.6923 25.3184 100.51 26.9078 100.51 28.3984V29.8369H93.7812V28.4727ZM155.241 40.6367C158.161 40.6365 160.527 38.2688 160.527 35.3486V30.8477H156.435V35.3486C156.435 36.0078 155.898 36.5437 155.241 36.5439H151.089V40.6367H155.241Z"></path>
</svg>
