<svg xmlns="http://www.w3.org/2000/svg" fill="none" viewBox="0 0 205 56" height="56" width="205">
<path fill="white" d="M66.183 23.6846V32.4959H68.386C68.9482 32.4875 69.5031 32.3669 70.0177 32.1409C70.5323 31.915 70.9963 31.5885 71.3821 31.1806C72.1741 30.3445 72.6074 29.233 72.5898 28.0829C72.6066 27.5117 72.51 26.9428 72.3057 26.4089C72.1013 25.875 71.7932 25.3866 71.399 24.9718C71.0115 24.5634 70.5443 24.2384 70.0262 24.0168C69.508 23.7952 68.9498 23.6818 68.386 23.6834H66.1842L66.183 23.6846ZM68.386 20.9218C72.4921 20.9218 75.5983 24.0946 75.5983 28.0829C75.5983 32.0713 72.4921 35.2619 68.386 35.2619H63.5273C63.481 35.2614 63.4352 35.2517 63.3927 35.2335C63.3501 35.2152 63.3115 35.1888 63.2792 35.1557C63.2469 35.1227 63.2214 35.0835 63.2042 35.0406C63.187 34.9977 63.1785 34.9519 63.1791 34.9057V21.2927C63.1791 21.0955 63.3352 20.9353 63.5273 20.9353L68.386 20.9218ZM86.1818 32.8028C88.0467 32.8084 89.7307 31.6646 90.4485 29.9046C90.8002 29.0446 90.8941 28.1015 90.7191 27.1893C90.544 26.2772 90.1074 25.4353 89.4622 24.7657C88.8282 24.107 88.0089 23.6557 87.1123 23.4712C86.2157 23.2868 85.2841 23.378 84.4406 23.7327C82.7173 24.4587 81.5916 26.1761 81.5882 28.0829C81.5882 30.6821 83.6407 32.7905 86.1818 32.8028ZM86.183 20.597C90.5047 20.597 93.8086 23.9938 93.8086 28.0829C93.8086 32.1721 90.5047 35.5689 86.1818 35.5689C81.8601 35.5689 78.5843 32.1889 78.5843 28.0829C78.5843 23.977 81.8893 20.597 86.183 20.597ZM104.307 32.8028C106.849 32.7961 108.906 30.6854 108.904 28.0863C108.9 25.4849 106.839 23.3787 104.298 23.3776C101.754 23.3776 99.6919 25.4827 99.6885 28.0829C99.6885 29.3354 100.175 30.5364 101.041 31.4215C101.465 31.8576 101.972 32.2046 102.533 32.4419C103.094 32.6791 103.698 32.8019 104.307 32.8028ZM104.306 20.597C108.614 20.597 111.918 23.977 111.918 28.0829C111.918 32.1889 108.6 35.5689 104.306 35.5689C100.012 35.5689 96.68 32.1889 96.68 28.0829C96.68 23.977 99.9839 20.597 104.306 20.597ZM121.995 23.6846H118.889V27.4768H121.995C122.24 27.4877 122.485 27.4482 122.715 27.361C122.944 27.2737 123.153 27.1404 123.329 26.9693C123.689 26.622 123.893 26.1403 123.898 25.6339C123.907 25.377 123.864 25.1209 123.771 24.881C123.678 24.6412 123.538 24.4224 123.359 24.238C123.182 24.0565 122.97 23.9138 122.735 23.819C122.5 23.7243 122.248 23.6796 121.995 23.6879V23.6846ZM115.883 21.2927C115.883 21.0955 116.041 20.9353 116.233 20.9353H122.081C124.87 20.9353 126.887 23.0247 126.887 25.6485C126.908 27.4231 125.937 29.0531 124.385 29.8474L127.083 34.7242C127.12 34.7802 127.141 34.8455 127.143 34.9127C127.146 34.98 127.129 35.0466 127.096 35.1051C127.064 35.1627 127.015 35.2098 126.957 35.2408C126.898 35.2718 126.832 35.2853 126.766 35.2799H124.399C124.333 35.2808 124.269 35.2632 124.213 35.2291C124.156 35.195 124.111 35.1458 124.082 35.0872L121.482 30.2608H118.877V34.8945C118.878 34.9408 118.87 34.9867 118.852 35.0298C118.835 35.0728 118.81 35.1121 118.778 35.1453C118.745 35.1785 118.707 35.205 118.664 35.2233C118.621 35.2416 118.575 35.2513 118.529 35.2519H116.249C116.202 35.2513 116.156 35.2416 116.114 35.2233C116.071 35.205 116.032 35.1785 116 35.1453C115.968 35.1121 115.942 35.0728 115.925 35.0298C115.908 34.9867 115.9 34.9408 115.9 34.8945L115.885 21.2938L115.883 21.2927ZM134.719 23.7518V32.5642H136.921C137.483 32.5566 138.038 32.4367 138.553 32.2116C139.068 31.9864 139.532 31.6606 139.919 31.2534C140.711 30.4183 141.145 29.3076 141.129 28.158C141.146 27.5861 141.051 27.0162 140.847 26.4813C140.643 25.9464 140.335 25.457 139.941 25.0413C139.553 24.6321 139.085 24.3067 138.566 24.0851C138.046 23.8635 137.487 23.7505 136.922 23.7529L134.719 23.7518ZM136.921 20.9857C141.027 20.9857 144.134 24.1618 144.134 28.158C144.134 32.1542 141.027 35.3303 136.921 35.3303H132.077C132.031 35.3297 131.985 35.32 131.942 35.3017C131.9 35.2834 131.861 35.2569 131.829 35.2237C131.796 35.1905 131.771 35.1512 131.754 35.1082C131.737 35.0652 131.728 35.0192 131.729 34.9729V21.361C131.729 21.1627 131.885 21.0025 132.077 21.0025L136.921 20.9857ZM153.296 24.4901L151.592 29.2021H154.997L153.296 24.4901ZM150.592 31.8651L149.477 35.002C149.454 35.0758 149.408 35.1401 149.345 35.1847C149.282 35.2294 149.205 35.2518 149.128 35.2485H146.708C146.647 35.2542 146.585 35.2433 146.529 35.2169C146.473 35.1905 146.425 35.1495 146.391 35.0984C146.355 35.0466 146.334 34.9866 146.328 34.9242C146.323 34.8618 146.334 34.7991 146.36 34.7421L151.588 21.1425C151.613 21.0708 151.66 21.009 151.723 20.9666C151.786 20.9241 151.861 20.9033 151.937 20.9073H154.644C154.72 20.903 154.795 20.9237 154.859 20.9662C154.922 21.0087 154.969 21.0706 154.994 21.1425L160.222 34.7421C160.248 34.7992 160.258 34.8619 160.253 34.9244C160.247 34.9868 160.226 35.0467 160.19 35.0984C160.156 35.1493 160.108 35.1901 160.052 35.2163C159.996 35.2425 159.934 35.2532 159.872 35.2474H157.454C157.377 35.2507 157.3 35.2282 157.237 35.1836C157.174 35.139 157.128 35.0747 157.106 35.0009L155.99 31.864H150.592V31.8651ZM163.027 24.7959C163.027 22.5441 164.93 20.597 167.935 20.597C169.553 20.5609 171.12 21.1646 172.294 22.2763C172.33 22.31 172.358 22.3507 172.378 22.3957C172.397 22.4408 172.407 22.4894 172.407 22.5385C172.407 22.5875 172.397 22.6361 172.378 22.6812C172.358 22.7263 172.33 22.7669 172.294 22.8006L170.954 24.1618C170.922 24.1949 170.883 24.2212 170.841 24.2391C170.798 24.2571 170.753 24.2663 170.707 24.2663C170.66 24.2663 170.615 24.2571 170.572 24.2391C170.53 24.2212 170.491 24.1949 170.459 24.1618C169.828 23.5718 168.999 23.2374 168.134 23.2241C166.932 23.2241 166.043 23.9377 166.043 24.7612C166.043 27.4231 173.147 25.8871 173.147 31.0092C173.143 33.605 171.226 35.5689 167.835 35.5689C166.894 35.5785 165.96 35.3992 165.089 35.0416C164.219 34.684 163.429 34.1554 162.767 33.4874C162.732 33.4536 162.703 33.413 162.684 33.3679C162.664 33.3228 162.654 33.2743 162.654 33.2252C162.654 33.1761 162.664 33.1276 162.684 33.0825C162.703 33.0374 162.732 32.9968 162.767 32.963L164.064 31.6366C164.096 31.6019 164.135 31.5742 164.179 31.5553C164.222 31.5364 164.269 31.5266 164.317 31.5266C164.364 31.5266 164.411 31.5364 164.455 31.5553C164.498 31.5742 164.537 31.6019 164.569 31.6366C165.385 32.4431 166.484 32.9012 167.633 32.9137C169.135 32.9137 170.125 32.0937 170.125 31.0663C170.125 28.4033 163.025 29.9404 163.025 24.8172M186.027 21.2747V26.6568H180.015V21.2747C180.016 21.2285 180.007 21.1827 179.99 21.1398C179.973 21.0969 179.947 21.0578 179.915 21.0247C179.883 20.9916 179.844 20.9652 179.801 20.947C179.759 20.9287 179.713 20.9191 179.667 20.9185H177.386C177.34 20.9191 177.294 20.9287 177.252 20.947C177.209 20.9652 177.17 20.9916 177.138 21.0247C177.106 21.0578 177.08 21.0969 177.063 21.1398C177.046 21.1827 177.037 21.2285 177.038 21.2747V34.8721C177.038 35.0692 177.195 35.2294 177.386 35.2294H179.667C179.858 35.2294 180.015 35.0692 180.015 34.8721V29.4049H186.023V34.8721C186.023 35.0692 186.18 35.2294 186.371 35.2294H188.652C188.844 35.2294 189 35.0692 189 34.8721V21.2747C189.001 21.2285 188.992 21.1827 188.975 21.1398C188.958 21.0969 188.932 21.0578 188.9 21.0247C188.868 20.9916 188.829 20.9652 188.786 20.947C188.744 20.9287 188.698 20.9191 188.652 20.9185H186.371C186.278 20.9208 186.19 20.9595 186.126 21.0262C186.062 21.0929 186.026 21.1822 186.027 21.2747ZM50.3779 22.7334C48.7962 19.8094 45.7012 17.9888 42.3355 18.0001H16.8702C16.6983 18.0007 16.5303 18.0519 16.3873 18.1471C16.2442 18.2423 16.1325 18.3774 16.0659 18.5356C16.0003 18.6927 15.9832 18.8657 16.0168 19.0326C16.0504 19.1995 16.1332 19.3525 16.2546 19.4722L21.802 24.9617C22.2918 25.4479 22.9591 25.7202 23.6533 25.7202H41.6053C42.8848 25.7067 43.9307 26.7173 43.9442 27.9754C43.9577 29.2335 42.932 30.2642 41.6525 30.2765H29.2759C29.1038 30.2766 28.9356 30.3272 28.7921 30.422C28.6487 30.5169 28.5364 30.6517 28.4693 30.8098C28.4031 30.9671 28.3856 31.1405 28.419 31.3078C28.4524 31.4752 28.5353 31.6287 28.657 31.7486L34.2077 37.2427C34.7006 37.7286 35.3659 38.0008 36.059 38H41.6569C48.94 38 54.4469 30.337 50.3779 22.73"></path>
</svg>
