<svg class="h-8 lg:h-10" viewBox="0 0 38 44" fill="none" xmlns="http://www.w3.org/2000/svg"><path d="M37.85 13.38h-5.084V.5L20.382 12.034V.5h-2.064v11.534L5.933.5v12.88H.85v18.552h5.066V43.5l12.402-11.023V43.5h2.064V32.477L32.783 43.5V31.932h5.067zm-7.148-8.144v8.127h-8.734zm-22.705 0 8.734 8.127H7.997zM2.914 29.871V15.44h13.783L5.916 25.339v4.532zm5.066-3.629 10.338-9.49v12.966L7.98 38.9V26.225zM30.72 38.9l-10.338-9.182V16.753l10.337 9.49v12.674zm5.066-9.03h-3.003v-4.53l-10.78-9.899h13.782z" fill="#000"></path></svg>