<svg xmlns="http://www.w3.org/2000/svg" fill="none" viewBox="0 0 122 56" height="56" width="122">
<path fill="white" d="M59.6719 33.0757C59.1766 33.5472 58.6024 33.9402 57.9487 34.2152C57.3148 34.4902 56.6017 34.6278 55.849 34.6278C55.453 34.6278 55.0765 34.5886 54.7204 34.51C54.3637 34.4315 54.0073 34.3135 53.6704 34.176C53.3338 34.0189 53.017 33.842 52.7197 33.6455C52.4227 33.4293 52.1452 33.1936 51.9076 32.9382L65.2573 27.8105C65.0395 26.4352 64.5442 25.1385 63.7918 24.0186C62.0884 21.4646 59.1568 19.7947 55.849 19.7947C50.6005 19.7947 46.3222 24.0384 46.3222 29.2446C46.3222 29.7359 46.3618 30.2074 46.441 30.6789C46.6591 32.0541 47.1541 33.3509 47.9068 34.4707C48.3424 35.0993 48.8377 35.6887 49.4119 36.1996C49.9864 36.7105 50.6005 37.1622 51.2938 37.5356C51.967 37.9088 52.6999 38.2036 53.4724 38.3999C54.2449 38.5964 55.0372 38.6947 55.8691 38.6947C57.1762 38.6947 58.444 38.4393 59.5729 37.9482C60.7216 37.4767 61.7317 36.7693 62.6032 35.9246C63.4747 35.0601 64.168 34.0581 64.6435 32.9186C64.8412 32.4471 64.9999 31.9362 65.1187 31.4255H60.8008C60.5434 32.0541 60.1669 32.6042 59.6719 33.0757ZM55.8691 23.8419C57.4138 23.8419 58.8202 24.5099 59.8105 25.5315L50.4421 29.1268C50.5012 26.2191 52.9177 23.8419 55.8691 23.8419Z"></path>
<path fill="white" d="M42.4321 30.8191L42.4123 10H38.2686L38.2884 30.7203C38.2884 35.0938 41.2228 38.2009 45.5053 38.5175V34.4407C43.7012 34.1439 42.4321 32.719 42.4321 30.8191Z"></path>
<path fill="white" d="M42.3864 30.8582L42.3666 10.039H38.2229L38.2427 30.7593C38.2427 35.1328 41.1771 38.2399 45.4596 38.5565V34.4797C43.6555 34.1829 42.3864 32.758 42.3864 30.8582Z"></path>
<path fill="white" d="M86.2576 28.9096C86.0566 23.8801 81.8134 19.8329 76.6051 19.8329C71.2759 19.8329 66.9322 24.0766 66.9322 29.2828C66.9322 34.489 71.2759 38.7329 76.6051 38.7329C78.6562 38.7329 80.5666 38.1041 82.135 37.0236V38.5561H86.2978L86.2576 28.9488V28.9096ZM76.6051 34.6858C73.5685 34.6858 71.095 32.2692 71.095 29.3026C71.095 26.336 73.5685 23.9194 76.6051 23.9194C79.6417 23.9194 82.1152 26.3359 82.1152 29.3026C82.1152 32.2693 79.6417 34.6858 76.6051 34.6858Z"></path>
<path fill="white" d="M97.1128 19.7256C92.2045 19.7256 88.2256 23.6897 88.2256 28.5796V38.6054H92.4505V28.573C92.4505 26.0301 94.5196 23.9688 97.072 23.9688H97.1536C99.706 23.9688 101.775 26.0301 101.775 28.573V38.6054H106V28.5796C106 23.6897 102.021 19.7256 97.1128 19.7256Z"></path>
<path fill="white" d="M39.294 38.9028C39.0136 39.3 38.7151 39.6865 38.4001 40.0564C38.085 40.4284 37.7553 40.7842 37.4093 41.1271C37.0651 41.47 36.7045 41.7964 36.3294 42.1084C35.9561 42.4204 35.5684 42.7144 35.1678 42.9922C34.769 43.2715 34.3572 43.5325 33.9347 43.7758C33.5141 44.017 33.0807 44.2402 32.6383 44.4451C32.1976 44.6503 31.7478 44.8354 31.2871 45.0004C30.8319 45.1672 30.3657 45.3124 29.8923 45.4357C29.4243 45.5608 28.9489 45.6664 28.4664 45.7498C27.9893 45.8332 27.5066 45.8968 27.0168 45.9367C26.5361 45.9784 26.0498 46 25.5581 46C25.0664 46 24.5801 45.9784 24.0994 45.9367C23.6096 45.8968 23.1251 45.8332 22.6498 45.7498C22.1673 45.6664 21.6903 45.5608 21.2242 45.4357L22.2968 41.4481C22.6482 41.5444 23.007 41.6224 23.3694 41.6839C23.7281 41.7475 24.0922 41.7946 24.4601 41.8255C24.8224 41.8564 25.1884 41.8726 25.5581 41.8726C25.9278 41.8726 26.2938 41.8564 26.6562 41.8255C27.024 41.7946 27.3882 41.7475 27.7469 41.6839C28.1092 41.6224 28.468 41.5444 28.8194 41.4481C29.1764 41.3557 29.5261 41.2465 29.8703 41.1214C30.2163 40.9981 30.555 40.8586 30.8863 40.7044C31.2196 40.5502 31.5457 40.3834 31.8625 40.2001C32.1812 40.0186 32.4925 39.8206 32.793 39.6121C33.0953 39.4034 33.3867 39.1823 33.6672 38.9482C33.9494 38.7142 34.2207 38.4673 34.4811 38.2096C34.7415 37.9502 34.9911 37.6836 35.2278 37.4042C35.4646 37.1249 35.6904 36.8347 35.9017 36.5353L39.294 38.9028ZM35.5818 19.7253L32.8935 23.1531C34.2809 24.806 35.1165 26.9344 35.1165 29.2577C35.1165 34.5169 30.8373 38.7803 25.5584 38.7803C20.2795 38.7803 16 34.5169 16 29.2577C16.0001 23.9985 20.2795 19.7353 25.5584 19.7353C26.9982 19.7353 28.3634 20.0529 29.5879 20.6209L32.2961 17.168L35.5818 19.7253ZM25.5584 23.8248C22.5467 23.8248 20.1051 26.2572 20.1051 29.2577C20.1051 32.2581 22.5467 34.6908 25.5584 34.6908C28.5701 34.6907 31.0114 32.2581 31.0114 29.2577C31.0113 26.2573 28.57 23.8249 25.5584 23.8248Z"></path>
</svg>
