<svg xmlns="http://www.w3.org/2000/svg" fill="none" viewBox="0 0 166 56" height="56" width="166">
<path fill="white" d="M20.2559 2.00085C20.8776 2.00103 21.4667 2.66288 21.6699 3.78308C21.6921 3.90309 21.7038 4.02427 21.7148 4.14539C22.1291 8.7815 23.5169 16.4979 25.0576 16.4979C25.583 16.4976 25.8919 15.977 26.0273 15.4188C26.2222 14.4483 25.7647 13.7896 26.1025 13.7098C26.4907 13.6873 27.2007 14.2885 27.6914 15.5848C28.8434 14.5663 29.1743 12.0817 29.5391 9.7655C29.7961 8.14118 29.9709 4.34189 30.6699 2.93445C30.882 2.48219 31.1838 2.15534 31.5908 2.03796C31.7312 1.99748 31.8801 1.99449 32.0254 2.00671C34.1389 2.18662 35.0015 4.90458 35.3418 5.86023C36.069 8.42013 36.8044 13.2707 35.0283 14.1229C34.6742 14.2597 34.435 14.3647 34.2773 14.4403C34.2025 14.476 34.2259 14.5868 34.3086 14.5907C34.8006 14.6136 35.7428 14.7808 36.2158 15.6786C36.4196 16.0482 36.7469 15.8339 37.1416 15.8339C38.4348 15.8343 39.2902 17.0658 39.3125 17.8778C40.3582 18.1334 41.1991 19.0716 41.5244 20.2841C41.5861 20.4495 41.7516 20.5708 41.8936 20.662C42.9266 21.3316 44.003 21.9521 44.9023 22.7919C45.1182 22.9893 45.3244 23.2028 45.4814 23.4491C45.7894 23.934 45.8938 24.5247 45.8916 25.0985C45.8983 25.4343 45.9725 25.4981 46.0674 25.6288C47.0033 26.8131 47.5213 28.4181 46.749 29.8231C46.3204 30.6007 45.615 31.039 44.9766 31.5702C44.8768 31.6863 44.8773 31.7955 44.8496 31.9188C44.7374 32.4395 44.4782 32.9742 44.1406 33.3885C44.4176 33.9576 44.7237 34.7105 44.3535 35.8534C45.707 37.4688 45.27 39.2174 45.1621 39.4403C46.9752 39.9739 47.4852 45.4243 47.4873 45.4471C47.6395 46.7376 48.9955 47.8554 50.8125 47.2538C51.0084 47.1889 51.1864 47.3987 51.0938 47.5839C49.4825 50.7963 44.1446 53.9998 33.8213 53.9999C29.7111 53.9999 23.7855 53.6826 20.6279 49.6493C20.3631 49.3111 20.147 48.9353 20.0088 48.5282C19.7018 47.6249 19.6338 46.558 20.0391 44.6542C20.6908 41.873 21.1575 39.6254 21.4102 37.1307C20.5542 37.9791 19.0748 37.5536 18.8516 36.7596C19.6764 36.5004 20.3114 35.9069 20.3115 34.451C20.3115 33.8225 20.2977 32.8254 20.8789 31.5712C20.6141 30.9549 20.5009 29.9584 20.5381 29.4032C20.5964 28.5319 20.8481 27.738 21.0391 27.4413C21.0391 27.4413 19.6879 26.1801 20.1309 23.9384C20.5666 21.6261 20.2589 20.3163 17.9561 16.5233C17.3925 15.4959 16.0012 13.4065 16 10.2831C16.055 7.1838 16.6216 5.5196 17.5127 3.92761C18.8085 1.88709 19.9398 2.00074 20.2559 2.00085ZM27.7783 43.705C27.8227 43.3907 27.3739 43.2804 27.2695 43.5819C26.6159 45.8846 28.7672 47.6285 30.8369 46.9423C31.6137 47.8022 32.6789 48.3703 33.8164 48.5555L33.8154 48.5565C36.7724 49.0308 39.6125 46.7051 39.5088 43.6669C39.4958 43.3568 39.036 43.3278 38.9854 43.6346C38.9137 44.0674 38.7903 44.4854 38.6016 44.8798C37.314 47.7027 33.4746 48.1747 31.624 45.66C31.4119 45.3179 30.96 45.2123 30.6475 45.4882C29.8025 46.2256 28.4246 45.9409 27.9619 44.8827C27.7881 44.5256 27.714 44.1104 27.7783 43.705ZM83.248 25.1737C88.7148 25.1737 91.5293 27.5634 91.5293 32.0126V38.2509C91.5294 39.4659 92.1554 40.2682 93.1006 40.2069L93.2939 40.1825C93.6419 40.1148 93.9504 40.3718 93.8516 40.7811C93.4683 42.2194 92.2554 43.4296 89.9404 43.4296C88.1506 43.4295 86.7588 42.6336 86.1309 41.371C85.137 42.8661 83.0165 43.7606 80.4648 43.7606C76.7883 43.7606 74.4678 41.9359 74.4678 39.0155C74.4678 36.4261 76.3901 34.347 80.0361 33.5487C81.5263 33.1844 83.6445 32.995 85.5332 32.995V31.8124C85.5332 28.8374 84.1852 26.9266 81.6689 26.9266C80.0873 26.9268 79.0157 27.7531 78.7666 27.9657C79.1161 28.0961 80.267 28.7892 80.2715 30.1552C80.2714 31.4874 79.1126 32.5672 77.6836 32.5673C76.7448 32.5672 75.9253 32.0998 75.4717 31.4022C75.1896 30.92 74.9978 30.4183 75 29.9071C75.0093 27.0593 78.3527 25.1738 83.248 25.1737ZM138.631 25.1737C144.097 25.1737 146.912 27.5635 146.912 32.0126V38.2509C146.912 39.4657 147.538 40.268 148.482 40.2069L148.676 40.1825C149.024 40.1146 149.332 40.3717 149.233 40.7811C148.85 42.2193 147.638 43.4294 145.323 43.4296C143.533 43.4295 142.141 42.6337 141.513 41.371C140.519 42.8661 138.398 43.7606 135.847 43.7606C132.17 43.7605 129.851 41.9359 129.851 39.0155C129.851 36.4261 131.772 34.347 135.418 33.5487C136.908 33.1844 139.026 32.995 140.915 32.995V31.8124C140.915 28.8374 139.568 26.9267 137.052 26.9266C135.469 26.9267 134.397 27.7534 134.148 27.9657C134.498 28.0959 135.649 28.7889 135.653 30.1552C135.653 31.4874 134.495 32.5673 133.065 32.5673C132.127 32.5671 131.307 32.0997 130.854 31.4022C130.572 30.92 130.381 30.4182 130.383 29.9071C130.392 27.0592 133.735 25.1737 138.631 25.1737ZM123.887 21.3495C124.349 21.3495 124.725 21.7254 124.725 22.1893V24.621C124.725 24.8907 124.506 25.1098 124.236 25.1093H123.814C123.699 25.1099 123.606 25.204 123.605 25.3202V25.6327C123.606 25.7493 123.7 25.8436 123.816 25.8436H127.972C128.348 25.8436 128.652 26.1496 128.652 26.5262V27.6395C128.652 28.0161 128.348 28.3212 127.972 28.3212H124.725V37.5155C124.725 39.8287 125.583 40.9539 127.366 40.954C127.461 40.9518 127.563 40.9423 127.669 40.9286L127.994 40.8749C128.574 40.7609 128.965 41.4385 128.589 41.8925C127.621 43.0543 126.024 43.699 124.263 43.6991C120.733 43.6991 118.785 41.5828 118.785 37.7479V28.3221H116.804C116.43 28.3218 116.126 28.0165 116.126 27.6395V26.5262C116.126 26.1493 116.43 25.8449 116.804 25.8446H117.446C119.606 25.8446 120.271 22.9611 120.547 22.0487C120.676 21.6323 121.061 21.3496 121.496 21.3495H123.887ZM61.2451 19.9618C61.9378 19.9621 62.409 20.6661 62.1465 21.3085L61.6592 22.5028C61.3368 23.2925 61.3256 24.1751 61.627 24.9725L66.1914 37.0634C66.2924 37.3298 66.3151 37.6213 66.249 37.8983C66.194 38.129 66.0956 38.3825 65.9375 38.5927C65.8549 38.6855 65.849 38.7846 65.9395 38.8524L66.2236 39.078C66.303 39.1375 66.4057 39.1203 66.4668 39.0614C66.5806 38.9512 66.8319 38.5026 67.0801 37.8485L72.4707 24.2635C72.7661 23.5187 72.68 22.6765 72.2402 22.0067L71.7256 21.2225C71.3705 20.6819 71.7576 19.9619 72.4043 19.9618L75.4092 19.9628C76.0973 19.9629 76.5687 20.6575 76.3154 21.2987L67.8242 42.7509C67.6525 43.1844 67.2337 43.4696 66.7676 43.4696H63.1377C62.6704 43.4695 62.2516 43.1834 62.0801 42.7479L55.5254 25.5858C55.0601 24.4032 54.3805 23.3168 53.5205 22.3817L53.0527 21.8729C52.3809 21.1431 52.8977 19.9619 53.8887 19.9618H61.2451ZM108.823 25.2684C112.64 25.2685 114.798 27.8953 114.798 32.4823V38.9462C114.798 39.7293 115.033 40.4919 115.47 41.1356L115.669 41.4032L116.04 41.8612C116.558 42.4991 116.105 43.4536 115.284 43.454H108.722C108.017 43.4539 107.546 42.7287 107.83 42.0829L108.379 40.8368C108.672 40.1722 108.823 39.4538 108.823 38.7274V32.7147C108.823 30.4892 107.896 29.2569 106.169 29.2567C104.886 29.2567 103.86 29.9502 103.075 31.3075C102.428 32.4256 102.12 33.7087 102.12 35.0009V38.703C102.12 39.6045 102.432 40.4778 103.003 41.1747L103.563 41.8573C104.086 42.4948 103.633 43.454 102.81 43.454H95.8955C95.1869 43.4536 94.7157 42.7202 95.0078 42.0741L95.6484 40.6591C95.9555 39.9815 96.1142 39.2451 96.1143 38.5009V31.7919C96.1143 30.5425 95.6673 29.3349 94.8545 28.3876L94.0488 27.4471C93.5055 26.8141 93.9548 25.8339 94.7881 25.8339H100.321C100.949 25.8339 101.459 26.3444 101.459 26.9735V27.9491C101.459 28.4345 101.329 28.9107 101.085 29.33L100.698 30.0057C100.63 30.1253 100.674 30.2775 100.795 30.3427L101.078 30.494C101.194 30.5562 101.339 30.516 101.404 30.4022C102.757 28.0425 103.741 25.2685 108.823 25.2684ZM85.5332 34.8593C84.3401 34.8921 83.0489 35.0919 82.2217 35.4579C80.9943 35.9886 80.4316 37.0915 80.4316 38.3524C80.4319 39.9785 81.4586 41.0066 82.9834 41.0067C84.2883 41.0067 85.2143 40.2765 85.4873 39.038L85.5332 38.7841V34.8593ZM140.915 34.8593C139.722 34.8921 138.432 35.092 137.604 35.4579C136.377 35.9886 135.814 37.0914 135.814 38.3524C135.815 39.9786 136.841 41.0067 138.366 41.0067C139.671 41.0066 140.597 40.2765 140.87 39.038L140.915 38.7841V34.8593ZM42.0928 21.9071C40.8186 21.0933 38.5535 19.7315 37.2832 21.286C36.828 21.8967 36.63 22.6006 36.4873 23.1835C36.2236 24.2502 35.6704 24.6627 35.2773 25.3134C34.6528 26.3463 34.2232 27.5194 34.1904 28.7264C34.185 30.4691 35.2609 32.1771 36.9775 33.244C38.4014 33.9922 39.1335 33.9926 39.7041 33.8397C39.8087 33.8038 40.0371 33.6432 39.8809 33.3798C39.8526 33.3237 39.7729 33.2001 39.7246 33.12C39.5621 32.8202 39.7845 32.5462 40.1143 32.8026C40.3311 32.9727 40.5534 33.143 40.8086 33.2469C41.0232 33.334 41.2685 33.3693 41.4902 33.3104L41.582 33.2743C41.7812 33.1816 41.8843 33.0264 41.8975 32.8358C41.9124 32.5759 41.794 32.3739 41.5996 32.2665C41.3033 32.1219 40.6466 31.7603 40.3691 31.5555C40.0572 31.3367 39.7229 31.0095 39.6064 30.8856C39.2289 30.4834 39.1196 30.0905 38.8848 30.0897C38.8455 30.092 38.8069 30.1145 38.7803 30.1444C38.6329 30.3024 38.6322 30.5623 38.625 30.7108C38.6201 30.8202 38.6357 30.9867 38.4834 30.9872C38.1042 30.987 38.1049 30.1957 38.1055 29.9794C38.1055 29.6845 38.2132 28.9188 38.668 28.9188C38.8083 28.9196 38.9993 29.1076 39.0742 29.1815C40.0762 30.2954 41.2414 31.1628 42.7168 31.163C43.8463 31.1627 44.7914 30.5237 45.3848 29.9247C45.8492 29.4576 46.1551 28.8718 46.1758 28.2675C46.1885 27.8843 46.0039 26.8611 45.4248 26.8602L45.3506 26.8729C45.1767 26.9317 45.0076 27.1905 44.96 27.5673C44.8424 28.174 44.8821 29.2948 44.3428 29.2958C43.9692 29.2958 43.935 28.5434 43.3076 27.8505C42.6566 27.1782 41.7222 27.1093 41.123 26.6259C40.79 26.3945 40.5917 26.1088 40.6133 25.62C40.6154 25.5989 40.699 24.8441 41.7334 24.9843C42.2326 25.0366 43.0424 25.1584 43.543 25.2157C44.4363 25.3163 44.6549 24.6503 44.6816 24.4237C44.7387 23.8935 44.1772 23.4536 43.8213 23.1444C43.3718 22.7524 42.8808 22.3997 42.373 22.0839C42.2811 22.0267 42.1864 21.967 42.0928 21.9071ZM37.2461 26.9823C37.8118 26.6801 38.5961 26.84 38.9619 27.3671C39.0183 27.4486 39.0675 27.5413 39.0742 27.6405C39.0807 27.7398 39.038 27.8479 38.9512 27.8964L38.8984 27.9178C38.7734 27.9501 38.6314 27.8719 38.501 27.829C38.2009 27.7301 37.8599 27.8307 37.6123 28.0272C37.4424 28.1629 37.3115 28.3408 37.2061 28.5321C37.0914 28.7409 37.0692 29.0166 36.8232 29.0175C36.6204 29.0175 36.5176 28.7357 36.4951 28.619C36.3757 27.9876 36.6803 27.2849 37.2461 26.9823ZM31.1465 19.9198C30.0129 19.9198 29.1741 20.7194 28.877 21.6815C28.7432 22.1576 28.7628 22.8033 29.1074 23.4218C29.193 23.5588 29.4047 23.5018 29.4131 23.3407C29.3665 22.24 29.8456 21.5255 30.0605 21.3046C30.4423 20.9122 30.966 20.6788 31.5059 20.6708C32.2402 20.6711 32.6208 21.0954 32.8672 21.3251C32.9621 21.4131 33.116 21.3208 33.0811 21.1962C33.0065 20.8939 32.6329 19.9202 31.1465 19.9198ZM31.5195 21.6288C31.1644 21.6607 30.9299 21.9485 30.9609 22.2977C30.9928 22.6529 31.2737 22.8831 31.6289 22.8514C31.983 22.8194 32.2256 22.5438 32.1943 22.1884C32.1633 21.8392 31.8746 21.5975 31.5195 21.6288ZM19.0186 5.80359C18.1941 5.80359 17.7403 7.6923 17.7402 9.46179C17.7403 13.4034 19.4577 16.1964 19.9824 16.1981C20.065 16.1978 20.1736 16.1406 20.1318 15.9618C19.4957 12.8941 19.9311 10.5932 19.6641 7.20691C19.6407 6.88557 19.5251 5.80474 19.0186 5.80359Z"></path>
</svg>
