<svg xmlns="http://www.w3.org/2000/svg" fill="none" viewBox="0 0 177 56" height="56" width="177">
<path fill="white" d="M37.7266 9.22363V28.1338C37.7266 38.5502 29.2784 47 18.8633 47C8.44818 47 0 38.5503 0 28.1338C0.000112362 17.6727 8.44825 9.22363 18.8633 9.22363H37.7266ZM14.5723 18.6562V32.4258H28.2949L37.7266 22.9482H24.0039V9.22363L14.5723 18.6562ZM156.45 21.249L160.473 9.22363H163.691L157.925 26.3457H150.46V23.7979H155.69L156.45 21.4727H153.455L148.94 9.22363H152.338L156.45 21.249ZM67.6309 9C71.8773 9 74.917 11.5035 74.917 16.0635C74.917 20.4447 72.1456 23.2168 67.6309 23.2168C63.3845 23.2168 60.3449 20.7131 60.3447 16.1533C60.3447 11.5486 63.1162 9 67.6309 9ZM112.644 9C117.65 9 119.751 12.0851 119.706 16.958H108.621C108.889 19.3719 110.409 20.7578 112.733 20.7578C114.834 20.7578 116.041 19.9531 116.488 18.5674H119.662C118.947 21.3837 116.532 23.2168 112.644 23.2168C107.995 23.2167 105.492 20.1766 105.492 16.1533C105.492 11.9064 108.174 9.00015 112.644 9ZM52.2988 9C56.6793 9.00006 58.8694 11.28 59.3164 14.6328H56.0986C55.7857 12.6211 54.5783 11.459 52.2539 11.459C49.4379 11.459 48.0078 13.0235 48.0078 16.0635C48.0078 19.1035 49.6166 20.6679 52.2539 20.668C54.6677 20.668 55.8746 19.4612 56.1875 17.4941H59.4062C58.9593 20.9812 56.5002 23.1719 52.209 23.1719C47.5604 23.1718 44.879 20.4 44.8789 16.1084C44.8789 11.6825 47.5606 9 52.2988 9ZM97.7139 9C102.094 9 103.748 10.7881 104.24 13.3809H101.021C100.843 12.2187 100.038 11.4141 97.6689 11.4141C95.3449 11.4142 94.585 12.1298 94.585 13.1133C94.5851 13.9178 95.0325 14.4098 96.2393 14.5439L100.352 15.0352C103.346 15.3481 104.33 16.7788 104.33 18.8799C104.33 21.3386 102.452 23.1718 98.0273 23.1719C93.6021 23.1719 91.5452 21.5178 91.1875 18.7461H94.4062C94.6298 20.1318 95.7026 20.8027 98.0713 20.8027C100.44 20.8027 101.335 20.0421 101.335 19.0586C101.335 18.2987 100.977 17.7628 99.6807 17.584L95.7021 17.1367C92.6631 16.779 91.5461 15.4824 91.5459 13.3369C91.5459 10.8781 93.3334 9.00007 97.7139 9ZM142.324 9C146.705 9 148.359 10.7881 148.851 13.3809H145.633C145.454 12.2187 144.649 11.4142 142.28 11.4141C139.956 11.4141 139.195 12.1298 139.195 13.1133C139.195 13.9178 139.643 14.4098 140.85 14.5439L144.962 15.0352C147.957 15.3481 148.94 16.7788 148.94 18.8799C148.94 21.3387 147.063 23.1718 142.638 23.1719C138.212 23.1719 136.156 21.5178 135.798 18.7461H139.017C139.24 20.1318 140.314 20.758 142.683 20.8027C145.051 20.8026 145.945 20.0421 145.945 19.0586C145.945 18.2987 145.587 17.7628 144.291 17.584L140.313 17.1367C137.274 16.7791 136.156 15.4825 136.156 13.3369C136.156 10.8781 137.944 9.00009 142.324 9ZM170.173 9C174.553 9.00004 176.207 10.7881 176.654 13.3809H173.436C173.257 12.2187 172.407 11.4141 170.083 11.4141C167.759 11.4141 166.999 12.1298 166.999 13.1133C166.999 13.9178 167.447 14.4098 168.653 14.5439L172.766 15.0352C175.76 15.3482 176.743 16.7788 176.743 18.8799C176.743 21.3387 174.866 23.1719 170.44 23.1719C166.016 23.1718 163.959 21.5177 163.602 18.7461H166.865C167.089 20.1318 168.161 20.758 170.53 20.8027C172.899 20.8027 173.793 20.0421 173.793 19.0586C173.793 18.2988 173.436 17.7628 172.14 17.584L168.161 17.1367C165.122 16.7791 164.004 15.4825 164.004 13.3369C164.004 10.8781 165.792 9 170.173 9ZM84.8848 9C88.0584 9 89.8468 10.8775 89.8916 14.1855V22.9482H86.8076V14.5879C86.8075 12.3977 85.6897 11.3693 83.4551 11.3691C81.6671 11.3691 80.5487 12.0847 79.7441 13.6494V22.9482H76.6602V9.22363H79.7441V12.8896C80.504 10.4756 82.0688 9.0001 84.8848 9ZM129.496 9C132.714 9.00019 134.502 10.9224 134.502 14.1855V22.9482H131.418V14.5879C131.418 12.3976 130.3 11.3692 128.065 11.3691C126.277 11.3691 125.16 12.0848 124.355 13.6494V22.9482H121.271V9.22363H124.355V12.8896C125.115 10.4755 126.68 9 129.496 9ZM67.6309 11.5039C65.0383 11.5039 63.4737 12.9341 63.4736 16.0635C63.4736 19.1482 65.1277 20.7129 67.6309 20.7129C70.2681 20.7129 71.788 19.2378 71.7881 16.1533C71.7881 12.9792 70.1341 11.5039 67.6309 11.5039ZM112.644 11.4141C110.498 11.4142 109.068 12.5765 108.666 14.7666H116.488C116.265 12.7551 115.102 11.4141 112.644 11.4141Z"></path>
</svg>
