<svg xmlns="http://www.w3.org/2000/svg" fill="none" viewBox="0 0 234 56" height="56" width="234">
<path fill="white" d="M84.0713 18.001C92.3989 18.001 96.7382 22.3017 96.7383 28C96.7383 33.6984 92.399 38 84.0713 38C75.7432 38 71.4043 33.6984 71.4043 28C71.4044 22.3017 75.7433 18.001 84.0713 18.001ZM116.39 18.001C121.403 18.001 124.772 19.1241 125.984 19.5352L125.176 22.7129C122.696 21.9731 119.813 21.2881 116.39 21.2881C108.898 21.2881 106.014 24.0827 106.014 28C106.014 31.8906 108.897 34.6846 116.39 34.6846C119.813 34.6845 122.696 34.0275 125.176 33.2881L125.984 36.4658C124.772 36.8765 121.403 38 116.39 38C106.58 38 102.482 33.6988 102.482 28C102.483 22.3017 106.58 18.001 116.39 18.001ZM204.868 18.001C213.196 18.001 217.535 22.3017 217.535 28C217.535 33.6984 213.196 38 204.868 38C196.54 38 192.201 33.6984 192.201 28C192.201 22.3017 196.54 18.001 204.868 18.001ZM42.2773 37.5898H38.2617L35.8359 33.4805H22.4141L20.0156 37.5898H16L27.1309 18.4121H31.1191L42.2773 37.5898ZM50.7441 26.6309L55.084 34.4941L59.4229 26.6309L64.085 18.4121H68.1006L57.0781 37.5898H53.0889L42.0664 18.4121H46.082L50.7441 26.6309ZM157.058 37.5898H153.042L150.616 33.4795H137.194L134.796 37.5898H130.78L141.911 18.4121H145.9L157.058 37.5898ZM171.883 18.4121C181.693 18.4121 185.79 22.3023 185.79 28.001C185.79 33.6994 181.693 37.5898 171.883 37.5898H162.639V18.4121H171.883ZM84.0713 21.2881C77.8726 21.2881 74.9347 24.0823 74.9346 28C74.9346 31.8903 77.8725 34.6846 84.0713 34.6846C90.2701 34.6846 93.1807 31.8903 93.1807 28C93.1806 24.0823 90.27 21.2881 84.0713 21.2881ZM204.868 21.2881C198.669 21.2881 195.732 24.0823 195.731 28C195.731 31.8903 198.669 34.6846 204.868 34.6846C211.067 34.6845 213.978 31.8902 213.978 28C213.977 24.0823 211.067 21.2881 204.868 21.2881ZM166.116 34.2744H171.883C179.375 34.2744 182.232 31.8912 182.232 28.001C182.232 24.0833 179.375 21.7002 171.883 21.7002H166.116V34.2744ZM203.066 25.7432C205.225 25.7432 206.238 26.716 206.238 28.0801C206.238 29.4346 205.225 30.4072 203.066 30.4072C200.908 30.4072 199.886 29.4346 199.886 28.0801C199.886 26.716 200.908 25.7432 203.066 25.7432ZM24.7861 29.3711L24.2734 30.1924H33.9766L33.4912 29.3711L29.125 21.5078L24.7861 29.3711ZM139.566 29.3711L139.055 30.1924H148.757L148.271 29.3711L143.905 21.5078L139.566 29.3711Z"></path>
</svg>
