<svg xmlns="http://www.w3.org/2000/svg" fill="none" viewBox="0 0 240 56" height="56" width="240">
<path fill="white" d="M216.418 21.0463C220.724 21.0463 223.406 24.6986 223.406 29.2436H223.42C223.42 33.8153 220.738 37.4399 216.432 37.4399C213.616 37.4399 211.448 35.9797 210.771 33.8696V42.6616C210.771 42.7512 210.735 42.8374 210.672 42.9008C210.608 42.9639 210.523 42.9993 210.434 42.9995H206.886C206.796 42.9995 206.71 42.964 206.646 42.9008C206.583 42.8374 206.547 42.7512 206.547 42.6616V21.8305C206.547 21.7408 206.583 21.6547 206.646 21.5912C206.71 21.528 206.796 21.4926 206.886 21.4926H210.42C210.509 21.4927 210.596 21.5279 210.659 21.5912C210.723 21.6547 210.759 21.7408 210.759 21.8305V24.644C211.436 22.534 213.602 21.0464 216.418 21.0463ZM31.207 13.0014C33.6381 12.9676 36.0193 13.6899 38.0215 15.0678C38.2495 15.2056 38.4554 15.3772 38.6309 15.5776C38.7605 15.7353 38.8472 15.9243 38.8818 16.1254C38.8952 16.1728 38.9226 16.2154 38.96 16.2475C39.4372 16.7073 39.9448 17.1436 40.3848 17.6371C41.084 18.4003 41.5898 19.3201 41.8604 20.3188C41.9843 20.7222 42.0283 21.1467 41.9883 21.5668C41.9481 21.9867 41.8248 22.3944 41.627 22.767C41.2959 23.3237 40.8306 23.7888 40.2734 24.1196C39.6533 24.541 38.9085 24.7431 38.1602 24.6918C37.4607 24.6598 36.7969 24.3747 36.292 23.8901C35.7614 23.3394 35.1954 22.8226 34.5986 22.3442C34.2062 22.0468 33.8 21.7665 33.3906 21.4995C32.8954 21.2022 32.3465 21.0042 31.7754 20.9174C31.126 20.7988 30.4646 20.7592 29.8057 20.7993C28.3647 20.8267 26.9698 21.3153 25.8271 22.1928C24.971 22.839 24.2666 23.6644 23.7627 24.6108C23.4774 25.1849 23.2966 25.8053 23.2305 26.4428C23.1754 26.8362 23.1438 27.2331 23.1357 27.6303C23.1677 28.7623 23.4634 29.8715 23.999 30.8696C24.3948 31.6438 24.9222 32.3438 25.5566 32.9389C26.1468 33.4686 26.8004 33.924 27.5029 34.2924C28.3024 34.7254 29.1857 34.9822 30.0928 35.0463C31.284 35.1705 32.4875 34.9898 33.5898 34.5219C34.1181 34.2738 34.605 33.9455 35.0322 33.5483C35.7702 32.9143 36.3893 32.1532 36.8604 31.3022C37.0363 30.9946 37.1587 30.6569 37.3076 30.3325C37.3516 30.2344 37.4024 30.1361 37.4531 30.0414C37.4841 29.9955 37.5206 29.9537 37.5615 29.9164L37.6016 30.0112C37.6418 30.1194 37.6516 30.2373 37.6289 30.352C37.3446 31.6426 36.6526 32.8079 35.6553 33.6762C35.6006 33.7176 35.5542 33.7695 35.5195 33.8286C35.5071 33.8555 35.501 33.8849 35.501 33.9145C35.501 33.9443 35.5071 33.9744 35.5195 34.0014C35.5394 34.0245 35.5647 34.0424 35.5928 34.0541C35.621 34.0659 35.6521 34.071 35.6826 34.0688C35.8269 34.0304 35.9664 33.976 36.0986 33.9067C36.6835 33.5748 37.2006 33.1354 37.6221 32.6118C37.876 32.3041 38.1268 31.996 38.3672 31.6782C38.8198 31.0503 39.1545 30.3453 39.3555 29.5981C39.5382 28.9929 39.6942 28.381 39.8838 27.7758C39.9612 27.5538 40.0554 27.3374 40.165 27.1293C40.2091 27.0654 40.2604 27.0062 40.3174 26.9536H40.3643C40.4116 27.1124 40.4691 27.2649 40.5029 27.4272C40.5915 27.9376 40.6039 28.4589 40.54 28.9731C40.4698 29.642 40.3329 30.3022 40.1309 30.9438C39.9893 31.3382 39.7985 31.7136 39.5625 32.06C38.9693 33.0366 38.2685 33.9439 37.4736 34.7651C36.8881 35.3299 36.2546 35.8436 35.5811 36.3002C35.532 36.3254 35.4874 36.3592 35.4492 36.3989C35.4098 36.4462 35.3893 36.5063 35.3916 36.5678C35.4057 36.5951 35.426 36.6185 35.4512 36.6362C35.4765 36.6539 35.5064 36.6656 35.5371 36.6694C35.6786 36.6684 35.82 36.6498 35.957 36.6147C36.5824 36.4346 37.1672 36.1363 37.6797 35.7358C39.1136 34.6799 40.2785 33.301 41.0791 31.7114C41.5891 30.6745 41.9192 29.5587 42.0566 28.4116C42.139 27.6872 42.1476 26.9558 42.0811 26.2299C42.023 25.858 42.0338 25.4785 42.1143 25.1108C42.1356 25.0266 42.1667 24.9451 42.2061 24.8676C42.2975 24.6918 42.4296 24.6816 42.5176 24.8676C42.6101 25.0435 42.6785 25.2311 42.7207 25.4252C42.9065 26.3554 42.9649 27.3066 42.8936 28.2524C42.7622 29.789 42.3751 31.2929 41.749 32.7026C41.1149 34.154 40.1628 35.4449 38.9629 36.4799C38.5736 36.8181 38.2007 37.1562 37.7979 37.4741C37.3141 37.8254 36.7958 38.1269 36.251 38.3735C35.0487 38.9701 33.7691 39.3974 32.4492 39.642C31.6403 39.7823 30.8185 39.8365 29.998 39.8041C29.5953 39.8041 29.1888 39.7766 28.7861 39.7563C27.8754 39.7059 26.9764 39.5237 26.1182 39.2153C24.8754 38.7833 23.6807 38.2238 22.5537 37.5453C21.2392 36.7403 20.1187 35.6558 19.2705 34.3696C18.8518 33.7647 18.4863 33.1242 18.1797 32.4555C18.164 32.4159 18.1388 32.3806 18.1064 32.353C18.0741 32.3255 18.0356 32.3065 17.9941 32.2973C17.7715 32.242 17.5637 32.1367 17.3877 31.9897C17.2118 31.8427 17.0723 31.6568 16.9785 31.4477C16.7275 30.8354 16.5319 30.2016 16.3955 29.5541C16.1475 28.5089 16.0152 27.4397 16 26.3657C16.0102 25.6855 16.0718 25.007 16.1855 24.3364C16.3141 23.4252 16.5417 22.5307 16.8633 21.6684C17.1477 20.9137 17.5471 20.2071 18.0479 19.5746C18.3389 19.2095 18.58 18.801 18.8643 18.4291C20.669 16.0465 23.2525 14.3711 26.166 13.6948C26.7279 13.5595 27.2898 13.4168 27.8584 13.312C28.3661 13.2173 28.8743 13.1571 29.3955 13.1098C29.9981 13.0557 30.601 13.0082 31.207 13.0014ZM143.457 20.8637C148.44 20.8639 151.202 24.6244 151.202 29.2504V30.102C151.206 30.1474 151.2 30.1938 151.185 30.2368C151.17 30.2793 151.145 30.3179 151.112 30.35C151.081 30.3823 151.041 30.4077 150.998 30.4233C150.955 30.4387 150.909 30.444 150.863 30.4399H140.03C140.301 33.0368 142.143 33.9838 144.146 33.9838C144.857 34.002 145.561 33.844 146.194 33.5229C146.828 33.2018 147.372 32.7281 147.776 32.145C147.801 32.1093 147.834 32.0794 147.872 32.0571C147.909 32.0347 147.951 32.0202 147.994 32.0151C148.038 32.01 148.082 32.0138 148.124 32.0268C148.166 32.0398 148.204 32.0616 148.236 32.0903L150.606 34.2006C150.647 34.2282 150.68 34.2639 150.707 34.3051C150.733 34.3462 150.75 34.3919 150.758 34.4399C150.766 34.4879 150.763 34.5373 150.751 34.5844C150.739 34.6315 150.717 34.6757 150.688 34.7143C149.55 36.3645 147.14 37.6098 144.323 37.6098C139.124 37.6098 135.711 34.0386 135.711 29.2504C135.711 24.6243 138.772 20.8637 143.457 20.8637ZM62.4775 16.2914C66.242 16.2914 69.2219 17.5905 70.9824 20.1606C71.0336 20.2344 71.0567 20.3242 71.0469 20.4135C71.0369 20.5031 70.9943 20.5861 70.9277 20.6469L68.0566 23.1088C68.0232 23.1464 67.9815 23.1755 67.9346 23.1938C67.8875 23.212 67.8363 23.2195 67.7861 23.2143C67.7358 23.2089 67.6869 23.1912 67.6445 23.1635C67.6024 23.1358 67.5668 23.0989 67.542 23.0551C66.9549 22.2588 66.1908 21.6093 65.3096 21.1586C64.4285 20.708 63.4546 20.4677 62.4648 20.4575C58.8628 20.4575 56.4522 23.136 56.4521 26.8422C56.4521 30.5485 58.8628 33.227 62.4648 33.227V33.2133C63.4457 33.217 64.4143 32.9944 65.2949 32.5629C66.1758 32.1312 66.9445 31.5014 67.542 30.7241C67.5642 30.681 67.5977 30.6441 67.6377 30.6166C67.6776 30.5894 67.7235 30.5722 67.7715 30.5668C67.8197 30.5615 67.869 30.5683 67.9141 30.5864C67.959 30.6044 67.9992 30.6332 68.0303 30.6703L70.9277 33.0375C70.9949 33.098 71.0379 33.1812 71.0479 33.2709C71.0577 33.3604 71.0344 33.4504 70.9824 33.5239C69.4116 35.8504 66.242 37.4467 62.4775 37.4467C56.059 37.4465 51.8066 32.6585 51.8066 26.8422C51.8067 21.08 56.0455 16.2916 62.4775 16.2914ZM76.25 21.4926C76.3397 21.4927 76.4259 21.5279 76.4893 21.5912C76.5528 21.6547 76.5878 21.7408 76.5879 21.8305V31.0825C76.5879 32.7327 77.6173 33.7074 79.3506 33.7075C81.084 33.7075 82.0586 32.7327 82.0586 31.0825L82.0723 21.8305C82.0723 21.7408 82.1084 21.6547 82.1719 21.5912C82.2353 21.528 82.3214 21.4926 82.4111 21.4926H85.9727C86.0623 21.4926 86.1485 21.5279 86.2119 21.5912C86.2754 21.6547 86.3115 21.7408 86.3115 21.8305V36.6557C86.3115 36.7453 86.2754 36.8315 86.2119 36.895C86.1485 36.9583 86.0623 36.9936 85.9727 36.9936H82.4248C82.3366 36.9887 82.2529 36.9515 82.1904 36.8891C82.1281 36.8268 82.0908 36.7437 82.0859 36.6557V34.0854C81.463 36.0874 80.0007 37.4135 77.834 37.4135C74.8008 37.4135 72.3908 35.3574 72.3906 31.2455V21.8305C72.3907 21.7408 72.4258 21.6547 72.4893 21.5912C72.5527 21.5279 72.6388 21.4927 72.7285 21.4926H76.25ZM112.703 21.4926C112.793 21.4926 112.88 21.528 112.942 21.5912C113.006 21.6547 113.042 21.7408 113.042 21.8305V31.0825C113.042 32.7327 114.071 33.7075 115.805 33.7075C117.538 33.7074 118.513 32.7327 118.513 31.0825L118.526 21.8305C118.526 21.7408 118.562 21.6547 118.626 21.5912C118.69 21.528 118.776 21.4926 118.865 21.4926H122.426C122.516 21.4926 122.602 21.528 122.666 21.5912C122.729 21.6547 122.765 21.7408 122.765 21.8305V36.6557C122.765 36.7453 122.729 36.8315 122.666 36.895C122.602 36.9583 122.516 36.9936 122.426 36.9936H118.878C118.79 36.9886 118.706 36.9514 118.645 36.8891C118.582 36.8268 118.545 36.7437 118.54 36.6557V34.0854C117.918 36.0874 116.454 37.4135 114.288 37.4135C111.255 37.4134 108.845 35.3573 108.845 31.2455V21.8305C108.845 21.7408 108.88 21.6547 108.943 21.5912C109.007 21.528 109.093 21.4926 109.184 21.4926H112.703ZM164.852 16.7241H170.241C170.337 16.7205 170.43 16.7476 170.508 16.8012C170.586 16.8548 170.645 16.9324 170.675 17.0219L178.258 36.6899C178.273 36.7262 178.279 36.7653 178.274 36.8041C178.271 36.8432 178.258 36.8815 178.237 36.9145C178.216 36.9475 178.187 36.9749 178.153 36.9946C178.119 37.0142 178.08 37.0258 178.041 37.0278H173.817C173.714 37.0309 173.612 36.9992 173.528 36.9379C173.445 36.8768 173.385 36.7893 173.356 36.6899L171.663 32.1987H163.322L161.67 36.6899C161.642 36.7894 161.582 36.8767 161.498 36.9379C161.415 36.9991 161.313 37.0307 161.21 37.0278H157.066C157.027 37.0258 156.988 37.0143 156.954 36.9946C156.921 36.9749 156.891 36.9475 156.87 36.9145C156.849 36.8815 156.836 36.8432 156.833 36.8041C156.829 36.7653 156.835 36.7262 156.85 36.6899L164.392 17.0219C164.423 16.9276 164.487 16.8465 164.57 16.7924C164.654 16.7386 164.753 16.7144 164.852 16.7241ZM102.53 16.7045C102.62 16.7045 102.706 16.7398 102.77 16.8032C102.833 16.8666 102.869 16.9527 102.869 17.0424V21.5063H106.092C106.181 21.5063 106.268 21.5416 106.331 21.6049C106.395 21.6683 106.431 21.7545 106.431 21.8442V24.7934C106.431 24.8828 106.394 24.9684 106.331 25.0317C106.267 25.0951 106.181 25.1313 106.092 25.1313H102.869V32.1313C102.869 32.9563 103.194 33.2943 104.169 33.2944H106.137C106.182 33.2903 106.228 33.2965 106.271 33.312C106.314 33.3275 106.352 33.352 106.385 33.3842C106.417 33.4164 106.441 33.4556 106.457 33.4985C106.472 33.5413 106.479 33.5869 106.475 33.6323V36.6762C106.475 36.7658 106.439 36.8521 106.375 36.9155C106.312 36.9785 106.226 37.014 106.137 37.0141H103.238C100.124 37.0141 98.6338 35.3098 98.6338 32.3881V25.1245H96.3594C96.2696 25.1245 96.1826 25.0892 96.1191 25.0258C96.0557 24.9625 96.0206 24.8761 96.0205 24.7866L95.9795 21.8168C95.9796 21.7272 96.0157 21.6409 96.0791 21.5776C96.1425 21.5143 96.2288 21.4789 96.3184 21.4789H98.5938V17.0424C98.5896 16.997 98.5948 16.9506 98.6104 16.9077C98.6258 16.8649 98.6514 16.8266 98.6836 16.7944C98.7159 16.7621 98.7549 16.7367 98.7979 16.7211C98.8406 16.7057 98.8863 16.7004 98.9316 16.7045H102.53ZM93.6748 15.6215C93.7201 15.6175 93.7658 15.6237 93.8086 15.6391C93.8514 15.6546 93.8906 15.6792 93.9229 15.7114C93.955 15.7435 93.9796 15.7829 93.9951 15.8256C94.0107 15.8685 94.0169 15.9149 94.0127 15.9604V36.6625C94.0127 36.7521 93.9775 36.8384 93.9141 36.9018C93.8507 36.9651 93.7644 37.0003 93.6748 37.0004H90.1025C90.0129 37.0004 89.9267 36.9651 89.8633 36.9018C89.7998 36.8384 89.7637 36.7522 89.7637 36.6625V15.9672C89.7596 15.9218 89.7657 15.8754 89.7812 15.8325C89.7968 15.7896 89.8222 15.7504 89.8545 15.7182C89.8867 15.6861 89.9259 15.6614 89.9688 15.6459C90.0116 15.6305 90.0572 15.6242 90.1025 15.6284L93.6748 15.6215ZM135.061 21.4926C135.151 21.4927 135.237 21.5279 135.301 21.5912C135.364 21.6547 135.399 21.7409 135.399 21.8305V25.2797C135.399 25.3693 135.364 25.4556 135.301 25.519C135.237 25.5824 135.151 25.6176 135.061 25.6176H133.652C131.757 25.6177 130.402 26.0245 130.402 28.1616V36.6557C130.402 36.7453 130.366 36.8315 130.303 36.895C130.239 36.9582 130.153 36.9936 130.063 36.9936H126.57C126.48 36.9936 126.394 36.9583 126.33 36.895C126.267 36.8316 126.231 36.7453 126.231 36.6557L126.219 21.8442C126.219 21.7545 126.254 21.6683 126.317 21.6049C126.381 21.5418 126.467 21.5064 126.557 21.5063H130.051C130.14 21.5064 130.227 21.5416 130.29 21.6049C130.354 21.6683 130.39 21.7545 130.39 21.8442V25.1176C131.04 22.5476 132.448 21.4926 134.723 21.4926H135.061ZM197.731 21.0463C200.751 21.0464 203.121 23.0751 203.121 27.0786V36.6557C203.121 36.7453 203.085 36.8316 203.021 36.895C202.958 36.9583 202.872 36.9935 202.782 36.9936H199.261C199.173 36.9886 199.089 36.9515 199.027 36.8891C198.965 36.8268 198.927 36.7437 198.923 36.6557V27.2143C198.923 25.6994 198.002 24.7524 196.432 24.7524C194.86 24.7524 193.993 25.6994 193.993 27.2143V36.6557C193.993 36.7453 193.958 36.8315 193.895 36.895C193.831 36.9583 193.745 36.9936 193.654 36.9936H190.106C190.017 36.9935 189.931 36.9583 189.867 36.895C189.804 36.8316 189.769 36.7453 189.769 36.6557V27.2143C189.769 25.6994 188.875 24.7524 187.276 24.7524C185.679 24.7525 184.84 25.6995 184.84 27.2143V36.6557C184.84 36.7453 184.803 36.8315 184.74 36.895C184.677 36.9581 184.591 36.9935 184.501 36.9936H180.98C180.89 36.9936 180.804 36.9583 180.741 36.895C180.678 36.8315 180.642 36.7453 180.642 36.6557L180.628 21.8305C180.628 21.7409 180.663 21.6547 180.727 21.5912C180.79 21.5279 180.877 21.4927 180.967 21.4926H184.487C184.578 21.4926 184.663 21.5279 184.727 21.5912C184.79 21.6547 184.826 21.7408 184.826 21.8305V24.4008C185.585 22.3989 186.587 21.0463 188.808 21.0463C189.858 21.0634 190.871 21.4426 191.673 22.1205C192.475 22.7986 193.017 23.7337 193.208 24.7661C193.885 22.6965 195.186 21.0463 197.731 21.0463ZM214.848 24.7524C212.383 24.7524 210.759 26.5109 210.759 29.2162C210.759 31.9215 212.411 33.7075 214.848 33.7075C217.285 33.7074 218.91 31.9216 218.91 29.2436C218.91 26.5654 217.286 24.7525 214.848 24.7524ZM164.744 28.3305H170.215L167.476 20.9653L164.744 28.3305ZM143.483 24.4819C141.615 24.4819 140.369 25.5236 140.071 27.2143H146.924C146.625 25.5371 145.379 24.4819 143.483 24.4819Z"></path>
</svg>
