<svg xmlns="http://www.w3.org/2000/svg" fill="none" viewBox="0 0 182 60" height="60" width="182">
<path fill="black" d="M118.152 20C123.837 20 127.826 24.1543 127.826 30.0312C127.826 35.8464 123.806 40 118.152 40C112.437 39.9998 108.416 35.8462 108.416 30.0312C108.416 24.1545 112.468 20.0002 118.152 20ZM173.101 20C177.372 20.0002 180.669 22.6773 181.8 26.8311H177.309C176.555 24.9543 175.11 23.8771 173.101 23.877C169.771 23.877 167.729 26.1851 167.729 30.0312C167.73 33.8156 169.772 36.123 173.101 36.123C175.11 36.1229 176.586 35.0457 177.309 33.1689H181.8C180.701 37.2919 177.403 39.9998 173.101 40C167.385 40 163.364 35.8464 163.363 30.0312C163.363 24.1543 167.416 20 173.101 20ZM97.9736 20.3604C102.465 20.3605 105.197 22.5759 105.197 26.2373C105.197 28.791 103.878 30.637 101.522 31.5293L106.202 39.6836H101.522L97.2822 32.1143H92.5713V39.6836H88.3311V20.3604H97.9736ZM12.375 20.3291L20.2266 39.6826H15.8291L14.2275 35.6211H5.99902L4.39746 39.6826H0L7.88379 20.3291H12.375ZM83.1455 39.6826H78.9053V31.7754H69.6094V39.6826H65.3691V20.3604H69.6094V28.0527H78.9053V20.3291H83.1455V39.6826ZM37.0293 33.8672V20.3291H41.1123V39.6523H36.3076L27.4189 26.1143V39.6523H23.3359V20.3291H28.1416L37.0293 33.8672ZM61.9893 24.0527H55.3623V39.6523H51.1221V24.0527H44.4951V20.3291H61.9893V24.0527ZM141.426 20.3291C145.917 20.3291 148.649 22.6676 148.649 26.5137C148.649 30.3598 145.917 32.668 141.426 32.668H136.024V39.6523H131.784V20.3291H141.426ZM162.544 39.6523H158.241L150.358 20.3291H154.661L162.544 39.6523ZM118.152 23.877C114.823 23.8772 112.782 26.1853 112.782 30.0312C112.782 33.8154 114.824 36.1228 118.152 36.123C121.45 36.123 123.461 33.8156 123.461 30.0312C123.461 26.1851 121.45 23.877 118.152 23.877ZM7.44336 32.0215H12.8457L10.1445 25.2217L7.44336 32.0215ZM136.024 28.9141H141.237C143.341 28.9141 144.41 28.0832 144.41 26.4834C144.41 24.8834 143.31 24.0527 141.237 24.0527H136.024V28.9141ZM92.5713 28.3604H97.7852C99.8579 28.3603 100.957 27.6214 100.957 26.2061C100.957 24.7908 99.8578 24.0528 97.7852 24.0527H92.5713V28.3604Z"></path>
</svg>
