<svg xmlns="http://www.w3.org/2000/svg" fill="none" viewBox="0 0 180 56" height="56" width="180">
<path fill="white" d="M83.7814 4.43436C82.8824 3.86177 81.7604 3.57763 80.4195 3.57763C79.1772 3.57763 78.0959 3.86392 77.1712 4.43436C76.2466 5.00696 75.5493 5.82064 75.0816 6.87327C74.6117 7.92804 74.3779 9.24328 74.3779 10.819V19.7006C74.3779 21.328 74.6117 22.6798 75.0816 23.7604C75.5493 24.8411 76.2337 25.6612 77.1326 26.2187C78.0316 26.7784 79.1279 27.0582 80.4195 27.0582C81.7625 27.0582 82.8824 26.7784 83.7814 26.2187C84.6803 25.659 85.3519 24.8346 85.796 23.7411C86.2379 22.6497 86.4611 21.3022 86.4611 19.7006V10.819C86.4611 9.21745 86.2379 7.89791 85.796 6.85389C85.3519 5.81418 84.6803 5.00696 83.7814 4.43436ZM82.4705 20.4261C82.4705 21.1644 82.389 21.7542 82.2238 22.1977C82.0586 22.6432 81.8376 22.9726 81.5587 23.19C81.2798 23.4053 80.9 23.5129 80.4195 23.5129C79.9882 23.5129 79.6342 23.4053 79.3553 23.19C79.0764 22.9747 78.8554 22.6432 78.6902 22.1977C78.525 21.7542 78.4435 21.1623 78.4435 20.4261V10.1345C78.4435 9.44778 78.525 8.8838 78.6902 8.43821C78.8554 7.99477 79.0764 7.65036 79.3553 7.40926C79.6342 7.16817 79.9882 7.04763 80.4195 7.04763C80.9 7.04763 81.2862 7.16817 81.578 7.40926C81.8698 7.65036 82.0908 7.99477 82.2431 8.43821C82.3954 8.8838 82.4705 9.44778 82.4705 10.1345V20.4261ZM96.519 4.03398H100.432V26.6019H96.1392L92.3396 13.9317V26.6019H88.4263V4.03398H92.7194L96.5404 16.8764L96.5576 15.0123L96.519 4.03398ZM102.483 4.03398H111.792V7.46523H106.549V13.2988H111.299V16.6525H106.549V23.0565H111.792V26.6019H102.483V4.03398ZM121.288 4.03398H125.393L121.213 20.3873V26.6019H117.186V20.3873L113.082 4.03398H117.261L119.218 15.5849L121.288 4.03398ZM164 32.9736V36.3661H160.808V55.5415H156.742V36.3661H153.513V32.9736H164ZM142.43 32.9736H151.739V36.4048H146.495V42.2384H151.245V45.5922H146.495V51.9962H151.739V55.5415H142.43V32.9736ZM53.1314 33.5074C52.3204 33.1523 51.3571 32.9736 50.2436 32.9736H44.3157V55.5415H48.3428V48.679H50.3573C51.4708 48.679 52.4213 48.4939 53.2065 48.1258C53.9917 47.7577 54.5989 47.1528 55.0301 46.3154C55.4614 45.4759 55.6759 44.4104 55.6759 43.1124V38.3852C55.6759 37.1152 55.4528 36.0733 55.0108 35.2597C54.5689 34.4481 53.9424 33.8626 53.1314 33.5074ZM51.6124 43.1511C51.6124 43.812 51.4601 44.3135 51.1554 44.6579C50.8508 45.0002 50.3445 45.1724 49.6365 45.1724H48.3449V36.3661H49.6365C50.3445 36.3661 50.8529 36.5448 51.1554 36.8999C51.4601 37.2551 51.6124 37.7265 51.6124 38.3099V43.1511ZM57.6433 32.9736H66.9524V36.4048H61.7089V42.2384H66.459V45.5922H61.7089V51.9962H66.9524V55.5415H57.6433V32.9736ZM137.038 42.7615L141.518 55.5415H137.034L134.401 47.114L132.625 49.8737V55.5415H128.636V33.0102H132.625V43.5493L136.613 32.9736H141.134L137.038 42.7615ZM104.245 33.0102L100.673 55.5393H104.7L105.227 51.6517H109.308L109.829 55.5393H113.934L110.325 33.0102H104.245ZM105.702 48.1839L107.21 37.0915H107.362L108.847 48.1839H105.702ZM38.2763 32.9736H42.2647V49.5185C42.2647 50.9414 42.0566 52.1232 41.6382 53.0638C41.2198 54.0045 40.5869 54.7278 39.7395 55.2358C38.8899 55.7438 37.8214 55.9979 36.5299 55.9979C35.1611 55.9979 34.0476 55.7568 33.1872 55.2746C32.3269 54.7924 31.679 54.0734 31.2499 53.1198C30.8187 52.1662 30.6041 50.9651 30.6041 49.5164V32.9714H34.6698V49.9727C34.6698 50.5324 34.732 50.9887 34.8607 51.3461C34.9873 51.7034 35.1697 51.9746 35.4121 52.1662C35.6524 52.3578 36.0257 52.4525 36.532 52.4525C36.9118 52.4525 37.2357 52.3578 37.5018 52.1662C37.7678 51.9746 37.963 51.7034 38.0896 51.3461C38.2162 50.9909 38.2806 50.5324 38.2806 49.9727V32.9736H38.2763ZM125.086 34.2501C124.084 33.3998 122.724 32.9736 121.001 32.9736H115.225V55.5415H119.252V46.7352H120.735C121.368 46.7352 121.822 46.8945 122.104 47.2109C122.382 47.5295 122.522 47.9428 122.522 48.4508V55.5415H126.588V49.8177C126.588 48.115 126.088 46.8385 125.086 45.9861C124.942 45.8634 124.787 45.7515 124.629 45.646L124.642 45.6503C125.126 45.3123 125.528 44.899 125.845 44.4104C126.339 43.6484 126.585 42.6948 126.585 41.5517V38.0817C126.585 36.379 126.086 35.1025 125.086 34.2501ZM119.252 43.4934V36.3639H120.735C121.368 36.3639 121.822 36.5232 122.104 36.8397C122.382 37.1583 122.522 37.5716 122.522 38.0796V41.7003C122.522 42.2599 122.382 42.6991 122.104 43.0155C121.825 43.3341 121.368 43.4912 120.735 43.4912H119.252V43.4934ZM78.8619 34.2501C77.8599 33.3998 76.4997 32.9736 74.7769 32.9736H69.0013V55.5415H73.0284V46.7352H74.5109C75.1438 46.7352 75.5986 46.8945 75.8797 47.2109C76.1586 47.5295 76.298 47.9428 76.298 48.4508V55.5415H80.3637V49.8177C80.3637 48.115 79.8638 46.8385 78.8619 45.9861C78.7181 45.8634 78.5636 45.7515 78.4049 45.646L78.4178 45.6503C78.9026 45.3123 79.3038 44.899 79.6214 44.4104C80.1148 43.6484 80.3615 42.6948 80.3615 41.5517V38.0817C80.3637 36.379 79.8638 35.1025 78.8619 34.2501ZM73.0305 43.4934V36.3639H74.513C75.1459 36.3639 75.6008 36.5232 75.8818 36.8397C76.1607 37.1583 76.3002 37.5716 76.3002 38.0796V41.7003C76.3002 42.2599 76.1607 42.6991 75.8818 43.0155C75.6029 43.3341 75.1459 43.4912 74.513 43.4912H73.0305V43.4934ZM67.0704 0H72.4126V26.6019H68.2719L68.613 7.77736L63.9402 24.6839L59.2674 7.77736L59.6085 26.6019H55.4678V0H60.81L63.9424 13.0276L67.0704 0ZM28.0446 43.9368C28.4243 44.8 28.6153 45.8419 28.6153 47.0624V50.2052C28.6153 51.3741 28.375 52.3901 27.8944 53.2554C27.4138 54.1186 26.6779 54.7924 25.691 55.2767C24.7041 55.7589 23.6142 56 22.4235 56C21.0311 56 19.8532 55.7589 18.8899 55.2767C17.9266 54.7945 17.2057 54.0691 16.7252 53.1047C16.2403 52.1361 16 50.9543 16 49.5551V46.8708H20.0656V49.5551C20.0656 50.0373 20.1407 50.4958 20.2931 50.9285C20.4454 51.3611 20.6921 51.7034 21.0332 51.9574C21.3744 52.2114 21.8378 52.3384 22.4192 52.3384C23.1036 52.3384 23.6164 52.1296 23.9575 51.7099C24.2986 51.2901 24.4703 50.752 24.4703 50.089V47.1377C24.4703 46.4015 24.363 45.816 24.1463 45.3834C23.9318 44.9507 23.6142 44.602 23.1959 44.335C22.7775 44.0681 18.699 41.9198 18.1047 41.3989C17.5083 40.878 17.0534 40.2429 16.7359 39.4938C16.4184 38.7447 16.2617 37.7976 16.2617 36.6545V33.9702C16.2617 32.8789 16.5085 31.9059 17.0019 31.0535C17.4954 30.2032 18.1991 29.566 19.1109 29.1484C20.0227 28.7287 21.0997 28.5199 22.3398 28.5199C24.3415 28.5199 25.867 29.0731 26.9182 30.1774C27.9695 31.2838 28.4951 32.8272 28.4951 34.8098V37.2271H24.5496V34.8098C24.5496 33.9961 24.3844 33.3546 24.0562 32.8853C23.7258 32.4161 23.1572 32.1793 22.3463 32.1793C21.8893 32.1793 21.5288 32.2611 21.2628 32.4268C20.9968 32.5926 20.7887 32.8078 20.6363 33.0748C20.484 33.3417 20.4089 33.6409 20.4089 33.9702V36.6545C20.4347 37.2401 20.5484 37.7158 20.75 38.0839C20.9517 38.452 21.2113 38.7447 21.5288 38.96C21.8464 39.1752 25.6074 41.1147 26.354 41.7239C27.1006 42.3353 27.6648 43.0715 28.0446 43.9368ZM94.0431 28.9396H99.3853V55.5415H95.2446L95.5857 36.717L90.9129 53.6235L86.2401 36.717L86.5812 55.5415H82.4405V28.9396H87.7827L90.915 41.9672L94.0431 28.9396Z"></path>
</svg>
