<svg xmlns="http://www.w3.org/2000/svg" fill="none" viewBox="0 0 72 20" class="w-6/10 md:w-5/10"><g clip-path="url(#gorgias_svg__a)"><mask id="gorgias_svg__b" width="72" height="20" x="0" y="0" maskunits="userSpaceOnUse" style="mask-type:luminance"><path fill="currentColor" d="M72 .576H0v18.487h72z"></path></mask><g fill="currentColor" mask="url(#gorgias_svg__b)"><path d="M15.524 4.794H12.75V2.04c0-.809-.66-1.464-1.474-1.464h-9.8A1.47 1.47 0 0 0 0 2.04v13.947c0 .809.66 1.463 1.474 1.463h12.691l1.373 1.364a.856.856 0 0 0 1.46-.6V6.258c0-.809-.66-1.464-1.474-1.464m.059 11.25H1.416V1.981h9.916v2.812H5.723c-.814 0-1.474.655-1.474 1.464v5.51c0 .81.66 1.464 1.474 1.464h5.552c.814 0 1.474-.655 1.474-1.463V6.202h2.834v9.843zM11.333 6.2v5.625H5.667V6.2zm27.163-.967c-.572-.359-1.246-.54-2.002-.54s-1.43.181-2.001.54a3.66 3.66 0 0 0-1.34 1.515c-.318.646-.479 1.409-.479 2.27q.001 1.294.479 2.256c.318.644.77 1.151 1.34 1.51s1.245.54 2.001.54 1.43-.181 2.002-.54a3.66 3.66 0 0 0 1.34-1.51c.317-.641.478-1.4.478-2.255 0-.856-.161-1.627-.478-2.27a3.67 3.67 0 0 0-1.34-1.516m.137 5.287c-.17.454-.436.826-.788 1.105-.35.275-.805.416-1.35.416-.547 0-1.002-.14-1.352-.416a2.5 2.5 0 0 1-.788-1.105 4.3 4.3 0 0 1-.259-1.501 4.3 4.3 0 0 1 .26-1.506c.17-.458.435-.834.788-1.116.35-.279.806-.421 1.352-.421s1 .14 1.35.421c.354.282.62.657.79 1.116.172.462.259.97.259 1.506a4.3 4.3 0 0 1-.259 1.5zm6.672-4.54-.01-1.223a.085.085 0 0 0-.082-.083l-.27-.003c-.508 0-.97.131-1.376.391a2.07 2.07 0 0 0-.786.876V4.882a.084.084 0 0 0-.084-.083h-1.212a.084.084 0 0 0-.084.083v8.24c0 .045.038.082.084.082h1.255a.084.084 0 0 0 .084-.083V7.886c0-.354.087-.674.26-.951q.263-.417.714-.657c.301-.158.65-.24 1.037-.24q.195 0 .375.023a.082.082 0 0 0 .093-.082h.002Zm9.774-1.18h1.255c.046 0 .083.038.083.084v8.271a.084.084 0 0 1-.083.083h-1.255a.084.084 0 0 1-.084-.083V4.884c0-.046.038-.083.084-.083Zm.638-3.077a.97.97 0 0 0-.69.273.88.88 0 0 0-.29.658q0 .384.29.658c.19.18.423.273.69.273a.97.97 0 0 0 .69-.273.88.88 0 0 0 .29-.658.88.88 0 0 0-.29-.658.98.98 0 0 0-.69-.273m7.47 3.455a3.1 3.1 0 0 0-1.032-.391 5.4 5.4 0 0 0-.931-.094c-.42 0-.854.058-1.286.17a3.3 3.3 0 0 0-1.211.602c-.349.271-.635.646-.85 1.114a.083.083 0 0 0 .048.113l1.19.432a.084.084 0 0 0 .103-.04q.208-.397.67-.75c.329-.253.793-.38 1.38-.38s.983.14 1.255.415q.41.416.41 1.175v.043c0 .175-.058.293-.18.362q-.204.114-.658.164a58 58 0 0 0-1.225.147c-.383.05-.77.118-1.149.203a4.1 4.1 0 0 0-1.056.383 2.06 2.06 0 0 0-.776.718c-.195.304-.293.704-.293 1.186 0 .547.131 1.02.39 1.407.258.386.611.685 1.048.887q.656.303 1.459.304.736 0 1.252-.22a2.6 2.6 0 0 0 .825-.534q.23-.232.365-.446v.984c0 .042.034.075.076.075h1.27a.075.075 0 0 0 .076-.075V7.676c0-.661-.112-1.199-.331-1.597q-.335-.598-.839-.9Zm-.252 4.93q-.001.492-.256.94c-.17.296-.424.542-.758.73-.333.188-.748.284-1.234.284s-.893-.108-1.207-.321c-.31-.21-.46-.513-.46-.928q0-.451.24-.71a1.53 1.53 0 0 1 .657-.401q.42-.139.909-.202l.535-.068a18 18 0 0 0 .687-.097q.357-.056.633-.136.155-.044.254-.096zm8.5-.776c-.371-.373-.94-.655-1.687-.835l-1.227-.3c-.475-.117-.827-.266-1.047-.44-.211-.167-.315-.391-.315-.683 0-.329.153-.594.47-.81.32-.22.731-.33 1.22-.33.354 0 .65.056.873.167q.34.167.535.425a2.2 2.2 0 0 1 .277.465c.017.04.058.06.1.049l1.126-.326a.087.087 0 0 0 .057-.11 2.96 2.96 0 0 0-.994-1.361c-.48-.366-1.145-.55-1.975-.55-.589 0-1.124.105-1.588.311a2.7 2.7 0 0 0-1.111.864 2.1 2.1 0 0 0-.41 1.274c0 .583.184 1.076.55 1.463.362.386.935.672 1.703.853l1.378.32q.603.14.89.416c.187.18.277.398.277.664 0 .33-.161.605-.493.843-.334.24-.793.362-1.367.362q-.754 0-1.218-.318-.43-.296-.602-.872a.084.084 0 0 0-.099-.058l-1.195.294a.087.087 0 0 0-.063.1c.16.676.518 1.2 1.064 1.558.562.37 1.28.558 2.135.558.651 0 1.229-.11 1.721-.328.494-.218.885-.522 1.164-.9.279-.383.42-.822.42-1.306 0-.59-.19-1.083-.564-1.46zm-44.659 2.136c-.71 0-.989-.18-.989-.625 0-.54.71-.807.71-.807.471.177 1.025.264 1.623.264 2.016 0 3.452-1.056 3.452-2.742 0-.363-.121-.982-.618-1.582h1.528a.084.084 0 0 0 .083-.083v-1.01a.084.084 0 0 0-.083-.084H28.12c-1.996 0-3.414 1.056-3.414 2.76 0 .888.392 1.61 1.064 2.093-.728.315-1.231.815-1.231 1.518 0 .555.276 1.048.887 1.316-.265.068-1.484.48-1.484 1.779 0 1.501 1.828 2.186 4.03 2.186 2.426 0 4.702-.78 4.702-2.797 0-1.26-.933-2.186-2.705-2.186zm1.35-5.49c1.244 0 2.008.562 2.008 1.59s-.762 1.556-2.007 1.556-1.988-.563-1.988-1.556.763-1.59 1.988-1.59Zm-.152 9.28c-1.536 0-2.599-.418-2.599-1.377 0-.82.74-1.081 1.593-1.081h2.674c.968 0 1.593.244 1.593.941 0 1.099-1.366 1.517-3.261 1.517m20.01-3.79c-.709 0-.988-.18-.988-.625 0-.54.71-.807.71-.807.47.177 1.024.264 1.623.264 2.015 0 3.452-1.056 3.452-2.742 0-.363-.122-.982-.62-1.582h1.529a.084.084 0 0 0 .084-.083v-1.01a.084.084 0 0 0-.084-.084h-4.361c-1.997 0-3.415 1.056-3.415 2.76 0 .888.392 1.61 1.064 2.093-.727.315-1.23.815-1.23 1.518 0 .555.275 1.048.886 1.316-.265.068-1.484.48-1.484 1.779 0 1.501 1.828 2.186 4.03 2.186 2.426 0 4.702-.78 4.702-2.797 0-1.26-.932-2.186-2.705-2.186zm1.35-5.49c1.245 0 2.009.562 2.009 1.59s-.763 1.556-2.008 1.556-1.987-.563-1.987-1.556.762-1.59 1.987-1.59Zm-.152 9.28c-1.536 0-2.598-.418-2.598-1.377 0-.82.74-1.081 1.592-1.081h2.674c.968 0 1.593.244 1.593.941 0 1.099-1.365 1.517-3.261 1.517"></path></g></g><defs><clippath id="gorgias_svg__a"><path fill="currentColor" d="M0 .288h72v19H0z"></path></clippath></defs></svg>