<svg xmlns="http://www.w3.org/2000/svg" fill="none" viewBox="0 0 74 52" class="w-5/12"><mask id="salesforce_svg__a" width="74" height="52" x="0" y="0" maskunits="userSpaceOnUse" style="mask-type:luminance"><path fill="#fff" d="M.049.61H73.28v50.81H.05z"></path></mask><g mask="url(#salesforce_svg__a)"><path fill="currentColor" fill-rule="evenodd" d="M30.457 6.172c2.364-2.444 5.654-3.958 9.288-3.958 4.847 0 9.047 2.675 11.308 6.66a15.7 15.7 0 0 1 6.381-1.351c8.724 0 15.804 7.086 15.804 15.831s-7.08 15.831-15.804 15.831a16 16 0 0 1-3.123-.307c-1.979 3.503-5.762 5.883-10.07 5.883a11.56 11.56 0 0 1-5.061-1.155 13.18 13.18 0 0 1-12.116 7.969c-5.68 0-10.5-3.557-12.358-8.558-.826.174-1.67.26-2.514.26-6.758 0-12.224-5.508-12.224-12.274 0-4.546 2.461-8.504 6.112-10.643a14 14 0 0 1-1.171-5.616c0-7.81 6.38-14.12 14.242-14.12 4.604 0 8.724 2.18 11.308 5.562" clip-rule="evenodd"></path></g><path fill="#1E1E1E" fill-rule="evenodd" d="M10.64 27.031c-.046.12.017.144.031.166.138.099.278.17.418.25.748.394 1.454.509 2.191.509 1.503 0 2.437-.794 2.437-2.073v-.025c0-1.182-1.056-1.612-2.04-1.92l-.13-.041c-.746-.24-1.39-.45-1.39-.936v-.025c0-.417.378-.725.96-.725a4.4 4.4 0 0 1 1.908.484s.146.094.2-.046c.028-.076.28-.744.306-.819.029-.078-.021-.137-.073-.167-.565-.343-1.346-.575-2.154-.575h-.15c-1.376 0-2.337.826-2.337 2.008v.026c0 1.246 1.061 1.652 2.052 1.933l.16.05c.72.22 1.345.411 1.345.914v.025c0 .463-.406.808-1.058.808a3.56 3.56 0 0 1-1.935-.554c-.106-.061-.167-.105-.248-.154-.043-.026-.15-.073-.198.067l-.296.818m21.997 0c-.046.12.016.144.031.165.138.1.278.171.418.252.748.393 1.454.508 2.191.508 1.503 0 2.437-.795 2.437-2.073v-.025c0-1.182-1.053-1.613-2.04-1.92l-.13-.042c-.745-.24-1.389-.449-1.389-.935v-.025c0-.418.377-.725.958-.725.647 0 1.414.214 1.91.484 0 0 .145.093.199-.046.028-.076.28-.744.304-.819.029-.078-.022-.137-.073-.168-.565-.342-1.346-.575-2.154-.575l-.15.001c-1.376 0-2.337.826-2.337 2.008v.026c0 1.246 1.06 1.652 2.052 1.933l.159.05c.724.22 1.346.411 1.346.914v.025c0 .463-.407.808-1.058.808a3.56 3.56 0 0 1-1.936-.554c-.106-.061-.168-.103-.248-.155-.027-.017-.154-.066-.197.068l-.297.818m15.024-2.503c0 .722-.136 1.292-.401 1.695-.265.399-.665.594-1.223.594-.557 0-.955-.194-1.216-.59-.264-.402-.396-.974-.396-1.696s.133-1.29.395-1.688c.261-.396.657-.585 1.217-.585s.959.191 1.223.585c.267.399.4.966.4 1.688m1.256-1.34a3 3 0 0 0-.571-1.083 2.7 2.7 0 0 0-.964-.728c-.382-.177-.835-.267-1.346-.267q-.768 0-1.346.267a2.8 2.8 0 0 0-.964.728 3 3 0 0 0-.571 1.083 4.7 4.7 0 0 0-.185 1.34c0 .478.062.928.185 1.34.123.414.315.778.57 1.082.257.305.582.549.965.723.385.173.837.261 1.346.261s.96-.088 1.343-.261.708-.418.964-.723c.256-.304.447-.668.57-1.083q.185-.618.185-1.34c0-.475-.062-.927-.184-1.34M59.22 26.61c-.041-.121-.16-.076-.16-.076-.183.07-.378.134-.585.166a4.5 4.5 0 0 1-.686.049c-.606 0-1.09-.18-1.435-.535-.348-.356-.541-.928-.539-1.703.002-.706.174-1.236.482-1.642.304-.401.773-.61 1.392-.61.517 0 .913.06 1.327.188 0 0 .099.043.146-.086.11-.302.191-.518.31-.85.033-.095-.05-.135-.079-.147a5 5 0 0 0-.837-.21 6.4 6.4 0 0 0-.943-.062c-.527 0-.996.09-1.397.267q-.603.267-1.01.727a3.1 3.1 0 0 0-.61 1.083 4.3 4.3 0 0 0-.205 1.343c0 1.032.28 1.869.834 2.481.555.615 1.39.926 2.477.926.644 0 1.303-.13 1.777-.316 0 0 .09-.043.051-.148zm2.195-2.781c.06-.402.17-.736.345-.995.26-.396.657-.613 1.214-.613s.926.218 1.19.613c.175.26.251.607.28.995h-3.042zm4.227-.883a2.6 2.6 0 0 0-.544-.987q-.41-.439-.808-.61a3.1 3.1 0 0 0-1.217-.245c-.53 0-1.012.09-1.402.27-.39.183-.72.431-.977.741a3 3 0 0 0-.577 1.097 4.7 4.7 0 0 0-.186 1.345c0 .487.065.939.193 1.348.128.412.336.772.616 1.072q.421.454 1.069.703c.428.165.948.25 1.543.248 1.227-.004 1.873-.275 2.137-.422.047-.026.092-.072.036-.202l-.277-.773c-.042-.115-.16-.073-.16-.073-.304.113-.735.315-1.744.313-.66-.002-1.147-.195-1.454-.498-.313-.31-.469-.762-.493-1.404l4.254.003s.112 0 .124-.11c.004-.044.145-.866-.127-1.815zm-38.232.883c.06-.402.171-.736.345-.995.26-.396.657-.613 1.214-.613.558 0 .926.218 1.19.613.175.26.252.607.28.995h-3.042zm4.227-.883a2.6 2.6 0 0 0-.543-.987q-.41-.439-.808-.61a3.1 3.1 0 0 0-1.217-.245c-.53 0-1.012.09-1.403.27-.39.183-.719.431-.977.741s-.453.677-.576 1.097a4.7 4.7 0 0 0-.186 1.345c0 .487.064.939.193 1.348.128.412.336.772.613 1.072q.422.454 1.07.703c.427.165.944.25 1.542.248 1.228-.004 1.874-.275 2.138-.422.047-.026.091-.072.036-.202l-.278-.773c-.042-.115-.16-.073-.16-.073-.304.113-.735.315-1.744.313-.657-.002-1.147-.195-1.454-.498-.313-.31-.469-.762-.493-1.404l4.254.003s.112 0 .123-.11c.005-.044.146-.866-.127-1.815zM18.23 26.583c-.166-.132-.19-.164-.245-.25q-.127-.195-.127-.548c0-.37.124-.637.38-.816-.003 0 .366-.316 1.233-.305q.579.01 1.152.098v1.917s-.538.115-1.146.152c-.864.051-1.247-.247-1.244-.247h-.003Zm1.691-2.968a10 10 0 0 0-.662-.019 4 4 0 0 0-1.045.133 2.7 2.7 0 0 0-.886.41 2 2 0 0 0-.616.695 2 2 0 0 0-.227.973c0 .374.065.698.194.963.127.262.318.49.555.66.236.17.528.297.864.372a5 5 0 0 0 1.126.114c.436 0 .87-.037 1.29-.107q.536-.092 1.068-.206c.142-.033.299-.075.299-.075.105-.027.097-.138.097-.138l-.003-3.851c0-.845-.227-1.474-.675-1.861-.447-.388-1.101-.583-1.95-.583a7 7 0 0 0-1.138.104s-.927.178-1.309.476c0 0-.084.051-.038.168l.301.802c.038.104.14.068.14.068s.032-.012.07-.035c.815-.44 1.85-.427 1.85-.427.457 0 .812.092 1.05.272.231.177.35.444.35 1.006v.178c-.364-.052-.7-.082-.7-.082zm34.193-2.174a.114.114 0 0 0-.063-.152 3.8 3.8 0 0 0-.711-.12c-.533-.034-.83.056-1.096.174-.263.118-.555.308-.716.527v-.513c0-.07-.051-.128-.123-.128h-1.088c-.07 0-.121.057-.121.128v6.284a.13.13 0 0 0 .129.128h1.114a.13.13 0 0 0 .129-.128v-3.155c0-.423.047-.843.14-1.107q.14-.395.372-.62a1.3 1.3 0 0 1 .525-.314q.28-.08.57-.08c.223 0 .467.057.467.057.081.01.127-.04.155-.114.073-.192.28-.77.32-.885" clip-rule="evenodd"></path><path fill="#1E1E1E" fill-rule="evenodd" d="M43.704 18.541a3.3 3.3 0 0 0-.997-.143c-.768 0-1.374.215-1.799.64-.422.424-.71 1.067-.853 1.914l-.052.286h-.964s-.118-.005-.143.123l-.158.877c-.011.084.025.136.138.136h.939l-.953 5.28q-.112.64-.254 1.04c-.093.26-.184.457-.296.6-.109.137-.211.238-.389.297a1.6 1.6 0 0 1-.5.072c-.102 0-.24-.017-.34-.037s-.154-.043-.23-.074c0 0-.11-.042-.153.068-.035.09-.285.773-.315.857s.012.15.066.168c.125.045.218.073.388.113.236.055.435.059.622.059.39 0 .747-.055 1.042-.16a1.96 1.96 0 0 0 .785-.545c.248-.271.403-.556.552-.943.147-.385.273-.862.373-1.418l.957-5.377h1.4s.117.004.142-.123l.158-.877c.01-.084-.025-.137-.139-.136h-1.358c.007-.03.069-.505.225-.952.066-.19.191-.344.297-.45a.9.9 0 0 1 .356-.22q.224-.068.456-.065c.128 0 .253.016.349.035.132.028.183.043.217.053.138.042.157.001.184-.065l.325-.886c.033-.095-.048-.135-.078-.147M24.73 27.665c0 .07-.05.128-.122.128h-1.126c-.072 0-.122-.058-.122-.128V18.66c0-.07.05-.127.122-.127h1.126c.071 0 .122.057.122.127z" clip-rule="evenodd"></path></svg>