<svg width="1181" height="281" viewBox="0 0 1181 281" fill="none" xmlns="http://www.w3.org/2000/svg">
<mask id="path-1-outside-1_2361_3778" maskUnits="userSpaceOnUse" x="1.94727" y="2.08508" width="1177" height="277" fill="black">
<rect fill="white" x="1.94727" y="2.08508" width="1177" height="277"/>
<path d="M3.94727 221.911V209.08H7.00232C14.9455 209.08 18.6115 207.857 21.3611 205.108C24.1106 202.358 25.3327 198.387 25.3327 190.749V39.2183C25.3327 31.5806 24.1106 27.609 21.3611 24.8595C18.6115 22.1099 14.9455 20.8879 7.00232 20.8879H3.94727V8.05666H88.5724C113.013 8.05666 127.677 14.1668 137.453 24.554C146.313 33.7191 152.118 45.6339 152.118 59.3817C152.118 75.5735 146.618 87.4882 136.537 96.3479C130.121 102.152 122.789 106.735 113.929 108.874C129.816 111.929 142.647 120.483 149.979 129.648C157.006 138.508 161.283 151.95 161.283 164.781C161.283 178.834 157.311 190.444 150.285 199.609C139.592 213.662 122.484 221.911 94.6825 221.911H3.94727ZM48.2456 104.597H80.6292C97.7376 104.597 107.819 100.319 114.54 92.9873C121.567 85.3496 124.928 75.879 124.928 66.1028C124.928 51.4385 120.956 41.0513 114.235 33.4136C107.514 25.776 97.7376 21.1934 80.6292 21.1934H48.2456V104.597ZM48.2456 208.774H89.1834C104.459 208.774 115.457 204.802 122.484 196.859C129.816 188.611 134.093 176.39 134.093 164.781C134.093 150.117 130.121 138.202 122.178 130.259C114.54 122.621 104.459 117.733 89.1834 117.733H48.2456V208.774ZM174.995 221.911V210.607H176.522C184.465 210.607 188.131 209.385 190.881 206.635C193.631 203.886 194.853 199.914 194.853 192.277V37.3852C194.853 30.0531 193.631 26.0815 190.881 23.332C188.131 20.5824 184.465 19.3604 176.522 19.3604H174.995V8.05666H216.238V192.277C216.238 199.914 217.46 203.886 220.21 206.635C222.959 209.385 226.625 210.607 234.568 210.607H236.096V221.911H174.995ZM359.618 221.911V189.833C352.897 209.996 335.483 224.966 312.265 224.966C298.211 224.966 285.686 220.383 276.826 210.913C268.577 202.358 263.384 190.444 263.384 170.891V98.7919C263.384 91.1542 262.162 87.1827 259.412 84.4331C256.663 81.6836 252.997 80.4615 245.053 80.4615H243.526V69.1578H284.769V165.087C284.769 183.417 288.13 191.055 293.018 196.554C298.211 202.664 306.155 206.635 316.847 206.635C329.984 206.635 339.76 200.831 346.787 191.971C353.813 183.417 358.091 171.808 358.091 150.728V98.7919C358.091 91.1542 356.869 87.1827 354.119 84.4331C351.369 81.6836 347.703 80.4615 339.76 80.4615H338.233V69.1578H379.476V192.582C379.476 199.914 380.698 203.886 383.448 206.635C386.197 209.385 389.863 210.607 397.806 210.607H399.334V221.911H359.618ZM528.252 162.337H538.945C536.196 195.026 515.727 224.966 479.372 224.966C438.434 224.966 412.16 193.499 412.16 147.062C412.16 99.7084 438.434 66.1028 477.233 66.1028C519.087 66.1028 538.945 99.7084 538.945 137.897H433.546C433.546 179.14 454.015 202.053 482.732 202.053C507.173 202.053 521.837 187.389 528.252 162.337ZM434.462 124.76H512.672C512.672 96.3479 499.84 79.2395 476.927 79.2395C455.848 79.2395 438.739 94.5148 434.462 124.76ZM551.924 276.902V265.598H553.452C561.395 265.598 565.061 264.376 567.811 261.627C570.56 258.877 571.782 254.905 571.782 247.268V98.4864C571.782 91.1542 570.56 87.1827 567.811 84.4331C565.061 81.6836 561.395 80.4615 553.452 80.4615H551.924V69.1578H591.64V103.68C600.5 80.4615 621.274 66.1028 644.493 66.1028C682.681 66.1028 706.205 99.7084 706.205 144.007C706.205 189.833 680.542 224.966 638.994 224.966C617.914 224.966 601.722 216.412 593.168 208.163V247.268C593.168 254.905 594.39 258.877 597.139 261.627C599.889 264.376 603.555 265.598 613.026 265.598H616.081V276.902H551.924ZM607.832 196.554C615.47 206.024 626.162 211.218 638.994 211.218C669.85 211.218 681.764 181.278 681.764 151.033C681.764 112.234 664.962 84.4331 636.855 84.4331C624.635 84.4331 614.859 89.6267 607.526 98.1809C598.361 109.179 593.168 125.371 593.168 142.479V145.84C593.168 166.003 598.056 184.639 607.832 196.554ZM721.382 221.911V210.607H722.91C730.853 210.607 734.519 209.385 737.269 206.635C740.018 203.886 741.24 199.914 741.24 192.277V98.4864C741.24 91.1542 740.018 87.1827 737.269 84.4331C734.519 81.6836 730.853 80.4615 722.91 80.4615H721.382V69.1578H761.098V104.291C767.514 80.7671 783.094 66.1028 805.091 66.1028C826.782 66.1028 843.585 82.6001 843.585 105.819C843.585 121.094 837.169 127.204 828.92 127.204C822.505 127.204 817.006 122.316 817.006 115.289C817.006 110.707 817.922 106.735 817.922 102.763C817.922 91.4598 811.201 84.4331 798.675 84.4331C782.483 84.4331 771.485 97.2644 766.903 112.845C763.848 122.927 762.626 133.925 762.626 150.117V192.277C762.626 199.914 763.848 203.886 766.597 206.635C769.347 209.385 773.013 210.607 782.483 210.607H785.538V221.911H721.382ZM863.956 20.2769C863.956 11.4172 870.982 4.08508 879.842 4.08508C888.702 4.08508 896.034 11.4172 896.034 20.2769C896.034 29.1366 888.702 36.1632 879.842 36.1632C870.982 36.1632 863.956 29.1366 863.956 20.2769ZM850.208 221.911V210.607H851.735C859.679 210.607 863.345 209.385 866.094 206.635C868.844 203.886 870.066 199.914 870.066 192.277V98.7919C870.066 91.1542 868.844 87.1827 866.094 84.4331C863.345 81.6836 859.679 80.4615 851.735 80.4615H850.208V69.1578H891.451V192.277C891.451 199.914 892.673 203.886 895.423 206.635C898.172 209.385 901.838 210.607 909.781 210.607H911.309V221.911H850.208ZM922.348 221.911V210.607H923.875C931.818 210.607 935.485 209.385 938.234 206.635C940.984 203.886 942.206 199.914 942.206 192.277V98.4864C942.206 91.1542 940.984 87.1827 938.234 84.4331C935.485 81.6836 931.818 80.4615 923.875 80.4615H922.348V69.1578H962.064V101.236C968.785 81.0726 987.726 66.1028 1012.47 66.1028C1025 66.1028 1038.13 70.0744 1046.99 79.545C1055.24 88.0992 1059.83 100.625 1059.83 120.177V192.277C1059.83 199.914 1061.05 203.886 1063.8 206.635C1066.55 209.385 1070.21 210.607 1078.16 210.607H1079.68V221.911H1020.11V210.607H1021.64C1028.05 210.607 1031.72 209.385 1034.47 206.635C1037.22 203.886 1038.44 199.914 1038.44 192.277V125.982C1038.44 107.652 1035.69 99.4029 1030.8 93.9038C1025.61 87.7937 1017.05 84.4331 1007.89 84.4331C993.225 84.4331 981.921 90.2377 974.895 99.0974C967.868 107.652 963.591 119.261 963.591 140.341V192.277C963.591 199.914 964.813 203.886 967.563 206.635C970.312 209.385 973.978 210.607 980.394 210.607H981.921V221.911H922.348ZM1170 197.776L1176.42 204.497C1168.78 217.023 1156.56 224.966 1141.89 224.966C1133.65 224.966 1126.62 222.216 1121.43 218.245C1114.4 212.746 1110.73 204.497 1110.73 186.778V103.374C1110.73 93.9038 1109.21 91.4598 1107.37 89.6267C1105.23 87.4882 1102.79 85.9607 1093.32 85.9607H1081.71V75.268C1108.9 69.4633 1118.68 55.1046 1121.43 27.9145H1132.12V69.1578H1173.36V85.9607H1149.53C1140.06 85.9607 1137.62 87.4882 1135.48 89.6267C1133.65 91.4598 1132.12 93.9038 1132.12 103.374V182.195C1132.12 195.332 1133.95 199.303 1137.31 202.358C1140.37 205.108 1144.95 206.635 1148.92 206.635C1158.39 206.635 1164.81 202.358 1170 197.776Z"/>
</mask>
<path d="M3.94727 221.911V209.08H7.00232C14.9455 209.08 18.6115 207.857 21.3611 205.108C24.1106 202.358 25.3327 198.387 25.3327 190.749V39.2183C25.3327 31.5806 24.1106 27.609 21.3611 24.8595C18.6115 22.1099 14.9455 20.8879 7.00232 20.8879H3.94727V8.05666H88.5724C113.013 8.05666 127.677 14.1668 137.453 24.554C146.313 33.7191 152.118 45.6339 152.118 59.3817C152.118 75.5735 146.618 87.4882 136.537 96.3479C130.121 102.152 122.789 106.735 113.929 108.874C129.816 111.929 142.647 120.483 149.979 129.648C157.006 138.508 161.283 151.95 161.283 164.781C161.283 178.834 157.311 190.444 150.285 199.609C139.592 213.662 122.484 221.911 94.6825 221.911H3.94727ZM48.2456 104.597H80.6292C97.7376 104.597 107.819 100.319 114.54 92.9873C121.567 85.3496 124.928 75.879 124.928 66.1028C124.928 51.4385 120.956 41.0513 114.235 33.4136C107.514 25.776 97.7376 21.1934 80.6292 21.1934H48.2456V104.597ZM48.2456 208.774H89.1834C104.459 208.774 115.457 204.802 122.484 196.859C129.816 188.611 134.093 176.39 134.093 164.781C134.093 150.117 130.121 138.202 122.178 130.259C114.54 122.621 104.459 117.733 89.1834 117.733H48.2456V208.774ZM174.995 221.911V210.607H176.522C184.465 210.607 188.131 209.385 190.881 206.635C193.631 203.886 194.853 199.914 194.853 192.277V37.3852C194.853 30.0531 193.631 26.0815 190.881 23.332C188.131 20.5824 184.465 19.3604 176.522 19.3604H174.995V8.05666H216.238V192.277C216.238 199.914 217.46 203.886 220.21 206.635C222.959 209.385 226.625 210.607 234.568 210.607H236.096V221.911H174.995ZM359.618 221.911V189.833C352.897 209.996 335.483 224.966 312.265 224.966C298.211 224.966 285.686 220.383 276.826 210.913C268.577 202.358 263.384 190.444 263.384 170.891V98.7919C263.384 91.1542 262.162 87.1827 259.412 84.4331C256.663 81.6836 252.997 80.4615 245.053 80.4615H243.526V69.1578H284.769V165.087C284.769 183.417 288.13 191.055 293.018 196.554C298.211 202.664 306.155 206.635 316.847 206.635C329.984 206.635 339.76 200.831 346.787 191.971C353.813 183.417 358.091 171.808 358.091 150.728V98.7919C358.091 91.1542 356.869 87.1827 354.119 84.4331C351.369 81.6836 347.703 80.4615 339.76 80.4615H338.233V69.1578H379.476V192.582C379.476 199.914 380.698 203.886 383.448 206.635C386.197 209.385 389.863 210.607 397.806 210.607H399.334V221.911H359.618ZM528.252 162.337H538.945C536.196 195.026 515.727 224.966 479.372 224.966C438.434 224.966 412.16 193.499 412.16 147.062C412.16 99.7084 438.434 66.1028 477.233 66.1028C519.087 66.1028 538.945 99.7084 538.945 137.897H433.546C433.546 179.14 454.015 202.053 482.732 202.053C507.173 202.053 521.837 187.389 528.252 162.337ZM434.462 124.76H512.672C512.672 96.3479 499.84 79.2395 476.927 79.2395C455.848 79.2395 438.739 94.5148 434.462 124.76ZM551.924 276.902V265.598H553.452C561.395 265.598 565.061 264.376 567.811 261.627C570.56 258.877 571.782 254.905 571.782 247.268V98.4864C571.782 91.1542 570.56 87.1827 567.811 84.4331C565.061 81.6836 561.395 80.4615 553.452 80.4615H551.924V69.1578H591.64V103.68C600.5 80.4615 621.274 66.1028 644.493 66.1028C682.681 66.1028 706.205 99.7084 706.205 144.007C706.205 189.833 680.542 224.966 638.994 224.966C617.914 224.966 601.722 216.412 593.168 208.163V247.268C593.168 254.905 594.39 258.877 597.139 261.627C599.889 264.376 603.555 265.598 613.026 265.598H616.081V276.902H551.924ZM607.832 196.554C615.47 206.024 626.162 211.218 638.994 211.218C669.85 211.218 681.764 181.278 681.764 151.033C681.764 112.234 664.962 84.4331 636.855 84.4331C624.635 84.4331 614.859 89.6267 607.526 98.1809C598.361 109.179 593.168 125.371 593.168 142.479V145.84C593.168 166.003 598.056 184.639 607.832 196.554ZM721.382 221.911V210.607H722.91C730.853 210.607 734.519 209.385 737.269 206.635C740.018 203.886 741.24 199.914 741.24 192.277V98.4864C741.24 91.1542 740.018 87.1827 737.269 84.4331C734.519 81.6836 730.853 80.4615 722.91 80.4615H721.382V69.1578H761.098V104.291C767.514 80.7671 783.094 66.1028 805.091 66.1028C826.782 66.1028 843.585 82.6001 843.585 105.819C843.585 121.094 837.169 127.204 828.92 127.204C822.505 127.204 817.006 122.316 817.006 115.289C817.006 110.707 817.922 106.735 817.922 102.763C817.922 91.4598 811.201 84.4331 798.675 84.4331C782.483 84.4331 771.485 97.2644 766.903 112.845C763.848 122.927 762.626 133.925 762.626 150.117V192.277C762.626 199.914 763.848 203.886 766.597 206.635C769.347 209.385 773.013 210.607 782.483 210.607H785.538V221.911H721.382ZM863.956 20.2769C863.956 11.4172 870.982 4.08508 879.842 4.08508C888.702 4.08508 896.034 11.4172 896.034 20.2769C896.034 29.1366 888.702 36.1632 879.842 36.1632C870.982 36.1632 863.956 29.1366 863.956 20.2769ZM850.208 221.911V210.607H851.735C859.679 210.607 863.345 209.385 866.094 206.635C868.844 203.886 870.066 199.914 870.066 192.277V98.7919C870.066 91.1542 868.844 87.1827 866.094 84.4331C863.345 81.6836 859.679 80.4615 851.735 80.4615H850.208V69.1578H891.451V192.277C891.451 199.914 892.673 203.886 895.423 206.635C898.172 209.385 901.838 210.607 909.781 210.607H911.309V221.911H850.208ZM922.348 221.911V210.607H923.875C931.818 210.607 935.485 209.385 938.234 206.635C940.984 203.886 942.206 199.914 942.206 192.277V98.4864C942.206 91.1542 940.984 87.1827 938.234 84.4331C935.485 81.6836 931.818 80.4615 923.875 80.4615H922.348V69.1578H962.064V101.236C968.785 81.0726 987.726 66.1028 1012.47 66.1028C1025 66.1028 1038.13 70.0744 1046.99 79.545C1055.24 88.0992 1059.83 100.625 1059.83 120.177V192.277C1059.83 199.914 1061.05 203.886 1063.8 206.635C1066.55 209.385 1070.21 210.607 1078.16 210.607H1079.68V221.911H1020.11V210.607H1021.64C1028.05 210.607 1031.72 209.385 1034.47 206.635C1037.22 203.886 1038.44 199.914 1038.44 192.277V125.982C1038.44 107.652 1035.69 99.4029 1030.8 93.9038C1025.61 87.7937 1017.05 84.4331 1007.89 84.4331C993.225 84.4331 981.921 90.2377 974.895 99.0974C967.868 107.652 963.591 119.261 963.591 140.341V192.277C963.591 199.914 964.813 203.886 967.563 206.635C970.312 209.385 973.978 210.607 980.394 210.607H981.921V221.911H922.348ZM1170 197.776L1176.42 204.497C1168.78 217.023 1156.56 224.966 1141.89 224.966C1133.65 224.966 1126.62 222.216 1121.43 218.245C1114.4 212.746 1110.73 204.497 1110.73 186.778V103.374C1110.73 93.9038 1109.21 91.4598 1107.37 89.6267C1105.23 87.4882 1102.79 85.9607 1093.32 85.9607H1081.71V75.268C1108.9 69.4633 1118.68 55.1046 1121.43 27.9145H1132.12V69.1578H1173.36V85.9607H1149.53C1140.06 85.9607 1137.62 87.4882 1135.48 89.6267C1133.65 91.4598 1132.12 93.9038 1132.12 103.374V182.195C1132.12 195.332 1133.95 199.303 1137.31 202.358C1140.37 205.108 1144.95 206.635 1148.92 206.635C1158.39 206.635 1164.81 202.358 1170 197.776Z" stroke="#0044E5" stroke-width="3.5" mask="url(#path-1-outside-1_2361_3778)"/>
<rect x="0.575706" y="4.55166" width="5.8282" height="5.8282" fill="#0044E5" stroke="#0044E5" stroke-width="0.534225"/>
<rect x="84.8413" y="4.55166" width="5.8282" height="5.8282" fill="#0044E5" stroke="#0044E5" stroke-width="0.534225"/>
<rect x="0.267112" y="-0.267112" width="5.8282" height="5.8282" transform="matrix(1 8.74228e-08 8.74228e-08 -1 0.308594 225.419)" fill="#0044E5" stroke="#0044E5" stroke-width="0.534225"/>
<rect x="0.267112" y="-0.267112" width="5.8282" height="5.8282" transform="matrix(1 8.74228e-08 8.74228e-08 -1 84.5742 225.419)" fill="#0044E5" stroke="#0044E5" stroke-width="0.534225"/>
<rect x="0.575706" y="18.275" width="5.8282" height="5.8282" fill="#0044E5" stroke="#0044E5" stroke-width="0.534225"/>
<rect x="171.759" y="18.275" width="5.8282" height="5.8282" fill="#0044E5" stroke="#0044E5" stroke-width="0.534225"/>
<rect x="334.855" y="78.0108" width="5.8282" height="5.8282" fill="#0044E5" stroke="#0044E5" stroke-width="0.534225"/>
<rect x="548.603" y="78.1211" width="5.8282" height="5.8282" fill="#0044E5" stroke="#0044E5" stroke-width="0.534225"/>
<rect x="718.13" y="78.0109" width="5.8282" height="5.8282" fill="#0044E5" stroke="#0044E5" stroke-width="0.534225"/>
<rect x="846.814" y="78.0108" width="5.8282" height="5.8282" fill="#0044E5" stroke="#0044E5" stroke-width="0.534225"/>
<rect x="919.082" y="78.0108" width="5.8282" height="5.8282" fill="#0044E5" stroke="#0044E5" stroke-width="0.534225"/>
<rect x="240.179" y="78.3606" width="5.8282" height="5.8282" fill="#0044E5" stroke="#0044E5" stroke-width="0.534225"/>
<rect x="0.267112" y="-0.267112" width="5.8282" height="5.8282" transform="matrix(1 8.74228e-08 8.74228e-08 -1 0.308594 211.696)" fill="#0044E5" stroke="#0044E5" stroke-width="0.534225"/>
<rect x="21.9234" y="38.3644" width="5.8282" height="5.8282" fill="#0044E5" stroke="#0044E5" stroke-width="0.534225"/>
<rect x="191.318" y="38.3645" width="5.8282" height="5.8282" fill="#0044E5" stroke="#0044E5" stroke-width="0.534225"/>
<rect x="354.412" y="99.3587" width="5.8282" height="5.8282" fill="#0044E5" stroke="#0044E5" stroke-width="0.534225"/>
<rect x="568.328" y="99.3587" width="5.8282" height="5.8282" fill="#0044E5" stroke="#0044E5" stroke-width="0.534225"/>
<rect x="737.853" y="99.3587" width="5.8282" height="5.8282" fill="#0044E5" stroke="#0044E5" stroke-width="0.534225"/>
<rect x="866.539" y="99.3587" width="5.8282" height="5.8282" fill="#0044E5" stroke="#0044E5" stroke-width="0.534225"/>
<rect x="938.806" y="99.3587" width="5.8282" height="5.8282" fill="#0044E5" stroke="#0044E5" stroke-width="0.534225"/>
<rect x="260.003" y="99.3587" width="5.8282" height="5.8282" fill="#0044E5" stroke="#0044E5" stroke-width="0.534225"/>
<rect x="0.267112" y="-0.267112" width="5.8282" height="5.8282" transform="matrix(1 8.74228e-08 8.74228e-08 -1 21.6563 188.957)" fill="#0044E5" stroke="#0044E5" stroke-width="0.534225"/>
<rect x="0.267112" y="-0.267112" width="5.8282" height="5.8282" transform="matrix(1 8.74228e-08 8.74228e-08 -1 191.051 188.957)" fill="#0044E5" stroke="#0044E5" stroke-width="0.534225"/>
<rect x="0.267112" y="-0.267112" width="5.8282" height="5.8282" transform="matrix(1 8.74228e-08 8.74228e-08 -1 737.422 188.957)" fill="#0044E5" stroke="#0044E5" stroke-width="0.534225"/>
<rect x="0.267112" y="-0.267112" width="5.8282" height="5.8282" transform="matrix(1 8.74228e-08 8.74228e-08 -1 866.439 188.957)" fill="#0044E5" stroke="#0044E5" stroke-width="0.534225"/>
<rect x="0.267112" y="-0.267112" width="5.8282" height="5.8282" transform="matrix(1 8.74228e-08 8.74228e-08 -1 938.373 188.957)" fill="#0044E5" stroke="#0044E5" stroke-width="0.534225"/>
<rect x="0.267112" y="-0.267112" width="5.8282" height="5.8282" transform="matrix(1 8.74228e-08 8.74228e-08 -1 1034.77 188.957)" fill="#0044E5" stroke="#0044E5" stroke-width="0.534225"/>
<rect x="0.267112" y="-0.267112" width="5.8282" height="5.8282" transform="matrix(1 8.74228e-08 8.74228e-08 -1 568.061 243.985)" fill="#0044E5" stroke="#0044E5" stroke-width="0.534225"/>
<rect x="0.267112" y="-0.267112" width="5.8282" height="5.8282" transform="matrix(1 8.74228e-08 8.74228e-08 -1 213.525 188.957)" fill="#0044E5" stroke="#0044E5" stroke-width="0.534225"/>
<rect x="0.267112" y="-0.267112" width="5.8282" height="5.8282" transform="matrix(1 8.74228e-08 8.74228e-08 -1 759.896 188.957)" fill="#0044E5" stroke="#0044E5" stroke-width="0.534225"/>
<rect x="0.267112" y="-0.267112" width="5.8282" height="5.8282" transform="matrix(1 8.74228e-08 8.74228e-08 -1 888.848 188.957)" fill="#0044E5" stroke="#0044E5" stroke-width="0.534225"/>
<rect x="0.267112" y="-0.267112" width="5.8282" height="5.8282" transform="matrix(1 8.74228e-08 8.74228e-08 -1 960.947 188.957)" fill="#0044E5" stroke="#0044E5" stroke-width="0.534225"/>
<rect x="0.267112" y="-0.267112" width="5.8282" height="5.8282" transform="matrix(1 8.74228e-08 8.74228e-08 -1 1057.35 188.957)" fill="#0044E5" stroke="#0044E5" stroke-width="0.534225"/>
<rect x="0.267112" y="-0.267112" width="5.8282" height="5.8282" transform="matrix(1 8.74228e-08 8.74228e-08 -1 1107.17 188.957)" fill="#0044E5" stroke="#0044E5" stroke-width="0.534225"/>
<rect x="0.267112" y="-0.267112" width="5.8282" height="5.8282" transform="matrix(1 8.74228e-08 8.74228e-08 -1 759.896 138.899)" fill="#0044E5" stroke="#0044E5" stroke-width="0.534225"/>
<rect x="0.267112" y="-0.267112" width="5.8282" height="5.8282" transform="matrix(1 8.74228e-08 8.74228e-08 -1 960.947 138.899)" fill="#0044E5" stroke="#0044E5" stroke-width="0.534225"/>
<rect x="0.267112" y="-0.267112" width="5.8282" height="5.8282" transform="matrix(1 8.74228e-08 8.74228e-08 -1 1034.77 126.037)" fill="#0044E5" stroke="#0044E5" stroke-width="0.534225"/>
<rect x="0.267112" y="-0.267112" width="5.8282" height="5.8282" transform="matrix(1 8.74228e-08 8.74228e-08 -1 1057.35 120.6)" fill="#0044E5" stroke="#0044E5" stroke-width="0.534225"/>
<rect x="0.267112" y="-0.267112" width="5.8282" height="5.8282" transform="matrix(1 8.74228e-08 8.74228e-08 -1 590.568 243.985)" fill="#0044E5" stroke="#0044E5" stroke-width="0.534225"/>
<rect x="0.267112" y="-0.267112" width="5.8282" height="5.8282" transform="matrix(1 8.74228e-08 8.74228e-08 -1 590.568 213.052)" fill="#0044E5" stroke="#0044E5" stroke-width="0.534225"/>
<rect x="0.267112" y="-0.267112" width="5.8282" height="5.8282" transform="matrix(1 8.74228e-08 8.74228e-08 -1 376.688 188.957)" fill="#0044E5" stroke="#0044E5" stroke-width="0.534225"/>
<rect x="0.267112" y="-0.267112" width="5.8282" height="5.8282" transform="matrix(1 8.74228e-08 8.74228e-08 -1 213.525 10.1127)" fill="#0044E5" stroke="#0044E5" stroke-width="0.534225"/>
<rect x="0.267112" y="-0.267112" width="5.8282" height="5.8282" transform="matrix(1 8.74228e-08 8.74228e-08 -1 376.621 70.3878)" fill="#0044E5" stroke="#0044E5" stroke-width="0.534225"/>
<rect x="0.267112" y="-0.267112" width="5.8282" height="5.8282" transform="matrix(1 8.74228e-08 8.74228e-08 -1 589.381 70.7834)" fill="#0044E5" stroke="#0044E5" stroke-width="0.534225"/>
<rect x="0.267112" y="-0.267112" width="5.8282" height="5.8282" transform="matrix(1 8.74228e-08 8.74228e-08 -1 758.238 70.3878)" fill="#0044E5" stroke="#0044E5" stroke-width="0.534225"/>
<rect x="0.267112" y="-0.267112" width="5.8282" height="5.8282" transform="matrix(1 8.74228e-08 8.74228e-08 -1 888.646 70.3878)" fill="#0044E5" stroke="#0044E5" stroke-width="0.534225"/>
<rect x="0.267112" y="-0.267112" width="5.8282" height="5.8282" transform="matrix(1 8.74228e-08 8.74228e-08 -1 959.588 70.3878)" fill="#0044E5" stroke="#0044E5" stroke-width="0.534225"/>
<rect x="0.267112" y="-0.267112" width="5.8282" height="5.8282" transform="matrix(1 8.74228e-08 8.74228e-08 -1 1129.31 29.3537)" fill="#0044E5" stroke="#0044E5" stroke-width="0.534225"/>
<rect x="0.267112" y="-0.267112" width="5.8282" height="5.8282" transform="matrix(1 8.74228e-08 8.74228e-08 -1 1117.78 29.3536)" fill="#0044E5" stroke="#0044E5" stroke-width="0.534225"/>
<rect x="0.267112" y="-0.267112" width="5.8282" height="5.8282" transform="matrix(1 8.74228e-08 8.74228e-08 -1 1078.13 77.5692)" fill="#0044E5" stroke="#0044E5" stroke-width="0.534225"/>
<rect x="0.267112" y="-0.267112" width="5.8282" height="5.8282" transform="matrix(1 8.74228e-08 8.74228e-08 -1 1130.29 70.8067)" fill="#0044E5" stroke="#0044E5" stroke-width="0.534225"/>
<rect x="0.267112" y="-0.267112" width="5.8282" height="5.8282" transform="matrix(1 8.74228e-08 8.74228e-08 -1 1170.49 70.8067)" fill="#0044E5" stroke="#0044E5" stroke-width="0.534225"/>
<rect x="0.267112" y="-0.267112" width="5.8282" height="5.8282" transform="matrix(1 8.74228e-08 8.74228e-08 -1 1078.13 88.9066)" fill="#0044E5" stroke="#0044E5" stroke-width="0.534225"/>
<rect x="0.267112" y="-0.267112" width="5.8282" height="5.8282" transform="matrix(1 8.74228e-08 8.74228e-08 -1 1170.49 88.9063)" fill="#0044E5" stroke="#0044E5" stroke-width="0.534225"/>
<rect x="0.267112" y="-0.267112" width="5.8282" height="5.8282" transform="matrix(1 8.74228e-08 8.74228e-08 -1 1146.75 88.9064)" fill="#0044E5" stroke="#0044E5" stroke-width="0.534225"/>
<rect x="0.267112" y="-0.267112" width="5.8282" height="5.8282" transform="matrix(1 8.74228e-08 8.74228e-08 -1 1129.31 108.109)" fill="#0044E5" stroke="#0044E5" stroke-width="0.534225"/>
<rect x="0.267112" y="-0.267112" width="5.8282" height="5.8282" transform="matrix(1 8.74228e-08 8.74228e-08 -1 1107.17 108.109)" fill="#0044E5" stroke="#0044E5" stroke-width="0.534225"/>
<rect x="0.267112" y="-0.267112" width="5.8282" height="5.8282" transform="matrix(1 8.74228e-08 8.74228e-08 -1 959.588 100.68)" fill="#0044E5" stroke="#0044E5" stroke-width="0.534225"/>
<rect x="0.267112" y="-0.267112" width="5.8282" height="5.8282" transform="matrix(1 8.74228e-08 8.74228e-08 -1 876.781 39.2793)" fill="#0044E5" stroke="#0044E5" stroke-width="0.534225"/>
<rect x="0.267112" y="-0.267112" width="5.8282" height="5.8282" transform="matrix(1 8.74228e-08 8.74228e-08 -1 876.781 6.32832)" fill="#0044E5" stroke="#0044E5" stroke-width="0.534225"/>
<rect x="-0.267112" y="-0.267112" width="5.8282" height="5.8282" transform="matrix(4.37114e-08 -1 -1 -4.37114e-08 899.084 20.5907)" fill="#0044E5" stroke="#0044E5" stroke-width="0.534225"/>
<rect x="-0.267112" y="-0.267112" width="5.8282" height="5.8282" transform="matrix(4.37114e-08 -1 -1 -4.37114e-08 866.135 20.5907)" fill="#0044E5" stroke="#0044E5" stroke-width="0.534225"/>
<rect x="0.267112" y="-0.267112" width="5.8282" height="5.8282" transform="matrix(1 8.74228e-08 8.74228e-08 -1 589.381 103.351)" fill="#0044E5" stroke="#0044E5" stroke-width="0.534225"/>
<rect x="0.267112" y="-0.267112" width="5.8282" height="5.8282" transform="matrix(1 8.74228e-08 8.74228e-08 -1 758.238 103.675)" fill="#0044E5" stroke="#0044E5" stroke-width="0.534225"/>
<rect x="0.267112" y="-0.267112" width="5.8282" height="5.8282" transform="matrix(1 8.74228e-08 8.74228e-08 -1 281.947 70.3878)" fill="#0044E5" stroke="#0044E5" stroke-width="0.534225"/>
<rect x="0.267112" y="-0.267112" width="5.8282" height="5.8282" transform="matrix(1 8.74228e-08 8.74228e-08 -1 171.492 10.1127)" fill="#0044E5" stroke="#0044E5" stroke-width="0.534225"/>
<rect x="0.267112" y="-0.267112" width="5.8282" height="5.8282" transform="matrix(1 8.74228e-08 8.74228e-08 -1 334.588 70.3878)" fill="#0044E5" stroke="#0044E5" stroke-width="0.534225"/>
<rect x="0.267112" y="-0.267112" width="5.8282" height="5.8282" transform="matrix(1 8.74228e-08 8.74228e-08 -1 548.336 70.3878)" fill="#0044E5" stroke="#0044E5" stroke-width="0.534225"/>
<rect x="0.267112" y="-0.267112" width="5.8282" height="5.8282" transform="matrix(1 8.74228e-08 8.74228e-08 -1 717.863 70.3878)" fill="#0044E5" stroke="#0044E5" stroke-width="0.534225"/>
<rect x="0.267112" y="-0.267112" width="5.8282" height="5.8282" transform="matrix(1 8.74228e-08 8.74228e-08 -1 846.547 70.3878)" fill="#0044E5" stroke="#0044E5" stroke-width="0.534225"/>
<rect x="0.267112" y="-0.267112" width="5.8282" height="5.8282" transform="matrix(1 8.74228e-08 8.74228e-08 -1 918.814 70.3878)" fill="#0044E5" stroke="#0044E5" stroke-width="0.534225"/>
<rect x="0.267112" y="-0.267112" width="5.8282" height="5.8282" transform="matrix(1 8.74228e-08 8.74228e-08 -1 239.912 70.3878)" fill="#0044E5" stroke="#0044E5" stroke-width="0.534225"/>
<rect x="0.267112" y="-0.267112" width="5.8282" height="5.8282" transform="matrix(1 8.74228e-08 8.74228e-08 -1 158.496 166.216)" fill="#0044E5" stroke="#0044E5" stroke-width="0.534225"/>
<rect x="0.267112" y="-0.267112" width="5.8282" height="5.8282" transform="matrix(1 8.74228e-08 8.74228e-08 -1 171.492 213.286)" fill="#0044E5" stroke="#0044E5" stroke-width="0.534225"/>
<rect x="0.267112" y="-0.267112" width="5.8282" height="5.8282" transform="matrix(1 8.74228e-08 8.74228e-08 -1 717.863 213.286)" fill="#0044E5" stroke="#0044E5" stroke-width="0.534225"/>
<rect x="0.267112" y="-0.267112" width="5.8282" height="5.8282" transform="matrix(1 8.74228e-08 8.74228e-08 -1 846.547 213.286)" fill="#0044E5" stroke="#0044E5" stroke-width="0.534225"/>
<rect x="0.267112" y="-0.267112" width="5.8282" height="5.8282" transform="matrix(1 8.74228e-08 8.74228e-08 -1 918.814 213.286)" fill="#0044E5" stroke="#0044E5" stroke-width="0.534225"/>
<rect x="0.267112" y="-0.267112" width="5.8282" height="5.8282" transform="matrix(1 8.74228e-08 8.74228e-08 -1 1016.8 213.286)" fill="#0044E5" stroke="#0044E5" stroke-width="0.534225"/>
<rect x="0.267112" y="-0.267112" width="5.8282" height="5.8282" transform="matrix(1 8.74228e-08 8.74228e-08 -1 548.336 267.627)" fill="#0044E5" stroke="#0044E5" stroke-width="0.534225"/>
<rect x="0.267112" y="-0.267112" width="5.8282" height="5.8282" transform="matrix(1 8.74228e-08 8.74228e-08 -1 233.414 213.286)" fill="#0044E5" stroke="#0044E5" stroke-width="0.534225"/>
<rect x="0.267112" y="-0.267112" width="5.8282" height="5.8282" transform="matrix(1 8.74228e-08 8.74228e-08 -1 782.57 213.286)" fill="#0044E5" stroke="#0044E5" stroke-width="0.534225"/>
<rect x="0.267112" y="-0.267112" width="5.8282" height="5.8282" transform="matrix(1 8.74228e-08 8.74228e-08 -1 908.67 213.286)" fill="#0044E5" stroke="#0044E5" stroke-width="0.534225"/>
<rect x="0.267112" y="-0.267112" width="5.8282" height="5.8282" transform="matrix(1 8.74228e-08 8.74228e-08 -1 979.281 213.286)" fill="#0044E5" stroke="#0044E5" stroke-width="0.534225"/>
<rect x="0.267112" y="-0.267112" width="5.8282" height="5.8282" transform="matrix(1 8.74228e-08 8.74228e-08 -1 1076.94 213.286)" fill="#0044E5" stroke="#0044E5" stroke-width="0.534225"/>
<rect x="0.267112" y="-0.267112" width="5.8282" height="5.8282" transform="matrix(1 8.74228e-08 8.74228e-08 -1 613.377 267.627)" fill="#0044E5" stroke="#0044E5" stroke-width="0.534225"/>
<rect x="0.267112" y="-0.267112" width="5.8282" height="5.8282" transform="matrix(1 8.74228e-08 8.74228e-08 -1 396.578 213.286)" fill="#0044E5" stroke="#0044E5" stroke-width="0.534225"/>
<rect x="0.267112" y="-0.267112" width="5.8282" height="5.8282" transform="matrix(1 8.74228e-08 8.74228e-08 -1 536.203 164.268)" fill="#0044E5" stroke="#0044E5" stroke-width="0.534225"/>
<rect x="0.267112" y="-0.267112" width="5.8282" height="5.8282" transform="matrix(1 8.74228e-08 8.74228e-08 -1 524.799 164.268)" fill="#0044E5" stroke="#0044E5" stroke-width="0.534225"/>
<rect x="0.267112" y="-0.267112" width="5.8282" height="5.8282" transform="matrix(1 8.74228e-08 8.74228e-08 -1 536.203 140.663)" fill="#0044E5" stroke="#0044E5" stroke-width="0.534225"/>
<rect x="0.267112" y="-0.267112" width="5.8282" height="5.8282" transform="matrix(1 8.74228e-08 8.74228e-08 -1 703.541 138.899)" fill="#0044E5" stroke="#0044E5" stroke-width="0.534225"/>
<rect x="0.267112" y="-0.267112" width="5.8282" height="5.8282" transform="matrix(1 8.74228e-08 8.74228e-08 -1 678.084 146.854)" fill="#0044E5" stroke="#0044E5" stroke-width="0.534225"/>
<rect x="0.267112" y="-0.267112" width="5.8282" height="5.8282" transform="matrix(1 8.74228e-08 8.74228e-08 -1 590.568 146.854)" fill="#0044E5" stroke="#0044E5" stroke-width="0.534225"/>
<rect x="0.267112" y="-0.267112" width="5.8282" height="5.8282" transform="matrix(1 8.74228e-08 8.74228e-08 -1 408.379 146.854)" fill="#0044E5" stroke="#0044E5" stroke-width="0.534225"/>
<rect x="0.267112" y="-0.267112" width="5.8282" height="5.8282" transform="matrix(1 8.74228e-08 8.74228e-08 -1 431.318 140.663)" fill="#0044E5" stroke="#0044E5" stroke-width="0.534225"/>
<rect x="0.267112" y="-0.267112" width="5.8282" height="5.8282" transform="matrix(1 8.74228e-08 8.74228e-08 -1 432.246 125.945)" fill="#0044E5" stroke="#0044E5" stroke-width="0.534225"/>
<rect x="0.267112" y="-0.267112" width="5.8282" height="5.8282" transform="matrix(1 8.74228e-08 8.74228e-08 -1 508.49 125.945)" fill="#0044E5" stroke="#0044E5" stroke-width="0.534225"/>
<rect x="0.267112" y="-0.267112" width="5.8282" height="5.8282" transform="matrix(1 8.74228e-08 8.74228e-08 -1 825.598 130.255)" fill="#0044E5" stroke="#0044E5" stroke-width="0.534225"/>
<rect x="0.267112" y="-0.267112" width="5.8282" height="5.8282" transform="matrix(1 8.74228e-08 8.74228e-08 -1 474.014 81.9224)" fill="#0044E5" stroke="#0044E5" stroke-width="0.534225"/>
<rect x="0.267112" y="-0.267112" width="5.8282" height="5.8282" transform="matrix(1 8.74228e-08 8.74228e-08 -1 474.014 67.6021)" fill="#0044E5" stroke="#0044E5" stroke-width="0.534225"/>
<rect x="0.267112" y="-0.267112" width="5.8282" height="5.8282" transform="matrix(1 8.74228e-08 8.74228e-08 -1 474.014 228.735)" fill="#0044E5" stroke="#0044E5" stroke-width="0.534225"/>
<rect x="0.267112" y="-0.267112" width="5.8282" height="5.8282" transform="matrix(1 8.74228e-08 8.74228e-08 -1 637.176 228.575)" fill="#0044E5" stroke="#0044E5" stroke-width="0.534225"/>
<rect x="0.267112" y="-0.267112" width="5.8282" height="5.8282" transform="matrix(1 8.74228e-08 8.74228e-08 -1 1137.07 228.735)" fill="#0044E5" stroke="#0044E5" stroke-width="0.534225"/>
<rect x="0.267112" y="-0.267112" width="5.8282" height="5.8282" transform="matrix(1 8.74228e-08 8.74228e-08 -1 1145.29 207.59)" fill="#0044E5" stroke="#0044E5" stroke-width="0.534225"/>
<rect x="0.267112" y="-0.267112" width="5.8282" height="5.8282" transform="matrix(1 8.74228e-08 8.74228e-08 -1 1167.3 199.701)" fill="#0044E5" stroke="#0044E5" stroke-width="0.534225"/>
<rect x="0.267112" y="-0.267112" width="5.8282" height="5.8282" transform="matrix(1 8.74228e-08 8.74228e-08 -1 1173.66 207.59)" fill="#0044E5" stroke="#0044E5" stroke-width="0.534225"/>
<rect x="0.267112" y="-0.267112" width="5.8282" height="5.8282" transform="matrix(1 8.74228e-08 8.74228e-08 -1 637.176 68.327)" fill="#0044E5" stroke="#0044E5" stroke-width="0.534225"/>
<rect x="0.267112" y="-0.267112" width="5.8282" height="5.8282" transform="matrix(1 8.74228e-08 8.74228e-08 -1 806.703 67.8678)" fill="#0044E5" stroke="#0044E5" stroke-width="0.534225"/>
<rect x="0.267112" y="-0.267112" width="5.8282" height="5.8282" transform="matrix(1 8.74228e-08 8.74228e-08 -1 1011.3 67.7331)" fill="#0044E5" stroke="#0044E5" stroke-width="0.534225"/>
<rect x="0.267112" y="-0.267112" width="5.8282" height="5.8282" transform="matrix(1 8.74228e-08 8.74228e-08 -1 799.145 87.7264)" fill="#0044E5" stroke="#0044E5" stroke-width="0.534225"/>
<rect x="0.267112" y="-0.267112" width="5.8282" height="5.8282" transform="matrix(1 8.74228e-08 8.74228e-08 -1 1005.47 87.5918)" fill="#0044E5" stroke="#0044E5" stroke-width="0.534225"/>
<rect x="0.267112" y="-0.267112" width="5.8282" height="5.8282" transform="matrix(1 8.74228e-08 8.74228e-08 -1 171.492 225.42)" fill="#0044E5" stroke="#0044E5" stroke-width="0.534225"/>
<rect x="0.267112" y="-0.267112" width="5.8282" height="5.8282" transform="matrix(1 8.74228e-08 8.74228e-08 -1 717.863 225.419)" fill="#0044E5" stroke="#0044E5" stroke-width="0.534225"/>
<rect x="0.267112" y="-0.267112" width="5.8282" height="5.8282" transform="matrix(1 8.74228e-08 8.74228e-08 -1 846.547 225.42)" fill="#0044E5" stroke="#0044E5" stroke-width="0.534225"/>
<rect x="0.267112" y="-0.267112" width="5.8282" height="5.8282" transform="matrix(1 8.74228e-08 8.74228e-08 -1 918.814 225.42)" fill="#0044E5" stroke="#0044E5" stroke-width="0.534225"/>
<rect x="0.267112" y="-0.267112" width="5.8282" height="5.8282" transform="matrix(1 8.74228e-08 8.74228e-08 -1 1016.8 225.42)" fill="#0044E5" stroke="#0044E5" stroke-width="0.534225"/>
<rect x="0.267112" y="-0.267112" width="5.8282" height="5.8282" transform="matrix(1 8.74228e-08 8.74228e-08 -1 548.336 279.76)" fill="#0044E5" stroke="#0044E5" stroke-width="0.534225"/>
<rect x="0.267112" y="-0.267112" width="5.8282" height="5.8282" transform="matrix(1 8.74228e-08 8.74228e-08 -1 233.414 225.42)" fill="#0044E5" stroke="#0044E5" stroke-width="0.534225"/>
<rect x="0.267112" y="-0.267112" width="5.8282" height="5.8282" transform="matrix(1 8.74228e-08 8.74228e-08 -1 782.57 225.419)" fill="#0044E5" stroke="#0044E5" stroke-width="0.534225"/>
<rect x="0.267112" y="-0.267112" width="5.8282" height="5.8282" transform="matrix(1 8.74228e-08 8.74228e-08 -1 908.67 226.016)" fill="#0044E5" stroke="#0044E5" stroke-width="0.534225"/>
<rect x="0.267112" y="-0.267112" width="5.8282" height="5.8282" transform="matrix(1 8.74228e-08 8.74228e-08 -1 979.281 226.016)" fill="#0044E5" stroke="#0044E5" stroke-width="0.534225"/>
<rect x="0.267112" y="-0.267112" width="5.8282" height="5.8282" transform="matrix(1 8.74228e-08 8.74228e-08 -1 1076.94 226.016)" fill="#0044E5" stroke="#0044E5" stroke-width="0.534225"/>
<rect x="0.267112" y="-0.267112" width="5.8282" height="5.8282" transform="matrix(1 8.74228e-08 8.74228e-08 -1 613.377 279.76)" fill="#0044E5" stroke="#0044E5" stroke-width="0.534225"/>
<rect x="0.267112" y="-0.267112" width="5.8282" height="5.8282" transform="matrix(1 8.74228e-08 8.74228e-08 -1 396.578 225.419)" fill="#0044E5" stroke="#0044E5" stroke-width="0.534225"/>
<rect x="0.267112" y="-0.267112" width="5.8282" height="5.8282" transform="matrix(1 8.74228e-08 8.74228e-08 -1 355.869 225.42)" fill="#0044E5" stroke="#0044E5" stroke-width="0.534225"/>
<rect x="0.267112" y="-0.267112" width="5.8282" height="5.8282" transform="matrix(1 8.74228e-08 8.74228e-08 -1 309.195 227.89)" fill="#0044E5" stroke="#0044E5" stroke-width="0.534225"/>
<rect x="0.267112" y="-0.267112" width="5.8282" height="5.8282" transform="matrix(1 8.74228e-08 8.74228e-08 -1 314.301 208.265)" fill="#0044E5" stroke="#0044E5" stroke-width="0.534225"/>
<rect x="0.267112" y="-0.267112" width="5.8282" height="5.8282" transform="matrix(1 8.74228e-08 8.74228e-08 -1 355.869 192.14)" fill="#0044E5" stroke="#0044E5" stroke-width="0.534225"/>
<rect x="0.267112" y="-0.267112" width="5.8282" height="5.8282" transform="matrix(1 8.74228e-08 8.74228e-08 -1 149.217 57.7512)" fill="#0044E5" stroke="#0044E5" stroke-width="0.534225"/>
<rect x="0.267112" y="-0.267112" width="5.8282" height="5.8282" transform="matrix(1 8.74228e-08 8.74228e-08 -1 120.973 66.3698)" fill="#0044E5" stroke="#0044E5" stroke-width="0.534225"/>
<rect x="0.267112" y="-0.267112" width="5.8282" height="5.8282" transform="matrix(1 8.74228e-08 8.74228e-08 -1 130.387 162.769)" fill="#0044E5" stroke="#0044E5" stroke-width="0.534225"/>
<rect x="0.267112" y="-0.267112" width="5.8282" height="5.8282" transform="matrix(1 8.74228e-08 8.74228e-08 -1 45.7227 208.714)" fill="#0044E5" stroke="#0044E5" stroke-width="0.534225"/>
<rect x="0.267112" y="-0.267112" width="5.8282" height="5.8282" transform="matrix(1 8.74228e-08 8.74228e-08 -1 45.7227 106.221)" fill="#0044E5" stroke="#0044E5" stroke-width="0.534225"/>
<rect x="0.267112" y="-0.267112" width="5.8282" height="5.8282" transform="matrix(1 8.74228e-08 8.74228e-08 -1 45.7227 121.382)" fill="#0044E5" stroke="#0044E5" stroke-width="0.534225"/>
<rect x="0.267112" y="-0.267112" width="5.8282" height="5.8282" transform="matrix(1 8.74228e-08 8.74228e-08 -1 113.521 111.089)" fill="#0044E5" stroke="#0044E5" stroke-width="0.534225"/>
<rect x="0.267112" y="-0.267112" width="5.8282" height="5.8282" transform="matrix(1 8.74228e-08 8.74228e-08 -1 45.7227 23.8361)" fill="#0044E5" stroke="#0044E5" stroke-width="0.534225"/>
</svg>
