<svg xmlns="http://www.w3.org/2000/svg" xmlns:xlink="http://www.w3.org/1999/xlink" viewBox="0,0,256,256" width="48px" height="48px" fill-rule="nonzero"><g fill="none" fill-rule="nonzero" stroke="none" stroke-width="1" stroke-linecap="butt" stroke-linejoin="miter" stroke-miterlimit="10" stroke-dasharray="" stroke-dashoffset="0" font-family="none" font-weight="none" font-size="none" text-anchor="none" style="mix-blend-mode: normal"><g transform="scale(5.33333,5.33333)"><path d="M41.765,38h-35.53c-1.796,0 -3.235,-1.37 -3.235,-3.152v-22.62c0,-1.783 1.439,-3.228 3.235,-3.228h35.529c1.796,0 3.236,1.445 3.236,3.228v22.62c0,1.782 -1.44,3.152 -3.235,3.152z" fill="#b69634"></path><path d="M36.847,23.277c0.069,-1.101 0.354,-1.613 0.926,-1.613c0.548,0 0.848,0.527 0.886,1.613zM40.953,23.935c0,-1.23 -0.27,-2.203 -0.781,-2.885c-0.54,-0.697 -1.346,-1.05 -2.359,-1.05c-2.088,0 -3.396,1.546 -3.396,4.022c0,1.384 0.345,2.427 1.038,3.085c0.617,0.595 1.503,0.893 2.63,0.893c1.047,0 2.017,-0.251 2.632,-0.655l-0.268,-1.688c-0.607,0.331 -1.31,0.511 -2.095,0.511c-0.47,0 -0.806,-0.103 -1.044,-0.308c-0.262,-0.219 -0.408,-0.572 -0.46,-1.076h4.068c0.026,-0.115 0.035,-0.678 0.035,-0.849zM31.057,25.533c-0.221,0.377 -0.531,0.58 -0.89,0.58c-0.241,0 -0.472,-0.053 -0.669,-0.147v-3.718c0.428,-0.441 0.814,-0.491 0.942,-0.491c0.631,0 0.941,0.681 0.941,2.017c0.003,0.76 -0.112,1.352 -0.324,1.759zM33.113,20.709c-0.438,-0.571 -1.059,-0.853 -1.845,-0.853c-0.712,0 -1.343,0.302 -1.934,0.936l-0.142,-0.784h-2.192v10.992l2.481,-0.416l0.017,-2.799c0.387,0.121 0.779,0.185 1.131,0.185c0.627,0 1.53,-0.157 2.235,-0.926c0.667,-0.73 0.996,-1.862 0.996,-3.361c0,-1.325 -0.245,-2.33 -0.747,-2.974zM23.527,20.008h2.473v7.992h-2.473zM24.784,19.233c0.718,0 1.3,-0.594 1.3,-1.313c0,-0.733 -0.584,-1.32 -1.3,-1.32c-0.738,0 -1.323,0.587 -1.323,1.32c0,0.72 0.585,1.313 1.323,1.313zM22.463,19.9c-0.705,0 -1.279,0.372 -1.491,1.031l-0.15,-0.921h-2.17v7.99h2.482v-5.25c0.312,-0.382 0.749,-0.52 1.362,-0.52c0.127,0 0.256,0 0.438,0.026v-2.294c-0.183,-0.041 -0.334,-0.062 -0.471,-0.062zM17.68,21.855l0.308,-1.848h-1.601v-2.245l-2.129,0.354l-0.309,1.891l-0.749,0.123l-0.277,1.726h1.024v3.622c0,0.941 0.238,1.599 0.72,1.998c0.421,0.335 1.011,0.493 1.843,0.493c0.654,0 1.043,-0.112 1.297,-0.184v-1.959c-0.133,0.041 -0.48,0.115 -0.716,0.115c-0.48,0 -0.705,-0.25 -0.705,-0.825v-3.265h1.294zM10.531,23.05c-0.707,-0.265 -1.118,-0.473 -1.118,-0.803c0,-0.275 0.229,-0.434 0.646,-0.434c0.737,0 1.509,0.281 2.023,0.544l0.3,-1.829c-0.418,-0.202 -1.269,-0.528 -2.442,-0.528c-0.84,0 -1.535,0.22 -2.014,0.621c-0.532,0.429 -0.802,1.043 -0.802,1.786c0,1.347 0.824,1.918 2.166,2.402c0.857,0.308 1.154,0.527 1.154,0.868c0,0.322 -0.274,0.514 -0.795,0.514c-0.624,0 -1.641,-0.31 -2.327,-0.703l-0.282,1.853c0.576,0.322 1.636,0.659 2.748,0.659c0.887,0 1.622,-0.21 2.102,-0.606c0.568,-0.432 0.844,-1.077 0.844,-1.905c0.002,-1.383 -0.843,-1.958 -2.203,-2.439z" fill="#ffffff"></path></g></g></svg>