<svg xmlns="http://www.w3.org/2000/svg" fill="none" viewBox="0 0 159 56" height="56" width="159">
<path fill="white" d="M16.3516 24.7528C16.5371 24.6567 16.6814 24.661 16.8848 24.6952C17.2582 24.8379 17.5231 25.1707 17.7979 25.452C17.8718 25.5258 17.9464 25.5996 18.0225 25.6756C18.2274 25.8801 18.4307 26.0866 18.6338 26.2928C18.8532 26.515 19.0744 26.7359 19.295 26.9569C19.7268 27.39 20.1578 27.8247 20.5879 28.2596C20.9374 28.6129 21.2875 28.9657 21.6378 29.3182C21.6876 29.3684 21.7378 29.4188 21.7891 29.4705C21.8903 29.5724 21.9916 29.6744 22.0928 29.7762C23.0426 30.7321 23.9907 31.6895 24.9385 32.6473C25.752 33.4693 26.5672 34.2904 27.3829 35.1102C28.33 36.0622 29.2766 37.0156 30.2217 37.9696C30.3223 38.0711 30.4229 38.1727 30.5235 38.2743C30.5979 38.3493 30.598 38.35 30.6739 38.4266C31.0234 38.7793 31.3734 39.1314 31.7237 39.4832C32.1505 39.9121 32.5771 40.3415 33.002 40.7723C33.2189 40.9921 33.4361 41.2121 33.6544 41.4305C33.8908 41.6672 34.126 41.9057 34.3604 42.1444C34.4297 42.2132 34.4989 42.2825 34.5704 42.3534C35.0801 42.8772 35.0808 42.877 35.1368 43.2157C35.1285 43.4561 35.1281 43.4566 35.0538 43.6024C34.8053 43.7444 34.5432 43.7844 34.2647 43.8289C34.2048 43.8387 34.1448 43.8482 34.0831 43.8582C32.9505 44.0319 32.9501 44.0321 32.6016 43.9334C32.1281 43.5702 31.7114 43.1278 31.2921 42.7039C31.2268 42.6383 31.162 42.5723 31.0948 42.5047C30.9153 42.3241 30.7359 42.1427 30.5567 41.9618C30.3628 41.7661 30.1678 41.5713 29.9737 41.3758C29.5942 40.9937 29.2152 40.6108 28.836 40.2284C28.528 39.9177 28.2194 39.6072 27.9112 39.2967C27.8674 39.2526 27.8235 39.2084 27.7784 39.1629C27.6891 39.073 27.6001 38.9824 27.5108 38.8924C26.6752 38.0505 25.8392 37.2083 25.004 36.3661C24.2871 35.6432 23.5699 34.9206 22.8526 34.1981C22.0191 33.3585 21.1857 32.5185 20.3526 31.6786C20.2638 31.5891 20.1747 31.4995 20.086 31.41C20.0424 31.366 19.9991 31.3215 19.9542 31.2762C19.6461 30.9656 19.3376 30.655 19.0294 30.3446C18.6543 29.9668 18.2791 29.5889 17.9044 29.2108C17.7132 29.0179 17.5216 28.8253 17.3301 28.6327C17.1229 28.424 16.9159 28.2146 16.709 28.0057C16.6481 27.9445 16.5872 27.8832 16.5245 27.8202C16.4695 27.7645 16.4141 27.7085 16.3575 27.6512C16.2857 27.5789 16.2852 27.5785 16.212 27.5047C15.9568 27.2243 16.0019 26.9286 16.0049 26.5653C16.0254 26.2217 16.0696 25.8879 16.126 25.5487C16.1353 25.4899 16.1448 25.4305 16.1544 25.37C16.1944 25.1469 16.2401 24.9508 16.3516 24.7528ZM17.2071 31.6004C17.3874 31.7352 17.5287 31.8602 17.6837 32.0204C17.7291 32.0654 17.7745 32.1106 17.8213 32.1571C17.9737 32.3088 18.1248 32.4617 18.2754 32.6151C18.3843 32.7242 18.4935 32.8334 18.6026 32.9422C18.8985 33.2383 19.1932 33.5359 19.4874 33.8338C19.7951 34.1452 20.1034 34.456 20.4122 34.7664C20.9305 35.288 21.4481 35.8107 21.9649 36.3338C22.5627 36.9389 23.1624 37.5419 23.7628 38.1444C24.2779 38.6614 24.7923 39.1794 25.3057 39.6981C25.6125 40.008 25.9197 40.318 26.2276 40.6268C26.5169 40.917 26.8055 41.2085 27.0928 41.5008C27.1985 41.608 27.3047 41.7148 27.4112 41.8211C27.5564 41.9662 27.7004 42.1127 27.8438 42.2596C27.8864 42.3015 27.9288 42.3434 27.9727 42.3866C28.1706 42.5924 28.2563 42.7109 28.2921 42.9989C28.2599 43.2168 28.2598 43.2174 28.1622 43.367C27.8964 43.5365 27.6068 43.4351 27.3126 43.3768C27.0943 43.3253 26.8832 43.26 26.671 43.1873C26.6113 43.167 26.5517 43.1468 26.4903 43.1258C24.5113 42.4212 22.7214 41.3185 21.1817 39.8875C20.9486 39.6714 20.7084 39.4633 20.4678 39.2557C18.7487 37.5878 17.4836 35.3385 16.7237 33.077C16.7004 33.0079 16.6764 32.9391 16.6524 32.868C16.5403 32.517 16.4594 32.2121 16.4962 31.8387C16.6721 31.5431 16.8875 31.5609 17.2071 31.6004ZM18.5782 19.8329C18.9035 19.9134 19.0259 20.0056 19.2608 20.242C19.372 20.3523 19.3721 20.3524 19.4854 20.4647C19.5662 20.5472 19.6468 20.6302 19.7276 20.7127C19.8145 20.7998 19.9022 20.8866 19.9893 20.9735C20.2284 21.2125 20.4658 21.4535 20.7032 21.6942C20.9594 21.9535 21.2172 22.2114 21.4747 22.4696C21.9788 22.9755 22.4821 23.4824 22.9844 23.9901C23.3926 24.4025 23.801 24.8147 24.21 25.2264C24.2682 25.285 24.3268 25.3438 24.3868 25.4041C24.5049 25.5231 24.6231 25.6426 24.7413 25.7616C25.8499 26.8775 26.9569 27.9952 28.0635 29.1131C29.0135 30.0727 29.9649 31.0307 30.9171 31.9881C32.0223 33.0995 33.1273 34.2116 34.2305 35.325C34.3481 35.4437 34.4655 35.5628 34.5831 35.6815C34.6409 35.7399 34.6992 35.7981 34.7588 35.8582C35.167 36.27 35.5755 36.6816 35.9844 37.0926C36.4826 37.5934 36.9803 38.0948 37.4766 38.5975C37.73 38.8541 37.9836 39.1109 38.2383 39.3661C38.4714 39.5995 38.7036 39.8338 38.9346 40.0692C39.0185 40.1542 39.1028 40.2389 39.1876 40.3231C39.3025 40.4375 39.4161 40.5537 39.5294 40.6698C39.5928 40.7338 39.6564 40.7982 39.7217 40.8641C39.9027 41.1219 39.9343 41.3122 39.9444 41.6258C39.6937 41.9655 39.3781 42.1391 39.0069 42.327C38.9143 42.3751 38.8211 42.4229 38.7256 42.4725C38.4054 42.595 38.23 42.642 37.8917 42.5809C37.3533 42.195 36.8969 41.669 36.4317 41.1991C36.3496 41.1164 36.2677 41.0336 36.1856 40.951C35.9612 40.7252 35.7368 40.4994 35.5128 40.2733C35.2704 40.0289 35.0277 39.7841 34.7852 39.5399C34.3107 39.062 33.8356 38.5835 33.3614 38.1053C32.9763 37.717 32.5914 37.3285 32.2061 36.9403C32.1512 36.885 32.0956 36.8302 32.0391 36.7733C31.9276 36.6609 31.8166 36.5477 31.7051 36.4354C30.6606 35.3829 29.6156 34.33 28.5713 33.2772C27.6749 32.3733 26.7778 31.4698 25.8809 30.5663C24.8393 29.5168 23.7982 28.4666 22.7569 27.4168C22.646 27.3051 22.5348 27.1937 22.4239 27.0819C22.3693 27.0269 22.315 26.9715 22.2588 26.9149C21.8736 26.5266 21.4879 26.138 21.1026 25.7498C20.6338 25.2776 20.1648 24.8054 19.6963 24.3329C19.4571 24.0915 19.2171 23.8494 18.9776 23.6082C18.7588 23.3879 18.5398 23.1677 18.3213 22.9471C18.242 22.867 18.1626 22.7868 18.0831 22.7069C17.9755 22.5987 17.8681 22.4901 17.7608 22.3817C17.6713 22.2915 17.6715 22.2911 17.5801 22.1991C17.3989 22.0031 17.3679 21.9183 17.3389 21.6483C17.3725 21.2481 17.513 20.9808 17.7051 20.6346C17.737 20.5741 17.769 20.5134 17.8018 20.451C18.1428 19.819 18.1431 19.8187 18.5782 19.8329ZM28.8379 12.3016C30.8547 11.8424 33.29 11.9272 35.2862 12.4237C35.3582 12.4416 35.4307 12.4599 35.5049 12.4784C35.9902 12.6028 36.4681 12.7456 36.9444 12.9012C37.0259 12.9273 37.0262 12.9274 37.1094 12.9539C38.4748 13.3983 39.8179 14.1123 40.9708 14.9705C41.0526 15.0306 41.1345 15.0904 41.2188 15.1522C41.8196 15.6009 42.3732 16.0934 42.9131 16.6141C43.0072 16.7046 43.102 16.7945 43.1973 16.8836C43.6547 17.323 44.0359 17.8222 44.4161 18.3289C44.5143 18.4589 44.6141 18.5877 44.7149 18.7157C45.7419 20.0737 46.496 21.6906 46.9708 23.325C46.9985 23.4183 46.9981 23.4185 47.0264 23.5135C47.1552 23.9512 47.266 24.3914 47.3653 24.8368C47.3783 24.8927 47.3919 24.949 47.4053 25.0067C47.8664 27.0739 47.7721 29.5523 47.2862 31.6004C47.2676 31.6789 47.2487 31.7579 47.2295 31.8387C46.502 34.7873 44.9932 37.2881 42.92 39.4627C42.8747 39.5118 42.829 39.5606 42.7823 39.6112C42.5789 39.8194 42.4435 39.94 42.1612 40.0204C41.4693 39.8338 40.9027 39.024 40.4044 38.5223C40.3163 38.4339 40.2288 38.345 40.1407 38.2567C39.9 38.0152 39.6594 37.7738 39.419 37.5321C39.2124 37.3244 39.0056 37.1166 38.7989 36.909C38.1187 36.2261 37.4385 35.5427 36.7588 34.8592C36.5821 34.6815 36.4053 34.5038 36.2286 34.326C35.1294 33.2206 34.0303 32.1146 32.9317 31.0086C32.6778 30.7531 32.4239 30.4976 32.17 30.242C32.1068 30.1785 32.0436 30.1141 31.9786 30.0487C30.9541 29.0175 29.9282 27.9877 28.9024 26.9579C27.8489 25.9002 26.796 24.8415 25.7442 23.7821C25.1539 23.1875 24.5635 22.593 23.9717 21.9998C23.4682 21.4951 22.9647 20.9889 22.4629 20.4823C22.207 20.2239 21.9508 19.9658 21.6934 19.7088C21.4578 19.4736 21.2229 19.2371 20.9893 18.9998C20.9047 18.9143 20.8199 18.8287 20.7344 18.744C20.6182 18.6287 20.5031 18.5125 20.3887 18.3954C20.2926 18.2987 20.2924 18.2986 20.1944 18.2C20.0132 17.9433 19.9853 17.7483 19.9698 17.4364C20.0523 17.2737 20.0532 17.274 20.1876 17.1385C20.2394 17.0851 20.2913 17.0314 20.3448 16.9764C20.4034 16.9184 20.4621 16.8604 20.5225 16.8006C20.583 16.7351 20.6438 16.6689 20.7061 16.6014C22.8027 14.3753 25.7179 13.0029 28.6544 12.3446C28.7148 12.3303 28.7757 12.3163 28.8379 12.3016ZM103.31 24.7782C105.897 22.2875 110.27 22.05 113.05 24.3592C113.11 24.4072 113.171 24.4553 113.233 24.5047C114.811 25.8229 115.561 27.8545 115.814 29.8495V32.078H104.523C104.715 33.427 104.978 34.7084 106.073 35.6043C106.938 36.2228 107.97 36.4577 109.023 36.3748C109.135 36.3665 109.135 36.3657 109.249 36.3573C110.086 36.2569 111.074 35.8481 111.629 35.1805C111.87 34.8239 112.069 34.453 112.261 34.0672H115.655C115.379 35.1809 115.379 35.1814 115.122 35.6737C115.095 35.7277 115.068 35.7821 115.039 35.8377C114.814 36.2679 114.56 36.6496 114.234 37.0106C114.184 37.069 114.133 37.1282 114.081 37.1883C112.942 38.4227 111.151 39.2461 109.482 39.3309C109.186 39.3346 108.89 39.3384 108.595 39.3387C108.541 39.3388 108.488 39.3387 108.433 39.3387C106.331 39.3353 104.631 38.6552 103.098 37.2C101.445 35.4922 100.941 33.1243 100.947 30.8192C100.981 28.5477 101.74 26.4329 103.31 24.7782ZM119.448 24.5106C121.93 22.0845 126.783 22.2719 129.368 24.41C130.212 25.2124 130.852 26.3464 130.902 27.535V28.0955C130.902 28.2046 130.902 28.3137 130.901 28.4227C130.901 28.5379 130.901 28.6532 130.901 28.7684C130.901 29.0808 130.901 29.3935 130.9 29.7059C130.9 30.0327 130.901 30.3596 130.9 30.6864C130.9 31.3049 130.899 31.9233 130.898 32.5418C130.898 33.2461 130.897 33.9508 130.897 34.6551C130.896 36.1036 130.894 37.5524 130.893 39.0008H127.419C127.38 38.0162 127.38 38.0158 127.34 37.0116C127.184 37.2216 127.027 37.4319 126.866 37.6483C126.14 38.5555 125.035 39.1002 123.889 39.2254C122.049 39.3705 120.183 39.1994 118.705 37.9696C118.004 37.3084 117.58 36.5247 117.393 35.5789C117.375 35.4903 117.356 35.4017 117.338 35.3104C117.227 34.0139 117.331 32.7233 118.185 31.6922C119.683 30.0317 121.947 29.7868 124.045 29.5291C124.101 29.5223 124.157 29.5157 124.215 29.5086C124.49 29.475 124.765 29.442 125.04 29.411C126.205 29.3101 126.206 29.3101 127.182 28.7362C127.373 28.3502 127.301 27.8145 127.215 27.4041C127.03 26.8598 126.708 26.5047 126.234 26.1903C125.171 25.6779 124.033 25.6688 122.919 26.0311C122.322 26.2976 121.845 26.6142 121.557 27.2196C121.517 27.3004 121.478 27.3814 121.438 27.4647C121.323 27.7218 121.322 27.7223 121.261 28.0995H117.787C117.787 26.8609 118.244 25.748 119.106 24.8563C119.165 24.7977 119.226 24.7389 119.287 24.6786C119.367 24.5956 119.367 24.5949 119.448 24.5106ZM65.8389 35.658H75.628V38.9998H62.128V16.7205H65.8389V35.658ZM81.4708 38.9998H77.918V23.1659H81.4708V38.9998ZM91.7667 22.8788C93.5101 22.6873 95.2253 23.0115 96.629 24.1209C97.8532 25.1812 98.4697 26.5096 98.6817 28.0995C98.692 28.2829 98.6971 28.466 98.6993 28.6493V29.5223C98.6993 29.8113 98.6984 30.1005 98.6973 30.3895C98.6963 30.6926 98.6965 30.9956 98.6964 31.2987C98.6959 31.8715 98.695 32.4445 98.6934 33.0174C98.6917 33.6701 98.6903 34.3228 98.6895 34.9754C98.6879 36.3169 98.6851 37.6584 98.6817 38.9998H95.129C95.1272 38.5692 95.1268 38.569 95.1251 38.1297C95.1211 37.1764 95.1163 36.2227 95.1104 35.2694C95.1069 34.6918 95.1037 34.1136 95.1016 33.536C95.0998 33.0321 95.0974 32.5282 95.0938 32.0243C95.0919 31.758 95.0905 31.4917 95.0899 31.2254C95.1504 28.9559 95.1502 28.9555 94.1905 26.9784C93.3432 26.1832 92.3908 26.0638 91.2755 26.0858C90.4455 26.122 89.7458 26.4228 89.129 26.9852C88.3265 27.8949 88.171 28.9201 88.1651 30.0936C88.1643 30.1899 88.164 30.2864 88.1631 30.3856C88.1611 30.6485 88.1589 30.9117 88.1573 31.1747C88.1556 31.4497 88.1535 31.7248 88.1514 31.9998C88.1475 32.5206 88.1441 33.0416 88.1407 33.5623C88.1368 34.1554 88.1324 34.7486 88.128 35.3416C88.119 36.561 88.1107 37.7804 88.1026 38.9998H84.4708V23.1659H88.0235C88.0496 23.9799 88.0758 24.794 88.1026 25.6327C88.2589 25.3701 88.4152 25.1073 88.5762 24.8368C89.3712 23.7491 90.4617 23.1135 91.7667 22.8788ZM141.59 22.992C142.16 22.9956 142.16 22.9961 142.34 23.0868V26.3485C142.036 26.3304 141.731 26.3124 141.417 26.2938C140.259 26.2406 139.37 26.3104 138.478 27.1239C137.693 27.9396 137.592 28.9417 137.587 30.0213C137.586 30.1183 137.586 30.2154 137.585 30.3153C137.583 30.5804 137.581 30.846 137.579 31.1112C137.577 31.3885 137.575 31.6659 137.573 31.9432C137.569 32.4682 137.566 32.9934 137.563 33.5184C137.559 34.1163 137.554 34.7145 137.55 35.3123C137.541 36.5415 137.533 37.7707 137.524 38.9998H133.893V23.1659H137.366C137.392 23.9011 137.419 24.6369 137.445 25.3944C137.522 25.2385 137.599 25.0824 137.678 24.9217C138.126 24.0655 138.744 23.4993 139.656 23.1659C140.223 23.0115 140.769 22.9845 141.354 22.992C141.431 22.9921 141.51 22.992 141.59 22.992ZM127.34 31.4413C127.232 31.4375 127.232 31.4377 127.023 31.5116C126.382 31.6981 125.74 31.8483 125.082 31.9579C125.022 31.9678 124.962 31.9778 124.9 31.9881C124.599 32.0379 124.296 32.0857 123.994 32.1317C122.919 32.3009 121.916 32.5663 121.152 33.3963C120.826 33.8903 120.808 34.3628 120.866 34.9422C121.007 35.472 121.367 35.8406 121.814 36.1356C122.716 36.6271 123.965 36.5788 124.946 36.3651C125.569 36.1752 126.126 35.8397 126.551 35.3407C126.59 35.296 126.628 35.251 126.668 35.2049C127.318 34.4057 127.385 33.5838 127.359 32.5799C127.358 32.469 127.357 32.3578 127.356 32.2469C127.352 31.9784 127.346 31.7097 127.34 31.4413ZM110.919 26.5077C109.272 25.3209 106.911 25.4452 105.496 26.9559C104.943 27.6363 104.523 28.5609 104.523 29.452H112.34C112.215 28.3145 111.829 27.2484 110.919 26.5077ZM78.792 16.7997C79.3903 16.5872 80.2385 16.5913 80.7842 16.9344C81.3598 17.3829 81.7054 17.8498 81.8165 18.5916C81.8456 19.1966 81.6466 19.699 81.3331 20.2069C80.873 20.6577 80.3461 20.9319 79.6993 20.9403C79.0732 20.9017 78.5234 20.6722 78.0762 20.2215C77.6863 19.6193 77.5318 19.1115 77.6026 18.3914C77.772 17.6696 78.185 17.1992 78.792 16.7997Z" clip-rule="evenodd" fill-rule="evenodd"></path>
</svg>
