<svg class="h-8 lg:h-10" viewBox="0 0 63 49" fill="none" xmlns="http://www.w3.org/2000/svg"><g clip-path="url(#cognition-logo_svg__a)" fill="currentColor"><path d="M39.56 21.627a3.29 3.29 0 0 1 3.3 0l2.636 1.538a1.2 1.2 0 0 0 .327.125q.137.032.276.038h.014c.011 0 .018 0 .03-.004.084 0 .168-.015.252-.034q.022 0 .044-.011.134-.04.257-.107l.026-.011 5.269-3.077c.378-.22.609-.626.609-1.067v-6.152c0-.441-.231-.85-.61-1.067L46.723 8.72a1.22 1.22 0 0 0-1.221 0l-5.27 3.077-.02.014c-.08.048-.159.108-.224.175q-.017.016-.03.033-.087.096-.157.207-.012.016-.022.038a1.3 1.3 0 0 0-.121.319 1.3 1.3 0 0 0-.037.29v3.076c0 1.187-.63 2.294-1.65 2.887a3.29 3.29 0 0 1-3.301 0l-2.636-1.539a1.2 1.2 0 0 0-.327-.125 1.5 1.5 0 0 0-.275-.038h-.04c-.088 0-.172.015-.257.034a.2.2 0 0 0-.04.007 1.4 1.4 0 0 0-.26.108c-.008.004-.02.007-.026.011l-5.27 3.077a1.23 1.23 0 0 0-.608 1.067v6.152c0 .441.23.85.609 1.067l5.269 3.077s.018.007.025.012c.085.044.169.082.262.108l.044.011q.126.028.252.034c.012 0 .019.004.03.004h.014q.138-.002.276-.038.027-.008.058-.014.136-.04.268-.111l2.636-1.538a3.28 3.28 0 0 1 3.3 0 3.36 3.36 0 0 1 1.65 2.887v3.077q.001.15.037.289.005.029.014.059.04.135.106.26.01.013.023.037.065.111.158.207c.011.012.018.022.03.034q.1.098.224.174c.007.004.014.012.021.014l5.27 3.077a1.2 1.2 0 0 0 1.217 0l5.27-3.077c.377-.219.608-.625.608-1.067v-6.152c0-.441-.23-.849-.609-1.067l-5.269-3.076-.026-.012a1.3 1.3 0 0 0-.26-.108q-.019-.003-.039-.007a1 1 0 0 0-.257-.034h-.04q-.136.002-.275.038-.028.008-.054.014-.136.04-.268.111l-2.636 1.539a3.28 3.28 0 0 1-3.3 0 3.36 3.36 0 0 1-1.65-2.888c0-1.187.63-2.294 1.65-2.888l-.004-.014zM10.638 20.204l5.269 3.085a1.2 1.2 0 0 0 1.218 0l5.27-3.085s.013-.012.02-.015c.082-.047.157-.108.224-.175.012-.011.019-.021.03-.033q.087-.096.159-.208.01-.015.021-.038a1.3 1.3 0 0 0 .121-.319c.022-.093.037-.19.037-.29v-3.084c0-1.19.63-2.3 1.65-2.894a3.28 3.28 0 0 1 3.301 0l2.636 1.542a1.2 1.2 0 0 0 .327.126q.135.032.275.038h.014c.012 0 .019-.005.03-.005a1.2 1.2 0 0 0 .558-.153l.026-.011 5.269-3.085c.378-.22.609-.628.609-1.07V4.36c0-.442-.231-.851-.61-1.07L31.825.208a1.21 1.21 0 0 0-1.221 0l-5.27 3.085s-.013.011-.02.014c-.08.048-.157.109-.224.175l-.03.033q-.087.097-.159.209-.01.015-.021.037a1.3 1.3 0 0 0-.122.32 1.2 1.2 0 0 0-.037.29v3.085c0 1.19-.63 2.3-1.65 2.896a3.28 3.28 0 0 1-3.3 0l-2.636-1.543a1.2 1.2 0 0 0-.327-.126 1.5 1.5 0 0 0-.275-.037h-.04c-.089 0-.173.014-.257.033a.2.2 0 0 0-.04.007 1.4 1.4 0 0 0-.261.109l-.026.011-5.269 3.085c-.378.22-.609.627-.609 1.07v6.168c0 .443.231.852.61 1.07v.007zM37.096 37.437l-5.27-3.085-.027-.012a1.3 1.3 0 0 0-.26-.107l-.045-.011a1.2 1.2 0 0 0-.257-.034h-.04a1.1 1.1 0 0 0-.275.038q-.027.008-.056.014-.136.04-.268.112l-2.636 1.542a3.27 3.27 0 0 1-3.298 0 3.36 3.36 0 0 1-1.65-2.895v-3.085c0-.1-.015-.197-.037-.291a1.327 1.327 0 0 0-.121-.32q-.012-.015-.022-.037a1 1 0 0 0-.159-.208l-.028-.034a1.3 1.3 0 0 0-.224-.174q-.01-.009-.021-.015l-5.27-3.085a1.21 1.21 0 0 0-1.222 0l-5.27 3.085c-.379.22-.61.628-.61 1.07v6.168c0 .443.231.852.61 1.07l5.27 3.085.025.011q.126.068.257.108l.045.011c.084.019.165.03.252.033q.017.002.03.003h.014q.14-.001.271-.037.03-.009.059-.015.136-.039.268-.111l2.637-1.543a3.28 3.28 0 0 1 3.301 0 3.37 3.37 0 0 1 1.651 2.896v3.085q.001.15.037.29.005.03.014.06.04.136.107.26.012.016.022.037.065.112.158.209c.012.011.019.021.029.033q.1.098.224.175.01.008.023.014l5.27 3.085a1.2 1.2 0 0 0 1.218 0l5.27-3.085c.379-.22.61-.627.61-1.07V38.51c0-.442-.231-.851-.61-1.07z"></path></g><defs><clipPath id="cognition-logo_svg__a"><path d="M7.156 0h47.957v49H7.156z" fill="var(--color-white)"></path></clipPath></defs></svg>