<svg fill="none" viewBox="0 0 85 19" height="19" width="85" xmlns="http://www.w3.org/2000/svg">
  <g clip-path="url(#clip0_3355_665389)">
    <path fill-opacity="0.8" fill="black" d="M24.892 0.182373C22.6383 0.182373 21.3525 1.45256 21.3525 3.55535C21.3525 5.59222 22.6388 6.90704 24.8482 6.90704C26.882 6.90704 28.0687 5.8668 28.2667 4.21302H26.7278C26.5846 5.15515 26.0021 5.72458 24.8592 5.72458C23.5953 5.72458 22.8477 4.99112 22.8477 3.54497C22.8477 2.09881 23.5181 1.36535 24.8592 1.36535C25.9584 1.36535 26.5299 1.91246 26.6835 2.86549H28.2115C28.0136 1.26673 26.9695 0.182373 24.892 0.182373Z"></path>
    <path fill-opacity="0.8" fill="black" d="M32.2018 6.90704C34.356 6.90704 35.675 5.60363 35.675 3.52265C35.675 1.35446 34.2351 0.182373 32.2018 0.182373C30.0476 0.182373 28.7285 1.39857 28.7285 3.56676C28.7285 5.73496 30.1685 6.90704 32.2018 6.90704ZM32.2018 1.36483C33.389 1.36483 34.1804 2.05469 34.1804 3.56625C34.1804 5.03368 33.4547 5.72354 32.2018 5.72354C31.0146 5.72354 30.2232 4.98956 30.2232 3.52212C30.2232 2.05469 30.9489 1.36483 32.2018 1.36483Z" clip-rule="evenodd" fill-rule="evenodd"></path>
    <path fill-opacity="0.8" fill="black" d="M37.9493 0.290922H36.4766V6.79705H37.9493V2.38333C38.3344 1.64935 38.8615 1.30987 39.7081 1.30987C40.7631 1.30987 41.3018 1.7921 41.3018 2.84324V6.79654H42.7745V2.63456C42.7745 1.0794 41.9175 0.181396 40.4005 0.181396C39.0596 0.181396 38.3229 0.871771 37.9493 2.02153V0.290922Z"></path>
    <path fill-opacity="0.8" fill="black" d="M44.9296 4.80327H43.3906C43.5553 6.10668 44.5341 6.90658 46.6446 6.90658C48.7549 6.90658 49.6453 6.04128 49.6453 4.88062C49.6453 3.89541 49.1728 3.21593 47.7438 3.0519L45.7761 2.82195C45.1937 2.75603 44.9848 2.52608 44.9848 2.14299C44.9848 1.68309 45.3365 1.33271 46.4576 1.33271C47.5787 1.33271 47.9631 1.70489 48.0512 2.27432H49.5792C49.3921 1.03684 48.5893 0.182434 46.5014 0.182434C44.4133 0.182434 43.5668 1.06954 43.5668 2.2302C43.5668 3.24863 44.1054 3.86218 45.5454 4.02621L47.4359 4.24527C48.0626 4.32209 48.2272 4.58474 48.2272 4.93512C48.2272 5.40592 47.7985 5.7563 46.6774 5.7563C45.5563 5.7563 45.0505 5.44953 44.9296 4.80327Z"></path>
    <path fill-opacity="0.8" fill="black" d="M50.2051 3.56579C50.2051 5.47133 51.3923 6.90606 53.6127 6.90606C55.4704 6.90606 56.6134 6.02986 56.9431 4.69375H55.437C55.2172 5.34 54.6566 5.72308 53.6564 5.72308C52.5462 5.72308 51.832 5.07683 51.7002 3.91617H56.9869C56.9978 1.63793 56.0085 0.181396 53.6236 0.181396C51.4798 0.181396 50.2051 1.55073 50.2051 3.56579ZM55.437 2.91954H51.7221C51.9091 1.8793 52.5905 1.33168 53.6127 1.33168C54.7775 1.33168 55.3381 1.95561 55.437 2.91954Z" clip-rule="evenodd" fill-rule="evenodd"></path>
    <path fill-opacity="0.8" fill="black" d="M59.1846 0.290922H57.7119V6.79705H59.1846V2.38333C59.5696 1.64935 60.0968 1.30987 60.9434 1.30987C61.9984 1.30987 62.537 1.7921 62.537 2.84324V6.79654H64.0098V2.63456C64.0098 1.0794 63.1528 0.181396 61.6358 0.181396C60.2948 0.181396 59.5581 0.871771 59.1846 2.02153V0.290922Z"></path>
    <path fill-opacity="0.8" fill="black" d="M66.1649 4.80327H64.626C64.7906 6.10668 65.7695 6.90658 67.8799 6.90658C69.9904 6.90658 70.8806 6.04128 70.8806 4.88062C70.8806 3.89541 70.4081 3.21593 68.9792 3.0519L67.0115 2.82195C66.4291 2.75603 66.2202 2.52608 66.2202 2.14299C66.2202 1.68309 66.5718 1.33271 67.6929 1.33271C68.814 1.33271 69.1985 1.70489 69.2865 2.27432H70.8145C70.6275 1.03684 69.8247 0.182434 67.7367 0.182434C65.6487 0.182434 64.8021 1.06954 64.8021 2.2302C64.8021 3.24863 65.3408 3.86218 66.7807 4.02621L68.6713 4.24527C69.298 4.32209 69.4626 4.58474 69.4626 4.93512C69.4626 5.40592 69.0339 5.7563 67.9128 5.7563C66.7917 5.7563 66.2858 5.44953 66.1649 4.80327Z"></path>
    <path fill-opacity="0.8" fill="black" d="M75.1659 8.39613L77.903 0.291748H76.3636L74.4731 5.98656L72.5054 0.291748H70.8789L73.0222 6.08519H74.4402L74.0776 7.19134H71.5937V8.39613H75.1659Z"></path>
    <path fill-opacity="0.8" fill="black" d="M79.4197 4.80419H77.8809C78.0455 6.1076 79.0244 6.90749 81.1347 6.90749C83.2452 6.90749 84.1355 6.0422 84.1355 4.88153C84.1355 3.89632 83.6629 3.21684 82.2339 3.05282L80.2663 2.82287C79.6839 2.75694 79.475 2.52699 79.475 2.14391C79.475 1.68401 79.8266 1.33363 80.9477 1.33363C82.0688 1.33363 82.4533 1.70581 82.5413 2.27524H84.0693C83.8823 1.03775 83.0795 0.18335 80.9915 0.18335C78.9035 0.18335 78.0569 1.07046 78.0569 2.23112C78.0569 3.24955 78.5956 3.8631 80.0355 4.02713L81.926 4.24618C82.5528 4.32301 82.7175 4.58565 82.7175 4.93603C82.7175 5.40684 82.2886 5.75722 81.1676 5.75722C80.0465 5.75722 79.5406 5.45045 79.4197 4.80419Z"></path>
    <path fill-opacity="0.8" fill="black" d="M17.9549 9.23706V6.79736V0.291748H11.4257H8.97718C4.01921 0.291748 0 4.29644 0 9.23652C0 14.1766 4.01972 18.1818 8.9777 18.1818C13.9357 18.1818 17.9549 14.1771 17.9549 9.23706ZM6.9371 4.76413L11.4257 0.291748V6.79736H17.9549L13.4653 11.2718H6.9371V4.76413Z" clip-rule="evenodd" fill-rule="evenodd"></path>
  </g>
  <defs>
    <clipPath id="clip0_3355_665389">
      <rect transform="translate(0 0.181396)" fill="white" height="18" width="85"></rect>
    </clipPath>
  </defs>
</svg>