<svg xmlns="http://www.w3.org/2000/svg" fill="none" viewBox="0 0 119 56" height="56" width="119">
<g clip-path="url(#clip0_5605_17958)">
<path fill="white" d="M69.7737 9.16609C69.7208 9.49628 69.6811 13.4057 69.6811 17.8831C69.6811 22.3472 69.6547 26.085 69.6283 26.1774C69.5886 26.2699 69.5357 29.5057 69.4828 33.3623C69.4035 39.6491 69.4167 40.3887 69.6018 40.4548C69.8134 40.534 74.6924 40.6001 74.7717 40.5208C74.851 40.4548 75.2345 16.8925 75.2345 12.6397V8.58496H69.853L69.7737 9.16609ZM14.2536 12.2302C13.5396 12.3227 12.8388 12.468 12.7066 12.5472C12.5611 12.6133 12.3231 12.6793 12.1777 12.6793C11.6091 12.6793 8.95147 14.0001 7.88047 14.8057C7.15325 15.3604 5.79136 16.7076 5.09058 17.5661C4.24436 18.5963 3.05436 20.7491 2.47258 22.2548C1.85114 23.8925 1.63958 24.5661 1.28258 25.9529C0.436363 29.2548 0.158696 31.5133 0.0661405 36.0567C0.0132516 38.4604 0.0264738 39.2001 0.158696 39.3585C0.317363 39.5435 0.621474 39.7019 1.71892 40.1774C1.97014 40.2831 2.4197 40.4812 2.71058 40.6001C3.38492 40.9038 4.05925 41.1944 4.5617 41.3925C4.78647 41.485 5.18314 41.6567 5.46081 41.7755C5.72525 41.8944 6.16158 42.0793 6.41281 42.185C6.67725 42.3038 7.08714 42.4755 7.33836 42.5944C7.58958 42.7001 7.99947 42.8718 8.23747 42.9774C8.80603 43.2284 9.54647 43.5453 10.0754 43.7831C10.9877 44.1793 11.8207 44.2453 13.209 44.0472C13.9495 43.9284 14.6899 43.7831 14.8883 43.717C15.0734 43.6378 15.4436 43.585 15.7213 43.585C16.3956 43.585 16.6997 43.2416 16.7261 42.4227C16.7526 42.0793 16.8055 40.5868 16.8451 39.0944C16.9377 36.3076 17.1889 33.6529 17.5327 32.0284C17.6385 31.5133 17.7178 30.985 17.7178 30.8529C17.7178 30.7076 17.8104 30.2718 17.9294 29.8623C18.0484 29.4529 18.2335 28.7925 18.3393 28.3963C18.8814 26.468 19.9524 24.2095 20.9308 22.9151C22.6365 20.6699 24.8314 19.3491 27.7006 18.834C30.1864 18.385 32.2094 18.7284 34.1134 19.917C34.8406 20.3793 36.4934 21.9774 36.7975 22.5321C37.3264 23.4963 38.2651 25.4642 38.3577 25.8076C38.4106 26.0321 38.5164 26.3887 38.5825 26.6133C38.9659 27.7887 39.1378 28.3963 39.1378 28.6076C39.1378 28.7529 39.2171 29.268 39.3229 29.7831C39.6799 31.5001 39.9311 33.9963 39.9444 36.0567C39.9708 38.1831 40.0501 38.6453 40.4071 38.7906C40.5261 38.8302 41.0947 38.751 41.6633 38.6189C42.5624 38.4076 42.7343 38.3284 42.8004 38.051C42.9326 37.5491 42.721 32.1604 42.4963 30.3114C42.1393 27.2736 41.7029 25.3585 40.8302 22.9812C40.3014 21.5812 39.1642 19.7718 38.0536 18.6095C36.3347 16.8001 34.6026 15.9151 30.8078 14.885C30.4111 14.7661 29.75 14.5944 29.3534 14.4887C28.9567 14.3699 28.2427 14.185 27.7667 14.0661C27.2907 13.9472 26.6164 13.7623 26.2461 13.6699C25.8891 13.5642 25.228 13.3925 24.7917 13.2868C24.3554 13.1812 23.6414 13.0095 23.205 12.9038C19.8995 12.0718 17.0038 11.8604 14.2536 12.2302ZM95.5703 17.1038C95.5306 17.1435 95.6496 17.5793 95.8215 18.068C96.0066 18.5567 96.1917 19.1246 96.2578 19.3491C96.3107 19.5604 96.4429 19.9567 96.5355 20.2076C96.8131 21.0001 97.0115 21.5812 97.2098 22.1227C97.5536 23.0604 97.7387 23.5623 97.8445 23.9718C97.9106 24.1831 98.0825 24.6982 98.2411 25.0944C98.3998 25.4906 98.5717 26.0057 98.6378 26.2302C98.6907 26.468 98.7832 26.7189 98.8361 26.8114C98.889 26.9038 98.9816 27.1548 99.0477 27.3925C99.1006 27.617 99.4576 28.6604 99.8278 29.717C100.198 30.7736 100.555 31.8038 100.621 32.0284C100.687 32.2397 100.952 33.0189 101.216 33.7453C101.481 34.4718 101.745 35.251 101.798 35.4755C101.864 35.7133 101.957 35.9642 102.009 36.0567C102.062 36.1491 102.155 36.4001 102.208 36.6378C102.274 36.8623 102.446 37.3774 102.591 37.7736C102.75 38.1699 102.869 38.5925 102.869 38.7246C102.869 38.8567 102.009 40.6529 100.952 42.7397C99.8939 44.8133 99.0345 46.6227 99.0345 46.7548C99.0345 46.9529 99.1667 47.0189 99.603 47.0718C100.568 47.1906 102.631 47.3359 103.517 47.3359L104.363 47.3491L106.188 43.7831C107.179 41.8152 108.7 38.8435 109.546 37.1793C110.392 35.5019 111.834 32.7152 112.719 30.9718C113.619 29.2284 114.861 26.785 115.496 25.5567C116.118 24.3152 116.699 23.1925 116.779 23.0472C116.858 22.9019 116.977 22.6906 117.03 22.585L117.876 20.8944C118.299 20.0359 118.696 19.4151 118.815 19.4151C118.921 19.4151 119 19.3359 119 19.2435C119 19.0982 118.458 19.0189 116.792 18.8736C115.562 18.7812 114.214 18.7019 113.79 18.6887H113.01L111.847 20.934C111.212 22.1623 110.181 24.1831 109.546 25.4246C108.33 27.8284 108.224 28.0001 108.026 28.3567C107.946 28.4887 107.854 28.6868 107.814 28.7925C107.774 28.8982 107.682 29.0963 107.616 29.2284C107.536 29.3604 107.232 29.9548 106.928 30.5491C106.624 31.1435 106.307 31.7114 106.214 31.8038C105.989 32.0416 105.778 31.8831 105.778 31.5001C105.778 31.3284 105.698 30.985 105.593 30.7472C105.5 30.5095 105.315 29.9812 105.196 29.585C105.09 29.1887 104.813 28.317 104.614 27.6699C104.403 27.0095 104.032 25.8604 103.808 25.0944C103.57 24.3284 103.292 23.5095 103.186 23.2718C103.08 23.034 103.001 22.7302 103.001 22.585C103.001 22.4397 102.922 22.1359 102.816 21.8982C102.71 21.6604 102.433 20.8416 102.208 20.0755C101.719 18.451 101.414 17.6718 101.216 17.5397C101.15 17.4868 100.634 17.434 100.092 17.434C99.5501 17.434 98.4791 17.3416 97.7122 17.2359C96.2049 17.0246 95.676 16.9982 95.5703 17.1038ZM56.7895 17.4208C54.3037 17.7378 51.6989 19.0057 50.099 20.6963C48.4463 22.4265 47.8116 23.6812 47.3224 26.151C46.8464 28.5152 47.2166 31.1302 48.3934 33.6001C49.1735 35.2378 50.9849 37.1661 52.4261 37.9057C52.717 38.0642 53.0476 38.2359 53.1534 38.2887C53.4443 38.4604 54.3037 38.7642 55.1499 39.0152C56.1813 39.3189 59.8306 39.3057 61.0602 39.0152C64.141 38.2623 66.5871 36.585 68.0151 34.2208C68.5176 33.4019 68.5308 33.085 68.0548 32.9529C67.6581 32.8472 65.8864 32.134 64.4716 31.5133L63.9559 31.2887L63.0171 32.2529C61.5891 33.7057 60.1083 34.3793 58.31 34.3661C56.2209 34.3661 54.5417 33.5076 53.5236 31.9359C52.7964 30.7868 52.5848 30.0076 52.5848 28.3435C52.5716 26.2963 53.0344 25.0416 54.2773 23.734C55.573 22.3736 58.072 21.8321 60.1611 22.4397C61.3908 22.7963 61.8536 23.0736 62.6205 23.8661C62.9907 24.2491 63.3741 24.5661 63.4667 24.5661C63.546 24.5661 64.5377 24.0114 65.6616 23.351C67.0367 22.5189 67.6978 22.0435 67.6978 21.8982C67.6978 21.5944 65.8203 19.6793 64.9873 19.1246C64.1014 18.5435 62.9907 18.0152 61.9858 17.6982C61.047 17.3944 58.191 17.2491 56.7895 17.4208Z"></path>
<path fill="white" d="M84.133 18.5566C81.396 19.0981 79.2408 20.7359 77.9979 23.2453C77.7864 23.668 77.6145 24.1302 77.6145 24.2623C77.6145 24.5 77.9979 24.7378 79.0028 25.1472C79.4656 25.3453 80.1399 25.6227 80.7878 25.9132C81.5812 26.2566 81.9911 26.4151 82.1101 26.4151C82.1762 26.4151 82.3613 26.1378 82.5332 25.7944C82.9166 25.0151 83.8554 24.051 84.5958 23.6679C85.0454 23.4302 85.3759 23.3774 86.2883 23.3774C87.5576 23.3774 88.2848 23.6283 88.9592 24.2887C89.4352 24.7642 89.9508 26.0849 89.8847 26.6925L89.845 27.1415L87.7295 27.2868C84.966 27.4717 83.6042 27.7491 81.7134 28.5151C79.9548 29.2151 78.6723 30.3113 77.9318 31.7113C77.5616 32.3981 77.5616 32.4774 77.5616 34.3396C77.5616 36.2283 77.5748 36.268 77.9979 37.1396C79.0161 39.2396 80.9994 40.3095 83.9612 40.3095C86.3015 40.3227 88.3774 39.5698 89.9112 38.1698C90.8103 37.351 90.9293 37.3113 91.1541 37.734C91.3921 38.1963 92.3573 39.1208 92.8862 39.3981C93.4679 39.7151 94.6447 40.0189 95.2529 40.0189C96.3372 40.0057 98.0957 39.4113 99.008 38.7246C99.5237 38.3547 99.5237 38.1963 99.0477 36.9812C98.4924 35.568 98.3469 35.1981 98.2808 34.8944C98.1883 34.4849 97.9106 34.3925 97.5139 34.6566C97.0644 34.9472 96.4826 34.9208 96.1785 34.5906C95.7025 34.0623 95.5835 33.2038 95.4645 29.3868C95.3455 25.2793 95.2397 24.6321 94.486 23.0604C93.5605 21.1585 91.9342 19.7057 89.845 18.9396C88.3509 18.3981 85.7858 18.2264 84.133 18.5566ZM89.9508 31.4604C90.3475 31.7642 89.8186 33.1774 88.9724 34.0755C87.8353 35.2642 86.7907 35.7264 85.2173 35.7264C83.8289 35.7264 83.4455 35.5415 83.1149 34.6698C82.8505 33.983 82.8505 33.6396 83.1149 33.1246C83.6835 32.0283 84.7942 31.6981 88.9195 31.3812C89.2104 31.368 89.5145 31.3415 89.5938 31.3283C89.6599 31.3151 89.8318 31.3812 89.9508 31.4604ZM28.1634 19.9566C27.9122 20.0227 27.4097 20.1283 27.0395 20.1944C24.4083 20.683 22.0283 22.783 20.587 25.8868C19.9788 27.1944 19.4896 28.5151 19.3045 29.3208C19.2516 29.5717 19.1458 30.0472 19.0665 30.3774C18.4583 32.8736 18.1277 35.8585 18.0219 39.5566C17.9294 43.3076 17.8765 43.1623 19.1987 42.9246C20.7854 42.634 21.2085 42.4755 21.3011 42.1321C21.3539 41.9472 21.3936 41.0887 21.4068 40.217C21.4465 34.6038 22.3853 29.1755 23.6546 27.0623C23.8133 26.8113 23.9852 26.468 24.0645 26.2963C24.2628 25.8604 25.7702 24.3944 26.3123 24.117C27.9915 23.2717 29.8029 23.2585 31.6012 24.0774C31.9317 24.2227 32.5532 24.7113 33.0027 25.1472C34.9464 27.1019 35.8719 30.5359 36.0306 36.4661C36.0571 37.8925 36.1364 39.1604 36.1761 39.2793C36.3083 39.6095 36.6521 39.6359 37.6834 39.3717C38.3709 39.2 38.6883 39.0547 38.7544 38.883C38.7941 38.7378 38.8205 37.6547 38.7808 36.4529C38.6486 30.6019 37.6173 26.0453 35.7794 23.2057C35.3034 22.4793 34.0869 21.2246 33.5713 20.934C31.9185 19.9963 29.6311 19.5868 28.1634 19.9566Z"></path>
<path fill="white" d="M28.4939 24.6188C28.4278 24.6452 28.0047 24.7772 27.5684 24.9093C26.9072 25.0942 26.6296 25.2791 25.9156 26.0055C25.4396 26.481 24.9107 27.181 24.7388 27.5376C24.5669 27.9074 24.3554 28.3565 24.2496 28.5546C24.1438 28.7395 24.0645 28.9905 24.0645 29.1093C24.0645 29.215 23.9851 29.5055 23.8794 29.7433C23.2447 31.2489 22.6761 35.832 22.5836 40.2961C22.5439 42.3169 22.5175 42.3037 25.0561 41.8018C25.5718 41.6961 26.4841 41.5244 27.1056 41.4055C27.727 41.2867 28.6526 41.115 29.155 41.0093C29.6707 40.9037 30.583 40.732 31.2045 40.6131C31.8259 40.4942 32.7515 40.3093 33.2539 40.2037C33.7696 40.098 34.2852 40.0188 34.4175 40.0188C34.8406 40.0188 34.9199 39.4376 34.8406 36.664C34.6555 30.1791 33.5845 26.6923 31.3367 25.3055C30.6624 24.8829 28.9302 24.4735 28.4939 24.6188Z"></path>
</g>
<defs>
<clipPath id="clip0_5605_17958">
<rect fill="white" height="56" width="119"></rect>
</clipPath>
</defs>
</svg>
