<svg xmlns="http://www.w3.org/2000/svg" fill="none" viewBox="0 0 189 56" height="56" width="189">
<path fill="white" d="M146.266 20.1006L149.966 29.5859L153.687 20.1006H158.995L148.666 45H143.396L147.41 35.0898L140.957 20.1006H146.266ZM27.8496 30.9316C29.8555 30.9318 31.4813 32.5062 31.4814 34.4482C31.4814 36.3904 29.8555 37.9647 27.8496 37.9648C25.8435 37.9648 24.2168 36.3905 24.2168 34.4482C24.2169 32.5061 25.8436 30.9316 27.8496 30.9316ZM11.1367 19.209C11.8321 19.2255 12.5104 19.4252 13.1025 19.7861C13.6946 20.1471 14.1794 20.6567 14.5068 21.2637C15.1645 22.4935 15.0825 23.9734 14.2949 25.1279L7.24414 36.085C6.88665 36.6359 6.39402 37.0887 5.8125 37.4014C5.23099 37.714 4.57885 37.8769 3.91699 37.874C3.22107 37.8755 2.53649 37.6941 1.93457 37.3486C1.33273 37.0032 0.83419 36.5054 0.490234 35.9072C0.1517 35.3133 -0.0169755 34.6395 0.00195312 33.958C0.0209117 33.2763 0.226427 32.6119 0.597656 32.0371L7.65332 21.0811C8.01434 20.4923 8.52696 20.0085 9.13867 19.6797C9.75057 19.3509 10.4407 19.1882 11.1367 19.209ZM23.2334 19.209C24.6684 19.24 25.9693 20.0337 26.627 21.2754C27.2801 22.5171 27.1837 24.0057 26.3721 25.1572L19.332 36.0889C18.9756 36.6375 18.4853 37.0886 17.9062 37.4004C17.3272 37.7122 16.6779 37.8747 16.0186 37.873C14.5958 37.873 13.2863 37.121 12.5986 35.9121C12.2607 35.3197 12.0914 34.6468 12.1104 33.9668C12.1293 33.2869 12.3356 32.6248 12.7061 32.0518L19.748 21.1201C20.1038 20.5231 20.6147 20.0304 21.2275 19.6943C21.8404 19.3584 22.533 19.1911 23.2334 19.209ZM171.364 29.667C173.544 29.6671 175.378 31.2091 175.378 33.6377C175.378 36.0665 173.533 37.666 171.354 37.666L171.364 37.6592C169.185 37.6592 167.365 36.0665 167.365 33.6377C167.365 31.209 169.185 29.667 171.364 29.667ZM163.736 29.667C164.288 29.6564 164.835 29.7608 165.343 29.9727C165.851 30.1845 166.308 30.4997 166.686 30.8975L165.556 31.8496C165.316 31.6165 165.031 31.4324 164.719 31.3086C164.407 31.1848 164.073 31.1234 163.736 31.1279C162.361 31.1279 161.165 32.096 161.165 33.6377C161.165 34.6799 161.792 35.6184 162.753 36.0176C163.714 36.4167 164.82 36.1951 165.556 35.459L166.702 36.4111C166.324 36.8129 165.864 37.1317 165.354 37.3467C164.843 37.5616 164.291 37.6683 163.736 37.6592C161.558 37.6592 159.69 36.0665 159.69 33.6377L159.675 33.6465C159.675 31.2179 161.542 29.6759 163.736 29.667ZM185.941 29.6758C187.866 29.6759 188.89 30.9223 188.891 33.0713V37.502H187.4V33.1709C187.4 31.907 186.744 31.1348 185.646 31.1348C184.376 31.1201 183.599 32.0872 183.599 33.3672V37.502H182.116V33.1543C182.116 31.8905 181.459 31.1348 180.461 31.1348C179.395 31.1349 178.331 31.7592 178.331 33.3672V37.502H176.84V29.8398H178.331V30.9893C178.739 30.1348 179.83 29.7578 180.443 29.709C180.723 29.6914 181.004 29.7079 181.28 29.7578C181.719 29.8049 182.136 29.9686 182.488 30.2314C182.84 30.4943 183.114 30.8469 183.279 31.251C183.992 29.8806 185.188 29.6758 185.941 29.6758ZM120.143 36.8076H115.195V34.7324C114.369 36.2697 112.364 37.165 110.283 37.165C105.98 37.165 102.179 33.7665 102.179 28.5039C102.179 23.1424 105.98 19.7393 110.283 19.7393C112.361 19.7393 114.372 20.5969 115.195 22.1357V11H120.143V36.8076ZM130.084 19.7422C131.159 19.7422 133.67 20.0974 134.96 21.96V20.1064H139.908V36.8105L134.96 36.8076V34.9111C133.884 36.5222 131.372 37.1309 130.084 37.1309C125.818 37.1307 121.551 33.8052 121.551 28.4365C121.551 23.0691 125.817 19.7424 130.084 19.7422ZM74.8438 19.7354C79.5805 19.7354 83.5575 23.135 83.5576 28.3975C83.5576 33.66 79.5761 37.0907 74.8438 37.0908C70.1113 37.0908 66.1631 33.6571 66.1631 28.3975C66.1632 23.135 70.1069 19.7354 74.8438 19.7354ZM155.937 34.999C156.072 35.0006 156.206 35.0285 156.33 35.0811C156.455 35.1337 156.567 35.2109 156.662 35.3066C156.757 35.4024 156.831 35.5154 156.882 35.6396C156.932 35.764 156.958 35.8973 156.956 36.0312C156.943 36.2905 156.83 36.5349 156.641 36.7148C156.451 36.8948 156.199 36.9963 155.937 36.999C155.674 36.9963 155.422 36.8948 155.232 36.7148C155.043 36.535 154.93 36.2905 154.917 36.0312C154.915 35.8973 154.941 35.764 154.991 35.6396C155.042 35.5154 155.116 35.4024 155.211 35.3066C155.306 35.2108 155.418 35.1337 155.543 35.0811C155.667 35.0285 155.801 35.0006 155.937 34.999ZM58.4834 19.7363C62.4579 19.7364 64.9375 22.2765 64.9375 27.3203V36.8076H59.9902V27.8965C59.9902 25.7162 58.6987 24.5705 57.2295 24.5703C55.6525 24.5703 54.3604 25.539 54.3604 27.9678V36.8057H49.377V27.7891C49.3396 25.6781 48.0512 24.5693 46.6162 24.5693C45.111 24.5694 43.7119 25.4282 43.7119 27.9678V36.8057H38.7295V20.1016H43.7168V22.5264C44.1012 21.7002 44.7176 21.0004 45.4932 20.5117C46.2687 20.0231 47.1703 19.7659 48.0898 19.7705C50.7386 19.7705 52.5311 20.773 53.4639 22.7051C55.0782 20.0915 57.3025 19.7363 58.4834 19.7363ZM94.7842 19.7393C98.5493 19.7394 100.917 22.0664 100.917 26.8232V36.8047H95.9336V27.8955C95.9336 25.6783 94.7137 24.5695 93.0293 24.5693C91.2729 24.5693 89.9453 25.4281 89.9453 27.9678V36.8047H84.9629V20.1006H89.9434V22.5303C90.8402 20.848 92.8126 19.7393 94.7842 19.7393ZM171.364 31.1348C169.988 31.1348 168.841 32.1033 168.841 33.6465C168.814 34.3265 169.069 34.9892 169.544 35.4756C170.019 35.9632 170.674 36.2335 171.353 36.2217H171.364C172.046 36.2364 172.704 35.9673 173.181 35.4795C173.659 34.9917 173.913 34.3278 173.888 33.6465C173.888 32.1034 172.739 31.1348 171.364 31.1348ZM111.216 24.4268C109.099 24.4268 107.342 26.0017 107.342 28.3994C107.342 30.8737 109.099 32.4402 111.214 32.4404C113.296 32.4434 115.087 30.797 115.087 28.3994C115.087 25.8952 113.259 24.4268 111.216 24.4268ZM130.909 24.4629C128.83 24.463 126.714 26.0414 126.714 28.4375C126.714 30.8322 128.83 32.4081 130.909 32.4082C132.952 32.4082 134.96 30.9419 134.96 28.4365C134.96 25.9309 132.953 24.4629 130.909 24.4629ZM74.8438 24.6055C74.3431 24.5977 73.8459 24.6916 73.3828 24.8799C72.9199 25.0682 72.5006 25.3475 72.1504 25.7012C71.7981 26.0568 71.521 26.479 71.3369 26.9424C71.1528 27.4058 71.0648 27.9016 71.0781 28.3994C71.0798 30.726 72.8005 32.2275 74.8438 32.2275C76.9213 32.2274 78.6444 30.723 78.6445 28.3994C78.6445 26.1451 76.9229 24.6056 74.8438 24.6055Z"></path>
</svg>
