<svg xmlns="http://www.w3.org/2000/svg" fill="none" viewBox="0 0 143 56" height="56" width="143">
<path fill="white" d="M45.9893 7.75977C46.6989 7.75783 47.4072 7.80037 48.1035 7.94629C48.1596 7.95779 48.1602 7.95792 48.2178 7.96973C48.6428 8.06091 49.054 8.19173 49.4658 8.33008C49.5161 8.34654 49.5669 8.36344 49.6172 8.37988C50.0634 8.52881 50.5 8.71846 50.9014 8.96484C50.9747 9.00874 51.0487 9.04675 51.126 9.08301C51.5118 9.27228 51.8683 9.53913 52.2178 9.78809C52.2571 9.81591 52.2577 9.81625 52.2979 9.84473C52.3205 9.8612 52.3428 9.87854 52.3662 9.89551C52.3854 9.90942 52.4051 9.92317 52.4248 9.9375C52.4379 9.9496 52.4514 9.96215 52.4648 9.97461V10.0371C52.4819 10.0444 52.5 10.0511 52.5176 10.0586C52.6065 10.1081 52.6726 10.1708 52.7471 10.2402C52.8456 10.3355 52.8461 10.3359 52.96 10.4092V10.4707C52.9854 10.4821 52.9859 10.4826 53.0117 10.4941C53.0962 10.54 53.1665 10.5932 53.2383 10.6572V10.7188C53.2585 10.7289 53.279 10.7395 53.2998 10.75C53.3727 10.8285 53.4433 10.9095 53.5137 10.9902C53.572 11.0613 53.5725 11.0621 53.6406 11.0918V11.1533C53.6711 11.1635 53.702 11.1741 53.7334 11.1846C53.7754 11.2459 53.8162 11.3086 53.8564 11.3711C53.8768 11.3813 53.898 11.3909 53.9189 11.4014C53.9371 11.433 53.9366 11.4335 53.9551 11.4658C54.0031 11.5439 54.0503 11.6026 54.1113 11.6699C54.2252 11.7993 54.3244 11.9353 54.4209 12.0781C54.438 12.1034 54.455 12.1293 54.4727 12.1553C54.6374 12.4011 54.7854 12.6557 54.9297 12.9141C54.972 12.988 55.0167 13.0604 55.0615 13.1328C55.1654 13.3057 55.2459 13.4866 55.3252 13.6719C55.34 13.7062 55.3549 13.7411 55.3701 13.7764C55.4121 13.8739 55.4537 13.9716 55.4951 14.0693C55.505 14.0926 55.5152 14.1167 55.5254 14.1406C55.6272 14.3816 55.7147 14.6274 55.7988 14.875C55.8081 14.9021 55.8176 14.9291 55.8271 14.957C55.8733 15.0958 55.9067 15.2256 55.9209 15.3711C55.9332 15.4707 55.9567 15.5674 55.9795 15.665C56.0524 15.9781 56.1082 16.292 56.1523 16.6104C56.1573 16.6458 56.1628 16.6812 56.168 16.7178C56.2435 17.2856 56.2426 17.853 56.2422 18.4248V20.0703C56.2425 20.5933 56.2431 21.1167 56.2432 21.6396V26.5723C56.2431 27.5429 56.2437 28.5137 56.2441 29.4844C56.2446 30.5763 56.2451 31.6688 56.2451 32.7607V37.3467C56.245 37.4511 56.2459 37.5557 56.2461 37.6602C56.2474 38.3246 56.2276 38.9908 56.1182 39.6475C56.1129 39.6803 56.107 39.7133 56.1016 39.7471C56.0178 40.2598 55.906 40.7617 55.749 41.2568C55.7388 41.2898 55.7283 41.3235 55.7178 41.3574C55.6577 41.547 55.5883 41.7273 55.5039 41.9072C55.4633 41.994 55.4254 42.0819 55.3877 42.1699C55.375 42.1996 55.3618 42.2302 55.3486 42.2607C55.3229 42.3208 55.2971 42.3813 55.2715 42.4414C55.1877 42.6362 55.0977 42.8269 55.001 43.0156H54.9395C54.9318 43.0365 54.9239 43.0576 54.916 43.0791C54.7094 43.5719 54.3803 44.0436 54.0156 44.4307C53.9395 44.5159 53.8736 44.6066 53.8066 44.6992C53.7012 44.8431 53.5942 44.9539 53.4551 45.0635C53.3724 45.1406 53.3075 45.2062 53.25 45.3037C53.1681 45.4337 53.0427 45.5191 52.9238 45.6133C52.8246 45.6926 52.7302 45.7773 52.6367 45.8633C52.5889 45.9007 52.5885 45.9014 52.5273 45.9014C52.5183 45.9269 52.518 45.9273 52.5088 45.9531C52.4482 46.0535 52.3623 46.112 52.2686 46.1787C52.2485 46.1932 52.2277 46.2077 52.207 46.2227C51.7807 46.5275 51.3362 46.8314 50.8652 47.0625C50.828 47.0808 50.7901 47.0989 50.7529 47.1172C50.725 47.1309 50.7246 47.1316 50.6963 47.1455C50.6428 47.1721 50.5891 47.1999 50.5361 47.2275C50.0333 47.4885 49.5017 47.6619 48.9619 47.8291C48.8949 47.8499 48.8276 47.872 48.7607 47.8936C47.8158 48.1856 46.8168 48.2419 45.835 48.2393C45.7472 48.2393 45.6591 48.24 45.5713 48.2402H26.2529C25.5377 48.242 24.8261 48.1975 24.125 48.0479C24.0867 48.0399 24.0482 48.0316 24.0088 48.0234C23.7115 47.96 23.4203 47.8829 23.1318 47.7871C23.0554 47.7619 22.9782 47.7368 22.9014 47.7129C22.3666 47.5437 21.8437 47.3344 21.3623 47.0439C21.2631 46.9859 21.1616 46.9366 21.0576 46.8877C20.7671 46.7442 20.5072 46.5544 20.2441 46.3662C20.2207 46.3496 20.197 46.3325 20.1729 46.3154C20.1071 46.2687 20.041 46.222 19.9756 46.1748C19.946 46.1537 19.9458 46.1531 19.916 46.1318C19.8699 46.098 19.8245 46.0618 19.7803 46.0254V45.9629C19.7633 45.961 19.746 45.959 19.7285 45.957C19.6262 45.921 19.5756 45.8565 19.502 45.7773C19.3809 45.6433 19.3806 45.6425 19.2236 45.5596C19.1718 45.5153 19.1713 45.5151 19.1309 45.4668V45.4043C19.1129 45.3966 19.0947 45.3888 19.0762 45.3809C18.9987 45.3373 18.9559 45.291 18.8994 45.2227C18.84 45.1519 18.7819 45.0852 18.7158 45.0205C18.6675 44.9701 18.667 44.9702 18.667 44.9082H18.6055C18.4292 44.7574 18.2462 44.539 18.1729 44.3184C18.1424 44.3082 18.1114 44.2986 18.0801 44.2881C18.0297 44.2264 17.9835 44.165 17.9385 44.0996C17.9249 44.0802 17.9114 44.0601 17.8975 44.04C17.7597 43.8405 17.6299 43.6365 17.5049 43.4287C17.4586 43.3527 17.4111 43.2772 17.3633 43.2021C17.1224 42.8153 16.9369 42.4175 16.7656 41.9961C16.7553 41.9708 16.745 41.945 16.7344 41.9189C16.6251 41.6491 16.5224 41.3772 16.4287 41.1016C16.4172 41.0682 16.417 41.0682 16.4053 41.0342C16.3567 40.8876 16.3338 40.7492 16.3174 40.5957C16.2969 40.5234 16.2765 40.4511 16.2559 40.3789C16.2277 40.2456 16.2022 40.1115 16.1777 39.9775C16.1675 39.9215 16.1676 39.9212 16.1572 39.8643C16.1082 39.592 16.0643 39.3205 16.0391 39.0449C16.0365 39.0196 16.0339 38.9939 16.0312 38.9678C15.9982 38.5859 16.0036 38.2033 16.0039 37.8203V36.9258C16.004 36.6439 16.0031 36.362 16.0029 36.0801V32.7998C16.0027 31.9702 16.0019 31.1401 16.002 30.3105V26.4863C16.0015 25.3739 16.0009 24.2609 16.001 23.1484V19.8779C16.0011 19.5978 16.0003 19.3172 16 19.0371V18.1543C15.9988 17.5281 16.018 16.9057 16.1299 16.2881C16.1379 16.242 16.1383 16.2415 16.1465 16.1943C16.1619 16.1068 16.1772 16.0191 16.1934 15.9316C16.1977 15.908 16.2026 15.8837 16.207 15.8594C16.3412 15.1385 16.5719 14.4625 16.8564 13.7891C16.8706 13.7552 16.8713 13.7544 16.8857 13.7197C17.0632 13.2964 17.29 12.9187 17.5381 12.5332C17.5799 12.4657 17.6162 12.3968 17.6523 12.3262C17.7304 12.1819 17.8271 12.0521 17.9248 11.9209C17.9405 11.8997 17.9565 11.8783 17.9727 11.8564C18.0436 11.7625 18.1154 11.6736 18.2002 11.5918C18.2724 11.5342 18.2728 11.5338 18.2656 11.4639C18.3164 11.4116 18.3678 11.3596 18.4199 11.3086C18.4301 11.2882 18.4407 11.2671 18.4512 11.2461H18.5127V11.1846H18.5742V11.1221H18.6367C18.6408 11.0951 18.6404 11.0943 18.6445 11.0664C18.673 10.9804 18.711 10.9518 18.7812 10.8955C18.8883 10.8064 18.9766 10.713 19.0625 10.6035C19.0749 10.5905 19.0879 10.5778 19.1006 10.5645H19.1621C19.1774 10.5185 19.1778 10.5177 19.1934 10.4707C19.2345 10.4432 19.2763 10.4157 19.3184 10.3896C19.4279 10.3119 19.5234 10.2161 19.6211 10.124C19.6876 10.0678 19.6883 10.0674 19.75 10.0674C19.7572 10.0494 19.7641 10.0312 19.7715 10.0127C19.8544 9.86878 20.0166 9.78738 20.1514 9.69531C20.1721 9.6811 20.1935 9.66699 20.2148 9.65234C20.6278 9.3698 21.0441 9.10051 21.4941 8.88086C21.5717 8.84295 21.6489 8.80426 21.7256 8.76465C22.2538 8.4925 22.7983 8.31157 23.3672 8.14453C23.4064 8.13291 23.4071 8.13204 23.4473 8.12012C23.7564 8.02945 24.069 7.96346 24.3857 7.90527C24.4361 7.89592 24.4369 7.89626 24.4883 7.88672C25.0761 7.7833 25.6589 7.76258 26.2549 7.76367H27.1523C27.4351 7.76384 27.7182 7.76295 28.001 7.7627H31.0234C31.1129 7.76267 31.2026 7.76175 31.292 7.76172H37.6279C38.7447 7.76108 39.8627 7.76062 40.9795 7.76074H41.4258C41.8676 7.76078 42.3102 7.7601 42.752 7.75977H45.9893ZM41.7656 15.4531C41.5575 15.4543 41.3486 15.4567 41.1406 15.4619C40.9259 15.4673 40.7109 15.4703 40.4961 15.4727C40.0333 15.4776 39.5701 15.4861 39.1074 15.4971C39.1074 15.5591 39.1071 15.5592 39.1338 15.6133C39.1467 15.6357 39.1593 15.6579 39.1719 15.6797C39.1937 15.7177 39.1944 15.7175 39.2158 15.7549C39.2322 15.7831 39.2478 15.8115 39.2637 15.8389C39.3161 15.9301 39.3692 16.0211 39.4219 16.1123C39.4981 16.2442 39.5734 16.3768 39.6494 16.5088C39.6693 16.5433 39.6888 16.5769 39.708 16.6104C39.94 17.0133 40.1692 17.418 40.3955 17.8242C40.6369 18.2583 40.8818 18.6908 41.1299 19.1211C41.4512 19.6782 41.7647 20.2395 42.0752 20.8027C42.0142 20.7746 42.0137 20.774 41.9678 20.7363C41.9498 20.7215 41.9325 20.7068 41.915 20.6924C41.8946 20.6756 41.8743 20.6589 41.8545 20.6426C41.6897 20.5067 41.5246 20.3709 41.3564 20.2393C41.1969 20.1147 41.0387 19.9885 40.8828 19.8594C40.6848 19.695 40.4868 19.5311 40.2822 19.375C40.0576 19.2041 39.8362 19.0301 39.6191 18.8496C39.4597 18.717 39.299 18.5857 39.1357 18.458C39.0018 18.3533 38.8689 18.2472 38.7373 18.1396C38.5629 17.9968 38.3874 17.8549 38.21 17.7158C38.0753 17.6103 37.942 17.5028 37.8096 17.3945C37.6352 17.2518 37.4596 17.1097 37.2822 16.9707C37.1477 16.8653 37.0142 16.7586 36.8818 16.6504C36.7182 16.5164 36.554 16.3819 36.3887 16.25C36.3695 16.2348 36.3507 16.2199 36.332 16.2051C36.2459 16.136 36.1616 16.0687 36.0645 16.0156C36.0476 16.0083 36.031 16.0003 36.0146 15.9932V15.9316C35.9938 15.9212 35.9734 15.9106 35.9531 15.9004C35.9076 15.8519 35.8612 15.8032 35.8145 15.7559C35.4853 15.4445 35.1663 15.4426 34.7305 15.4541C34.6509 15.4563 34.5708 15.4582 34.4912 15.459C34.2816 15.46 34.0718 15.4623 33.8623 15.4668C33.6454 15.4714 33.4278 15.4745 33.2109 15.4766C32.7439 15.4809 32.2766 15.4876 31.8096 15.4971C31.8096 15.5591 31.8093 15.5595 31.8379 15.6162C31.9357 15.7876 32.0266 15.9619 32.1143 16.1387C32.2243 16.3613 32.3342 16.5841 32.4502 16.8037C32.5635 17.0175 32.6746 17.2325 32.7822 17.4492C32.9088 17.7049 33.0363 17.9599 33.1699 18.2119C33.2701 18.4009 33.3678 18.5916 33.4629 18.7832C33.5895 19.0388 33.717 19.2939 33.8506 19.5459C33.9675 19.7664 34.0797 19.9892 34.1904 20.2129C34.2904 20.4148 34.3911 20.6162 34.4961 20.8154C34.6037 21.0188 34.7103 21.223 34.8135 21.4287C34.8276 21.4569 34.8418 21.4843 34.8555 21.5117C34.9277 21.6559 35.0004 21.7988 35.0566 21.9502C34.83 21.76 34.8291 21.7598 34.623 21.5469C34.5468 21.4683 34.4707 21.3936 34.3867 21.3232C34.2576 21.2204 34.1302 21.1183 34.0146 21C33.9618 20.9451 33.9084 20.8926 33.8516 20.8418C33.7499 20.754 33.6507 20.6654 33.5566 20.5693C33.5008 20.5121 33.4438 20.4572 33.3838 20.4043C33.3223 20.3516 33.2609 20.2989 33.2012 20.2441C33.1194 20.1409 33.039 20.052 32.9404 19.9648C32.8933 19.9237 32.8457 19.8823 32.7988 19.8408C32.6974 19.7391 32.5956 19.6419 32.4863 19.5488C32.3351 19.4204 32.1873 19.2909 32.0488 19.1484C31.9889 19.0852 31.9405 19.0383 31.8643 18.9961C31.8458 18.988 31.8275 18.9795 31.8096 18.9717V18.9102H31.748C31.748 18.8484 31.7475 18.8476 31.708 18.8076C31.5915 18.7108 31.4775 18.6106 31.3662 18.5078C31.3495 18.4923 31.3326 18.4769 31.3164 18.4619C31.0432 18.2083 30.7724 17.9518 30.502 17.6953C30.4779 17.6725 30.454 17.6501 30.4307 17.6279C30.3845 17.5842 30.3381 17.5398 30.292 17.4961C30.19 17.3991 30.0881 17.302 29.9824 17.209C29.8625 17.1048 29.7479 16.9985 29.6377 16.8838C29.5673 16.8104 29.5074 16.7482 29.4189 16.6982C29.4012 16.6909 29.3834 16.683 29.3662 16.6758V16.6143C29.256 16.491 29.129 16.3743 28.9844 16.2939C28.9591 16.2832 28.9582 16.2829 28.9336 16.2725V16.2109C28.9022 16.2004 28.8713 16.1899 28.8408 16.1797V16.1172H28.7793V16.0557C28.7629 16.0394 28.7464 16.0236 28.7305 16.0078C28.664 15.9522 28.5978 15.8956 28.5322 15.8389L28.377 15.6836C28.3627 15.6675 28.3488 15.6513 28.335 15.6357C28.1994 15.4983 28.0921 15.4752 27.9023 15.4736C27.8681 15.4743 27.834 15.4749 27.8008 15.4756C27.688 15.4755 27.5747 15.4762 27.4619 15.4775C27.3814 15.4785 27.3003 15.4791 27.2197 15.4795C27.0084 15.48 26.7963 15.4813 26.585 15.4834C26.366 15.4855 26.1467 15.4863 25.9277 15.4873C25.4559 15.4893 24.9836 15.4927 24.5117 15.4971C24.5117 15.5591 24.5122 15.5591 24.5332 15.6123C24.5433 15.6344 24.5527 15.6563 24.5625 15.6777C24.5741 15.7035 24.5864 15.7289 24.5977 15.7539C24.6242 15.8125 24.6498 15.8718 24.6758 15.9307C24.6972 15.9796 24.6978 15.9796 24.7188 16.0273C24.7337 16.0614 24.7482 16.0949 24.7627 16.1279L24.8525 16.333C24.8674 16.3669 24.8821 16.3997 24.8965 16.4326C24.9378 16.5267 24.9792 16.6213 25.0195 16.7158C25.0655 16.8237 25.1123 16.9316 25.1592 17.0391C25.1706 17.0651 25.1813 17.0909 25.1924 17.1162C25.2166 17.1716 25.2414 17.2278 25.2656 17.2832C25.2907 17.3406 25.3157 17.3986 25.3408 17.4561C25.4511 17.7088 25.5606 17.9623 25.6758 18.2129C25.7644 18.4027 25.8482 18.5938 25.9287 18.7871C26.0476 19.0726 26.1706 19.3565 26.2949 19.6396C26.3189 19.6943 26.3432 19.7491 26.3672 19.8037C26.4277 19.9417 26.4883 20.0798 26.5488 20.2178C26.6055 20.3468 26.6621 20.4764 26.7188 20.6055C26.7478 20.6717 26.7766 20.7384 26.8057 20.8047C26.889 20.9946 26.9728 21.1849 27.0557 21.375C27.1601 21.6145 27.2644 21.8543 27.3691 22.0938C27.4048 22.1752 27.441 22.2564 27.4766 22.3379C27.5895 22.5965 27.7017 22.8559 27.8174 23.1133C27.8268 23.1341 27.8366 23.1546 27.8457 23.1748C27.8792 23.2494 27.9128 23.3239 27.9463 23.3984C27.962 23.4328 27.9769 23.4666 27.9922 23.5C28.0064 23.5315 28.0204 23.5622 28.0342 23.5928C28.1196 23.7806 28.1407 23.9247 28.0898 24.127C28.0758 24.1799 28.0621 24.233 28.0488 24.2861C28.0412 24.3171 28.0338 24.3479 28.0264 24.3779C27.9697 24.6061 27.918 24.8359 27.8672 25.0654C27.8618 25.0899 27.8568 25.1139 27.8516 25.1377C27.78 25.4608 27.71 25.7845 27.6465 26.1094C27.5531 26.5868 27.4468 27.0613 27.3369 27.5352C27.3128 27.6389 27.2887 27.7429 27.2646 27.8467C27.2584 27.8736 27.2522 27.9006 27.2461 27.9268C27.1699 28.2553 27.0957 28.5838 27.0322 28.915C26.9696 29.2421 26.895 29.5664 26.8193 29.8906C26.7208 30.3125 26.6282 30.7352 26.5439 31.1602C26.5113 31.3254 26.4804 31.4916 26.4365 31.6543C26.3946 31.7994 26.3595 31.9427 26.334 32.0918C26.291 32.3484 26.2391 32.6013 26.1797 32.8545C26.1494 32.9827 26.1197 33.1119 26.0898 33.2402C26.0835 33.2676 26.0775 33.2947 26.0713 33.3213C25.9924 33.6616 25.9181 34.003 25.8457 34.3447C25.836 34.3908 25.8262 34.4373 25.8164 34.4834C25.8116 34.5058 25.8064 34.528 25.8018 34.5498C25.7771 34.6657 25.7523 34.7815 25.7236 34.8965C25.6852 35.0454 25.65 35.1927 25.626 35.3447C25.5926 35.5568 25.547 35.7662 25.5 35.9756C25.4894 36.0228 25.4783 36.07 25.4678 36.1172C25.4103 36.3757 25.3517 36.6346 25.292 36.8926C25.2859 36.9191 25.2804 36.945 25.2744 36.9707C25.2624 37.0227 25.2503 37.075 25.2383 37.127C25.2322 37.1533 25.2257 37.1795 25.2197 37.2051C25.2137 37.2312 25.208 37.2568 25.2021 37.2822C25.126 37.6103 25.0514 37.9388 24.9873 38.2695C24.9356 38.5377 24.8788 38.805 24.8184 39.0713C24.7585 39.3344 24.6979 39.5974 24.6416 39.8613C24.6364 39.886 24.631 39.9106 24.626 39.9346C24.5839 40.1315 24.5837 40.1323 24.5117 40.5654H28.1611C28.2783 40.2631 28.395 39.9601 28.5156 39.6592C28.6274 39.3807 28.739 39.1021 28.8447 38.8213C29.0256 38.3386 29.2214 37.8614 29.4199 37.3857C29.4662 37.2754 29.5092 37.1643 29.5498 37.0518C29.8624 36.2078 29.8632 36.2071 30.1943 35.3701C30.2423 35.2486 30.2899 35.1264 30.3379 35.0049C30.3479 34.9795 30.3584 34.9543 30.3682 34.9297C30.5194 34.5463 30.6684 34.1618 30.8145 33.7764C30.9316 33.4671 31.0505 33.1585 31.1738 32.8516C31.245 32.6756 31.3147 32.4992 31.3809 32.3213C31.4635 32.0985 31.5493 31.8768 31.6377 31.6562C31.6822 31.5454 31.7271 31.4342 31.7715 31.3232C31.7816 31.2979 31.791 31.2727 31.8008 31.248C31.9299 30.9248 32.0585 30.601 32.1865 30.2773C32.2154 30.2042 32.2445 30.1308 32.2734 30.0576C32.4114 29.7093 32.5504 29.361 32.6807 29.0098C32.9356 28.3376 32.9365 28.3374 33.2012 27.6689C33.337 27.3251 33.4725 26.9807 33.6055 26.6357C33.6158 26.6089 33.6267 26.5827 33.6367 26.5566C33.6842 26.4334 33.7312 26.3099 33.7783 26.1865C33.8412 26.0218 33.9008 25.8537 33.9785 25.6953C34.025 25.6081 34.0642 25.5251 34.0947 25.4307C34.1628 25.1995 34.2419 24.9761 34.332 24.7529C34.3786 24.6382 34.4245 24.5231 34.4707 24.4082C34.4856 24.3713 34.4864 24.3713 34.501 24.335C34.6193 24.0411 34.7358 23.746 34.8516 23.4512C34.8724 23.3982 34.8932 23.345 34.9141 23.292C34.96 23.1752 35.0059 23.0582 35.0518 22.9414C35.0639 22.9105 35.0752 22.8796 35.0869 22.8496C35.066 22.9627 35.0454 23.0764 35.0244 23.1895C35.0158 23.2359 35.0067 23.2826 34.998 23.3291C34.9613 23.5274 34.9271 23.7268 34.8838 23.9238C34.8468 24.0828 34.8205 24.2418 34.7969 24.4033C34.7571 24.6776 34.7154 24.9509 34.6562 25.2217C34.6075 25.4445 34.5633 25.6682 34.5225 25.8926C34.4799 26.1264 34.4373 26.3603 34.3926 26.5938C34.3871 26.6225 34.3813 26.6508 34.376 26.6787C34.3541 26.7932 34.3325 26.908 34.3105 27.0225C34.2495 27.3387 34.1897 27.6552 34.1406 27.9736C34.1138 28.1482 34.0861 28.3221 34.0508 28.4951C34.0406 28.5438 34.0295 28.5928 34.0195 28.6416C34.0141 28.6683 34.0092 28.6948 34.0039 28.7207C33.9852 28.8123 33.9674 28.9042 33.9502 28.9961C33.9144 29.1902 33.8779 29.3847 33.8389 29.5781C33.7388 30.0739 33.6487 30.5716 33.5586 31.0693C33.5532 31.0992 33.5472 31.1283 33.542 31.1572C33.5151 31.3058 33.4887 31.4549 33.4619 31.6035C33.3699 32.1141 33.2756 32.625 33.1738 33.1338C33.168 33.163 33.1619 33.1914 33.1562 33.2197C33.1238 33.3824 33.0919 33.5455 33.0586 33.708C32.9748 34.1154 32.899 34.5235 32.8301 34.9336C32.7766 35.2524 32.7209 35.5709 32.6562 35.8877C32.6063 36.1314 32.56 36.3758 32.5186 36.6211C32.4866 36.8107 32.4526 36.9995 32.4121 37.1875C32.3455 37.4933 32.2925 37.8005 32.2422 38.1094C32.1789 38.4995 32.1214 38.8915 32.0264 39.2754C31.9809 39.4587 31.9447 39.6428 31.9131 39.8291C31.9075 39.8628 31.9019 39.896 31.8965 39.9287C31.8613 40.1408 31.8333 40.3514 31.8096 40.5654H35.458C35.5141 40.4247 35.573 40.2839 35.6162 40.1387C35.634 40.0728 35.6541 40.0071 35.6758 39.9424C35.6875 39.9093 35.6986 39.8769 35.71 39.8447C35.7239 39.8054 35.7375 39.7667 35.751 39.7285C35.7909 39.6161 35.8314 39.5031 35.8711 39.3906C35.8801 39.3651 35.8887 39.3402 35.8975 39.3154C35.9706 39.1085 36.0436 38.9014 36.1162 38.6943C36.1283 38.6599 36.1397 38.6262 36.1514 38.5928C36.2005 38.4526 36.2497 38.312 36.2988 38.1719C36.4353 37.7822 36.572 37.3921 36.71 37.0029C36.7557 36.874 36.802 36.7451 36.8477 36.6162C36.8589 36.5844 36.8699 36.5533 36.8809 36.5225C37.0295 36.1031 37.1749 35.6825 37.3135 35.2598C37.4383 34.8788 37.5733 34.5022 37.7168 34.1279C37.7533 34.0328 37.7891 33.9371 37.8252 33.8418C37.8331 33.8209 37.841 33.8005 37.8486 33.7803C37.8884 33.6764 37.9262 33.5732 37.959 33.4668C38.0267 33.242 38.0994 33.0191 38.1777 32.7979C38.2011 32.7321 38.2248 32.6663 38.248 32.6006C38.2733 32.529 38.2989 32.4573 38.3242 32.3857C38.4054 32.1562 38.486 31.9261 38.5664 31.6963C38.6071 31.5798 38.6477 31.4631 38.6885 31.3467C38.6973 31.3215 38.7063 31.2969 38.7148 31.2725C38.7874 31.0653 38.86 30.8575 38.9326 30.6504C38.9451 30.6149 38.9576 30.5804 38.9697 30.5459C39.02 30.4025 39.0708 30.2586 39.1211 30.1152C39.2527 29.7401 39.3841 29.3648 39.5146 28.9893C39.5252 28.9589 39.5357 28.9288 39.5459 28.8994C39.5934 28.7628 39.6412 28.626 39.6885 28.4893C39.7619 28.2771 39.8344 28.0645 39.9189 27.8564C39.9514 27.7797 39.9774 27.7054 40 27.625C40.0341 27.5021 40.076 27.382 40.1182 27.2617C40.1293 27.23 40.1395 27.1987 40.1504 27.168C40.1869 27.0641 40.2242 26.9603 40.2607 26.8564C40.2868 26.7824 40.3128 26.7078 40.3389 26.6338C40.4715 26.2562 40.6041 25.8783 40.7373 25.501C40.7559 25.4483 40.7562 25.448 40.7744 25.3965C40.8327 25.2315 40.8918 25.0663 40.9502 24.9014C40.9613 24.87 40.9716 24.8391 40.9824 24.8086C41.003 24.7503 41.0243 24.6911 41.0449 24.6328C41.1124 24.4426 41.1774 24.2514 41.2402 24.0596C41.3124 23.8379 41.3856 23.6169 41.4668 23.3984C41.5912 23.0641 41.7095 22.7277 41.8262 22.3906C41.8471 22.3301 41.8687 22.2695 41.8896 22.209L42.0752 21.6709C42.0406 21.8732 42.0081 22.0757 41.9814 22.2793C41.918 22.7681 41.8414 23.2549 41.7559 23.7402C41.6782 24.1798 41.6778 24.1801 41.5107 25.2402C41.482 25.423 41.4534 25.6065 41.4238 25.7891C41.4203 25.8106 41.4165 25.8316 41.4131 25.8525C41.4065 25.8935 41.4002 25.9347 41.3936 25.9756C41.3464 26.2664 41.3001 26.5581 41.2578 26.8496C41.2106 27.1757 41.1598 27.5012 41.1055 27.8262L41.0703 28.0342C41.0663 28.0584 41.0625 28.082 41.0586 28.1055C41.0544 28.1303 41.0499 28.1546 41.0459 28.1787C40.9954 28.4801 40.9459 28.7824 40.8965 29.084C40.8856 29.1503 40.8751 29.2169 40.8643 29.2832C40.7992 29.6775 40.7364 30.0726 40.6836 30.4688C40.6614 30.636 40.6388 30.8031 40.6123 30.9697C40.6079 30.9968 40.6029 31.0235 40.5986 31.0498C40.5528 31.3348 40.5048 31.6198 40.4561 31.9043C40.3673 32.4219 40.2803 32.9404 40.1973 33.459C40.1918 33.493 40.1869 33.5265 40.1816 33.5596C40.1223 33.9285 40.0643 34.2974 40.0156 34.668C39.9962 34.8219 39.9761 34.9737 39.9414 35.125C39.9217 35.2101 39.9068 35.292 39.8945 35.3789C39.867 35.6244 39.8329 35.8677 39.792 36.1113C39.7808 36.1774 39.7699 36.2445 39.7588 36.3105C39.722 36.5306 39.6847 36.7507 39.6475 36.9707C39.6113 37.1844 39.5749 37.3985 39.5391 37.6123C39.5328 37.6497 39.5266 37.6864 39.5205 37.7227C39.4456 38.1697 39.3717 38.6166 39.3154 39.0664C39.2793 39.3601 39.2328 39.6499 39.1768 39.9404C39.1697 39.9758 39.1622 40.0106 39.1553 40.0449C39.1488 40.0777 39.143 40.1098 39.1367 40.1416C39.1073 40.2855 39.1065 40.4191 39.1074 40.5654C39.5568 40.5661 40.0067 40.5661 40.4561 40.5664C40.6744 40.5666 40.893 40.567 41.1113 40.5674C41.3032 40.5677 41.4956 40.5673 41.6875 40.5674C41.7684 40.5674 41.8498 40.5683 41.9307 40.5684H42.584C42.6308 40.5684 42.6779 40.5684 42.7246 40.5654C42.7553 40.5346 42.7562 40.5338 42.7832 40.46C42.7995 40.4108 42.7995 40.4104 42.8154 40.3623C42.8336 40.3076 42.8337 40.3067 42.8516 40.2529C42.8643 40.2141 42.8772 40.1764 42.8896 40.1387C42.9615 39.9223 43.0322 39.7054 43.0986 39.4873C43.1429 39.3417 43.1896 39.1969 43.2383 39.0527C43.3688 38.6668 43.4915 38.2784 43.6133 37.8896C43.7282 37.5225 43.8449 37.1555 43.9619 36.7891C44.0103 36.6377 44.0583 36.4854 44.1064 36.334C44.2929 35.748 44.4794 35.1615 44.668 34.5762C44.6755 34.5529 44.6832 34.5304 44.6904 34.5078C44.7632 34.2819 44.8363 34.0559 44.9092 33.8301C44.9368 33.7446 44.9646 33.6587 44.9922 33.5732C45.0052 33.5329 45.0182 33.4925 45.0312 33.4521C45.1001 33.2392 45.1679 33.0255 45.2334 32.8115C45.2651 32.7076 45.2969 32.6034 45.3301 32.5C45.3475 32.4463 45.3654 32.3926 45.3828 32.3389C45.3928 32.3079 45.3935 32.3076 45.4033 32.2773C45.5313 31.8829 45.6578 31.4874 45.7822 31.0918C45.9221 30.6471 46.0637 30.2027 46.2119 29.7607C46.3158 29.4512 46.4154 29.1405 46.5107 28.8281C46.6057 28.5167 46.7059 28.2071 46.8096 27.8984C46.9344 27.527 47.056 27.1546 47.1689 26.7793C47.3404 26.2087 47.5228 25.6414 47.708 25.0752C47.8046 24.7801 47.9009 24.4847 47.9971 24.1895C48.0297 24.0892 48.062 23.988 48.0947 23.8877C48.195 23.5806 48.2959 23.2731 48.3896 22.9639C48.517 22.5429 48.6549 22.1252 48.7939 21.708C48.9151 21.3448 49.0362 20.9811 49.1494 20.6152C49.1689 20.5521 49.1892 20.4888 49.209 20.4258C49.2898 20.1701 49.3681 19.9139 49.4355 19.6543C48.9967 19.4078 48.996 19.4076 48.5752 19.1309C48.3666 18.997 48.157 18.8643 47.9453 18.7354C47.7554 18.6198 47.5664 18.5022 47.3789 18.3828C47.2097 18.275 47.0394 18.1681 46.8682 18.0635C46.719 17.9726 46.5685 17.882 46.4219 17.7871C46.1949 17.6391 45.9658 17.4953 45.7344 17.3545C45.5607 17.2492 45.3868 17.1438 45.2158 17.0342C45.067 16.9387 44.9172 16.8446 44.7666 16.752C44.5001 16.5881 44.2329 16.4239 43.9678 16.2578C43.9162 16.2254 43.9158 16.2251 43.8652 16.1934C43.7121 16.0993 43.5579 16.0057 43.4121 15.9004C42.9438 15.5525 42.5844 15.4303 42.002 15.4482C41.9234 15.4508 41.8442 15.4523 41.7656 15.4531ZM117.621 21.3271C119.539 21.2622 121.556 21.8672 123.029 23.1289C123.054 23.1541 123.08 23.1801 123.105 23.2061C123.175 23.2756 123.247 23.3383 123.323 23.4004C123.516 23.5581 123.686 23.7262 123.851 23.9131C123.9 23.9686 123.951 24.0227 124.004 24.0752C124.084 24.1563 124.157 24.2408 124.229 24.3291C124.254 24.3587 124.279 24.3885 124.304 24.4189C124.359 24.4941 124.358 24.4946 124.358 24.5566H124.421C124.436 24.5853 124.451 24.614 124.467 24.6436C124.524 24.7443 124.589 24.836 124.658 24.9287C125.831 26.5398 126.243 28.7088 125.952 30.6602C125.83 31.4252 125.83 31.4256 125.72 31.7852C125.713 31.8064 125.707 31.8277 125.7 31.8496C125.494 32.5382 125.183 33.182 124.822 33.8018H124.761C124.754 33.8221 124.747 33.8423 124.74 33.8633C124.685 33.9881 124.609 34.0941 124.53 34.2051C124.514 34.2283 124.497 34.2515 124.48 34.2754C124.327 34.4893 124.162 34.6911 123.987 34.8877C123.973 34.9041 123.958 34.9206 123.943 34.9375C123.385 35.5687 122.688 36.2097 121.916 36.5625H121.854C121.844 36.583 121.834 36.6039 121.823 36.625C121.746 36.6673 121.668 36.7067 121.589 36.7451C121.568 36.7556 121.546 36.7666 121.524 36.7773C121.481 36.7987 121.437 36.8196 121.394 36.8408C121.329 36.8724 121.266 36.9057 121.202 36.9385C120.94 37.0704 120.658 37.16 120.37 37.2148V37.2764C120.351 37.28 120.332 37.2834 120.312 37.2871C120.151 37.3187 119.991 37.3546 119.832 37.3945C119.017 37.5977 118.149 37.7088 117.309 37.6484C117.298 37.6383 117.288 37.6286 117.277 37.6182C117.207 37.6123 117.137 37.608 117.067 37.6045C116.778 37.5878 116.505 37.5434 116.227 37.4629C116.126 37.4369 116.025 37.4116 115.925 37.3867C115.294 37.2293 115.294 37.2292 115.021 37.1211C114.99 37.1099 114.96 37.0994 114.929 37.0879C114.615 36.9707 114.32 36.8242 114.029 36.6582C113.99 36.6364 113.95 36.6156 113.91 36.5957C113.672 36.4752 113.447 36.3323 113.231 36.1748C113.167 36.1279 113.167 36.1276 113.099 36.0957C113.012 36.0518 112.955 35.9799 112.887 35.9111C112.771 35.8165 112.652 35.7265 112.532 35.6377C112.403 35.5403 112.318 35.4645 112.237 35.3223C112.176 35.2803 112.114 35.239 112.052 35.1982C112.009 35.1477 111.968 35.0958 111.928 35.043C111.904 35.0193 111.881 34.995 111.856 34.9707C111.617 34.7292 111.41 34.4531 111.217 34.1738C111.204 34.155 111.19 34.1366 111.177 34.1172C111.134 34.0557 111.093 33.9935 111.051 33.9316C111.038 33.9124 111.024 33.8929 111.011 33.873C110.935 33.7596 110.883 33.6556 110.846 33.5225H110.784V33.3984C110.764 33.3882 110.743 33.3777 110.722 33.3672C110.68 33.2976 110.642 33.2281 110.604 33.1562C110.594 33.1354 110.583 33.1142 110.571 33.0928C110.228 32.4294 110.228 32.429 110.228 32.1572H110.165V31.9717C110.145 31.9615 110.124 31.9509 110.104 31.9404C110.082 31.8728 110.064 31.8035 110.048 31.7344C110.043 31.7128 110.038 31.6912 110.032 31.6689C110.015 31.594 109.997 31.5184 109.979 31.4434C109.973 31.4154 109.967 31.3872 109.96 31.3584C109.845 30.8589 109.767 30.3716 109.74 29.8594C109.736 29.7976 109.732 29.735 109.723 29.6738C109.684 29.3977 109.722 29.125 109.752 28.8496C109.755 28.8227 109.758 28.7953 109.761 28.7676C109.831 28.1085 109.962 27.4907 110.173 26.8623C110.204 26.7682 110.229 26.6726 110.256 26.5771C110.33 26.3344 110.449 26.1142 110.567 25.8906C110.592 25.8432 110.618 25.7955 110.643 25.748C110.69 25.6585 110.737 25.5688 110.784 25.4795C110.837 25.3796 110.889 25.2783 110.938 25.1768H111V25.084H111.062C111.066 25.0663 111.069 25.0485 111.072 25.0303C111.097 24.9478 111.133 24.8959 111.185 24.8271C111.213 24.7891 111.213 24.7888 111.242 24.75C111.263 24.7233 111.283 24.6965 111.304 24.6689C111.325 24.6413 111.346 24.6135 111.367 24.585C111.768 24.0594 112.206 23.5631 112.732 23.1602C112.751 23.1461 112.768 23.1316 112.787 23.1172C113.843 22.3008 115.074 21.6316 116.412 21.4541C116.47 21.4458 116.529 21.437 116.587 21.4287C116.931 21.3808 117.274 21.3407 117.621 21.3271ZM71.7822 21.3564C72.031 21.3501 72.2772 21.3807 72.5234 21.4131C72.5685 21.419 72.614 21.4254 72.6592 21.4307C73.2678 21.5037 73.8347 21.7542 74.3564 22.0684C74.423 22.1076 74.4907 22.1449 74.5586 22.1816C74.6924 22.2559 74.8149 22.3399 74.9365 22.4326C74.9682 22.4567 74.9689 22.457 75.001 22.4814C75.35 22.7509 75.7955 23.0988 75.9961 23.501C76.0715 23.4951 76.0718 23.4958 76.1504 23.4707C76.1718 23.4299 76.193 23.3883 76.2129 23.3467C76.2882 23.2546 76.3705 23.1685 76.4521 23.082C76.4738 23.0586 76.4962 23.0349 76.5186 23.0107C76.6355 22.8862 76.7467 22.785 76.8926 22.6943C76.9453 22.651 76.9981 22.607 77.0498 22.5625C77.7784 21.9636 78.8468 21.5437 79.7871 21.46C79.8411 21.4551 79.8952 21.4507 79.9492 21.4453C80.4141 21.3988 80.8668 21.3865 81.333 21.418C81.3922 21.4218 81.4515 21.4246 81.5107 21.4268C82.702 21.4837 83.8676 22.0969 84.7158 22.9121C84.7595 22.9524 84.7602 22.952 84.8047 22.9932C85.1404 23.3098 85.4374 23.7076 85.6436 24.1221V24.1836H85.7061C86.3938 25.4808 86.5147 26.9265 86.5127 28.3682V30.2598C86.5126 30.749 86.512 31.2383 86.5117 31.7275V33.2412C86.5117 33.3883 86.5108 33.5355 86.5107 33.6826C86.5104 34.901 86.5105 36.1195 86.5098 37.3379C86.0307 37.3386 85.5514 37.3395 85.0723 37.3398C84.8498 37.34 84.6268 37.3405 84.4043 37.3408C84.2104 37.3411 84.0161 37.3408 83.8223 37.3408C83.7197 37.3409 83.6172 37.3416 83.5146 37.3418H82.8916C82.8304 37.338 82.8296 37.3385 82.7988 37.3076C82.7957 37.2552 82.795 37.202 82.7949 37.1494C82.7948 37.1153 82.7941 37.0811 82.7939 37.0459C82.794 37.0077 82.7949 36.9691 82.7949 36.9297C82.7948 36.8693 82.7941 36.8692 82.7939 36.8076C82.7936 36.6954 82.794 36.5829 82.7939 36.4707C82.7938 36.35 82.7933 36.2291 82.793 36.1084C82.7925 35.8988 82.7923 35.6891 82.792 35.4795C82.7916 35.1762 82.7908 34.8727 82.79 34.5693C82.7889 34.0768 82.7881 33.5843 82.7871 33.0918C82.787 33.0623 82.7862 33.0323 82.7861 33.002C82.7853 32.5837 82.7849 32.1653 82.7842 31.7471V31.5693C82.7833 31.079 82.7825 30.588 82.7812 30.0977C82.7805 29.7952 82.7796 29.4928 82.7793 29.1904C82.7791 28.9831 82.7789 28.7757 82.7783 28.5684C82.778 28.4487 82.7773 28.3287 82.7773 28.209C82.7774 28.0792 82.7769 27.9492 82.7764 27.8193C82.7765 27.7817 82.7763 27.7438 82.7764 27.7051C82.7753 27.5266 82.7667 27.3631 82.7197 27.1904C82.7065 27.1316 82.7061 27.1309 82.7061 27.0068H82.6445C82.6394 26.9698 82.6342 26.9327 82.6289 26.8945C82.5975 26.7506 82.5357 26.6296 82.4629 26.5029C82.4524 26.4846 82.4415 26.4661 82.4307 26.4473C82.3805 26.3624 82.3283 26.2852 82.2656 26.209C82.2118 26.1387 82.2109 26.138 82.2109 26.0449C82.1929 26.0369 82.1748 26.0287 82.1562 26.0205C82.0837 25.9807 82.0381 25.939 81.9814 25.8789C81.8237 25.7142 81.8235 25.714 81.624 25.6113C81.6074 25.5928 81.5903 25.5738 81.5732 25.5547C81.374 25.3708 80.9942 25.2384 80.7275 25.2383V25.1768C80.6958 25.1749 80.6636 25.1728 80.6309 25.1709C80.6103 25.1697 80.5895 25.1683 80.5684 25.167C80.5229 25.1642 80.4771 25.1618 80.4316 25.1592C80.3102 25.1518 80.1909 25.1403 80.0703 25.124C79.7357 25.0919 79.349 25.1331 79.0322 25.2461C78.9571 25.2724 78.8813 25.2889 78.8037 25.3066C78.4313 25.4089 78.1215 25.6177 77.8516 25.8906C77.8242 25.9161 77.7967 25.9415 77.7686 25.9678C77.2515 26.5286 77.0682 27.2598 77.0693 28.0107C77.0691 28.0709 77.0696 28.0714 77.0693 28.1328C77.0689 28.2428 77.0684 28.3529 77.0684 28.4629C77.0682 28.5822 77.0678 28.702 77.0674 28.8213C77.0667 29.0275 77.0667 29.2342 77.0664 29.4404C77.066 29.7386 77.0653 30.0368 77.0645 30.335C77.063 30.8189 77.0615 31.3032 77.0605 31.7871C77.0596 32.2568 77.0588 32.7266 77.0576 33.1963C77.0575 33.2252 77.0567 33.2544 77.0566 33.2842C77.0563 33.4296 77.056 33.5753 77.0557 33.7207C77.0525 34.9263 77.0504 36.1323 77.0479 37.3379H73.3682C73.3677 37.0446 73.3667 36.7514 73.3662 36.4492C73.3647 35.5092 73.3626 34.5689 73.3604 33.6289C73.36 33.4828 73.3597 33.3365 73.3594 33.1904C73.3593 33.1468 73.3595 33.1461 73.3594 33.1016C73.3583 32.6313 73.3571 32.1607 73.3564 31.6904C73.3558 31.2074 73.3549 30.7242 73.3535 30.2412C73.3527 29.9435 73.3527 29.6454 73.3525 29.3477C73.3524 29.1432 73.3513 28.9388 73.3506 28.7344C73.3502 28.6166 73.3505 28.4987 73.3506 28.3809C73.3532 27.5998 73.3533 27.5997 73.1709 26.8447C73.1517 26.7899 73.1511 26.7899 73.1338 26.6973C73.1293 26.6768 73.1247 26.6559 73.1201 26.6348C73.0998 26.6246 73.0796 26.614 73.0586 26.6035C73.0687 26.5831 73.0794 26.563 73.0898 26.542H73.0273C73.013 26.4998 73.0137 26.4991 72.999 26.4561C72.9116 26.2498 72.7488 26.0146 72.5635 25.8906V25.8281H72.502V25.7656C72.4785 25.7567 72.4548 25.7484 72.4307 25.7393C72.3476 25.7044 72.3476 25.7036 72.2549 25.6416V25.5801H72.1621V25.5176C72.131 25.5093 72.0994 25.5017 72.0674 25.4932C71.9495 25.4596 71.8402 25.4136 71.7285 25.3633V25.3008C71.7012 25.2966 71.6737 25.2924 71.6455 25.2881C71.5574 25.2723 71.4762 25.2511 71.3906 25.2256C70.718 25.0567 70.0365 25.0968 69.3789 25.3008C69.3548 25.3067 69.3305 25.3123 69.3057 25.3184C68.7388 25.4691 68.2914 25.9404 67.9873 26.418C67.9718 26.4402 67.9564 26.4625 67.9404 26.4854C67.6727 26.878 67.6377 27.3697 67.6387 27.8311C67.6384 27.8918 67.6389 27.8919 67.6387 27.9541C67.6382 28.066 67.6377 28.1781 67.6377 28.29C67.6376 28.4111 67.6371 28.5323 67.6367 28.6533C67.6361 28.8626 67.636 29.0719 67.6357 29.2812C67.6354 29.5842 67.6346 29.8875 67.6338 30.1904C67.6325 30.682 67.6317 31.1735 67.6309 31.665V31.8438C67.6302 32.2614 67.6288 32.679 67.6279 33.0967C67.6279 33.1261 67.628 33.1562 67.6279 33.1865C67.6269 33.6766 67.6262 34.1671 67.625 34.6572C67.6243 34.9595 67.6235 35.2622 67.623 35.5645C67.6228 35.7711 67.6225 35.9779 67.6221 36.1846C67.6218 36.304 67.6212 36.4236 67.6211 36.543V37.0459C67.6209 37.0972 67.6203 37.0974 67.6201 37.1494C67.6201 37.1792 67.6202 37.2095 67.6201 37.2402C67.6161 37.3071 67.6159 37.3069 67.585 37.3379H63.7197V21.8574H67.6162C67.6264 22.3282 67.637 22.7991 67.6475 23.2842C67.7851 23.1308 67.7853 23.1303 67.9258 22.9736C68.9559 21.8977 70.3235 21.4218 71.7822 21.3564ZM94.8594 37.3389H91.1172V22.0439H94.8594V37.3389ZM108.001 21.5469C108.051 21.5968 108.036 21.6507 108.036 21.7197V25.1475C108.032 25.2078 108.032 25.2082 108.001 25.2393C107.699 25.2952 107.394 25.3113 107.087 25.3252C106.927 25.3326 106.768 25.3464 106.609 25.3633V25.4248C106.592 25.4267 106.575 25.4287 106.557 25.4307C106.409 25.4467 106.262 25.4654 106.115 25.4873V25.5488H105.898V25.6113C105.872 25.6151 105.846 25.6182 105.818 25.6221C105.784 25.6273 105.75 25.6333 105.715 25.6387C105.681 25.6437 105.646 25.6481 105.611 25.6533C105.584 25.6598 105.556 25.6662 105.527 25.6729C105.517 25.6933 105.507 25.7143 105.496 25.7354C105.435 25.7569 105.373 25.7769 105.311 25.7969C105.216 25.8347 105.124 25.8787 105.032 25.9219C104.996 25.9384 104.959 25.9547 104.922 25.9717C104.598 26.1233 104.321 26.3169 104.043 26.542C104.026 26.5553 104.009 26.5683 103.992 26.582C103.606 26.8953 103.363 27.3595 103.178 27.8135C103.165 27.8448 103.164 27.8452 103.15 27.877C102.955 28.3959 102.978 28.968 102.979 29.5127C102.978 29.5983 102.978 29.684 102.978 29.7695C102.977 29.9528 102.977 30.1361 102.977 30.3193C102.976 30.5843 102.975 30.8493 102.975 31.1143C102.973 31.5444 102.972 31.9751 102.972 32.4053C102.971 32.8226 102.97 33.2399 102.969 33.6572C102.969 33.683 102.969 33.7097 102.969 33.7363C102.968 33.8656 102.968 33.9948 102.968 34.124C102.965 35.1954 102.963 36.2675 102.961 37.3389H99.2812C99.2792 36.1427 99.2773 34.9461 99.2764 33.75V33.2393C99.276 32.7845 99.2743 32.3298 99.2734 31.875C99.2726 31.4074 99.2727 30.9393 99.2725 30.4717C99.2723 30.1839 99.2722 29.8962 99.2715 29.6084C99.271 29.4103 99.2704 29.2118 99.2705 29.0137C99.2706 28.8998 99.271 28.7858 99.2705 28.6719C99.2676 27.9815 99.2954 27.2956 99.4727 26.625C99.4819 26.5892 99.4915 26.5535 99.501 26.5166C99.5873 26.193 99.6993 25.8846 99.8379 25.5801C99.8471 25.5596 99.8557 25.5387 99.8652 25.5176C100.005 25.2118 100.174 24.9198 100.393 24.6631C100.462 24.5907 100.462 24.5904 100.487 24.4941C100.532 24.442 100.532 24.442 100.58 24.4014H100.642C100.657 24.34 100.657 24.3398 100.673 24.2773H100.734C100.741 24.2598 100.749 24.2417 100.756 24.2236C100.807 24.1337 100.871 24.0796 100.949 24.0117C101.057 23.9185 101.057 23.9179 101.158 23.8184C101.198 23.7808 101.198 23.7803 101.26 23.7803C101.267 23.7619 101.275 23.7435 101.283 23.7246C101.326 23.6477 101.368 23.6127 101.439 23.5615C101.47 23.5389 101.47 23.5386 101.502 23.5156C101.549 23.4837 101.598 23.4531 101.646 23.4238C101.72 23.3792 101.79 23.3311 101.859 23.2803C102.141 23.0818 102.434 22.8997 102.751 22.7637C102.811 22.7375 102.87 22.7098 102.929 22.6807C103.575 22.3607 104.265 22.1411 104.965 21.9746C105.06 21.9516 105.154 21.9266 105.249 21.9014C106.113 21.6752 107.105 21.4905 108.001 21.5469ZM117.782 24.7646C116.868 24.7764 115.67 25.1105 115.021 25.7979C114.981 25.8281 114.941 25.8575 114.9 25.8867C114.657 26.0673 114.457 26.2971 114.278 26.542V26.6045C114.232 26.6198 114.232 26.6192 114.186 26.6348C113.708 27.1966 113.466 27.9983 113.351 28.7139C113.345 28.7368 113.339 28.7596 113.334 28.7832C113.316 28.8887 113.316 28.9896 113.315 29.0967V29.7588C113.319 29.8421 113.327 29.9065 113.351 29.9854C113.356 30.018 113.361 30.0513 113.366 30.085C113.453 30.6253 113.648 31.119 113.907 31.5986C113.924 31.6317 113.924 31.6323 113.941 31.666C114.035 31.8427 114.146 31.9929 114.274 32.1455C114.293 32.1676 114.31 32.1901 114.329 32.2129C114.449 32.3575 114.577 32.4917 114.711 32.623C114.737 32.6496 114.763 32.6758 114.79 32.7031C115.066 32.9755 115.355 33.1912 115.7 33.3672C115.72 33.3776 115.741 33.3887 115.762 33.3994C116.89 33.9745 118.134 34.0896 119.345 33.7002C119.538 33.6337 119.723 33.5497 119.906 33.46C119.936 33.4456 119.936 33.4455 119.967 33.4307C120.248 33.2921 120.498 33.1313 120.741 32.9326C120.759 32.918 120.777 32.9037 120.796 32.8887C120.853 32.8425 120.909 32.7958 120.965 32.749C120.983 32.7344 121 32.7192 121.019 32.7041C121.061 32.668 121.102 32.6301 121.143 32.5918V32.5293C121.173 32.5191 121.204 32.5095 121.235 32.499C121.287 32.4518 121.287 32.451 121.334 32.3936C121.35 32.3748 121.367 32.3562 121.384 32.3369C121.43 32.2798 121.43 32.2798 121.421 32.1885C121.451 32.1783 121.482 32.1678 121.514 32.1572V32.0645C121.544 32.0542 121.575 32.0437 121.606 32.0332C121.658 31.9644 121.705 31.8974 121.75 31.8242C121.77 31.7914 121.77 31.7913 121.791 31.7578C122.389 30.7567 122.625 29.5429 122.38 28.3975C122.225 27.8064 121.999 27.1946 121.638 26.6973H121.576C121.566 26.6564 121.555 26.6153 121.545 26.5732H121.483V26.5107H121.421C121.411 26.4699 121.401 26.4288 121.391 26.3867H121.328C121.32 26.369 121.312 26.3513 121.304 26.333C121.211 26.1592 121.057 26.0016 120.896 25.8906H120.834V25.8281C120.783 25.7866 120.73 25.7477 120.677 25.71C120.648 25.6894 120.619 25.6687 120.589 25.6475C120.542 25.6142 120.541 25.614 120.493 25.5801C120.461 25.5554 120.429 25.5303 120.396 25.5049C120.252 25.4025 120.095 25.33 119.937 25.2549C119.905 25.2399 119.873 25.2244 119.841 25.209C119.461 25.0316 119.081 24.9114 118.669 24.8359C118.629 24.8281 118.629 24.8274 118.588 24.8193C118.355 24.7762 118.129 24.7625 117.893 24.7637C117.856 24.7638 117.82 24.7645 117.782 24.7646ZM92.0449 15.6768C92.6876 15.3128 93.619 15.4488 94.21 15.8389C94.2629 15.8888 94.3145 15.9401 94.3643 15.9932C94.4053 16.0322 94.4054 16.0325 94.4473 16.0723C94.8098 16.4216 95.07 16.8651 95.083 17.3838C95.0898 17.7281 95.0813 18.0281 94.9521 18.3516C94.9413 18.379 94.9301 18.4063 94.9189 18.4346C94.8218 18.6515 94.675 18.8261 94.5186 19.0029C94.5007 19.0234 94.4832 19.0443 94.4648 19.0654C94.319 19.2227 94.1457 19.3295 93.9619 19.4375C93.9393 19.4522 93.9169 19.4672 93.8936 19.4824C93.5615 19.679 93.0073 19.7516 92.6309 19.6582C92.5903 19.6466 92.5494 19.6347 92.5088 19.623C92.4718 19.6152 92.4346 19.6077 92.3965 19.5996C92.2397 19.5604 92.1036 19.4883 91.9619 19.4121C91.9364 19.399 91.911 19.3856 91.8848 19.3721C91.7407 19.2956 91.6289 19.2196 91.5195 19.0957C91.4931 19.068 91.4927 19.0682 91.4658 19.04C91.0136 18.5368 90.8633 18.0383 90.8877 17.3682C90.9004 17.165 90.9421 16.9861 91.0244 16.7998C91.0382 16.7679 91.0522 16.736 91.0664 16.7031C91.1623 16.497 91.2775 16.3194 91.4268 16.1484C91.4431 16.1295 91.4597 16.1104 91.4766 16.0908C91.6237 15.932 91.7978 15.8237 91.9834 15.7148C92.0037 15.7023 92.024 15.6897 92.0449 15.6768Z"></path>
</svg>
