<svg xmlns="http://www.w3.org/2000/svg" fill="none" viewBox="0 0 146 56" height="56" width="146">
<path fill="white" d="M35.1044 12.1187L16 20.9641L20.7612 39.0703L24.3917 38.5953L23.3799 27.1973L24.5702 26.6631L26.6532 38.2985L32.8428 37.5861L31.7121 25.0602L32.9024 24.5259L35.1639 37.2893L41.4131 36.5176L40.2227 22.745L41.4131 22.2107L43.9127 36.2208L50.1023 35.449V15.8587L35.1044 12.1187ZM35.5805 39.5452L35.8781 41.3261L50.1023 43.7007V37.7642L35.5805 39.5452ZM63.5528 35.8646V38.2985H66.588C66.588 38.7734 66.469 39.2484 66.231 39.7233C65.9929 40.1388 65.5763 40.495 65.1597 40.7325C64.624 40.9699 64.0289 41.0887 63.4337 41.0887C62.7791 41.0887 62.0649 40.9106 61.5292 40.5544C60.9936 40.1388 60.5175 39.6045 60.2794 39.0109C59.9818 38.2392 59.8033 37.3487 59.8628 36.5176C59.8628 35.6865 59.9818 34.8554 60.3389 34.0243C60.577 33.3713 61.0531 32.837 61.5888 32.4808C62.1244 32.1246 62.8386 31.9465 63.4932 31.9465C63.8503 31.9465 64.2074 32.0059 64.505 32.0652C64.8026 32.184 65.1002 32.3027 65.3382 32.4808C65.5763 32.6589 65.8143 32.8963 65.9334 33.1338C66.1119 33.3713 66.2309 33.6681 66.2905 33.9649H69.5638C69.4448 33.2525 69.2662 32.5995 68.9091 32.0059C68.5521 31.4122 68.0759 30.8779 67.5403 30.4624C66.9451 29.9875 66.2905 29.6907 65.6358 29.4532C64.8621 29.2157 64.0884 29.097 63.3147 29.097C62.3625 29.097 61.4697 29.2751 60.577 29.5719C59.7438 29.9281 59.0296 30.403 58.3749 31.056C57.7203 31.709 57.2441 32.5402 56.887 33.4306C56.5299 34.4398 56.3514 35.5084 56.3514 36.5769C56.3514 38.1204 56.649 39.4264 57.2441 40.5544C57.7798 41.6229 58.6725 42.5134 59.6843 43.1071C61.8268 44.235 64.4455 44.2943 66.6476 43.2851C67.5998 42.8102 68.3735 42.0979 68.9091 41.148C69.4448 40.1982 69.7424 39.1296 69.7424 37.8236V35.9239L63.5528 35.8646ZM105.154 43.7007V29.1564H115.153V31.8278H108.427V35.0928H113.843V37.7642H108.427V41.0293H115.153V43.7007H105.154ZM124.913 33.4306C124.913 32.8963 124.616 32.4808 124.258 32.1246C123.842 31.8278 123.306 31.6497 122.592 31.6497C122.175 31.6497 121.759 31.709 121.402 31.8278C121.104 31.9465 120.866 32.1246 120.687 32.3621C120.509 32.5995 120.449 32.837 120.449 33.1338C120.449 33.3713 120.509 33.5494 120.628 33.7868C120.747 33.9649 120.926 34.143 121.104 34.2617C121.342 34.3805 121.58 34.4992 121.818 34.6179C122.116 34.7366 122.413 34.796 122.711 34.8554L124.02 35.1522C124.675 35.2709 125.27 35.5084 125.865 35.7458C126.401 35.9833 126.877 36.2801 127.234 36.6363C127.591 36.9925 127.889 37.4081 128.127 37.883C128.365 38.4173 128.424 38.9515 128.424 39.4858C128.424 40.3169 128.186 41.148 127.77 41.801C127.294 42.454 126.58 42.9883 125.806 43.3445C124.794 43.7007 123.782 43.8788 122.711 43.8788C121.64 43.8788 120.568 43.7007 119.557 43.3445C118.723 42.9883 118.009 42.454 117.474 41.6823C116.998 40.9699 116.7 40.0201 116.7 38.9515H119.854C119.854 39.842 120.39 40.5544 121.223 40.8512C121.699 41.0293 122.175 41.0887 122.651 41.0887C123.068 41.0887 123.544 41.0293 123.961 40.8512C124.318 40.7325 124.556 40.5544 124.794 40.2576C124.973 40.0201 125.092 39.7233 125.092 39.3671C125.092 39.0703 124.973 38.8328 124.794 38.5953C124.556 38.3579 124.318 38.1798 124.02 38.0611C123.604 37.883 123.128 37.7642 122.711 37.6455L121.164 37.2893C119.914 36.9925 118.962 36.5176 118.188 35.8646C117.474 35.2116 117.117 34.3805 117.117 33.2525C117.117 32.4214 117.355 31.5903 117.831 30.9373C118.366 30.2249 119.021 29.6907 119.854 29.3938C120.747 28.9783 121.759 28.8002 122.771 28.8002C123.782 28.8002 124.735 28.9783 125.687 29.3938C126.46 29.75 127.115 30.2843 127.591 30.9373C128.067 31.6497 128.305 32.4214 128.305 33.2525L124.913 33.4306ZM102.833 43.7007H99.5595V32.6589H99.2025L95.9291 43.7601H92.6558L89.4419 32.6589H89.0253V43.7601H85.752V29.1564H91.2869L94.0841 38.9515H94.4412L97.2384 29.1564H102.773V43.7007H102.833ZM80.6337 43.7007H84.2046L79.3243 29.1564H74.8607L69.9209 43.7007H73.4918L74.4441 40.495H79.7409L80.6337 43.7007ZM75.0987 38.0017L76.7057 32.6589H77.3008L78.9077 38.0017H75.0987ZM129.02 30.6999C128.722 30.6999 128.424 30.5218 128.305 30.2249C128.246 30.0468 128.246 29.8094 128.305 29.6313C128.365 29.5126 128.424 29.4532 128.484 29.3938C128.544 29.3345 128.663 29.2751 128.722 29.2157C128.901 29.1564 129.139 29.1564 129.317 29.2157C129.436 29.2751 129.496 29.3345 129.555 29.3938C129.615 29.4532 129.674 29.5719 129.734 29.6313C129.793 29.8094 129.793 30.0468 129.734 30.2249C129.674 30.3437 129.615 30.403 129.555 30.4624C129.496 30.5218 129.377 30.5811 129.317 30.6405C129.258 30.6999 129.139 30.6999 129.02 30.6999ZM129.02 30.4624C129.139 30.4624 129.198 30.4624 129.317 30.403C129.377 30.3437 129.496 30.2843 129.496 30.2249C129.615 30.0468 129.615 29.8094 129.496 29.6907C129.436 29.6313 129.377 29.5719 129.317 29.5126C129.139 29.3938 128.901 29.3938 128.722 29.5126C128.663 29.5719 128.603 29.6313 128.544 29.6907C128.424 29.8687 128.424 30.1062 128.544 30.2249C128.603 30.2843 128.663 30.3437 128.722 30.403C128.841 30.4624 128.96 30.4624 129.02 30.4624ZM128.782 30.2843V29.5719H129.139C129.198 29.5719 129.258 29.5719 129.258 29.5719C129.317 29.5719 129.317 29.6313 129.377 29.6313C129.377 29.6907 129.436 29.6907 129.436 29.75C129.436 29.8094 129.436 29.8687 129.377 29.8687C129.377 29.9281 129.317 29.9281 129.258 29.9281C129.198 29.9281 129.139 29.9281 129.139 29.9281H128.901V29.8687H129.079H129.139V29.8094V29.75H129.079H128.96V30.3437H128.782V30.2843ZM129.258 29.9281L129.436 30.2843H129.198L129.079 29.9281H129.258ZM70.6946 12.2375H74.0275V26.7818H70.6946V12.2375ZM89.68 19.5393C89.68 21.1422 89.3824 22.5075 88.7873 23.5761C88.2516 24.6447 87.3589 25.5351 86.2876 26.1288C84.0856 27.3161 81.4669 27.3161 79.2648 26.1288C78.1935 25.5351 77.3603 24.6447 76.7652 23.5761C76.17 22.4482 75.8724 21.0828 75.8724 19.5393C75.8724 17.9365 76.17 16.5711 76.7652 15.4431C77.3603 14.3746 78.1935 13.4841 79.2053 12.8905C81.4074 11.7032 84.026 11.7032 86.2281 12.8905C87.2994 13.4841 88.1326 14.3746 88.7278 15.4431C89.3229 16.5711 89.6205 17.9365 89.68 19.5393ZM86.2876 19.5393C86.2876 18.6488 86.1686 17.8177 85.871 17.046C85.633 16.393 85.2163 15.8587 84.6212 15.5025C83.4904 14.7901 82.0025 14.7901 80.8717 15.5025C80.3361 15.8587 79.86 16.393 79.6219 17.046C79.0268 18.6488 79.0268 20.4298 79.6219 22.0326C79.86 22.6856 80.2766 23.2199 80.8717 23.5761C82.0025 24.2885 83.4904 24.2885 84.6212 23.5761C85.1568 23.2199 85.5734 22.6263 85.871 22.0326C86.1686 21.2609 86.2876 20.4298 86.2876 19.5393ZM63.7313 21.7358L65.4573 26.8412H69.0877L67.1832 21.3796H64.624L64.4455 20.9047C64.9216 20.786 65.7548 20.6672 66.5285 20.133C67.5998 19.4206 68.195 18.2333 68.195 16.9866C68.195 16.0962 68.0164 15.2651 67.5403 14.5527C67.1237 13.8403 66.469 13.2467 65.7548 12.8905C64.8621 12.4749 63.9099 12.2968 62.8981 12.2968H57.0656V26.8412H60.3389V21.7358H63.7313ZM63.6718 18.7082C63.1957 18.8863 62.7195 18.9457 62.2434 18.9457H60.3389V14.9089H62.2434C62.7195 14.9089 63.1957 14.9682 63.6718 15.1463C64.0289 15.2651 64.3265 15.5619 64.505 15.8587C64.7431 16.2149 64.8026 16.5711 64.8026 16.9866C64.8026 17.3428 64.7431 17.7584 64.505 18.0552C64.3265 18.352 64.0289 18.5895 63.6718 18.7082ZM89.9776 12.2375V14.9089H95.6315L95.8101 15.3838C95.334 15.5025 94.5007 15.6212 93.7866 16.0962V26.7818H97.0599V14.9089H100.869V12.2375H89.9776Z"></path>
</svg>
