<svg xmlns="http://www.w3.org/2000/svg" fill="none" viewBox="0 0 94 56" height="56" width="94">
<path fill="white" d="M30.5861 40C27.1716 40 24.7185 37.4333 24.7185 33.9667V22.0333C24.7185 20.4333 23.6246 19.2667 22.0997 19.2667C20.6079 19.2667 19.4808 20.4333 19.4808 22.0333V39.6667H16V22.4333C16 18.7 18.5857 16 22.0997 16C25.6136 16 28.1993 18.7 28.1993 22.4333V34.1667C28.1993 35.6333 29.1938 36.7333 30.5861 36.7333C31.9784 36.7333 33.0061 35.6333 33.0061 34.1667V22.4333C33.0061 18.7 35.5918 16 39.1058 16C42.6197 16 45.1723 18.7 45.1723 22.4333V39.6667H41.6915V22.0333C41.6915 20.4333 40.5975 19.2667 39.1058 19.2667C37.5809 19.2667 36.4869 20.4333 36.4869 22.0333V33.9667C36.4869 37.4333 34.0006 40 30.5861 40ZM51.7136 39.6667H48.2328V16.3333H55.559C59.6365 16.3333 62.8521 19.5333 62.8521 23.5C62.8521 27.4667 59.6365 30.6667 55.559 30.6667H51.7136V39.6667ZM55.3269 27.2667H55.3601C57.4154 27.2667 59.1061 25.5667 59.1061 23.5C59.1061 21.4 57.4154 19.7 55.3601 19.7H55.3269C53.139 19.7 51.5147 21.3667 51.5147 23.5C51.5147 25.6 53.139 27.2667 55.3269 27.2667ZM71.4362 39.6667H64.2758V16.3333H71.4362C75.1491 16.3333 78 19.1333 78 22.8C78 25 76.8397 26.8333 75.1491 28C76.8729 29.1333 78 31 78 33.2C78 36.8667 75.1491 39.6667 71.4362 39.6667ZM71.171 26.5333H71.2042C73.1269 26.5333 74.7181 24.9333 74.7181 22.9667C74.7181 21 73.1269 19.3667 71.2042 19.3667H71.171C69.1157 19.3667 67.5576 20.9 67.5576 22.9333C67.5576 25 69.1157 26.5333 71.171 26.5333ZM71.171 36.6H71.2042C73.1269 36.6 74.7181 35 74.7181 33.0333C74.7181 31.0667 73.1269 29.4667 71.2042 29.4667H71.171C69.1157 29.4667 67.5576 30.9667 67.5576 33.0333C67.5576 35.1 69.1157 36.6 71.171 36.6Z"></path>
</svg>
