<svg xmlns="http://www.w3.org/2000/svg" fill="none" viewBox="0 0 208 56" height="56" width="208">
<path fill="white" d="M72.3174 29.9883C72.3174 32.186 73.7844 33.1279 76.0371 33.1279C78.3944 33.1278 79.7559 32.1858 79.7559 29.9883L79.8086 19.4189H84.1572V30.5117C84.1572 35.4826 79.756 37 76.0889 37C72.3694 36.9999 67.9688 35.4301 67.9688 30.5117V19.4189H72.3174V29.9883ZM165.567 19C169.968 19 173.007 21.2505 173.217 24.8086H168.921C168.711 23.5528 167.558 22.7148 165.306 22.7148C163.001 22.7149 161.796 23.5001 161.796 24.3896C161.796 25.1745 162.425 25.7501 164.729 26.0117L168.711 26.4824C171.802 26.8487 173.479 28.5756 173.531 31.5059C173.531 34.8023 170.754 37 165.725 37C160.224 36.9999 157.657 34.9593 157.447 31.0352H161.639C161.796 32.5001 162.949 33.2324 165.83 33.2324C168.292 33.2324 169.339 32.4479 169.34 31.5586C169.34 30.826 168.606 30.198 167.087 30.041L163.054 29.6221C159.439 29.2558 157.657 27.7908 157.657 24.8086C157.657 21.0936 160.329 19.0001 165.567 19ZM111.608 19C117.842 19.0001 121.091 22.8196 121.091 27.9473C121.091 33.1274 117.842 36.9472 111.608 36.9473C105.427 36.9473 102.179 33.1275 102.179 27.9473C102.179 22.8196 105.374 19 111.608 19ZM40.4131 19.4707C40.7797 19.4708 41.041 19.733 41.041 20.0469V36.5293H31.4541V33.7031C31.4542 33.2846 31.6644 32.7094 32.1357 32.3955L39.6797 27.8955C39.7844 27.8432 39.8886 27.7383 39.8887 27.5293C39.8887 27.2677 39.6789 27.0586 39.417 27.0586H31.4541L16.1572 36.5811H16V28.9414L31.2969 19.4707H40.4131ZM67.3398 36.5811H62.6777L61.5771 33.3896H54.2432L53.0908 36.5811H48.585L55.1865 19.4707H60.7393L67.3398 36.5811ZM101.445 23.1865H95.9443V36.5811H91.5957V23.1865H86.043V19.4707H101.445V23.1865ZM131.463 19.4707C137.645 19.4707 139.27 21.8781 139.27 27.8955C139.27 34.2791 137.592 36.5811 131.463 36.5811H123.448V19.4707H131.463ZM155.51 23.1865H146.079V26.0645H153.676V29.7793H146.079V32.8662H155.51V36.5811H141.731V19.4707H155.51V23.1865ZM180.079 26.4307L186.313 19.4707H191.5L183.537 28.1572L191.5 36.5811H185.999L180.079 30.0928V36.5811H175.731V19.4707H180.079V26.4307ZM111.608 22.8193C108.413 22.8193 106.631 24.808 106.631 27.9473C106.631 31.1391 108.36 33.1279 111.608 33.1279C114.856 33.1278 116.637 31.1914 116.585 27.9473C116.585 24.808 114.856 22.8194 111.608 22.8193ZM127.796 32.8662H131.254C133.926 32.8662 134.816 31.5058 134.816 27.8955C134.816 23.9188 133.978 23.1865 131.254 23.1865H127.796V32.8662ZM55.5527 29.7266H60.3203L57.9629 23.0293L55.5527 29.7266Z"></path>
</svg>
