<svg xmlns="http://www.w3.org/2000/svg" fill="none" viewBox="0 0 172 56" height="56" width="172">
<path fill="white" d="M11.8203 42H8.50879L17.0137 14.0361H20.333L11.8203 42ZM28.8379 42H25.5234L20.2314 24.5996H23.5459L27.1787 36.5537L34.0322 14.0361H37.3467L28.8379 42ZM146.562 42H143.145V14.0361H146.562V42ZM47.2148 41.9961H43.7979V14.0361H47.2148V41.9961ZM67.2627 41.9961H63.8467V14.0361H67.2627V41.9961ZM88.0068 14.0361C91.7132 14.0404 95.2669 15.5149 97.8877 18.1357C100.508 20.7565 101.982 24.3103 101.986 28.0166C101.986 30.7814 101.167 33.4843 99.6309 35.7832C98.0947 38.0822 95.9109 39.8745 93.3564 40.9326C90.8021 41.9906 87.991 42.2669 85.2793 41.7275C82.5676 41.1881 80.0771 39.8564 78.1221 37.9014C76.1671 35.9463 74.8354 33.4558 74.2959 30.7441C73.7565 28.0323 74.0327 25.2205 75.0908 22.666C76.1489 20.1116 77.9413 17.9287 80.2402 16.3926C82.5392 14.8564 85.2419 14.0361 88.0068 14.0361ZM121.962 14.0361C125.669 14.0394 129.223 15.5138 131.844 18.1348C134.465 20.7558 135.938 24.31 135.941 28.0166C135.941 30.7814 135.122 33.4843 133.586 35.7832C132.05 38.0822 129.866 39.8745 127.312 40.9326C124.757 41.9907 121.946 42.2669 119.234 41.7275C116.523 41.1881 114.031 39.8565 112.076 37.9014C110.121 35.9464 108.79 33.4556 108.251 30.7441C107.712 28.0323 107.988 25.2205 109.046 22.666C110.104 20.1116 111.896 17.9287 114.195 16.3926C116.494 14.8565 119.197 14.0361 121.962 14.0361ZM92.0947 18.1484C90.143 17.34 87.9948 17.1279 85.9229 17.54C83.851 17.9522 81.9478 18.9701 80.4541 20.4639C78.9604 21.9576 77.9434 23.8608 77.5312 25.9326C77.1191 28.0044 77.3304 30.1519 78.1387 32.1035C78.9471 34.0553 80.3167 35.7238 82.0732 36.8975C83.8297 38.071 85.8945 38.6973 88.0068 38.6973C90.8389 38.6951 93.554 37.569 95.5566 35.5664C97.5592 33.5638 98.6853 30.8487 98.6875 28.0166C98.6875 25.9041 98.0613 23.8385 96.8877 22.082C95.7141 20.3257 94.0462 18.9569 92.0947 18.1484ZM126.049 18.1484C124.097 17.3401 121.95 17.1279 119.878 17.54C117.806 17.9522 115.903 18.9701 114.409 20.4639C112.915 21.9576 111.898 23.8607 111.486 25.9326C111.074 28.0045 111.285 30.1519 112.094 32.1035C112.902 34.0552 114.271 35.7238 116.027 36.8975C117.784 38.0711 119.849 38.6973 121.962 38.6973C124.794 38.6951 127.509 37.569 129.512 35.5664C131.514 33.5638 132.64 30.8487 132.643 28.0166C132.643 25.9041 132.016 23.8385 130.843 22.082C129.669 20.3256 128.001 18.9569 126.049 18.1484ZM154.562 14.0361C157.093 14.0362 159.519 15.042 161.308 16.8311C163.097 18.6202 164.103 21.0469 164.103 23.5771C164.102 26.1072 163.097 28.5332 161.308 30.3223C159.519 32.1113 157.093 33.1171 154.562 33.1172H149.979V29.7939H154.562C156.184 29.7524 157.724 29.0792 158.856 27.918C159.988 26.7567 160.622 25.1989 160.622 23.5771C160.622 21.9553 159.989 20.3968 158.856 19.2354C157.724 18.0741 156.184 17.401 154.562 17.3594H149.979V14.0361H154.562ZM8.60645 31.4326H5.29199L0 14.0361H3.31543L8.60645 31.4326ZM60.4336 29.7285H50.627V26.3125H60.4336V29.7285ZM169.311 14.0391C169.71 13.9595 170.125 14.0012 170.502 14.1572C170.879 14.3133 171.201 14.577 171.428 14.916C171.654 15.2551 171.775 15.6546 171.775 16.0625C171.775 16.6092 171.558 17.1339 171.172 17.5205C170.785 17.9072 170.26 18.124 169.713 18.124C169.305 18.124 168.906 18.0029 168.567 17.7764C168.228 17.5498 167.964 17.2282 167.808 16.8516C167.652 16.4749 167.611 16.0601 167.69 15.6602C167.77 15.2601 167.966 14.8919 168.255 14.6035C168.543 14.3152 168.911 14.1187 169.311 14.0391ZM169.713 14.3818C169.494 14.3819 169.276 14.426 169.074 14.5107C168.872 14.5955 168.689 14.7197 168.535 14.876C168.382 15.0322 168.261 15.2175 168.18 15.4209C168.098 15.6246 168.058 15.8433 168.062 16.0625C168.05 16.2858 168.085 16.5091 168.163 16.7188C168.241 16.9284 168.361 17.1202 168.515 17.2822C168.669 17.4443 168.855 17.5739 169.061 17.6621C169.266 17.7502 169.487 17.7959 169.711 17.7959C169.935 17.7959 170.157 17.7503 170.362 17.6621C170.568 17.5739 170.753 17.4443 170.907 17.2822C171.061 17.1201 171.182 16.9285 171.26 16.7188C171.338 16.5091 171.371 16.2858 171.36 16.0625C171.365 15.8436 171.326 15.6254 171.245 15.4219C171.164 15.2182 171.043 15.0324 170.89 14.876C170.736 14.7197 170.553 14.5955 170.352 14.5107C170.15 14.4259 169.932 14.3818 169.713 14.3818ZM169.835 14.9473C169.927 14.944 170.019 14.9597 170.104 14.9922C170.19 15.0247 170.269 15.0735 170.336 15.1367C170.403 15.2 170.456 15.2762 170.493 15.3604C170.53 15.4444 170.549 15.5352 170.551 15.627C170.553 15.7614 170.512 15.8933 170.433 16.002C170.353 16.1103 170.241 16.1896 170.112 16.2285L170.608 17.168L170.145 17.1729L169.688 16.29H169.404V17.1729H168.997V14.9473H169.835ZM169.404 15.9648H169.854C169.877 15.9625 169.9 15.9574 169.923 15.9502C169.968 15.9357 170.01 15.9115 170.045 15.8799C170.08 15.8483 170.109 15.8098 170.128 15.7666C170.147 15.7233 170.157 15.6763 170.157 15.6289C170.157 15.5815 170.147 15.5345 170.128 15.4912C170.109 15.4479 170.08 15.4086 170.045 15.377C170.01 15.3454 169.968 15.3221 169.923 15.3076C169.9 15.3004 169.877 15.2953 169.854 15.293H169.404V15.9648Z"></path>
</svg>
