<svg xmlns="http://www.w3.org/2000/svg" fill="none" viewBox="0 0 254 56" height="56" width="254">
<path fill="white" d="M219.954 11C220.051 11.0007 220.147 11.0219 220.236 11.0605C220.326 11.0992 220.407 11.155 220.474 11.2256L236.325 27.1406C236.55 27.3672 236.678 27.6749 236.678 27.9951C236.678 28.3152 236.55 28.6221 236.325 28.8486L220.466 44.7832C220.399 44.852 220.318 44.907 220.229 44.9443C220.141 44.9816 220.046 45 219.95 45C219.81 45.0003 219.673 44.9611 219.554 44.8867C219.435 44.8124 219.339 44.7064 219.277 44.5801C219.218 44.4612 219.192 44.3279 219.204 44.1953C219.216 44.0626 219.265 43.9354 219.345 43.8291L227.299 32.8311L213.371 38.5439C213.277 38.5851 213.175 38.6075 213.072 38.6084C212.911 38.6075 212.755 38.5544 212.626 38.457C212.497 38.3596 212.404 38.2227 212.358 38.0674C212.312 37.9157 212.318 37.753 212.373 37.6045C212.428 37.4559 212.531 37.3291 212.665 37.2451L224.914 29.9824L203.347 28.7363C203.173 28.7058 203.016 28.6147 202.903 28.4795C202.79 28.3443 202.729 28.1736 202.729 27.9971C202.729 27.8204 202.79 27.6489 202.903 27.5137C203.016 27.3785 203.173 27.2873 203.347 27.2568L224.925 26.0146L212.673 18.752C212.539 18.6679 212.435 18.5412 212.38 18.3926C212.325 18.2441 212.32 18.0813 212.366 17.9297C212.411 17.775 212.504 17.6384 212.632 17.541C212.76 17.4437 212.916 17.3903 213.076 17.3887C213.18 17.3883 213.282 17.4122 213.375 17.457L227.306 23.1768L219.352 12.1826C219.272 12.0764 219.224 11.9498 219.212 11.8174C219.2 11.6848 219.226 11.5515 219.285 11.4326C219.345 11.3047 219.439 11.1955 219.558 11.1191C219.676 11.0429 219.814 11.0014 219.954 11ZM182.953 23.7256L186.732 33.3867L190.47 23.7256H194.08L187.76 39.0967C187.219 40.4126 186.537 41.3371 185.712 41.8701C184.752 42.4388 183.648 42.7167 182.534 42.6699H179.607V39.5576H182.542C183.035 39.5915 183.527 39.4782 183.955 39.2314C184.304 38.9742 184.564 38.6149 184.702 38.2031L185.001 37.501L179.343 23.7256H182.953ZM51.6543 23.7256V32.2949C51.604 33.0118 51.8321 33.7202 52.29 34.2725C52.5279 34.5084 52.8129 34.6918 53.126 34.8096C53.4389 34.9272 53.773 34.977 54.1064 34.9561C54.7898 34.9677 55.4579 34.7538 56.0088 34.3477C56.5783 33.91 57.0123 33.3191 57.2607 32.6436C57.5584 31.8524 57.7051 31.0116 57.6914 30.166V23.7256H61.2236V37.5273H57.6914V34.0098C57.3638 35.1207 56.7391 36.1206 55.8857 36.9004C55.0341 37.6219 53.9455 37.9993 52.832 37.959C52.1856 37.9895 51.5407 37.8728 50.9453 37.6182C50.3499 37.3634 49.8194 36.9767 49.3936 36.4873C48.5488 35.5214 48.126 34.1451 48.126 32.3584V23.7256H51.6543ZM88.5801 23.3047C89.489 23.3028 90.3949 23.4164 91.2754 23.6426C91.6693 23.7424 92.0568 23.8684 92.4346 24.0186L92.46 27.4561C91.8945 27.1825 91.3038 26.9648 90.6963 26.8066C90.0489 26.6413 89.3828 26.5601 88.7148 26.5635C87.904 26.5381 87.1006 26.7239 86.3828 27.1035C85.7736 27.4341 85.279 27.9433 84.9658 28.5635C84.6633 29.2092 84.5069 29.9143 84.5068 30.6279C84.5068 31.3416 84.6633 32.0466 84.9658 32.6924C85.2765 33.3115 85.772 33.8183 86.3828 34.1416C87.1203 34.5175 87.941 34.6997 88.7676 34.6709C89.4066 34.6723 90.0437 34.5991 90.666 34.4531C91.2876 34.3094 91.89 34.0913 92.46 33.8037L92.4346 37.1592C92.0608 37.283 91.7087 37.4075 91.3125 37.5352C90.8937 37.6675 90.4646 37.7661 90.0303 37.8311L90.0156 37.8242C89.5306 37.895 89.0409 37.9282 88.5508 37.9248C87.1531 37.9541 85.7693 37.6388 84.5215 37.0059C83.3971 36.4249 82.4615 35.5324 81.8262 34.4346C81.179 33.2917 80.8484 31.9952 80.8691 30.6807C80.8494 29.3569 81.176 28.0513 81.8154 26.8936C82.4431 25.7806 83.3721 24.8691 84.4951 24.2656C85.7527 23.6004 87.1591 23.2695 88.5801 23.3047ZM137.998 23.2939C139.104 23.2668 140.203 23.4827 141.217 23.9277C142.068 24.3037 142.794 24.9191 143.306 25.6992C143.799 26.4845 144.054 27.3986 144.035 28.3271V37.5156H140.551V34.5654C140.193 35.508 139.576 36.3299 138.771 36.9346L138.802 36.9453C137.955 37.5475 136.934 37.8538 135.897 37.8164C135.089 37.8337 134.289 37.6474 133.569 37.2754C132.926 36.9436 132.391 36.4343 132.025 35.8076C131.663 35.1689 131.478 34.4449 131.487 33.71C131.463 33.0746 131.599 32.4433 131.881 31.874C132.163 31.3049 132.583 30.8161 133.102 30.4521C134.182 29.6489 135.628 29.2735 137.497 29.2734H140.57V28.3271C140.577 28.0476 140.519 27.7703 140.401 27.5166C140.284 27.2629 140.11 27.039 139.894 26.8633C139.358 26.4553 138.695 26.2545 138.024 26.2969C137.099 26.2869 136.178 26.4378 135.304 26.7432C134.419 27.0681 133.576 27.4996 132.795 28.0273L132.687 24.7539C133.181 24.4523 133.7 24.1934 134.238 23.9805C134.817 23.7525 135.417 23.5798 136.028 23.4658C136.678 23.3481 137.338 23.2911 137.998 23.2939ZM38.7705 23.2939C39.8776 23.2664 40.9774 23.4824 41.9922 23.9277C42.8374 24.3062 43.5561 24.9214 44.0625 25.6992C44.5629 26.4825 44.8233 27.3967 44.8105 28.3271V37.5273H41.334V34.5771C40.9773 35.5204 40.36 36.3419 39.5547 36.9453C38.7142 37.5429 37.7022 37.8491 36.6729 37.8164C35.8629 37.8333 35.0614 37.6471 34.3408 37.2754C33.693 36.9448 33.1523 36.4356 32.7822 35.8076C32.4202 35.1689 32.2344 34.4449 32.2441 33.71C32.2203 33.0742 32.3559 32.4424 32.6387 31.873C32.9214 31.3039 33.3423 30.8154 33.8623 30.4521C34.9387 29.6665 36.4027 29.2735 38.2539 29.2734H41.3379V28.3271C41.3449 28.0478 41.2885 27.7704 41.1719 27.5166C41.0552 27.2628 40.8814 27.0392 40.665 26.8633C40.1295 26.4563 39.4662 26.2555 38.7959 26.2969C37.8702 26.2873 36.9497 26.438 36.0752 26.7432C35.1911 27.0689 34.3493 27.5003 33.5674 28.0273L33.4629 24.7539C33.9561 24.4531 34.4734 24.1941 35.0098 23.9805C35.5902 23.7525 36.1909 23.5798 36.8037 23.4658C37.4525 23.3482 38.1113 23.2912 38.7705 23.2939ZM120.042 18.4814C121.829 18.4294 123.6 18.8352 125.188 19.6602C126.577 20.4153 127.705 21.5762 128.422 22.9893C129.187 24.5576 129.565 26.2882 129.524 28.0342C129.568 29.7769 129.19 31.5048 128.422 33.0684C127.704 34.4739 126.576 35.626 125.188 36.3711C123.598 37.1875 121.828 37.5882 120.042 37.5352L112.749 37.5273V18.4814H120.042ZM73.4463 23.3047C74.0908 23.2763 74.734 23.393 75.3281 23.6455C75.9221 23.898 76.4525 24.2804 76.8809 24.7646C77.7355 25.7305 78.163 27.1071 78.1631 28.8936V37.5273H74.6045V28.9463C74.6541 28.2306 74.4272 27.5228 73.9697 26.9717C73.7313 26.7371 73.4458 26.5559 73.1328 26.4395C72.8198 26.323 72.4854 26.2749 72.1523 26.2969C71.4735 26.2835 70.809 26.4968 70.2646 26.9043C69.7009 27.3448 69.2716 27.9354 69.0244 28.6084C68.7267 29.3995 68.581 30.2404 68.5947 31.0859V37.5352L65.0654 37.5273V23.7256H68.5947V27.2539C68.9254 26.1492 69.5448 25.1537 70.3887 24.3711C71.2378 23.6418 72.3298 23.2607 73.4463 23.3047ZM99.1211 18.4736V27.2539C99.4517 26.1465 100.076 25.15 100.927 24.3711C101.782 23.6425 102.878 23.2617 103.999 23.3047C104.641 23.2756 105.282 23.3919 105.874 23.6445C106.466 23.8972 106.994 24.28 107.419 24.7646C108.264 25.7305 108.686 27.1071 108.687 28.8936V37.5273H105.157V28.9463C105.207 28.2306 104.98 27.5228 104.522 26.9717C104.28 26.7356 103.99 26.5539 103.673 26.4375C103.355 26.3211 103.017 26.2733 102.68 26.2969C102.007 26.2895 101.351 26.5025 100.811 26.9043C100.241 27.3419 99.8071 27.933 99.5586 28.6084C99.2609 29.3995 99.1152 30.2404 99.1289 31.0859V37.5352L95.6445 37.5273V18.4736H99.1211ZM20.959 18.4736V34.3066H30.4463V37.5273H17.3223V18.4736H20.959ZM154.74 23.5752C154.99 23.5724 155.239 23.5859 155.487 23.6162C155.72 23.6441 155.951 23.6933 156.175 23.7627V27.1523C155.704 27.0066 155.214 26.9345 154.722 26.9385C154.222 26.9192 153.724 27.0182 153.27 27.2275C152.815 27.4368 152.416 27.7508 152.104 28.1436C151.458 28.9431 151.137 30.1142 151.137 31.6455V37.5273H147.604V23.7256H151.137V27.0283C151.383 26.0862 151.861 25.2216 152.527 24.5137C152.813 24.214 153.157 23.9758 153.537 23.8145C153.918 23.6531 154.327 23.5717 154.74 23.5752ZM161.932 18.5078V28.6426L166.944 23.7256H171.362L165.599 29.4609L171.471 37.5273H167.321L163.21 31.8447L161.942 33.0605V37.5273H158.455V18.5078H161.932ZM177.171 18.4736V37.5273H173.664V18.4736H177.171ZM39.043 31.3564C38.2114 31.3041 37.3814 31.4815 36.6436 31.8701C36.3906 32.018 36.1821 32.2323 36.04 32.4893C35.8979 32.7463 35.8272 33.0372 35.8359 33.3311C35.8232 33.5704 35.8697 33.8091 35.9707 34.0264C36.0717 34.2437 36.224 34.4332 36.415 34.5771C36.8699 34.8915 37.4151 35.048 37.9668 35.0234C38.5986 35.0341 39.2192 34.8554 39.749 34.5098C40.2345 34.2054 40.6352 33.7813 40.9121 33.2783C41.1492 32.8563 41.2779 32.381 41.2861 31.8965V31.3564H39.043ZM138.271 31.3564C137.44 31.3037 136.609 31.481 135.871 31.8701C135.618 32.018 135.41 32.2323 135.268 32.4893C135.126 32.7462 135.056 33.0373 135.064 33.3311C135.051 33.5678 135.095 33.8043 135.194 34.0195C135.293 34.2347 135.444 34.422 135.632 34.5654L135.644 34.5771C136.097 34.8913 136.64 35.0479 137.19 35.0234C137.825 35.0355 138.449 34.8569 138.981 34.5098C139.465 34.2049 139.864 33.7808 140.14 33.2783C140.375 32.8556 140.504 32.3807 140.514 31.8965V31.3564H138.271ZM116.375 21.6943V34.3066H119.985C121.799 34.3091 123.224 33.7635 124.258 32.6699C125.292 31.5765 125.809 30.029 125.81 28.0273C125.807 26.0279 125.289 24.4724 124.258 23.3613C123.226 22.2503 121.802 21.6943 119.985 21.6943H116.375Z"></path>
</svg>
