<?xml version="1.0" encoding="UTF-8"?>
<svg xmlns="http://www.w3.org/2000/svg" xmlns:xlink="http://www.w3.org/1999/xlink" version="1.1" viewBox="0 0 400 200">
  <defs>
    <style>
      .cls-1 {
        fill: none;
      }

      .cls-2 {
        opacity: .2;
      }

      .cls-2, .cls-3, .cls-4 {
        fill: #fff;
      }

      .cls-3 {
        opacity: .8;
      }

      .cls-5 {
        fill: #ff5600;
      }

      .cls-6 {
        fill: #0e1522;
      }

      .cls-4 {
        fill-opacity: 0;
      }

      .cls-7 {
        clip-path: url(#clippath);
      }
    </style>
    <clipPath id="clippath">
      <rect class="cls-1" y="0" width="400" height="200"/>
    </clipPath>
  </defs>
  <!-- Generator: Adobe Illustrator 28.7.1, SVG Export Plug-In . SVG Version: 1.2.0 Build 142)  -->
  <g>
    <g id="Layer_1">
      <g class="cls-7">
        <g>
          <rect class="cls-6" y="0" width="400" height="200"/>
          <rect class="cls-4" x="16" y="16" width="2" height="2"/>
          <rect class="cls-4" x="38.9" y="16" width="2" height="2"/>
          <rect class="cls-4" x="61.8" y="16" width="2" height="2"/>
          <rect class="cls-4" x="84.6" y="16" width="2" height="2"/>
          <rect class="cls-4" x="107.5" y="16" width="2" height="2"/>
          <rect class="cls-4" x="130.4" y="16" width="2" height="2"/>
          <rect class="cls-4" x="153.2" y="16" width="2" height="2"/>
          <rect class="cls-4" x="176.1" y="16" width="2" height="2"/>
          <rect class="cls-4" x="199" y="16" width="2" height="2"/>
          <rect class="cls-4" x="221.9" y="16" width="2" height="2"/>
          <rect class="cls-4" x="244.8" y="16" width="2" height="2"/>
          <rect class="cls-4" x="267.6" y="16" width="2" height="2"/>
          <rect class="cls-4" x="290.5" y="16" width="2" height="2"/>
          <rect class="cls-4" x="313.4" y="16" width="2" height="2"/>
          <rect class="cls-4" x="336.2" y="16" width="2" height="2"/>
          <rect class="cls-4" x="359.1" y="16" width="2" height="2"/>
          <rect class="cls-4" x="382" y="16" width="2" height="2"/>
          <rect class="cls-4" x="16" y="39.7" width="2" height="2"/>
          <rect class="cls-4" x="38.9" y="39.7" width="2" height="2"/>
          <rect class="cls-4" x="61.8" y="39.7" width="2" height="2"/>
          <rect class="cls-4" x="84.6" y="39.7" width="2" height="2"/>
          <rect class="cls-4" x="107.5" y="39.7" width="2" height="2"/>
          <rect class="cls-4" x="130.4" y="39.7" width="2" height="2"/>
          <rect class="cls-4" x="153.2" y="39.7" width="2" height="2"/>
          <rect class="cls-4" x="176.1" y="39.7" width="2" height="2"/>
          <rect class="cls-4" x="199" y="39.7" width="2" height="2"/>
          <rect class="cls-4" x="221.9" y="39.7" width="2" height="2"/>
          <rect class="cls-4" x="244.8" y="39.7" width="2" height="2"/>
          <rect class="cls-4" x="267.6" y="39.7" width="2" height="2"/>
          <rect class="cls-4" x="290.5" y="39.7" width="2" height="2"/>
          <rect class="cls-4" x="313.4" y="39.7" width="2" height="2"/>
          <rect class="cls-4" x="336.2" y="39.7" width="2" height="2"/>
          <rect class="cls-4" x="359.1" y="39.7" width="2" height="2"/>
          <rect class="cls-4" x="382" y="39.7" width="2" height="2"/>
          <rect class="cls-4" x="16" y="63.4" width="2" height="2"/>
          <rect class="cls-4" x="38.9" y="63.4" width="2" height="2"/>
          <rect class="cls-4" x="61.8" y="63.4" width="2" height="2"/>
          <rect class="cls-4" x="84.6" y="63.4" width="2" height="2"/>
          <rect class="cls-4" x="107.5" y="63.4" width="2" height="2"/>
          <rect class="cls-4" x="130.4" y="63.4" width="2" height="2"/>
          <rect class="cls-4" x="153.2" y="63.4" width="2" height="2"/>
          <rect class="cls-4" x="176.1" y="63.4" width="2" height="2"/>
          <rect class="cls-4" x="199" y="63.4" width="2" height="2"/>
          <rect class="cls-4" x="221.9" y="63.4" width="2" height="2"/>
          <rect class="cls-4" x="244.8" y="63.4" width="2" height="2"/>
          <rect class="cls-4" x="267.6" y="63.4" width="2" height="2"/>
          <rect class="cls-4" x="290.5" y="63.4" width="2" height="2"/>
          <rect class="cls-4" x="313.4" y="63.4" width="2" height="2"/>
          <rect class="cls-4" x="336.2" y="63.4" width="2" height="2"/>
          <rect class="cls-4" x="359.1" y="63.4" width="2" height="2"/>
          <rect class="cls-4" x="382" y="63.4" width="2" height="2"/>
          <rect class="cls-4" x="16" y="87.1" width="2" height="2"/>
          <rect class="cls-4" x="38.9" y="87.1" width="2" height="2"/>
          <rect class="cls-4" x="61.8" y="87.1" width="2" height="2"/>
          <rect class="cls-4" x="84.6" y="87.1" width="2" height="2"/>
          <rect class="cls-4" x="107.5" y="87.1" width="2" height="2"/>
          <rect class="cls-4" x="130.4" y="87.1" width="2" height="2"/>
          <rect class="cls-4" x="153.2" y="87.1" width="2" height="2"/>
          <rect class="cls-4" x="176.1" y="87.1" width="2" height="2"/>
          <rect class="cls-4" x="199" y="87.1" width="2" height="2"/>
          <rect class="cls-4" x="221.9" y="87.1" width="2" height="2"/>
          <rect class="cls-4" x="244.8" y="87.1" width="2" height="2"/>
          <rect class="cls-4" x="267.6" y="87.1" width="2" height="2"/>
          <rect class="cls-4" x="290.5" y="87.1" width="2" height="2"/>
          <rect class="cls-4" x="313.4" y="87.1" width="2" height="2"/>
          <rect class="cls-4" x="336.2" y="87.1" width="2" height="2"/>
          <rect class="cls-4" x="359.1" y="87.1" width="2" height="2"/>
          <rect class="cls-4" x="382" y="87.1" width="2" height="2"/>
          <rect class="cls-4" x="16" y="110.9" width="2" height="2"/>
          <rect class="cls-4" x="38.9" y="110.9" width="2" height="2"/>
          <rect class="cls-4" x="61.8" y="110.9" width="2" height="2"/>
          <rect class="cls-4" x="84.6" y="110.9" width="2" height="2"/>
          <rect class="cls-4" x="107.5" y="110.9" width="2" height="2"/>
          <rect class="cls-4" x="130.4" y="110.9" width="2" height="2"/>
          <rect class="cls-4" x="153.2" y="110.9" width="2" height="2"/>
          <rect class="cls-4" x="176.1" y="110.9" width="2" height="2"/>
          <rect class="cls-4" x="199" y="110.9" width="2" height="2"/>
          <rect class="cls-4" x="221.9" y="110.9" width="2" height="2"/>
          <rect class="cls-4" x="244.8" y="110.9" width="2" height="2"/>
          <rect class="cls-4" x="267.6" y="110.9" width="2" height="2"/>
          <rect class="cls-4" x="290.5" y="110.9" width="2" height="2"/>
          <rect class="cls-4" x="313.4" y="110.9" width="2" height="2"/>
          <rect class="cls-4" x="336.2" y="110.9" width="2" height="2"/>
          <rect class="cls-4" x="359.1" y="110.9" width="2" height="2"/>
          <rect class="cls-4" x="382" y="110.9" width="2" height="2"/>
          <rect class="cls-4" x="16" y="134.6" width="2" height="2"/>
          <rect class="cls-4" x="38.9" y="134.6" width="2" height="2"/>
          <rect class="cls-4" x="61.8" y="134.6" width="2" height="2"/>
          <rect class="cls-4" x="84.6" y="134.6" width="2" height="2"/>
          <rect class="cls-4" x="107.5" y="134.6" width="2" height="2"/>
          <rect class="cls-4" x="130.4" y="134.6" width="2" height="2"/>
          <rect class="cls-4" x="153.2" y="134.6" width="2" height="2"/>
          <rect class="cls-4" x="176.1" y="134.6" width="2" height="2"/>
          <rect class="cls-4" x="199" y="134.6" width="2" height="2"/>
          <rect class="cls-4" x="221.9" y="134.6" width="2" height="2"/>
          <rect class="cls-4" x="244.8" y="134.6" width="2" height="2"/>
          <rect class="cls-4" x="267.6" y="134.6" width="2" height="2"/>
          <rect class="cls-4" x="290.5" y="134.6" width="2" height="2"/>
          <rect class="cls-4" x="313.4" y="134.6" width="2" height="2"/>
          <rect class="cls-4" x="336.2" y="134.6" width="2" height="2"/>
          <rect class="cls-4" x="359.1" y="134.6" width="2" height="2"/>
          <rect class="cls-4" x="382" y="134.6" width="2" height="2"/>
          <rect class="cls-4" x="16" y="158.3" width="2" height="2"/>
          <rect class="cls-4" x="38.9" y="158.3" width="2" height="2"/>
          <rect class="cls-4" x="61.8" y="158.3" width="2" height="2"/>
          <rect class="cls-4" x="84.6" y="158.3" width="2" height="2"/>
          <rect class="cls-4" x="107.5" y="158.3" width="2" height="2"/>
          <rect class="cls-4" x="130.4" y="158.3" width="2" height="2"/>
          <rect class="cls-4" x="153.2" y="158.3" width="2" height="2"/>
          <rect class="cls-4" x="176.1" y="158.3" width="2" height="2"/>
          <rect class="cls-4" x="199" y="158.3" width="2" height="2"/>
          <rect class="cls-4" x="221.9" y="158.3" width="2" height="2"/>
          <rect class="cls-4" x="244.8" y="158.3" width="2" height="2"/>
          <rect class="cls-4" x="267.6" y="158.3" width="2" height="2"/>
          <rect class="cls-4" x="290.5" y="158.3" width="2" height="2"/>
          <rect class="cls-4" x="313.4" y="158.3" width="2" height="2"/>
          <rect class="cls-4" x="336.2" y="158.3" width="2" height="2"/>
          <rect class="cls-4" x="359.1" y="158.3" width="2" height="2"/>
          <rect class="cls-4" x="382" y="158.3" width="2" height="2"/>
          <rect class="cls-4" x="16" y="182" width="2" height="2"/>
          <rect class="cls-4" x="38.9" y="182" width="2" height="2"/>
          <rect class="cls-4" x="61.8" y="182" width="2" height="2"/>
          <rect class="cls-4" x="84.6" y="182" width="2" height="2"/>
          <rect class="cls-4" x="107.5" y="182" width="2" height="2"/>
          <rect class="cls-4" x="130.4" y="182" width="2" height="2"/>
          <rect class="cls-4" x="153.2" y="182" width="2" height="2"/>
          <rect class="cls-4" x="176.1" y="182" width="2" height="2"/>
          <rect class="cls-4" x="199" y="182" width="2" height="2"/>
          <rect class="cls-4" x="221.9" y="182" width="2" height="2"/>
          <rect class="cls-4" x="244.8" y="182" width="2" height="2"/>
          <rect class="cls-4" x="267.6" y="182" width="2" height="2"/>
          <rect class="cls-4" x="290.5" y="182" width="2" height="2"/>
          <rect class="cls-4" x="313.4" y="182" width="2" height="2"/>
          <rect class="cls-4" x="336.2" y="182" width="2" height="2"/>
          <rect class="cls-4" x="359.1" y="182" width="2" height="2"/>
          <rect class="cls-4" x="382" y="182" width="2" height="2"/>
          <path class="cls-2" d="M133,106h-1v-2h1v2ZM133,100h-1v-4h1v4ZM133,92h-1v-4h1v4ZM133,84h-1v-4h1v4ZM133,76h-1v-4h1v4ZM133,68h-1v-4h1v4ZM133,60h-1v-4h1v4ZM133,52h-1v-4h1v4ZM133,44h-1v-4h1v4Z"/>
          <circle class="cls-5" cx="132.5" cy="115" r="4"/>
          <rect class="cls-3" x="132" y="124" width="1" height="36"/>
          <path class="cls-2" d="M167,113h-1v-1h1v1ZM167,108h-1v-4h1v4ZM167,100h-1v-4h1v4ZM167,92h-1v-4h1v4ZM167,84h-1v-4h1v4ZM167,76h-1v-4h1v4ZM167,68h-1v-4h1v4ZM167,60h-1v-4h1v4ZM167,52h-1v-4h1v4ZM167,44h-1v-4h1v4Z"/>
          <circle class="cls-5" cx="166.5" cy="122" r="4"/>
          <rect class="cls-3" x="166" y="131" width="1" height="29"/>
          <path class="cls-2" d="M201,82h-1v-2h1v2ZM201,76h-1v-4h1v4ZM201,68h-1v-4h1v4ZM201,60h-1v-4h1v4ZM201,52h-1v-4h1v4ZM201,44h-1v-4h1v4Z"/>
          <circle class="cls-5" cx="200.5" cy="91" r="4"/>
          <rect class="cls-3" x="200" y="100" width="1" height="60"/>
          <path class="cls-2" d="M235,52h-1v-4h1v4ZM235,44h-1v-4h1v4Z"/>
          <circle class="cls-5" cx="234.5" cy="64" r="4"/>
          <rect class="cls-3" x="234" y="73" width="1" height="87"/>
          <path class="cls-2" d="M269,100h-1v-4h1v4ZM269,92h-1v-4h1v4ZM269,84h-1v-4h1v4ZM269,76h-1v-4h1v4ZM269,68h-1v-4h1v4ZM269,60h-1v-4h1v4ZM269,52h-1v-4h1v4ZM269,44h-1v-4h1v4Z"/>
          <circle class="cls-5" cx="268.5" cy="110" r="4"/>
          <rect class="cls-3" x="268" y="119" width="1" height="41"/>
        </g>
      </g>
    </g>
  </g>
</svg>