<svg xmlns="http://www.w3.org/2000/svg" fill="none" viewBox="0 0 486 718" class="absolute inset-0 -mx-12 h-full w-[calc(100%+92px)]"><mask id="ai-engine-grid_svg__a" width="483" height="718" x="1" y="0" maskunits="userSpaceOnUse" style="mask-type:alpha"><path fill="#fff" d="M49 54h387v610H49z"></path></mask><g stroke="#fff" filter="url(#ai-engine-grid_svg__b)" mask="url(#ai-engine-grid_svg__a)"><path stroke-opacity="0.1" d="M1.5 25.5v672"></path><path stroke-opacity="0.05" d="M25.65 25.5v672M49.8 25.5v672M73.95 25.5v672"></path><path stroke-opacity="0.1" d="M98.1 25.5v672"></path><path stroke-opacity="0.05" d="M122.25 25.5v672M146.4 25.5v672M170.55 25.5v672"></path><path stroke-opacity="0.1" d="M194.7 25.5v672"></path><path stroke-opacity="0.05" d="M218.85 25.5v672M243 25.5v672M267.15 25.5v672"></path><path stroke-opacity="0.1" d="M291.3 25.5v672"></path><path stroke-opacity="0.05" d="M315.45 25.5v672M339.6 25.5v672M363.75 25.5v672"></path><path stroke-opacity="0.1" d="M387.9 25.5v672"></path><path stroke-opacity="0.05" d="M412.05 25.5v672M436.2 25.5v672M460.35 25.5v672"></path><path stroke-opacity="0.1" d="M1 25h483"></path><path stroke-opacity="0.05" d="M1 49h483M1 73h483M1 97h483"></path><path stroke-opacity="0.1" d="M1 121h483"></path><path stroke-opacity="0.05" d="M1 145h483M1 169h483M1 193h483"></path><path stroke-opacity="0.1" d="M1 217h483"></path><path stroke-opacity="0.05" d="M1 241h483M1 265h483M1 289h483"></path><path stroke-opacity="0.1" d="M1 313h483"></path><path stroke-opacity="0.05" d="M1 337h483M1 361h483M1 385h483"></path><path stroke-opacity="0.1" d="M1 409h483"></path><path stroke-opacity="0.05" d="M1 433h483M1 457h483M1 481h483"></path><path stroke-opacity="0.1" d="M1 505h483"></path><path stroke-opacity="0.05" d="M1 529h483M1 553h483M1 577h483"></path><path stroke-opacity="0.1" d="M1 601h483"></path><path stroke-opacity="0.05" d="M1 625h483M1 649h483M1 673h483"></path><path stroke-opacity="0.1" d="M1 697h483"></path></g><defs><filter id="ai-engine-grid_svg__b" width="486" height="675" x="0" y="23.5" color-interpolation-filters="sRGB" filterunits="userSpaceOnUse"><feflood flood-opacity="0" result="BackgroundImageFix"></feflood><feblend in="SourceGraphic" in2="BackgroundImageFix" result="shape"></feblend><feturbulence basefrequency="1 1" numoctaves="3" seed="127" type="fractalNoise"></feturbulence><fedisplacementmap width="100%" height="100%" in="shape" result="displacedImage" scale="2" xchannelselector="R" ychannelselector="G"></fedisplacementmap><femerge result="effect1_texture_3614_532"><femergenode in="displacedImage"></femergenode></femerge></filter></defs></svg>