<svg xmlns="http://www.w3.org/2000/svg" fill="none" viewBox="0 0 58 58" class="h-8 w-8 lg:h-9 lg:w-9" aria-hidden="true"><path fill="currentColor" d="M53.254.102c-.33 0-.65.132-.884.366L38.246 14.592c-.602.601-1.615.018-1.393-.806l3.245-12.112A1.25 1.25 0 0 0 38.89.1h-4.965c-.565 0-1.06.38-1.208.926l-2.49 9.29a3.34 3.34 0 0 0 0 1.725l1.786 6.668a10.28 10.28 0 0 0 7.266 7.266l6.668 1.787c.565.15 1.16.15 1.724 0l9.291-2.49a1.25 1.25 0 0 0 .926-1.209v-4.967c0-.82-.775-1.417-1.567-1.204L44.2 21.14c-.822.22-1.406-.792-.804-1.394L57.522 5.62c.234-.234.366-.553.366-.884A4.63 4.63 0 0 0 53.254.102m0 57.789c-.33 0-.65-.132-.884-.365L38.246 43.401c-.602-.602-1.615-.019-1.393.805l3.245 12.113a1.25 1.25 0 0 1-1.208 1.574h-4.965c-.565 0-1.06-.38-1.208-.926l-2.49-9.291a3.35 3.35 0 0 1 0-1.725l1.786-6.668a10.28 10.28 0 0 1 7.266-7.266l6.668-1.787a3.35 3.35 0 0 1 1.724 0l9.291 2.491c.546.146.926.641.926 1.208v4.967c0 .82-.775 1.417-1.567 1.204L44.2 36.854c-.822-.22-1.406.791-.804 1.393l14.126 14.126c.234.234.366.553.366.884a4.64 4.64 0 0 1-4.64 4.641zM4.746.102c.331 0 .65.132.884.366l14.124 14.124c.602.601 1.616.018 1.394-.806L17.903 1.674A1.25 1.25 0 0 1 19.11.102h4.965c.564 0 1.06.38 1.208.926l2.49 9.29c.15.566.15 1.16 0 1.725l-1.787 6.669a10.28 10.28 0 0 1-7.265 7.265l-6.669 1.787a3.35 3.35 0 0 1-1.724 0l-9.29-2.49a1.24 1.24 0 0 1-.934-1.204v-4.967c0-.82.778-1.42 1.57-1.206l12.117 3.247c.824.22 1.407-.791.803-1.393L.471 5.627a1.26 1.26 0 0 1-.366-.884A4.64 4.64 0 0 1 4.746.103Zm0 57.789c.331 0 .65-.132.884-.366l14.124-14.123c.602-.602 1.616-.019 1.394.805L17.903 56.32a1.25 1.25 0 0 0 1.208 1.574h4.965c.564 0 1.06-.38 1.208-.925l2.49-9.291a3.35 3.35 0 0 0 0-1.725l-1.787-6.668a10.28 10.28 0 0 0-7.265-7.266l-6.669-1.787a3.35 3.35 0 0 0-1.724 0l-9.29 2.491a1.24 1.24 0 0 0-.934 1.201v4.967c0 .82.778 1.42 1.57 1.206l12.117-3.247c.824-.22 1.407.792.803 1.393L.471 52.368a1.25 1.25 0 0 0-.366.885 4.64 4.64 0 0 0 4.641 4.64z"></path></svg>