<svg xmlns="http://www.w3.org/2000/svg" viewBox="0 0 24 24" fill="none">
  <rect width="24" height="24" rx="5" fill="#286EFA"/>
  <path d="M17.5 14.2c-.2 0-.4-.1-.5-.3-.6-1-2.4-1.7-5-1.7s-4.4.7-5 1.7c-.2.3-.5.4-.8.2-.3-.2-.4-.5-.2-.8.8-1.3 2.9-2.1 6-2.1s5.2.8 6 2.1c.2.3.1.6-.2.8-.1.1-.2.1-.3.1z" fill="#fff"/>
  <path d="M7 7.5v4c0 .3-.2.5-.5.5s-.5-.2-.5-.5v-4c0-.3.2-.5.5-.5s.5.2.5.5zM10 6.5v5c0 .3-.2.5-.5.5s-.5-.2-.5-.5v-5c0-.3.2-.5.5-.5s.5.2.5.5zM13 6v5.5c0 .3-.2.5-.5.5s-.5-.2-.5-.5V6c0-.3.2-.5.5-.5s.5.2.5.5zM16 6.5v5c0 .3-.2.5-.5.5s-.5-.2-.5-.5v-5c0-.3.2-.5.5-.5s.5.2.5.5zM19 7.5v4c0 .3-.2.5-.5.5s-.5-.2-.5-.5v-4c0-.3.2-.5.5-.5s.5.2.5.5z" fill="#fff"/>
</svg>
